<svg width="255" height="90" viewBox="0 0 255 90" fill="none" xmlns="http://www.w3.org/2000/svg">
<path d="M28.7162 0C34.8029 0 36.7155 4.36614 38.3201 8.72544C38.9942 10.5766 54.8115 53.8959 55.2871 55.1961C55.4137 55.5588 55.3281 56.1542 54.7704 56.3698C54.2093 56.5819 45.991 59.7778 45.536 59.9489C45.0809 60.1234 44.5711 59.8702 44.4069 59.4151C44.2358 58.9669 40.8246 49.5229 40.4414 48.469H16.9977C16.6282 49.5229 13.176 58.9874 13.022 59.4151C12.8646 59.8497 12.3753 60.144 11.8895 59.9489C11.4037 59.7573 3.15457 56.5614 2.66188 56.3698C2.18972 56.185 1.97417 55.6478 2.1384 55.1961C2.72004 53.5742 18.2979 10.9496 19.0916 8.72544C20.6381 4.43115 22.6157 0 28.7162 0ZM0.886153 77.5127C0.393465 77.5127 0 77.9233 0 78.4229V88.5478C0 89.0474 0.393465 89.4512 0.886153 89.4512H56.5222C57.0252 89.4512 57.4186 89.0474 57.4186 88.5478V78.4229C57.4186 77.9233 57.0252 77.5127 56.5222 77.5127H0.886153ZM28.6614 14.1455L20.7374 37.9437H36.7155L28.764 14.1455H28.6614ZM147.567 53.167C146.4 53.5605 145.63 53.6563 144.713 53.6563C142.818 53.6563 141.767 52.907 141.767 50.9634C141.767 48.9377 143.102 48.2602 145.723 48.2602C146.362 48.2602 146.992 48.3526 147.286 48.4553V49.9061C147.286 51.4698 147.372 52.4964 147.567 53.167ZM154.304 55.487C152.904 53.3621 152.538 52.1097 152.538 49.4305V43.9899C152.538 41.0609 152.196 40.0036 151.423 38.936C150.345 37.4236 148.549 36.7666 145.247 36.7666C142.91 36.7666 140.642 37.0198 138.445 37.581L139.239 41.4476C140.724 41.2388 142.281 41.0609 143.379 41.0609C146.886 41.0609 147.286 41.5673 147.286 44.1986V45.1807C146.506 44.972 145.63 44.8214 144.614 44.8214C139.335 44.8214 136.546 47.4048 136.546 51.682C136.546 55.6923 139.526 57.8788 143.157 57.8788C144.511 57.8788 145.928 57.629 147.05 57.1705C147.728 56.8762 148.022 56.7017 148.898 56.1337C149.425 56.9001 150.482 57.6837 150.913 57.8309L154.304 55.487ZM206.525 53.167C205.351 53.5605 204.595 53.6563 203.672 53.6563C201.769 53.6563 200.705 52.907 200.705 50.9634C200.705 48.9377 202.057 48.2602 204.684 48.2602C205.324 48.2602 205.957 48.3526 206.244 48.4553V49.9061C206.244 51.4698 206.327 52.4964 206.525 53.167ZM213.269 55.487C211.859 53.3621 211.5 52.1097 211.5 49.4305V43.9899C211.5 41.0609 211.151 40.0036 210.371 38.936C209.307 37.4236 207.507 36.7666 204.195 36.7666C201.862 36.7666 199.579 37.0198 197.383 37.581L198.166 41.4476C199.655 41.2388 201.215 41.0609 202.344 41.0609C205.83 41.0609 206.244 41.5673 206.244 44.1986V45.1807C205.464 44.972 204.595 44.8214 203.559 44.8214C198.272 44.8214 195.474 47.4048 195.474 51.682C195.474 55.6923 198.461 57.8788 202.108 57.8788C203.48 57.8788 204.883 57.629 205.995 57.1705C206.682 56.8762 206.966 56.7017 207.842 56.1337C208.376 56.9001 209.433 57.6837 209.868 57.8309L213.269 55.487ZM254.374 57.4237C254.374 57.4237 251.479 51.2543 250.771 49.8514C249.974 48.2705 249.235 47.179 247.606 46.7855V46.6965C248.698 46.4878 249.567 45.8274 250.518 43.8086C251.418 41.8411 251.685 41.4168 252.215 40.948C252.735 40.4826 253.447 40.6503 253.447 40.6503L253.714 37.013C252.957 36.9103 252.119 36.9069 251.253 36.9548C249.816 37.0404 249.074 37.4544 248.366 38.1661C247.812 38.7102 247.435 39.5245 246.97 40.4587C246.477 41.4784 246.087 42.2996 245.574 43.3364C245.064 44.4005 244.825 44.8796 243.453 44.8796H242.56V28.7666H237.273V57.4237H242.56V49.1841L243.282 49.1704C244.797 49.1704 245.064 49.5502 245.865 51.1482C246.802 53.0541 248.598 57.4237 248.598 57.4237H254.374ZM105.459 57.4237H111.559L102.332 29.2456C101.36 28.9206 100.159 28.7187 98.8762 28.7187C97.4768 28.7187 96.9773 28.9034 95.8825 29.2456L86.1177 57.4237H91.9717C91.9717 57.4237 92.7621 54.9532 93.6927 51.8907H103.807C104.71 54.9497 105.459 57.4237 105.459 57.4237ZM95.1776 47.1653C95.1776 47.1653 96.8678 41.5091 97.1313 40.6298C97.8019 38.3509 98.8215 34.7307 98.8215 34.7307H98.9891C98.9891 34.7307 99.9334 38.4809 100.549 40.5887C100.782 41.427 102.397 47.1653 102.397 47.1653H95.1776ZM163.309 43.942C161.444 43.942 159.928 45.4647 159.928 47.3295C159.928 49.2081 161.444 50.7205 163.309 50.7205C165.177 50.7205 166.686 49.2081 166.686 47.3295C166.686 45.4647 165.177 43.942 163.309 43.942ZM118.803 28.7666H113.503V57.4202H118.803V28.7666ZM224.098 41.321C227.026 41.3825 227.389 41.9882 227.389 44.445V57.4237H232.641V43.9899C232.641 41.0609 232.299 40.0036 231.519 38.936C230.441 37.4236 228.323 36.7666 224.741 36.7666C221.196 36.7666 218.938 37.143 216.033 38.0087V57.4237H221.34V41.5673C222.732 41.3654 222.979 41.321 224.098 41.321ZM131.91 28.2567C128.598 28.2567 126.795 28.9137 125.735 30.4227C124.954 31.4937 124.609 32.575 124.609 35.5108V38.0087H121.978V42.2927H124.609V57.4237H129.864L129.851 42.2927H135.089V38.0087H129.851L129.864 35.7127C129.864 33.0848 130.265 32.575 133.775 32.575C134.155 32.575 134.582 32.5955 135.037 32.6297L135.865 28.5134C134.569 28.3423 133.241 28.2567 131.91 28.2567ZM174.076 28.5236C175.879 28.4176 179.91 28.267 182.438 28.267C182.9 28.267 183.379 28.2704 183.858 28.2944C188.829 28.2944 191.679 31.9146 191.679 36.1644C191.679 39.0558 190.355 40.9754 187.252 42.1182C190.903 42.9258 192.815 45.7761 192.815 49.2628C192.815 51.8223 192.093 53.8548 190.769 55.2406C189.052 56.9309 186.451 57.8788 182.989 57.8788C179.91 57.8788 176.043 57.783 174.076 57.6666V28.5236ZM182.438 33.2183C181.562 33.2183 180.478 33.2354 179.403 33.273V40.1541H182.441C183.646 40.1541 184.614 39.8188 185.274 39.1721C185.904 38.563 186.232 37.7007 186.232 36.6776C186.232 34.4775 185.042 33.232 182.828 33.2183H182.438ZM182.548 52.9378H182.777C185.538 52.9378 187.228 51.4698 187.249 48.5135C187.221 47.4527 186.814 46.4741 186.085 45.7658C185.288 44.9651 184.159 44.5477 182.835 44.5477H179.403V52.907C180.371 52.9275 181.439 52.9309 182.548 52.9378Z" fill="#EE2A23"/>
</svg>
