<svg width="176" height="176" viewBox="0 0 176 176" fill="none" xmlns="http://www.w3.org/2000/svg">
<g clip-path="url(#clip0)">
<rect x="20.3076" y="52.4912" width="124.347" height="75.5649" rx="7.34441" transform="rotate(-15 20.3076 52.4912)" fill="white"/>
<rect x="24.5166" y="68.1982" width="124.347" height="16.2608" transform="rotate(-15 24.5166 68.1982)" fill="#EFF2F3"/>
<g filter="url(#filter0_d)">
<rect x="20.3154" y="58.0684" width="124.347" height="75.5649" rx="7.34441" fill="white"/>
</g>
<rect x="20.3154" y="74.3291" width="124.347" height="16.2608" fill="#EFF2F3"/>
<rect x="27.9678" y="118.329" width="15.5926" height="5.73911" rx="2.86955" fill="#ADE1FF"/>
<rect x="47.2939" y="118.329" width="29.6521" height="5.73911" rx="2.86955" fill="#ADE1FF"/>
<circle cx="117.817" cy="131.793" r="17.1299" fill="url(#paint0_linear)"/>
<path d="M109.993 127.185C109.993 126.134 110.334 125.283 111.016 124.632C111.699 123.974 112.592 123.645 113.698 123.645C114.819 123.645 115.721 123.97 116.403 124.621C117.085 125.264 117.426 126.138 117.426 127.244V128.09C117.426 129.149 117.085 130 116.403 130.643C115.721 131.285 114.827 131.607 113.722 131.607C112.608 131.607 111.706 131.285 111.016 130.643C110.334 129.992 109.993 129.117 109.993 128.02V127.185ZM112.251 128.09C112.251 128.561 112.385 128.941 112.651 129.231C112.926 129.513 113.282 129.655 113.722 129.655C114.161 129.655 114.51 129.51 114.768 129.219C115.027 128.929 115.156 128.541 115.156 128.055V127.185C115.156 126.714 115.027 126.334 114.768 126.044C114.51 125.754 114.153 125.609 113.698 125.609C113.267 125.609 112.918 125.754 112.651 126.044C112.385 126.326 112.251 126.722 112.251 127.232V128.09ZM118.179 136.817C118.179 135.759 118.524 134.908 119.214 134.265C119.904 133.614 120.798 133.289 121.896 133.289C123.009 133.289 123.907 133.61 124.589 134.253C125.279 134.888 125.624 135.767 125.624 136.888V137.735C125.624 138.785 125.287 139.636 124.613 140.287C123.938 140.93 123.04 141.251 121.919 141.251C120.79 141.251 119.884 140.926 119.202 140.275C118.52 139.624 118.179 138.762 118.179 137.688V136.817ZM120.437 137.735C120.437 138.166 120.578 138.534 120.861 138.84C121.143 139.146 121.496 139.299 121.919 139.299C122.876 139.299 123.354 138.77 123.354 137.711V136.817C123.354 136.347 123.221 135.97 122.954 135.688C122.688 135.398 122.335 135.253 121.896 135.253C121.457 135.253 121.104 135.398 120.837 135.688C120.571 135.97 120.437 136.359 120.437 136.853V137.735ZM114.392 139.734L112.734 138.84L121.096 125.456L122.754 126.35L114.392 139.734Z" fill="white"/>
</g>
<defs>
<filter id="filter0_d" x="-18.3279" y="32.4571" width="190.974" height="142.191" filterUnits="userSpaceOnUse" color-interpolation-filters="sRGB">
<feFlood flood-opacity="0" result="BackgroundImageFix"/>
<feColorMatrix in="SourceAlpha" type="matrix" values="0 0 0 0 0 0 0 0 0 0 0 0 0 0 0 0 0 0 127 0"/>
<feOffset dx="-5.33012" dy="7.70202"/>
<feGaussianBlur stdDeviation="16.6566"/>
<feColorMatrix type="matrix" values="0 0 0 0 0.430451 0 0 0 0 0.45449 0 0 0 0 0.670833 0 0 0 0.28 0"/>
<feBlend mode="normal" in2="BackgroundImageFix" result="effect1_dropShadow"/>
<feBlend mode="normal" in="SourceGraphic" in2="effect1_dropShadow" result="shape"/>
</filter>
<linearGradient id="paint0_linear" x1="117.817" y1="114.663" x2="117.817" y2="148.923" gradientUnits="userSpaceOnUse">
<stop stop-color="#9EEDBF"/>
<stop offset="1" stop-color="#BBEDD0" stop-opacity="0.17"/>
</linearGradient>
<clipPath id="clip0">
<rect width="176" height="176" fill="white"/>
</clipPath>
</defs>
</svg>
