<svg width="176" height="176" viewBox="0 0 176 176" fill="none" xmlns="http://www.w3.org/2000/svg">
<rect x="23.6924" y="42.2363" width="95.3847" height="108.903" rx="13.3997" transform="rotate(-11.4793 23.6924 42.2363)" fill="white"/>
<g filter="url(#filter0_d)">
<rect x="36.7832" y="27.0771" width="101.538" height="115.077" rx="13.3997" fill="white"/>
</g>
<path d="M87.1652 56.0605L85.9421 59.4327L82.9093 58.4339C81.6254 58.0118 80.5151 57.1809 79.748 56.0682C82.2026 56.4907 84.7115 56.4881 87.1652 56.0605Z" fill="#EFC597"/>
<g filter="url(#filter1_d)">
<path d="M121.775 69.14L79.4365 53.8514C78.519 53.5203 77.5075 53.5669 76.6244 53.9809C75.7412 54.395 75.0585 55.1428 74.7262 56.0599L67.4337 76.1661C67.2686 76.621 67.1948 77.1039 67.2166 77.5874C67.2384 78.0708 67.3553 78.5452 67.5606 78.9834C67.7659 79.4216 68.0556 79.815 68.4131 80.1411C68.7706 80.4673 69.1889 80.7197 69.6441 80.884L111.983 96.1726C112.9 96.5031 113.911 96.4561 114.794 96.0421C115.677 95.6281 116.36 94.8808 116.693 93.9641L123.983 73.8579C124.149 73.4032 124.222 72.9203 124.201 72.437C124.179 71.9536 124.062 71.4793 123.857 71.0411C123.652 70.6029 123.363 70.2095 123.005 69.8833C122.648 69.5571 122.23 69.3045 121.775 69.14Z" fill="url(#paint0_linear)"/>
</g>
<path d="M70.3981 67.9881L69.5182 70.4131L63.6271 73.005C63.4754 73.0603 63.3134 73.0818 63.1526 73.068C62.9917 73.0542 62.8358 73.0055 62.6957 72.9251C62.5557 72.8448 62.4349 72.7348 62.3418 72.6029C62.2487 72.471 62.1855 72.3204 62.1567 72.1615C62.0224 71.4264 62.1008 70.6682 62.3826 69.976C62.6645 69.2839 63.1381 68.6867 63.7478 68.2545L65.6055 66.9375C66.6692 67.0432 67.7217 67.2408 68.7514 67.528L70.3981 67.9881Z" fill="#FBDBB9"/>
<path d="M80.7936 64.2434L76.5703 62.8535L69.688 60.5875C68.4041 60.1655 67.2938 59.3346 66.5268 58.2219C68.9813 58.6443 71.4902 58.6417 73.9439 58.2142L74.7261 56.0594C75.0583 55.1423 75.741 54.3946 76.6242 53.9805C77.5074 53.5664 78.5188 53.5198 79.4363 53.851L80.8588 54.3647L72.6403 45.9316C72.1385 45.3475 71.4778 44.922 70.7384 44.7069C69.9991 44.4918 69.2132 44.4963 68.4764 44.72C57.2347 48.1592 47.0724 47.0645 46.8864 47.0435H46.8845L42.1973 60.0795L52.4497 64.6977C54.8797 65.9434 57.5556 66.6348 60.2848 66.7221L64.372 66.8544C64.7842 66.8678 65.1957 66.8953 65.6066 66.9369C66.6703 67.0426 67.7228 67.2401 68.7525 67.5273L70.3992 67.9874L78.7653 70.3262C79.5668 70.5759 80.4342 70.5014 81.1813 70.1186C81.9284 69.7358 82.4956 69.0753 82.7611 68.279C83.0266 67.4827 82.9693 66.614 82.6015 65.8594C82.2336 65.1049 81.5845 64.5247 80.7936 64.2434Z" fill="#FFE0C6"/>
<path d="M36.7832 42.3066V60.922L39.7061 61.9855C40.5866 62.3059 41.5599 61.8497 41.8771 60.968L47.0646 46.5469C47.4096 45.5878 46.8347 44.5436 45.8398 44.3221L36.7832 42.3066Z" fill="#BCE7FF"/>
<path d="M62.2356 102.755L77.3191 111.01C77.9172 107.174 81.1839 104.241 85.1235 104.241H95.7536C97.6624 104.241 99.5455 103.802 101.258 102.958L102.352 102.419C105.274 100.981 108.541 100.389 111.782 100.71C115.023 101.032 118.109 102.255 120.691 104.241L123.338 106.639C124.763 107.927 126.514 108.8 128.401 109.162L128.449 109.177L122.361 129.323L113.707 123.758C112.389 123.006 110.83 122.795 109.359 123.172L93.3822 126.164C89.2892 126.917 85.0622 126.31 81.3469 124.435L53.7066 105.128C54.5388 103.699 55.8958 102.652 57.4888 102.208C59.0819 101.765 60.785 101.961 62.2356 102.755Z" fill="#FFE8D5"/>
<path d="M77.2204 113.816C77.238 113.816 77.2557 113.815 77.2733 113.815L86.341 113.397C88.9985 113.276 91.6614 113.401 94.2957 113.771C94.4462 113.794 94.5996 113.787 94.7473 113.75C94.895 113.713 95.0338 113.647 95.1559 113.556C95.278 113.466 95.3808 113.351 95.4585 113.221C95.5361 113.09 95.587 112.945 95.6082 112.794C95.6294 112.643 95.6206 112.49 95.5821 112.343C95.5436 112.196 95.4763 112.057 95.384 111.936C95.2918 111.815 95.1764 111.714 95.0447 111.638C94.9129 111.562 94.7674 111.512 94.6165 111.493C91.8409 111.102 89.0351 110.97 86.2352 111.099L78.4746 111.456C79.0363 108.231 81.8043 105.775 85.1241 105.775H95.755C97.8388 105.771 99.8943 105.292 101.765 104.374L102.861 103.834C105.582 102.486 108.626 101.929 111.648 102.225C114.67 102.521 117.548 103.659 119.955 105.509L122.566 107.874C124.151 109.302 126.095 110.271 128.189 110.676C128.339 110.706 128.492 110.705 128.641 110.675C128.79 110.645 128.932 110.586 129.058 110.501C129.184 110.415 129.291 110.306 129.375 110.179C129.458 110.052 129.516 109.91 129.544 109.76C129.572 109.611 129.57 109.457 129.538 109.309C129.507 109.16 129.446 109.019 129.36 108.894C129.273 108.769 129.163 108.662 129.035 108.58C128.907 108.498 128.764 108.442 128.614 108.415C126.937 108.09 125.379 107.314 124.111 106.169L121.464 103.773C121.44 103.752 121.416 103.731 121.391 103.712C118.643 101.588 115.353 100.28 111.897 99.9363C108.441 99.5931 104.958 100.229 101.846 101.771L100.749 102.311C99.1948 103.074 97.4867 103.472 95.755 103.475H85.1243C80.1319 103.475 76.0702 107.598 76.0702 112.667C76.0702 112.972 76.1914 113.264 76.4071 113.48C76.6228 113.696 76.9153 113.817 77.2204 113.817V113.816Z" fill="#EED6C4"/>
<path d="M128.582 107.045L136.702 107.391C137.608 107.43 138.322 108.176 138.322 109.082V125.548C138.322 126.349 137.761 127.04 136.977 127.204L122.127 130.316L128.582 107.045Z" fill="#BCE7FF"/>
<circle cx="129.86" cy="42.3075" r="23.6923" fill="url(#paint1_linear)"/>
<path d="M132.88 49.0261H128.09V52.4619H124.342V49.0261H121.293V46.0067H124.342V44.4152H121.293V41.3958H124.342V30.8057H132.627C135.017 30.8057 136.925 31.4304 138.353 32.6798C139.781 33.9192 140.495 35.5702 140.495 37.6327C140.495 39.7349 139.816 41.3859 138.457 42.5857C137.099 43.7756 135.21 44.3854 132.79 44.4152H128.09V46.0067H132.88V49.0261ZM128.09 41.3958H132.567C133.916 41.3958 134.947 41.0835 135.661 40.4588C136.375 39.8341 136.732 38.902 136.732 37.6625C136.732 36.5519 136.38 35.6446 135.676 34.9406C134.982 34.2366 134.02 33.8697 132.79 33.8399H128.09V41.3958Z" fill="white"/>
<defs>
<filter id="filter0_d" x="10.4332" y="2.51715" width="154.238" height="167.777" filterUnits="userSpaceOnUse" color-interpolation-filters="sRGB">
<feFlood flood-opacity="0" result="BackgroundImageFix"/>
<feColorMatrix in="SourceAlpha" type="matrix" values="0 0 0 0 0 0 0 0 0 0 0 0 0 0 0 0 0 0 127 0"/>
<feOffset dy="1.79"/>
<feGaussianBlur stdDeviation="13.175"/>
<feColorMatrix type="matrix" values="0 0 0 0 0.386528 0 0 0 0 0.398292 0 0 0 0 0.504167 0 0 0 0.21 0"/>
<feBlend mode="normal" in2="BackgroundImageFix" result="effect1_dropShadow"/>
<feBlend mode="normal" in="SourceGraphic" in2="effect1_dropShadow" result="shape"/>
</filter>
<filter id="filter1_d" x="65.0102" y="53.6328" width="61.3969" height="47.163" filterUnits="userSpaceOnUse" color-interpolation-filters="sRGB">
<feFlood flood-opacity="0" result="BackgroundImageFix"/>
<feColorMatrix in="SourceAlpha" type="matrix" values="0 0 0 0 0 0 0 0 0 0 0 0 0 0 0 0 0 0 127 0"/>
<feOffset dy="2.20267"/>
<feGaussianBlur stdDeviation="1.10133"/>
<feColorMatrix type="matrix" values="0 0 0 0 0.239216 0 0 0 0 0.847059 0 0 0 0 0.74902 0 0 0 0.33 0"/>
<feBlend mode="normal" in2="BackgroundImageFix" result="effect1_dropShadow"/>
<feBlend mode="normal" in="SourceGraphic" in2="effect1_dropShadow" result="shape"/>
</filter>
<linearGradient id="paint0_linear" x1="111.956" y1="62.0718" x2="74.986" y2="82.6788" gradientUnits="userSpaceOnUse">
<stop stop-color="#2BD5CA"/>
<stop offset="1" stop-color="#6FE09C"/>
</linearGradient>
<linearGradient id="paint1_linear" x1="129.86" y1="18.6152" x2="129.86" y2="65.9998" gradientUnits="userSpaceOnUse">
<stop stop-color="#9EEDBF"/>
<stop offset="1" stop-color="#BBEDD0" stop-opacity="0.17"/>
</linearGradient>
</defs>
</svg>
