<svg width="176" height="176" viewBox="0 0 176 176" fill="none" xmlns="http://www.w3.org/2000/svg">
<g clip-path="url(#clip0)">
<rect x="57.6963" y="119.748" width="51.4413" height="3.78698" rx="1.89349" transform="rotate(-15 57.6963 119.748)" fill="#EFF2F3"/>
<rect x="60.3984" y="108.83" width="41.3407" height="3.78698" rx="1.89349" transform="rotate(-15 60.3984 108.83)" fill="#EFF2F3"/>
<g filter="url(#filter0_d)">
<path d="M93.8274 60.2494L65.7495 44.821C65.0161 44.4176 64.0941 44.6646 63.6607 45.3807L47.0425 72.809C46.6962 73.409 46.5992 74.1337 46.7778 74.8C47.1494 76.1868 48.5811 77.0134 49.9678 76.6418C51.9129 76.1206 53.9122 77.2749 54.4334 79.22L58.3433 93.8119C58.9391 96.0356 61.2231 97.3543 63.4471 96.7584L91.6233 89.2086C93.8473 88.6127 95.1659 86.3286 94.5701 84.1049L90.6602 69.5131C90.139 67.568 91.2934 65.5687 93.2385 65.0475C94.6252 64.6759 95.4518 63.2442 95.0802 61.8574C94.9017 61.1911 94.4554 60.612 93.8274 60.2494Z" fill="url(#paint0_linear)"/>
</g>
<rect x="63.7285" y="31.8066" width="95.6643" height="97.3671" rx="10.1538" transform="rotate(15 63.7285 31.8066)" fill="white"/>
<g filter="url(#filter1_d)">
<rect x="38.8086" y="33.7119" width="95.6643" height="104.361" rx="10.1538" fill="white"/>
</g>
<rect x="60.5508" y="121.829" width="51.4413" height="3.78698" rx="1.89349" fill="#EFF2F3"/>
<rect x="65.9863" y="111.983" width="41.3407" height="3.78698" rx="1.89349" fill="#EFF2F3"/>
<g filter="url(#filter2_d)">
<path d="M110.851 73.7098L87.7231 51.5401C87.1191 50.9606 86.1646 50.9606 85.5606 51.5401L62.4097 73.7327C61.9199 74.2226 61.6387 74.8975 61.6387 75.5873C61.6387 77.023 62.8076 78.192 64.2433 78.192C66.257 78.192 67.8895 79.8245 67.8895 81.8382V96.9448C67.8895 99.2469 69.7543 101.112 72.0568 101.112H101.227C103.529 101.112 105.394 99.2469 105.394 96.9448V81.8382C105.394 79.8245 107.027 78.192 109.04 78.192C110.476 78.192 111.645 77.023 111.645 75.5873C111.645 74.8975 111.364 74.2226 110.851 73.7098Z" fill="url(#paint1_linear)"/>
</g>
<rect x="83.3809" y="90.2412" width="6.52257" height="10.8709" fill="white"/>
<circle cx="41.6471" cy="38.2623" r="28.109" fill="url(#paint2_linear)"/>
<path d="M40.3315 57.0646C40.5262 57.2641 40.7934 57.3768 41.0728 57.3777C41.3519 57.3783 41.6198 57.2669 41.8155 57.0684L45.1301 53.7702C45.2668 53.6342 44.9251 53.9742 45.1067 53.67C45.1429 53.6093 45.4319 52.868 45.4462 52.7988C45.5183 52.4522 45.5648 53.4786 45.5462 53.068C45.5461 53.0661 45.546 53.0642 45.5459 53.0624L45.546 39.8286C45.546 38.9415 45.546 38.498 45.6271 38.1675C45.7248 37.7691 45.7595 37.6871 45.9779 37.3395C46.159 37.0512 46.689 36.5373 47.7492 35.5094C50.1367 33.1944 51.1945 29.738 50.3623 26.3872C49.3064 22.1355 45.4794 19.1494 41.0863 19.1494C36.6934 19.1492 32.8663 22.1355 31.8104 26.3872C30.8837 30.1184 32.3007 33.9807 35.2876 36.2519C36.0656 36.8435 36.6269 37.7153 36.6268 38.6909C36.6281 38.7855 36.6696 38.8751 36.741 38.937L38.8805 40.7103C38.9533 40.7717 38.9951 40.8616 38.9951 40.9564C38.9951 41.0513 38.9533 41.1412 38.8805 41.2025L36.9214 42.8254C36.8496 42.8871 36.8082 42.977 36.8082 43.0715C36.8082 43.1661 36.8494 43.2558 36.9215 43.3175L38.8807 44.9403C38.9533 45.0015 38.9952 45.0916 38.9952 45.1864C38.9951 45.2811 38.9531 45.3712 38.8805 45.4324L36.9214 47.0553C36.8496 47.1169 36.8082 47.2068 36.8082 47.3014C36.8082 47.3959 36.8496 47.4858 36.9215 47.5473L38.8842 49.1813C38.956 49.2416 38.9974 49.3302 38.9974 49.4237C38.9972 49.5171 38.956 49.6059 38.8842 49.6659L36.7374 51.454C36.6658 51.5142 36.6252 51.6033 36.6268 51.6965L36.649 53.2019C36.6523 53.3371 36.7077 53.466 36.8037 53.5617L40.3315 57.0646ZM38.5381 24.8666C38.5381 23.8389 39.1589 22.9125 40.1112 22.5193C41.0635 22.1258 42.1595 22.3433 42.8884 23.07C43.6172 23.7968 43.8352 24.8894 43.4407 25.8391C43.0463 26.7886 42.1171 27.4075 41.0863 27.4075C39.6792 27.407 38.5386 26.2697 38.5381 24.8666Z" fill="white"/>
<path d="M40.3315 57.0646C40.5262 57.2641 40.7934 57.3768 41.0728 57.3777C41.3519 57.3783 41.6198 57.2669 41.8155 57.0684L45.1301 53.7702C45.2668 53.6342 44.9251 53.9742 45.1067 53.67C45.1429 53.6093 45.4319 52.868 45.4462 52.7988C45.5183 52.4522 45.5648 53.4786 45.5462 53.068C45.5461 53.0661 45.546 53.0642 45.5459 53.0624L45.546 39.8286C45.546 38.9415 45.546 38.498 45.6271 38.1675C45.7248 37.7691 45.7595 37.6871 45.9779 37.3395C46.159 37.0512 46.689 36.5373 47.7492 35.5094C50.1367 33.1944 51.1945 29.738 50.3623 26.3872C49.3064 22.1355 45.4794 19.1494 41.0863 19.1494C36.6934 19.1492 32.8663 22.1355 31.8104 26.3872C30.8837 30.1184 32.3007 33.9807 35.2876 36.2519C36.0656 36.8435 36.6269 37.7153 36.6268 38.6909C36.6281 38.7855 36.6696 38.8751 36.741 38.937L38.8805 40.7103C38.9533 40.7717 38.9951 40.8616 38.9951 40.9564C38.9951 41.0513 38.9533 41.1412 38.8805 41.2025L36.9214 42.8254C36.8496 42.8871 36.8082 42.977 36.8082 43.0715C36.8082 43.1661 36.8494 43.2558 36.9215 43.3175L38.8807 44.9403C38.9533 45.0015 38.9952 45.0916 38.9952 45.1864C38.9951 45.2811 38.9531 45.3712 38.8805 45.4324L36.9214 47.0553C36.8496 47.1169 36.8082 47.2068 36.8082 47.3014C36.8082 47.3959 36.8496 47.4858 36.9215 47.5473L38.8842 49.1813C38.956 49.2416 38.9974 49.3302 38.9974 49.4237C38.9972 49.5171 38.956 49.6059 38.8842 49.6659L36.7374 51.454C36.6658 51.5142 36.6252 51.6033 36.6268 51.6965L36.649 53.2019C36.6523 53.3371 36.7077 53.466 36.8037 53.5617L40.3315 57.0646ZM38.5381 24.8666C38.5381 23.8389 39.1589 22.9125 40.1112 22.5193C41.0635 22.1258 42.1595 22.3433 42.8884 23.07C43.6172 23.7968 43.8352 24.8894 43.4407 25.8391C43.0463 26.7886 42.1171 27.4075 41.0863 27.4075C39.6792 27.407 38.5386 26.2697 38.5381 24.8666Z" fill="white"/>
</g>
<defs>
<filter id="filter0_d" x="36.9464" y="38.21" width="68.2351" height="68.2351" filterUnits="userSpaceOnUse" color-interpolation-filters="sRGB">
<feFlood flood-opacity="0" result="BackgroundImageFix"/>
<feColorMatrix in="SourceAlpha" type="matrix" values="0 0 0 0 0 0 0 0 0 0 0 0 0 0 0 0 0 0 127 0"/>
<feOffset dy="3.49505"/>
<feGaussianBlur stdDeviation="1.74753"/>
<feColorMatrix type="matrix" values="0 0 0 0 0.992157 0 0 0 0 0.835294 0 0 0 0 0.286275 0 0 0 0.33 0"/>
<feBlend mode="normal" in2="BackgroundImageFix" result="effect1_dropShadow"/>
<feBlend mode="normal" in="SourceGraphic" in2="effect1_dropShadow" result="shape"/>
</filter>
<filter id="filter1_d" x="16.7819" y="28.2052" width="139.718" height="148.414" filterUnits="userSpaceOnUse" color-interpolation-filters="sRGB">
<feFlood flood-opacity="0" result="BackgroundImageFix"/>
<feColorMatrix in="SourceAlpha" type="matrix" values="0 0 0 0 0 0 0 0 0 0 0 0 0 0 0 0 0 0 127 0"/>
<feOffset dy="16.52"/>
<feGaussianBlur stdDeviation="11.0133"/>
<feColorMatrix type="matrix" values="0 0 0 0 0.386528 0 0 0 0 0.398292 0 0 0 0 0.504167 0 0 0 0.2 0"/>
<feBlend mode="normal" in2="BackgroundImageFix" result="effect1_dropShadow"/>
<feBlend mode="normal" in="SourceGraphic" in2="effect1_dropShadow" result="shape"/>
</filter>
<filter id="filter2_d" x="58.1436" y="51.1055" width="56.9964" height="56.9964" filterUnits="userSpaceOnUse" color-interpolation-filters="sRGB">
<feFlood flood-opacity="0" result="BackgroundImageFix"/>
<feColorMatrix in="SourceAlpha" type="matrix" values="0 0 0 0 0 0 0 0 0 0 0 0 0 0 0 0 0 0 127 0"/>
<feOffset dy="3.49505"/>
<feGaussianBlur stdDeviation="1.74753"/>
<feColorMatrix type="matrix" values="0 0 0 0 0.992157 0 0 0 0 0.835294 0 0 0 0 0.286275 0 0 0 0.33 0"/>
<feBlend mode="normal" in2="BackgroundImageFix" result="effect1_dropShadow"/>
<feBlend mode="normal" in="SourceGraphic" in2="effect1_dropShadow" result="shape"/>
</filter>
<linearGradient id="paint0_linear" x1="81.0726" y1="50.256" x2="91.2051" y2="64.3437" gradientUnits="userSpaceOnUse">
<stop stop-color="#FDD549"/>
<stop offset="1" stop-color="#FDD549"/>
</linearGradient>
<linearGradient id="paint1_linear" x1="101.117" y1="60.7558" x2="103.492" y2="82.6313" gradientUnits="userSpaceOnUse">
<stop stop-color="#FFE68C"/>
<stop offset="1" stop-color="#FDD549"/>
</linearGradient>
<linearGradient id="paint2_linear" x1="41.6471" y1="10.1533" x2="41.6471" y2="66.3713" gradientUnits="userSpaceOnUse">
<stop stop-color="#3DA0FE" stop-opacity="0.46"/>
<stop offset="1" stop-color="#3DA0FE" stop-opacity="0"/>
</linearGradient>
<clipPath id="clip0">
<rect width="176" height="176" fill="white"/>
</clipPath>
</defs>
</svg>
