<svg width="74" height="74" viewBox="0 0 74 74" fill="none" xmlns="http://www.w3.org/2000/svg">
    <circle cx="37" cy="37" r="37" fill="url(#paint0_linear_0_1)" />
    <path d="M40.2422 19.875L39.4688 43.5703H33.8438L33.0469 19.875H40.2422ZM32.8594 50.9062C32.8594 49.9062 33.2031 49.0781 33.8906 48.4219C34.5938 47.75 35.5156 47.4141 36.6562 47.4141C37.8125 47.4141 38.7344 47.75 39.4219 48.4219C40.1094 49.0781 40.4531 49.9062 40.4531 50.9062C40.4531 51.875 40.1094 52.6953 39.4219 53.3672C38.7344 54.0391 37.8125 54.375 36.6562 54.375C35.5156 54.375 34.5938 54.0391 33.8906 53.3672C33.2031 52.6953 32.8594 51.875 32.8594 50.9062Z" fill="white" />
    <defs>
        <linearGradient id="paint0_linear_0_1" x1="67.5" y1="-20" x2="17" y2="116.5" gradientUnits="userSpaceOnUse">
            <stop stop-color="#FFA18C" />
            <stop offset="1" stop-color="#EE2A23" />
        </linearGradient>
    </defs>
</svg>
