<svg width="265" height="244" viewBox="0 0 265 244" fill="none" xmlns="http://www.w3.org/2000/svg">
<g filter="url(#filter0_d_2_3789)">
<mask id="mask0_2_3789" style="mask-type:alpha" maskUnits="userSpaceOnUse" x="30" y="22" width="207" height="192">
<path d="M133.5 213.052C157.188 213.052 178.636 203.41 194.181 187.816C195.852 186.138 236.625 201.164 236.625 201.164V135.24C236.625 135.24 219.437 135.053 219.437 126.594V22.8438H47.5628V126.594C47.5628 129.221 47.6794 131.822 47.9073 134.389C48.2631 138.396 30.375 135.24 30.375 135.24V187.115C30.375 187.115 64.2392 178.356 69.3202 184.093C85.0601 201.862 107.982 213.052 133.5 213.052Z" fill="white"/>
</mask>
<g mask="url(#mask0_2_3789)">
<path d="M133.502 213.052C180.963 213.052 219.439 174.343 219.439 126.594C219.439 78.8443 180.963 40.1357 133.502 40.1357C86.0398 40.1357 47.5645 78.8443 47.5645 126.594C47.5645 174.343 86.0398 213.052 133.502 213.052Z" fill="url(#paint0_linear_2_3789)"/>
<mask id="mask1_2_3789" style="mask-type:alpha" maskUnits="userSpaceOnUse" x="49" y="50" width="169" height="161">
<path d="M148.384 189.195C148.384 189.195 148.152 189.313 148.044 189.367C146.579 186.278 144.493 183.613 142.432 181.047C140.925 179.153 139.463 177.299 138.325 175.355C139.295 176.623 140.422 177.764 141.677 178.75L143.172 179.899C145.801 181.852 148.384 189.196 148.384 189.196V189.195ZM152.863 192.309C153.111 192.717 153.248 193.235 153.248 193.744C153.248 194.175 153.145 194.619 152.954 194.992C152.739 195.474 152.16 196.267 150.875 196.078C150.527 196.022 150.174 195.994 149.82 195.994C149.766 195.323 149.679 194.654 149.56 193.991C150.851 193.961 152.048 193.329 152.863 192.31V192.309ZM140.023 199.884C139.712 200.382 139.369 200.748 138.962 200.982C139.037 200.353 139.086 199.678 139.086 199.003C139.086 193.24 138.019 188.631 136.998 184.174C136.333 181.374 135.683 178.498 135.286 175.321C135.932 178.13 136.932 180.653 137.902 183.118C139.488 187.133 140.996 190.914 140.996 195.73C140.996 197.431 140.668 198.861 140.023 199.884ZM130.014 184.174C128.976 188.631 127.912 193.24 127.912 199.003C127.912 199.678 127.961 200.354 128.038 200.978C126.791 200.202 125.993 198.292 125.993 195.73C125.993 190.914 127.495 187.133 129.101 183.118C130.067 180.653 131.068 178.13 131.72 175.321C131.321 178.498 130.663 181.374 130.014 184.174ZM124.581 181.047C122.497 183.613 120.417 186.278 118.974 189.367C118.85 189.315 118.728 189.258 118.609 189.196C117.938 188.801 117.59 188.064 117.59 187.049C117.59 184.526 121.203 181.852 123.83 179.899L125.337 178.75C126.587 177.763 127.708 176.623 128.674 175.355C127.544 177.299 126.085 179.153 124.581 181.048V181.047ZM117.176 195.994C116.843 195.994 116.496 196.02 116.137 196.078C114.839 196.267 114.262 195.474 114.033 194.993C113.841 194.619 113.757 194.175 113.757 193.745C113.757 193.235 113.891 192.717 114.137 192.309C114.976 193.329 116.148 193.961 117.454 193.99C117.324 194.652 117.231 195.321 117.175 195.994H117.176ZM207.99 99.6349C213.325 97.8344 217.023 93.731 217.292 90.1186C214.389 89.2709 211.45 89.6988 208.9 90.2794C211.603 88.2778 215.88 84.6849 215.382 79.3585C212.833 78.7655 208.188 80.5362 206.138 81.3674C212.49 77.8116 214.741 69.4997 211.396 64.7209C209.455 65.8491 200.505 75.0994 199.085 76.1183C203.638 70.7919 205.811 67.0072 207.095 63.3896C208.494 59.4595 208.644 52.6646 203.862 50.3298C184.729 84.3147 168.933 92.4935 166.386 96.2792C164.458 99.1544 164.391 101.793 167.132 104.455C168.242 105.507 170.382 107.519 168.547 110.243C165.587 114.596 158.954 109.324 153.989 103.935C149.023 98.547 148.277 92.4677 148.963 88.9924C149.581 85.9513 152.647 81.125 154.751 79.5091C154.991 79.8648 155.472 80.463 156.452 80.2825C157.081 80.167 158.095 79.5781 158.761 79.3575C160.803 78.716 162.873 79.2698 164.115 80.0329C166.482 81.5107 166.26 83.0565 166.242 84.3147C169.848 82.2089 168.547 78.8717 163.891 77.5559C167.111 77.593 169.711 80.4918 170.365 80.9322C172.12 82.1635 174.679 81.8985 176.165 81.1982C178.987 79.8442 179.646 76.5102 178.858 75.7388C178.582 76.9516 177.617 78.0168 176.028 78.2056C173.553 78.5087 171.194 77.4424 169.33 76.6442C167.803 75.9863 165.223 75.5078 163.461 75.6151C166.639 73.7743 171.682 73.9816 173.461 76.767C174.504 75.8873 175.191 75.0747 175.515 73.2617C176.359 68.4788 172.716 65.9914 168.692 65.9914C168.734 64.8385 167.922 64.2558 166.879 64.5559C166.904 63.9124 166.587 63.3906 165.981 63.3906H150.123C146.998 63.3906 141.488 63.1287 140.851 62.3387C140.966 64.327 145.188 66.6215 147.962 67.2011C145.685 67.4476 134.163 85.3201 133.51 92.9638C132.84 85.3201 121.307 67.4476 119.039 67.2011C121.812 66.6215 126.047 64.327 126.163 62.3387C125.503 63.1287 119.999 63.3906 116.88 63.3906H101.024C100.429 63.3906 100.116 63.9124 100.118 64.5559C99.0799 64.2569 98.2745 64.8385 98.326 65.9904C94.2928 65.9904 90.6618 68.4788 91.4878 73.2617C91.7972 75.0747 92.5025 75.8873 93.5462 76.768C95.3127 73.9816 100.348 73.7743 103.54 75.6151C101.781 75.5078 99.2036 75.9863 97.6701 76.6442C95.8118 77.4435 93.4472 78.5087 90.9742 78.2056C89.3758 78.0168 88.4281 76.9516 88.1342 75.7388C87.3504 76.5102 88.0084 79.8442 90.8402 81.1982C92.3241 81.8985 94.8682 82.1635 96.6471 80.9322C97.2814 80.4918 99.8915 77.593 103.13 77.5559C98.4735 78.8717 97.1566 82.2089 100.777 84.3147C100.736 83.0565 100.533 81.5097 102.891 80.0329C104.129 79.2698 106.202 78.716 108.233 79.3575C108.904 79.5781 109.909 80.167 110.563 80.2825C111.543 80.463 112.024 79.8648 112.262 79.5091C114.357 81.125 117.425 85.9513 118.041 88.9924C118.733 92.4677 117.835 98.7006 113.015 103.935C108.195 109.17 101.429 114.596 98.4735 110.243C96.6224 107.519 98.7674 105.507 99.8595 104.455C102.618 101.793 102.535 99.1544 100.617 96.2792C98.0857 92.4946 82.2736 84.3147 63.1521 50.3298C58.3671 52.6646 58.5074 59.4595 59.9212 63.3896C61.2031 67.0072 63.3842 70.7919 67.9351 76.1183C66.5161 75.0994 57.5545 65.8491 55.6055 64.7209C52.2642 69.4997 54.5278 77.8116 60.8617 81.3674C58.8168 80.5362 54.1586 78.7655 51.6279 79.3575C51.1195 84.6849 55.3951 88.2778 58.1207 90.2784C55.5477 89.6988 52.6231 89.2709 49.7129 90.1186C49.9655 93.731 53.6729 97.8344 59.0106 99.6349C55.658 99.4101 52.2384 99.7463 50.0945 101.089C50.5822 104.813 54.7041 108.104 59.8944 108.855C56.4521 109.237 53.3563 110.782 51.8393 112.836C53.6626 115.252 56.4408 117.202 60.6225 117.105C58.6198 117.78 56.2087 119.811 55.26 122.334C57.6649 124.275 60.6833 125.509 67.6175 123.017C59.684 126.377 61.2278 127.99 60.0089 131.408C61.4557 131.972 62.7448 133.48 66.4563 132.55C68.6116 132.004 72.1601 128.621 75.2054 126.61C74.203 127.659 69.7346 130.944 67.7742 132.828C65.5807 134.942 67.1431 137.103 67.1328 139.01C68.7281 139.051 71.5475 140.314 73.4265 138.637C74.0896 138.025 82.2591 127.739 83.3966 126.8C83.0202 127.679 77.8145 134.286 75.4756 138.076C73.7194 140.926 76.1944 142.753 76.5398 144.48C78.3651 143.885 80.8917 144.908 82.2736 142.662C83.608 140.498 87.5536 132.693 89.0066 130.565C88.4291 132.193 84.2701 141.118 84.0051 141.936C83.0037 144.857 85.5014 145.398 86.5533 147.389C88.1032 146.383 90.8299 147.214 91.8745 144.329C92.6036 142.36 94.2381 135.648 95.1343 133.898C95.0209 135.811 94.4372 138.482 94.0195 141.529C93.6142 144.414 96.3821 144.414 97.93 145.997C99.2521 144.815 101.752 145.142 102.195 142.451C102.561 140.129 102.636 134.408 102.636 134.408C103.06 134.692 103.271 134.779 103.667 135.179C104.664 134.132 106.624 134.132 107.311 132.702C107.548 132.828 107.721 133.024 107.989 133.161C110.16 136.853 110.306 143.818 107.311 146.375C108.212 146.383 109.229 146.241 109.909 145.897C109.833 146.072 109.747 146.232 109.667 146.396C109.461 146.701 109.367 146.86 109.254 146.991C108.999 147.325 108.704 147.627 108.378 147.891C106.818 149.091 104.623 149.297 102.195 148.366C102.323 149.074 102.408 149.469 102.712 149.938C98.9633 150.475 97.3907 151.924 96.0057 154.355C94.2072 157.521 96.1645 161.703 95.6169 163.308C95.2488 164.415 93.9659 165.379 91.9838 164.557C92.9511 168.808 98.2456 168.238 99.6605 165.929C100.166 167.869 99.6862 170.157 98.6766 171.021C100.316 171.139 101.7 170.425 102.581 169.168C102.759 169.612 102.814 170.039 102.882 170.514C103.782 170.082 104.357 169.612 104.766 169.034C104.919 169.629 105.099 171.126 104.653 172.119C106.463 172.438 108.212 171.394 108.73 168.808C109.502 170.032 109.755 170.434 110.184 171.898C111.074 171.323 111.412 170.77 111.469 169.688C113.295 171.323 115.824 171.101 117.023 170.585C117.82 170.233 119.601 168.845 119.585 166.829C118.09 167.52 114.509 168.518 114.053 164.792C113.664 161.514 116.536 158.828 120.849 159.926C124.366 161.33 128.183 167.442 124.35 170.07C122.34 171.449 119.348 172.756 119.709 176.306C120.639 175.12 121.833 174.395 123.269 174.182C123.462 174.173 123.725 174.148 123.998 174.148C124.38 174.14 124.759 174.096 125.132 174.014C123.559 175.267 121.536 176.411 119.002 177.496C116.046 178.784 113.851 180.427 112.1 181.742C110.368 183.046 109.002 184.083 107.771 184.083C106.802 184.083 106.323 183.562 106.106 183.126C105.717 182.33 105.982 180.233 106.86 179.739C106.547 179.664 105.904 179.697 105.432 179.89C104.179 180.36 101.878 181.882 101.878 184.74C101.878 185.943 102.291 187.469 104.07 188.458C103.286 188.81 102.329 189.422 101.597 190.315C100.81 191.3 100.396 192.436 100.396 193.697C100.396 194.079 100.442 194.452 100.523 194.846C100.785 196.296 101.481 197.218 102.095 198.014C102.654 198.747 103.092 199.346 103.092 200.135C103.092 200.375 103.06 200.625 102.987 200.881L102.778 201.618L103.503 201.41C105.163 200.923 105.446 199.528 105.717 198.278C105.912 197.326 106.099 196.504 106.742 195.944C106.742 196.12 106.713 196.291 106.713 196.464C106.713 198.207 107.266 199.841 108.313 201.104C109.502 202.525 111.184 203.295 113.04 203.295C115.123 203.295 116.495 202.248 117.59 201.41C118.848 204.452 121.432 206.397 124.853 206.397C126.379 206.402 127.872 205.952 129.143 205.106C130.053 207.203 131.476 208.933 133.282 210.049C135.528 208.933 136.938 207.203 137.865 205.106C139.132 205.954 140.624 206.404 142.149 206.397C144.415 206.397 146.351 205.567 147.738 204.009C148.417 203.254 148.914 202.344 149.286 201.317C150.511 202.248 151.878 203.295 153.964 203.295C155.819 203.295 157.499 202.525 158.683 201.104C159.735 199.841 160.281 198.208 160.281 196.463C160.281 196.291 160.257 196.121 160.244 195.944C160.898 196.505 161.088 197.326 161.29 198.278C161.465 199.13 161.655 200.027 162.272 200.697C162.575 200.999 163.692 201.51 164.214 201.618C164.002 201.201 163.916 200.613 163.916 200.135C163.899 199.346 164.347 198.747 164.9 198.014C165.522 197.218 166.209 196.296 166.499 194.846C166.569 194.452 166.607 194.08 166.607 193.697C166.616 192.464 166.19 191.267 165.406 190.315C164.678 189.422 163.717 188.809 162.931 188.459C164.694 187.469 165.138 185.943 165.138 184.74C165.138 182.289 163.461 180.805 162.181 180.137C161.541 179.848 160.843 179.711 160.141 179.739C161.071 180.494 161.29 182.356 160.898 183.126C160.682 183.562 160.206 184.082 159.226 184.082C158.004 184.082 156.622 183.046 154.899 181.742C153.136 180.427 150.959 178.784 147.995 177.496C145.545 176.428 143.569 175.321 142.009 174.119C142.622 174.14 142.815 174.14 143.019 174.148C144.911 174.257 146.261 175.004 147.292 176.306C147.664 172.756 144.667 171.449 142.647 170.07C138.631 167.32 143.018 160.735 146.14 159.934C150.47 158.815 153.359 161.514 152.954 164.791C152.523 168.518 148.914 167.521 147.423 166.829C147.399 168.845 149.182 170.232 149.998 170.586C151.182 171.102 153.715 171.323 155.542 169.689C155.604 170.77 155.944 171.323 156.829 171.898C157.259 170.433 157.52 170.032 158.277 168.808C158.808 171.394 160.545 172.438 162.364 172.118C161.904 171.126 162.09 169.629 162.235 169.035C162.657 169.612 163.229 170.082 164.139 170.514C164.198 170.039 164.247 169.612 164.442 169.168C165.322 170.426 166.693 171.138 168.345 171.021C167.348 170.157 166.847 167.869 167.364 165.928C168.767 168.238 174.054 168.808 175.043 164.557C173.039 165.379 171.76 164.415 171.387 163.308C170.836 161.703 172.815 157.52 171.015 154.355C169.62 151.924 168.043 150.473 164.304 149.938C164.611 149.468 164.693 149.074 164.818 148.366C161.402 149.69 158.407 148.755 157.081 145.897C157.772 146.24 158.783 146.383 159.694 146.375C156.704 143.818 156.849 136.852 159.023 133.161C159.291 133.024 159.452 132.828 159.694 132.702C160.393 134.132 162.351 134.132 163.348 135.179C163.717 134.779 163.936 134.692 164.371 134.408C164.371 134.408 164.442 140.129 164.818 142.451C165.236 145.142 167.749 144.815 169.086 145.997C170.623 144.414 173.404 144.414 172.998 141.528C172.567 138.482 171.988 135.811 171.859 133.898C172.77 135.648 174.41 142.36 175.118 144.329C176.185 147.214 178.905 146.383 180.457 147.389C181.5 145.399 183.993 144.857 183.007 141.936C182.726 141.118 178.583 132.193 177.999 130.564C179.464 132.693 183.396 140.498 184.729 142.661C186.116 144.908 188.633 143.885 190.471 144.48C190.811 142.753 193.287 140.926 191.522 138.076C189.2 134.286 183.989 127.679 183.616 126.8C184.746 127.739 192.917 138.025 193.584 138.637C195.459 140.314 198.278 139.052 199.879 139.01C199.879 137.103 201.42 134.943 199.209 132.828C197.271 130.944 192.798 127.659 191.8 126.611C194.842 128.621 198.382 132.005 200.55 132.551C204.256 133.48 205.568 131.972 207 131.407C205.792 127.99 207.306 126.377 199.389 123.017C206.313 125.509 209.323 124.275 211.753 122.334C210.792 119.811 208.379 117.78 206.366 117.105C210.568 117.202 213.325 115.252 215.18 112.836C213.648 110.782 210.564 109.237 207.107 108.855C212.282 108.104 216.418 104.813 216.901 101.089C214.761 99.7463 211.351 99.4101 207.99 99.6349Z" fill="white"/>
</mask>
<g mask="url(#mask1_2_3789)">
<path d="M148.384 189.195C148.384 189.195 148.152 189.313 148.044 189.367C146.579 186.278 144.493 183.613 142.432 181.047C140.925 179.152 139.463 177.299 138.325 175.355C139.295 176.623 140.422 177.764 141.677 178.75L143.172 179.899C145.801 181.852 148.384 189.196 148.384 189.196V189.195ZM152.863 192.309C153.111 192.716 153.248 193.235 153.248 193.744C153.248 194.175 153.145 194.619 152.954 194.991C152.739 195.474 152.16 196.267 150.875 196.078C150.527 196.022 150.174 195.994 149.82 195.994C149.766 195.322 149.679 194.654 149.56 193.991C150.851 193.961 152.048 193.329 152.863 192.31V192.309ZM140.023 199.884C139.712 200.382 139.369 200.748 138.962 200.982C139.037 200.353 139.086 199.677 139.086 199.003C139.086 193.24 138.019 188.631 136.998 184.174C136.333 181.374 135.683 178.498 135.286 175.321C135.932 178.129 136.932 180.653 137.902 183.118C139.488 187.133 140.996 190.914 140.996 195.73C140.996 197.431 140.668 198.861 140.023 199.884ZM130.014 184.174C128.976 188.631 127.912 193.24 127.912 199.003C127.912 199.677 127.961 200.354 128.038 200.978C126.791 200.202 125.993 198.291 125.993 195.73C125.993 190.914 127.495 187.133 129.101 183.118C130.067 180.653 131.068 178.129 131.72 175.321C131.321 178.498 130.663 181.374 130.014 184.174ZM124.581 181.047C122.497 183.613 120.417 186.278 118.974 189.367C118.85 189.315 118.728 189.258 118.609 189.196C117.938 188.801 117.59 188.063 117.59 187.049C117.59 184.526 121.203 181.852 123.83 179.899L125.337 178.75C126.587 177.763 127.708 176.623 128.674 175.355C127.544 177.299 126.085 179.152 124.581 181.048V181.047ZM117.176 195.994C116.843 195.994 116.496 196.02 116.137 196.078C114.839 196.267 114.262 195.474 114.033 194.992C113.841 194.619 113.757 194.175 113.757 193.745C113.757 193.235 113.891 192.716 114.137 192.309C114.976 193.329 116.148 193.961 117.454 193.99C117.324 194.652 117.231 195.321 117.175 195.994H117.176ZM207.99 99.6348C213.325 97.8342 217.023 93.7309 217.292 90.1184C214.389 89.2707 211.45 89.6987 208.9 90.2793C211.603 88.2776 215.88 84.6848 215.382 79.3584C212.833 78.7654 208.188 80.5361 206.138 81.3672C212.49 77.8115 214.741 69.4996 211.396 64.7208C209.455 65.849 200.505 75.0993 199.085 76.1182C203.638 70.7918 205.811 67.0071 207.095 63.3895C208.494 59.4594 208.644 52.6645 203.862 50.3297C184.729 84.3146 168.933 92.4934 166.386 96.2791C164.458 99.1542 164.391 101.793 167.132 104.455C168.242 105.507 170.382 107.519 168.547 110.243C165.587 114.596 158.954 109.323 153.989 103.935C149.023 98.5468 148.277 92.4676 148.963 88.9923C149.581 85.9511 152.647 81.1249 154.751 79.5089C154.991 79.8647 155.472 80.4628 156.452 80.2824C157.081 80.1669 158.095 79.578 158.761 79.3573C160.803 78.7159 162.873 79.2697 164.115 80.0328C166.482 81.5106 166.26 83.0564 166.242 84.3146C169.848 82.2087 168.547 78.8716 163.891 77.5557C167.111 77.5929 169.711 80.4917 170.365 80.9321C172.12 82.1634 174.679 81.8983 176.165 81.1981C178.987 79.8441 179.646 76.5101 178.858 75.7387C178.582 76.9514 177.617 78.0167 176.028 78.2054C173.553 78.5086 171.194 77.4423 169.33 76.6441C167.803 75.9862 165.223 75.5077 163.461 75.6149C166.639 73.7742 171.682 73.9814 173.461 76.7668C174.504 75.8872 175.191 75.0746 175.515 73.2616C176.359 68.4787 172.716 65.9913 168.692 65.9913C168.734 64.8384 167.922 64.2557 166.879 64.5558C166.904 63.9123 166.587 63.3905 165.981 63.3905H150.123C146.998 63.3905 141.488 63.1286 140.851 62.3386C140.966 64.3269 145.188 66.6214 147.962 67.201C145.685 67.4474 134.163 85.32 133.51 92.9636C132.84 85.32 121.307 67.4474 119.039 67.201C121.812 66.6214 126.047 64.3269 126.163 62.3386C125.503 63.1286 119.999 63.3905 116.88 63.3905H101.024C100.429 63.3905 100.116 63.9123 100.118 64.5558C99.0799 64.2567 98.2745 64.8384 98.326 65.9903C94.2928 65.9903 90.6618 68.4787 91.4878 73.2616C91.7972 75.0746 92.5025 75.8872 93.5462 76.7679C95.3127 73.9814 100.348 73.7742 103.54 75.6149C101.781 75.5077 99.2036 75.9862 97.6701 76.6441C95.8118 77.4433 93.4472 78.5086 90.9742 78.2054C89.3758 78.0167 88.4281 76.9514 88.1342 75.7387C87.3504 76.5101 88.0084 79.8441 90.8402 81.1981C92.3241 81.8983 94.8682 82.1634 96.6471 80.9321C97.2814 80.4917 99.8915 77.5929 103.13 77.5557C98.4735 78.8716 97.1566 82.2087 100.777 84.3146C100.736 83.0564 100.533 81.5096 102.891 80.0328C104.129 79.2697 106.202 78.7159 108.233 79.3573C108.904 79.578 109.909 80.1669 110.563 80.2824C111.543 80.4628 112.024 79.8647 112.262 79.5089C114.357 81.1249 117.425 85.9511 118.041 88.9923C118.733 92.4676 117.835 98.7005 113.015 103.935C108.195 109.17 101.429 114.596 98.4735 110.243C96.6224 107.519 98.7674 105.507 99.8595 104.455C102.618 101.793 102.535 99.1542 100.617 96.2791C98.0857 92.4944 82.2736 84.3146 63.1521 50.3297C58.3671 52.6645 58.5074 59.4594 59.9212 63.3895C61.2031 67.0071 63.3842 70.7918 67.9351 76.1182C66.5161 75.0993 57.5545 65.849 55.6055 64.7208C52.2642 69.4996 54.5278 77.8115 60.8617 81.3672C58.8168 80.5361 54.1586 78.7654 51.6279 79.3573C51.1195 84.6848 55.3951 88.2776 58.1207 90.2783C55.5477 89.6987 52.6231 89.2707 49.7129 90.1184C49.9655 93.7309 53.6729 97.8342 59.0106 99.6348C55.658 99.41 52.2384 99.7462 50.0945 101.089C50.5822 104.813 54.7041 108.103 59.8944 108.855C56.4521 109.237 53.3563 110.782 51.8393 112.836C53.6626 115.252 56.4408 117.202 60.6225 117.105C58.6198 117.78 56.2087 119.811 55.26 122.334C57.6649 124.274 60.6833 125.509 67.6175 123.017C59.684 126.377 61.2278 127.99 60.0089 131.408C61.4557 131.972 62.7448 133.479 66.4563 132.55C68.6116 132.004 72.1601 128.621 75.2054 126.61C74.203 127.659 69.7346 130.944 67.7742 132.828C65.5807 134.942 67.1431 137.103 67.1328 139.01C68.7281 139.051 71.5475 140.313 73.4265 138.637C74.0896 138.025 82.2591 127.738 83.3966 126.8C83.0202 127.679 77.8145 134.286 75.4756 138.076C73.7194 140.926 76.1944 142.752 76.5398 144.48C78.3651 143.885 80.8917 144.908 82.2736 142.662C83.608 140.498 87.5536 132.693 89.0066 130.565C88.4291 132.192 84.2701 141.118 84.0051 141.936C83.0037 144.857 85.5014 145.398 86.5533 147.389C88.1032 146.382 90.8299 147.214 91.8745 144.329C92.6036 142.359 94.2381 135.648 95.1343 133.898C95.0209 135.811 94.4372 138.482 94.0195 141.529C93.6142 144.414 96.3821 144.414 97.93 145.997C99.2521 144.815 101.752 145.142 102.195 142.451C102.561 140.129 102.636 134.408 102.636 134.408C103.06 134.692 103.271 134.779 103.667 135.179C104.664 134.132 106.624 134.132 107.311 132.702C107.548 132.828 107.721 133.024 107.989 133.161C110.16 136.853 110.306 143.818 107.311 146.375C108.212 146.382 109.229 146.241 109.909 145.897C109.833 146.072 109.747 146.232 109.667 146.396C109.461 146.701 109.367 146.86 109.254 146.991C108.999 147.325 108.704 147.627 108.378 147.891C106.818 149.09 104.623 149.297 102.195 148.365C102.323 149.074 102.408 149.469 102.712 149.938C98.9633 150.474 97.3907 151.924 96.0057 154.355C94.2072 157.521 96.1645 161.703 95.6169 163.308C95.2488 164.415 93.9659 165.379 91.9838 164.557C92.9511 168.808 98.2456 168.238 99.6605 165.929C100.166 167.868 99.6862 170.157 98.6766 171.021C100.316 171.139 101.7 170.425 102.581 169.168C102.759 169.612 102.814 170.039 102.882 170.514C103.782 170.082 104.357 169.612 104.766 169.034C104.919 169.629 105.099 171.126 104.653 172.119C106.463 172.438 108.212 171.394 108.73 168.808C109.502 170.032 109.755 170.434 110.184 171.898C111.074 171.323 111.412 170.769 111.469 169.688C113.295 171.323 115.824 171.1 117.023 170.585C117.82 170.233 119.601 168.845 119.585 166.829C118.09 167.52 114.509 168.518 114.053 164.792C113.664 161.514 116.536 158.828 120.849 159.926C124.366 161.33 128.183 167.442 124.35 170.07C122.34 171.449 119.348 172.756 119.709 176.306C120.639 175.12 121.833 174.395 123.269 174.182C123.462 174.173 123.725 174.148 123.998 174.148C124.38 174.14 124.759 174.095 125.132 174.014C123.559 175.267 121.536 176.411 119.002 177.496C116.046 178.784 113.851 180.427 112.1 181.742C110.368 183.045 109.002 184.083 107.771 184.083C106.802 184.083 106.323 183.562 106.106 183.126C105.717 182.33 105.982 180.233 106.86 179.739C106.547 179.664 105.904 179.697 105.432 179.89C104.179 180.36 101.878 181.882 101.878 184.74C101.878 185.943 102.291 187.468 104.07 188.457C103.286 188.81 102.329 189.422 101.597 190.315C100.81 191.3 100.396 192.436 100.396 193.697C100.396 194.079 100.442 194.452 100.523 194.846C100.785 196.296 101.481 197.218 102.095 198.014C102.654 198.747 103.092 199.346 103.092 200.135C103.092 200.375 103.06 200.625 102.987 200.881L102.778 201.618L103.503 201.41C105.163 200.923 105.446 199.528 105.717 198.278C105.912 197.326 106.099 196.504 106.742 195.944C106.742 196.12 106.713 196.291 106.713 196.464C106.713 198.207 107.266 199.841 108.313 201.104C109.502 202.525 111.184 203.295 113.04 203.295C115.123 203.295 116.495 202.248 117.59 201.41C118.848 204.452 121.432 206.397 124.853 206.397C126.379 206.401 127.872 205.952 129.143 205.106C130.053 207.202 131.476 208.933 133.282 210.049C135.528 208.933 136.938 207.202 137.865 205.106C139.132 205.954 140.624 206.404 142.149 206.397C144.415 206.397 146.351 205.567 147.738 204.009C148.417 203.254 148.914 202.344 149.286 201.317C150.511 202.248 151.878 203.295 153.964 203.295C155.819 203.295 157.499 202.525 158.683 201.104C159.735 199.841 160.281 198.208 160.281 196.463C160.281 196.291 160.257 196.121 160.244 195.944C160.898 196.505 161.088 197.326 161.29 198.278C161.465 199.13 161.655 200.027 162.272 200.697C162.575 200.998 163.692 201.51 164.214 201.618C164.002 201.201 163.916 200.613 163.916 200.135C163.899 199.346 164.347 198.747 164.9 198.014C165.522 197.218 166.209 196.296 166.499 194.846C166.569 194.452 166.607 194.08 166.607 193.697C166.616 192.464 166.19 191.266 165.406 190.315C164.678 189.422 163.717 188.809 162.931 188.458C164.694 187.468 165.138 185.943 165.138 184.74C165.138 182.288 163.461 180.804 162.181 180.137C161.541 179.847 160.843 179.711 160.141 179.739C161.071 180.494 161.29 182.355 160.898 183.126C160.682 183.562 160.206 184.082 159.226 184.082C158.004 184.082 156.622 183.045 154.899 181.742C153.136 180.427 150.959 178.784 147.995 177.496C145.545 176.428 143.569 175.321 142.009 174.119C142.622 174.14 142.815 174.14 143.019 174.148C144.911 174.257 146.261 175.004 147.292 176.306C147.664 172.756 144.667 171.449 142.647 170.07C138.631 167.32 143.018 160.735 146.14 159.934C150.47 158.815 153.359 161.514 152.954 164.791C152.523 168.518 148.914 167.521 147.423 166.829C147.399 168.845 149.182 170.232 149.998 170.586C151.182 171.101 153.715 171.323 155.542 169.689C155.604 170.769 155.944 171.323 156.829 171.898C157.259 170.433 157.52 170.032 158.277 168.808C158.808 171.394 160.545 172.438 162.364 172.118C161.904 171.126 162.09 169.629 162.235 169.035C162.657 169.612 163.229 170.082 164.139 170.514C164.198 170.039 164.247 169.612 164.442 169.168C165.322 170.426 166.693 171.138 168.345 171.021C167.348 170.157 166.847 167.868 167.364 165.928C168.767 168.238 174.054 168.808 175.043 164.557C173.039 165.379 171.76 164.415 171.387 163.308C170.836 161.703 172.815 157.52 171.015 154.355C169.62 151.924 168.043 150.473 164.304 149.938C164.611 149.468 164.693 149.074 164.818 148.365C161.402 149.69 158.407 148.755 157.081 145.897C157.772 146.24 158.783 146.382 159.694 146.375C156.704 143.818 156.849 136.852 159.023 133.161C159.291 133.024 159.452 132.828 159.694 132.702C160.393 134.132 162.351 134.132 163.348 135.179C163.717 134.779 163.936 134.692 164.371 134.408C164.371 134.408 164.442 140.129 164.818 142.451C165.236 145.142 167.749 144.815 169.086 145.997C170.623 144.414 173.404 144.414 172.998 141.528C172.567 138.482 171.988 135.811 171.859 133.898C172.77 135.648 174.41 142.359 175.118 144.329C176.185 147.214 178.905 146.382 180.457 147.389C181.5 145.399 183.993 144.857 183.007 141.936C182.726 141.118 178.583 132.192 177.999 130.564C179.464 132.693 183.396 140.498 184.729 142.661C186.116 144.908 188.633 143.885 190.471 144.48C190.811 142.752 193.287 140.926 191.522 138.076C189.2 134.286 183.989 127.679 183.616 126.8C184.746 127.738 192.917 138.025 193.584 138.637C195.459 140.313 198.278 139.052 199.879 139.01C199.879 137.103 201.42 134.943 199.209 132.828C197.271 130.944 192.798 127.659 191.8 126.611C194.842 128.621 198.382 132.005 200.55 132.551C204.256 133.479 205.568 131.972 207 131.407C205.792 127.99 207.306 126.377 199.389 123.017C206.313 125.509 209.323 124.274 211.753 122.334C210.792 119.811 208.379 117.78 206.366 117.105C210.568 117.202 213.325 115.252 215.18 112.836C213.648 110.782 210.564 109.237 207.107 108.855C212.282 108.103 216.418 104.813 216.901 101.089C214.761 99.7462 211.351 99.41 207.99 99.6348Z" fill="url(#paint1_linear_2_3789)"/>
<path fill-rule="evenodd" clip-rule="evenodd" d="M169.569 65.7934C169.569 65.7934 166.685 69.3863 164.671 70.7145C162.659 72.0428 157.992 73.669 157.992 75.6356C157.992 78.7675 162 79.2141 162 79.2141L166.898 86.8206L179.366 74.7405L176.248 65.3458L169.569 65.7934Z" fill="white"/>
<path fill-rule="evenodd" clip-rule="evenodd" d="M180.256 74.7408L176.248 77.4252L172.241 76.5311L166.007 75.1884L163.58 75.5875C163.58 75.5875 162.603 76.2135 162.445 76.5311C162.287 76.8477 163.579 77.4252 163.579 77.4252L167.878 79.0422L168.679 79.662L172.686 85.0307L180.256 80.1095V74.7408Z" fill="#489EFA"/>
<path fill-rule="evenodd" clip-rule="evenodd" d="M98.7685 65.7935C98.7685 65.7935 101.654 69.3864 103.667 70.7146C105.68 72.0429 110.346 73.6692 110.346 75.6358C110.346 78.7677 106.339 79.2142 106.339 79.2142L101.44 86.8207L88.9727 74.7406L92.0901 65.3459L98.7685 65.7935Z" fill="white"/>
<path fill-rule="evenodd" clip-rule="evenodd" d="M86.2363 74.7191L92.0918 77.4251L96.0992 76.531L102.333 75.1883L104.114 75.6359C104.114 75.6359 105.737 76.2134 105.895 76.531C106.053 76.8476 105.004 77.4251 105.004 77.4251L102.333 77.8727L99.6611 79.6619L95.6537 85.0306L88.0843 80.1095L86.2363 74.7191Z" fill="#489EFA"/>
</g>
<mask id="mask2_2_3789" style="mask-type:alpha" maskUnits="userSpaceOnUse" x="120" y="24" width="27" height="33">
<path d="M133.489 56.742C129.654 56.742 126.353 56.4347 124.878 55.9026L124.839 51.9487C123.446 49.8935 122.275 47.2823 121.369 44.9909C118.98 38.8508 122.517 36.2748 128.1 35.1394C128.677 34.7392 129.395 34.5928 130.313 34.8723L130.451 35.8685L131.618 35.72L131.536 34.5103C131.78 34.5309 132.021 34.5567 132.241 34.5691C131.821 34.3632 131.466 34.0439 131.217 33.6473C130.968 33.2506 130.835 32.7923 130.833 32.3241C130.833 31.5496 131.212 30.8494 131.795 30.3832H130.901C131.348 29.9151 132.334 28.8952 132.475 28.2836C131.844 28.4218 130.756 29.3602 130.266 29.7892V24.8021C130.756 25.2208 131.844 26.1644 132.475 26.3036C132.333 25.6818 131.348 24.667 130.9 24.1968H136.151C135.694 24.667 134.7 25.6818 134.566 26.3047C135.209 26.1654 136.273 25.2218 136.783 24.8032V29.7882C136.273 29.3602 135.209 28.4218 134.556 28.2826C134.701 28.8952 135.694 29.9078 136.136 30.3832H135.237C135.832 30.8483 136.201 31.5486 136.201 32.3241C136.201 33.3037 135.639 34.137 134.811 34.5598C135.021 34.5567 135.23 34.532 135.459 34.5103L135.393 35.72L136.783 35.8685L137.113 34.8836C138.031 34.6031 138.315 34.7392 138.903 35.1394C144.487 36.2737 148.023 38.8508 145.634 44.9909C144.73 47.2823 143.557 49.8935 142.17 51.9487L142.127 55.9026C140.642 56.4347 137.352 56.742 133.488 56.742H133.489Z" fill="white"/>
</mask>
<g mask="url(#mask2_2_3789)">
<path d="M133.489 56.742C129.654 56.742 126.353 56.4347 124.878 55.9026L124.839 51.9487C123.446 49.8935 122.275 47.2823 121.369 44.9909C118.98 38.8508 122.517 36.2748 128.1 35.1394C128.677 34.7392 129.395 34.5928 130.313 34.8723L130.451 35.8685L131.618 35.72L131.536 34.5103C131.78 34.5309 132.021 34.5567 132.241 34.5691C131.821 34.3632 131.466 34.0439 131.217 33.6473C130.968 33.2506 130.835 32.7923 130.833 32.3241C130.833 31.5496 131.212 30.8494 131.795 30.3832H130.901C131.348 29.9151 132.334 28.8952 132.475 28.2836C131.844 28.4218 130.756 29.3602 130.266 29.7892V24.8021C130.756 25.2208 131.844 26.1644 132.475 26.3036C132.333 25.6818 131.348 24.667 130.9 24.1968H136.151C135.694 24.667 134.7 25.6818 134.566 26.3047C135.209 26.1654 136.273 25.2218 136.783 24.8032V29.7882C136.273 29.3602 135.209 28.4218 134.556 28.2826C134.701 28.8952 135.694 29.9078 136.136 30.3832H135.237C135.832 30.8483 136.201 31.5486 136.201 32.3241C136.201 33.3037 135.639 34.137 134.811 34.5598C135.021 34.5567 135.23 34.532 135.459 34.5103L135.393 35.72L136.783 35.8685L137.113 34.8836C138.031 34.6031 138.315 34.7392 138.903 35.1394C144.487 36.2737 148.023 38.8508 145.634 44.9909C144.73 47.2823 143.557 49.8935 142.17 51.9487L142.127 55.9026C140.642 56.4347 137.352 56.742 133.488 56.742H133.489Z" fill="#FFB732"/>
<path fill-rule="evenodd" clip-rule="evenodd" d="M130.463 34.5464H136.908V58.3229H130.463V34.5464Z" fill="#DC991D"/>
</g>
<path fill-rule="evenodd" clip-rule="evenodd" d="M133.502 52.0241C132.93 52.0221 132.383 51.7934 131.98 51.388C131.577 50.9827 131.352 50.434 131.354 49.8626C131.352 49.2911 131.577 48.7424 131.98 48.3371C132.383 47.9317 132.93 47.703 133.502 47.7011C134.073 47.703 134.62 47.9317 135.023 48.3371C135.426 48.7424 135.651 49.2911 135.65 49.8626C135.651 50.434 135.426 50.9827 135.023 51.388C134.62 51.7934 134.073 52.0221 133.502 52.0241ZM133.502 46.6203C132.93 46.6184 132.383 46.3896 131.98 45.9843C131.577 45.579 131.352 45.0303 131.354 44.4588C131.352 43.8874 131.577 43.3386 131.98 42.9333C132.383 42.528 132.93 42.2992 133.502 42.2973C134.073 42.2992 134.62 42.528 135.023 42.9333C135.426 43.3386 135.651 43.8874 135.65 44.4588C135.651 45.0303 135.426 45.579 135.023 45.9843C134.62 46.3896 134.073 46.6184 133.502 46.6203ZM133.502 41.2166C132.93 41.2146 132.383 40.9859 131.98 40.5805C131.577 40.1752 131.352 39.6265 131.354 39.0551C131.352 38.4836 131.577 37.9349 131.98 37.5296C132.383 37.1242 132.93 36.8955 133.502 36.8936C134.073 36.8955 134.62 37.1242 135.023 37.5296C135.426 37.9349 135.651 38.4836 135.65 39.0551C135.651 39.6265 135.426 40.1752 135.023 40.5805C134.62 40.9859 134.073 41.2146 133.502 41.2166Z" fill="#FFCE74"/>
<path fill-rule="evenodd" clip-rule="evenodd" d="M136.73 56.6462C139.191 59.1315 144.663 62.2655 150.036 63.3906C154.486 64.3229 163.16 63.7887 166.584 63.5288C170.592 63.1978 174.454 61.9015 176.475 59.7575C180.09 55.9027 174.372 50.9372 176.397 47.0793C178.317 48.0425 179.785 49.0872 182.549 49.5213C182.793 50.0741 183.024 51.259 183.135 51.8241C184.009 56.2172 179.772 56.8937 180.831 61.5643C181.306 63.6515 182.891 64.2971 183.387 66.768C183.434 66.768 183.624 68.6087 182.101 70.069C185.59 70.1216 187.391 67.2145 186.282 64.4219C185.842 63.3236 184.635 62.2119 184.672 60.9115C186.431 63.369 187.979 63.1895 190.699 62.3387C191.943 61.9675 192.068 63.7185 191.325 65.0757C193.188 64.0362 193.678 62.1562 193.658 61.3095C193.637 59.3656 192.203 58.5128 190.753 58.8304C189.924 59.016 188.277 60.0679 188.144 58.4592C187.927 55.7057 192.141 55.8501 191.255 51.3848C190.791 49.0696 188.346 47.9322 184.588 47.3939C184.135 47.0329 183.245 46.1089 182.742 45.3159C180.535 41.7313 178.392 40.8413 177.106 41.5477C175.582 42.416 174.841 43.0781 173.518 43.7608C172.558 44.264 171.445 44.5239 170.831 45.3159C169.196 47.4351 170.687 50.6784 171.618 52.6481C172.17 53.8124 173.539 56.5359 172.969 58.4396C172.261 60.8011 168.396 62.2965 166.015 62.8131C164.046 63.271 158.087 63.5535 154.486 62.7925C151.289 62.1242 143.877 57.7229 142.072 55.1138C141.384 54.2259 141.236 54.263 141.236 54.263C138.763 53.2421 133.502 53.3122 133.502 53.3122C133.502 53.3122 134.611 54.4909 136.73 56.6462ZM130.242 56.6462C127.802 59.1315 122.332 62.2655 116.95 63.3906C112.497 64.3229 103.827 63.7887 100.411 63.5288C96.409 63.1978 92.546 61.9015 90.5278 59.7575C86.9205 55.9027 92.6181 50.9372 90.5928 47.0793C88.6777 48.0425 87.2092 49.0872 84.4362 49.5213C84.2011 50.0741 83.9629 51.259 83.8536 51.8241C82.9739 56.2172 87.2237 56.8937 86.1739 61.5643C85.6871 63.6515 84.099 64.2971 83.5957 66.768C83.5545 66.768 83.3534 68.6087 84.8879 70.069C81.4002 70.1216 79.5955 67.2145 80.7268 64.4219C81.1599 63.3236 82.3603 62.2119 82.317 60.9115C80.568 63.369 79.0046 63.1895 76.2842 62.3387C75.0477 61.9675 74.9363 63.7185 75.6592 65.0757C73.8277 64.0362 73.3286 62.1562 73.3461 61.3095C73.3585 59.3656 74.8085 58.5128 76.2409 58.8304C77.0617 59.016 78.7262 60.0679 78.8561 58.4592C79.0644 55.7057 74.8559 55.8501 75.7438 51.3848C76.2006 49.0696 78.6499 47.9322 82.3995 47.3939C82.8687 47.0329 83.7525 46.1089 84.2413 45.3159C86.4616 41.7313 88.5973 40.8413 89.8822 41.5477C91.4167 42.416 92.1737 43.0781 93.4782 43.7608C94.429 44.264 95.5356 44.5239 96.176 45.3159C97.7919 47.4351 96.3038 50.6784 95.3788 52.6481C94.823 53.8124 93.438 56.5359 94.0155 58.4396C94.7322 60.8011 98.6107 62.2965 100.958 62.8131C102.928 63.271 108.909 63.5535 112.498 62.7925C115.69 62.1242 123.106 57.7229 124.91 55.1138C125.612 54.2259 125.746 54.263 125.746 54.263C128.214 53.2421 133.501 53.3122 133.501 53.3122C133.501 53.3122 132.356 54.4909 130.242 56.6462Z" fill="#62AEFF"/>
<path fill-rule="evenodd" clip-rule="evenodd" d="M160.606 50.704C160.956 50.3605 161.175 49.8934 161.175 49.384C161.175 48.9446 161.012 48.5311 160.747 48.2125H161.312L161.102 47.9815C160.957 47.8103 160.72 47.5793 160.512 47.3276C160.405 47.1956 160.311 47.0327 160.238 46.9213C160.361 47.0038 160.49 47.0935 160.627 47.1977C160.898 47.404 161.14 47.6257 161.312 47.7649L161.535 47.9588V44.0194L161.312 44.2133C161.14 44.3494 160.898 44.5742 160.627 44.7794C160.49 44.8887 160.362 44.9908 160.238 45.0558C160.31 44.93 160.405 44.8011 160.512 44.668C160.721 44.403 160.956 44.1524 161.102 44.0029L161.312 43.7781H157.229L157.444 44.0029C157.581 44.1524 157.829 44.403 158.035 44.668C158.145 44.8011 158.236 44.93 158.316 45.0558C158.188 44.9908 158.064 44.8887 157.914 44.7794C157.649 44.5742 157.402 44.3494 157.229 44.2133L156.998 44.0184V47.9815L157.229 47.7649C157.402 47.6277 157.649 47.404 157.914 47.1977C158.064 47.0935 158.197 47.0038 158.316 46.943C158.236 47.0451 158.145 47.1956 158.035 47.3276C157.829 47.5803 157.593 47.8103 157.452 47.9815L157.229 48.2125H157.812C157.529 48.5311 157.375 48.9446 157.375 49.384C157.375 49.8934 157.581 50.3605 157.944 50.704L157.854 50.6916L157.906 51.5506L157.409 51.6125L157.324 50.9855L157.229 50.9597C156.604 50.7792 156.118 50.8514 155.672 51.1464C152.017 51.9033 149.58 53.7162 151.197 57.9423C151.702 59.2613 152.335 60.7236 153.08 61.9879V63.8421C153.08 63.8421 157.573 64.0153 159.267 64.0153C160.994 64.0153 165.513 63.8421 165.513 63.8421L165.497 61.9879C166.232 60.7236 166.875 59.2613 167.372 57.9433C168.971 53.7162 166.567 51.9033 162.895 51.1474C162.485 50.8514 161.962 50.7792 161.328 50.9597L161.255 50.9855L161.157 51.6115L160.671 51.5506L160.721 50.6916L160.606 50.704ZM105.825 49.384C105.825 48.9446 105.996 48.5311 106.269 48.2125H105.691L105.904 47.9815C106.054 47.8103 106.289 47.5793 106.491 47.3276C106.605 47.1956 106.697 47.0327 106.768 46.9213C106.647 47.0038 106.51 47.0935 106.371 47.1977C106.105 47.404 105.85 47.6257 105.691 47.7649L105.454 47.9588V44.0194L105.691 44.2133C105.85 44.3494 106.105 44.5742 106.377 44.7794C106.518 44.8887 106.647 44.9908 106.768 45.0558C106.689 44.9174 106.596 44.7875 106.49 44.668C106.309 44.4341 106.113 44.212 105.904 44.0029L105.691 43.7781H109.756L109.556 44.0029C109.415 44.1524 109.187 44.403 108.964 44.668C108.866 44.8011 108.754 44.93 108.684 45.0558C108.816 44.9908 108.947 44.8887 109.084 44.7794C109.357 44.5742 109.61 44.3494 109.765 44.2133L110.007 44.0184V47.9815L109.764 47.7649C109.609 47.6277 109.357 47.404 109.083 47.1977C108.96 47.0985 108.826 47.0131 108.684 46.943C108.754 47.0451 108.866 47.1956 108.964 47.3276C109.187 47.5803 109.415 47.8103 109.556 47.9815L109.756 48.2125H109.196C109.467 48.5311 109.634 48.9446 109.634 49.384C109.634 49.8934 109.415 50.3605 109.073 50.704L109.161 50.6916L109.107 51.5506L109.588 51.6125L109.685 50.9855L109.764 50.9597C110.391 50.7792 110.909 50.8514 111.325 51.1464C115 51.9033 117.411 53.7162 115.808 57.9423C115.301 59.2613 114.679 60.7236 113.94 61.9879L113.917 63.8421C113.917 63.8421 109.435 64.0153 107.721 64.0153C106.022 64.0153 101.488 63.8421 101.488 63.8421L101.499 61.9879C100.772 60.7236 100.135 59.2613 99.6299 57.9433C98.0243 53.7162 100.445 51.9033 104.116 51.1474C104.535 50.8514 105.042 50.7792 105.671 50.9597L105.75 50.9855L105.85 51.6115L106.335 51.5506L106.289 50.6916L106.396 50.704C106.054 50.3605 105.825 49.8934 105.825 49.384Z" fill="#FFB732"/>
<g filter="url(#filter1_d_2_3789)">
<path d="M133.512 105.492H112.018V146.667C112.018 151.748 114.333 154.188 119.059 154.188H126.187C129.931 154.188 132.545 156.821 133.512 159.934C134.468 156.82 137.057 154.188 140.814 154.188H147.94C152.68 154.188 154.986 151.748 154.986 146.667V105.492H133.512Z" fill="black"/>
</g>
<path d="M133.512 105.492H112.018V146.667C112.018 151.748 114.333 154.188 119.059 154.188H126.187C129.931 154.188 132.545 156.821 133.512 159.934C134.468 156.82 137.057 154.188 140.814 154.188H147.94C152.68 154.188 154.986 151.748 154.986 146.667V105.492H133.512Z" fill="#F15A4E"/>
<path fill-rule="evenodd" clip-rule="evenodd" d="M106.594 202.228C106.594 202.228 106.038 201.93 105.387 199.788C104.737 197.646 105.04 190.994 113.12 188.509C121.2 186.024 131.319 197.901 138.549 195.677C145.778 193.454 144.91 182.946 144.91 182.946C144.91 182.946 143.626 166.477 153.831 163.338C164.038 160.199 170.765 167.03 170.765 167.03C170.765 167.03 183.331 182.372 191.41 179.887C199.491 177.401 192.278 167.439 192.278 167.439C192.278 167.439 197.581 163.467 200.054 171.606C202.529 179.745 195.395 183.814 192.843 184.599C190.291 185.383 182.932 187.179 174.019 177.742C165.106 168.303 160.497 166.909 156.245 168.218C151.992 169.526 151.037 174.035 150.343 179.402C149.649 184.769 151.758 196.299 139.851 199.961C127.944 203.624 122.076 190.438 114.422 192.793C106.767 195.147 106.594 202.228 106.594 202.228Z" fill="#FFB732"/>
<path fill-rule="evenodd" clip-rule="evenodd" d="M206.924 149.03C206.924 149.03 192.365 156.921 197.014 154.237C201.664 151.553 195.569 143.007 191.077 141.488C186.583 139.969 183.261 127.729 183.261 127.729L200.343 132.264C200.343 132.264 207.829 133.598 207.894 138.186C207.961 142.775 201.367 142.984 203.593 146.84C204.929 149.153 206.924 149.03 206.924 149.03ZM208.705 152.115C208.705 152.115 207.601 153.781 208.936 156.094C211.162 159.951 214.641 154.344 218.582 156.696C222.523 159.048 219.935 166.197 219.935 166.197L215.32 183.258C215.32 183.258 209.469 178.899 208.601 170.683C207.731 162.466 203.89 155.409 199.241 158.093C194.591 160.778 208.705 152.115 208.705 152.115Z" fill="#FFB732"/>
<path d="M214.38 147.632L213.643 146.354C213.109 145.429 211.926 145.112 211.001 145.646L106.64 205.899C105.715 206.433 105.399 207.616 105.933 208.54L106.67 209.818C107.204 210.743 108.387 211.06 109.312 210.526L213.673 150.273C214.598 149.739 214.914 148.557 214.38 147.632Z" fill="url(#paint2_linear_2_3789)"/>
<path d="M214.794 150.135L211.683 144.746C211.312 144.104 210.492 143.885 209.85 144.255L209.849 144.256C209.207 144.626 208.987 145.447 209.358 146.088L212.469 151.477C212.84 152.119 213.66 152.339 214.302 151.968L214.303 151.968C214.944 151.597 215.164 150.777 214.794 150.135Z" fill="#F9A812"/>
<path d="M212.461 147.889C214.183 150.87 218.007 151.885 221.003 150.156C223.999 148.426 225.032 144.607 223.31 141.625C221.589 138.643 217.765 137.629 214.769 139.358C211.773 141.088 210.74 144.907 212.461 147.889Z" fill="#FFB732"/>
<path fill-rule="evenodd" clip-rule="evenodd" d="M49.8321 140.354C53.3002 136.127 57.8294 133.69 61.975 133.871C62.0991 133.357 62.3361 132.877 62.669 132.465C63.0019 132.054 63.4223 131.722 63.8996 131.493C64.3769 131.264 64.8991 131.145 65.4283 131.143C65.9575 131.142 66.4804 131.258 66.9591 131.484C67.4387 131.707 67.8629 132.033 68.2011 132.439C68.5392 132.846 68.7828 133.322 68.9144 133.834C69.0459 134.347 69.0621 134.882 68.9616 135.401C68.8612 135.92 68.6468 136.41 68.3337 136.836C70.7139 139.432 71.8255 143.451 71.4914 147.891C71.6704 147.806 71.8661 147.761 72.0644 147.761C72.2628 147.76 72.4587 147.804 72.6382 147.888C73.3095 148.202 73.6034 148.993 73.2878 149.669L71.2171 154.11C71.2625 154.127 71.3058 154.146 71.3501 154.166L167.591 199.043C167.821 199.15 168.028 199.301 168.199 199.488C168.371 199.675 168.504 199.893 168.591 200.132C168.678 200.37 168.717 200.623 168.706 200.877C168.695 201.13 168.634 201.379 168.527 201.609L167.9 202.955C167.682 203.418 167.29 203.777 166.809 203.951C166.327 204.126 165.796 204.102 165.332 203.886L69.0917 159.009C69.0483 158.989 69.0056 158.967 68.9638 158.943L66.8931 163.385C66.8187 163.544 66.7136 163.688 66.5837 163.807C66.4538 163.926 66.3017 164.018 66.1361 164.078C65.9706 164.138 65.7948 164.164 65.6189 164.156C65.443 164.148 65.2704 164.105 65.1111 164.03C64.9311 163.947 64.7718 163.825 64.6446 163.673C64.5175 163.521 64.4257 163.343 64.3758 163.151C61.1892 166.261 57.3953 167.992 53.8777 167.838C53.7536 168.352 53.5166 168.833 53.1837 169.244C52.8508 169.655 52.4304 169.987 51.9531 170.216C51.4758 170.445 50.9536 170.564 50.4244 170.566C49.8952 170.567 49.3723 170.451 48.8936 170.225C48.414 170.002 47.9898 169.676 47.6516 169.27C47.3135 168.863 47.0699 168.387 46.9383 167.875C46.8068 167.362 46.7906 166.828 46.8911 166.308C46.9915 165.789 47.2059 165.299 47.519 164.873C44.714 161.813 43.6703 156.778 44.6799 151.404C44.4231 151.384 44.172 151.318 43.9385 151.21C42.1472 150.374 41.8749 147.167 43.33 144.048C44.7841 140.927 47.4169 139.075 49.2082 139.91C49.4423 140.02 49.6506 140.169 49.8321 140.354ZM64.4139 153.88C66.9085 148.531 66.0258 142.84 62.4432 141.17C58.8596 139.499 53.9333 142.48 51.4398 147.829C48.9442 153.178 49.8269 158.869 53.4095 160.54C56.9931 162.21 61.9193 159.229 64.4139 153.88Z" fill="#FFB732"/>
<mask id="mask3_2_3789" style="mask-type:alpha" maskUnits="userSpaceOnUse" x="139" y="165" width="55" height="67">
<path d="M147.202 175.317L139.11 227.259C138.273 231.345 142.936 231.415 147.261 230.758C157.626 229.158 175.765 216.876 185.266 222.158C186.692 210.886 193.972 166.67 193.972 166.67C193.972 166.67 191.654 163.86 182.721 166.024C173.778 168.169 153.869 176.678 147.202 175.317Z" fill="white"/>
</mask>
<g mask="url(#mask3_2_3789)">
<path d="M147.202 175.317L139.11 227.259C138.273 231.345 142.936 231.415 147.261 230.758C157.626 229.158 175.765 216.876 185.266 222.158C186.692 210.886 193.972 166.67 193.972 166.67C193.972 166.67 191.654 163.86 182.721 166.024C173.778 168.169 153.869 176.678 147.202 175.317Z" fill="white"/>
<path fill-rule="evenodd" clip-rule="evenodd" d="M142.307 204.677L139.11 227.259C138.273 231.345 142.936 231.415 147.261 230.758C157.626 229.158 175.765 216.876 185.266 222.158C186.692 210.886 189.127 196.522 189.127 196.522C189.127 196.522 186.759 193.24 177.816 195.377C168.886 197.548 148.975 206.032 142.307 204.678" fill="#E84A3D"/>
<path fill-rule="evenodd" clip-rule="evenodd" d="M188.115 202.976C189.102 196.701 190.174 189.974 191.141 184.018C189.802 183.18 186.165 181.633 179.37 183.275C170.681 185.38 151.677 193.42 144.49 192.64L141.844 209.457C142.658 212.214 145.769 212.87 150.106 212.525C160.463 211.712 178.563 198.022 188.115 202.976Z" fill="#3590F1"/>
<path fill-rule="evenodd" clip-rule="evenodd" d="M178.923 165.765L169.117 220.86H156.34L166.249 163.624L178.923 165.765Z" fill="black" fill-opacity="0.12"/>
</g>
<path fill-rule="evenodd" clip-rule="evenodd" d="M138.904 228.763C139.54 224.446 145.49 224.303 149.407 224.495C153.373 224.702 160.649 224.588 161.206 221.427C161.932 217.22 162.236 212.039 162.236 212.039L141.523 212.274L138.904 228.764" fill="#C3382D"/>
<path d="M71.8418 220.418L80.7136 167.205C89.0771 172.135 101.675 179.726 128.508 169.495C149.981 161.3 169.967 159.828 168.997 168.275C169.144 168.38 161.093 221.642 161.093 221.642C162.667 211.618 136.939 223.573 123.476 228.251C108.881 233.306 84.753 229.652 71.8418 220.418Z" fill="white"/>
<path d="M71.8418 220.418L76.632 191.893C85.0057 196.814 98.1345 203.849 124.96 193.604C146.444 185.422 166.406 183.939 165.461 192.389C165.588 192.499 161.093 221.642 161.093 221.642C162.667 211.619 136.939 223.573 123.476 228.252C108.881 233.306 84.753 229.652 71.8418 220.418Z" fill="#F15A4E"/>
<path d="M104.59 211.06C93.28 211.06 82.8716 207.74 74.8691 202.206L77.9629 183.708C86.3913 188.759 100.006 197.557 125.944 187.668C137.776 183.153 149.431 180.561 157.349 180.561C162.159 180.561 165.59 181.517 166.844 183.581C166.043 189.151 165.093 195.568 164.211 201.586C161.574 194.394 138.246 202.429 126.072 207.056C118.805 209.811 111.528 211.061 104.591 211.061H104.59V211.06Z" fill="#469FFF"/>
<path d="M160.357 70.3958C161.543 70.3958 162.505 69.428 162.505 68.2343C162.505 67.0405 161.543 66.0728 160.357 66.0728C159.171 66.0728 158.209 67.0405 158.209 68.2343C158.209 69.428 159.171 70.3958 160.357 70.3958Z" fill="white"/>
<path d="M106.646 70.3905C107.833 70.3905 108.794 69.4242 108.794 68.2321C108.794 67.0401 107.833 66.0737 106.646 66.0737C105.46 66.0737 104.498 67.0401 104.498 68.2321C104.498 69.4242 105.46 70.3905 106.646 70.3905Z" fill="white"/>
<path fill-rule="evenodd" clip-rule="evenodd" d="M148.61 122.163C148.61 122.163 149.502 116.347 146.826 114.109C144.149 111.874 140.58 113.215 140.58 113.215L136.119 117.242C136.119 117.242 134.78 115.004 133.888 114.558C135.227 114.11 137.011 112.32 136.119 110.531C135.227 108.742 132.996 109.189 132.104 110.531C131.212 111.874 131.658 113.663 131.658 113.663C131.658 113.663 128.754 114.558 127.53 114.558C126.304 114.558 126.304 111.874 126.304 111.874C126.304 111.874 126.751 111.426 126.751 110.531C126.751 109.637 124.967 109.189 124.52 109.637C124.074 110.083 124.52 111.874 124.52 111.874C124.52 111.874 125.943 114.558 124.52 114.558C123.097 114.558 119.729 112.813 118.721 113.215C117.712 113.617 117.829 119.369 120.059 121.716C122.29 124.062 128.536 121.716 128.536 121.716L129.427 124.848C129.427 124.848 126.751 124.4 125.412 125.295C124.074 126.189 123.628 126.189 123.628 126.189C123.628 126.189 122.735 123.953 120.059 123.953C117.382 123.953 116.491 128.426 116.491 128.426C116.491 128.426 115.598 132.453 117.829 134.242C120.059 136.032 121.843 132.901 121.397 131.11C120.951 129.321 122.735 127.532 122.735 127.532C122.735 127.532 121.775 129.952 124.074 133.795C125.412 136.033 120.951 142.743 120.951 142.743L120.059 147.217L122.735 148.112C122.735 148.112 121.398 145.427 122.735 142.743C124.074 140.059 128.982 136.479 128.982 136.479C128.982 136.479 129.427 138.717 130.766 140.058C131.275 140.569 131.555 142.448 132.55 144.009C133.261 145.123 135.002 147.192 135.94 148.286C136.318 148.724 135.604 149.006 135.604 149.006H138.292C138.292 149.006 132.104 140.059 132.55 137.373C132.996 134.69 133.888 134.242 133.888 134.242H135.227C135.227 134.242 134.78 137.374 136.565 137.821C138.349 138.268 138.796 136.927 139.688 139.164C140.58 141.401 143.256 147.217 143.256 147.217L142.811 148.558L145.933 149.006C145.933 149.006 144.149 146.769 143.257 143.637C142.365 140.506 141.473 134.69 141.473 134.69C141.473 134.69 142.811 135.138 144.596 133.795C146.38 132.453 148.61 131.558 148.61 131.558C148.61 131.558 149.056 134.242 147.718 135.136C146.38 136.032 145.934 136.032 145.934 136.032L145.041 138.269C145.041 138.269 148.164 138.269 149.056 136.479C149.949 134.69 151.286 130.663 150.394 129.321C149.502 127.979 144.149 130.216 144.149 130.216C144.149 130.216 143.703 127.084 143.257 125.742C142.811 124.4 142.811 123.505 142.811 123.505C142.811 123.505 144.595 122.611 145.488 122.611C146.38 122.611 145.933 123.953 147.718 123.505C149.502 123.057 148.61 122.163 148.61 122.163Z" fill="#FFB732"/>
</g>
</g>
<defs>
<filter id="filter0_d_2_3789" x="38.3945" y="24.1968" width="189.749" height="196.855" filterUnits="userSpaceOnUse" color-interpolation-filters="sRGB">
<feFlood flood-opacity="0" result="BackgroundImageFix"/>
<feColorMatrix in="SourceAlpha" type="matrix" values="0 0 0 0 0 0 0 0 0 0 0 0 0 0 0 0 0 0 127 0" result="hardAlpha"/>
<feOffset dy="4"/>
<feGaussianBlur stdDeviation="2"/>
<feComposite in2="hardAlpha" operator="out"/>
<feColorMatrix type="matrix" values="0 0 0 0 0 0 0 0 0 0.58 0 0 0 0 1 0 0 0 0.3 0"/>
<feBlend mode="normal" in2="BackgroundImageFix" result="effect1_dropShadow_2_3789"/>
<feBlend mode="normal" in="SourceGraphic" in2="effect1_dropShadow_2_3789" result="shape"/>
</filter>
<filter id="filter1_d_2_3789" x="108.018" y="102.492" width="50.9678" height="62.4418" filterUnits="userSpaceOnUse" color-interpolation-filters="sRGB">
<feFlood flood-opacity="0" result="BackgroundImageFix"/>
<feColorMatrix in="SourceAlpha" type="matrix" values="0 0 0 0 0 0 0 0 0 0 0 0 0 0 0 0 0 0 127 0" result="hardAlpha"/>
<feOffset dy="1"/>
<feGaussianBlur stdDeviation="2"/>
<feColorMatrix type="matrix" values="0 0 0 0 0 0 0 0 0 0 0 0 0 0 0 0 0 0 0.12 0"/>
<feBlend mode="normal" in2="BackgroundImageFix" result="effect1_dropShadow_2_3789"/>
<feBlend mode="normal" in="SourceGraphic" in2="effect1_dropShadow_2_3789" result="shape"/>
</filter>
<linearGradient id="paint0_linear_2_3789" x1="133.502" y1="63.6661" x2="133.502" y2="190.623" gradientUnits="userSpaceOnUse">
<stop stop-color="#85C1FF"/>
<stop offset="1" stop-color="#FBFBFB"/>
</linearGradient>
<linearGradient id="paint1_linear_2_3789" x1="133.502" y1="39.5663" x2="133.502" y2="210.049" gradientUnits="userSpaceOnUse">
<stop stop-color="#187FED"/>
<stop offset="1" stop-color="#469FFF"/>
</linearGradient>
<linearGradient id="paint2_linear_2_3789" x1="189.729" y1="161.012" x2="106.301" y2="209.179" gradientUnits="userSpaceOnUse">
<stop stop-color="#FFBD44"/>
<stop offset="1" stop-color="#E19A17"/>
</linearGradient>
</defs>
</svg>
