<svg width="176" height="176" viewBox="0 0 176 176" fill="none" xmlns="http://www.w3.org/2000/svg">
<rect x="38" y="48.6738" width="74.8496" height="85.4576" rx="13.3997" transform="rotate(-11.4793 38 48.6738)" fill="white"/>
<g filter="url(#filter0_d_41_4532)">
<rect x="48.2725" y="36.7781" width="79.6785" height="90.3024" rx="13.3997" fill="white"/>
</g>
<ellipse cx="121.421" cy="43.3881" rx="12.5554" ry="12.1631" fill="url(#paint0_linear_41_4532)"/>
<rect x="87.7617" y="51.6274" width="2.35414" height="9.41656" rx="1.17707" transform="rotate(15 87.7617 51.6274)" fill="#FEAB4A"/>
<path d="M69.901 48.4154C69.576 47.8524 69.7689 47.1325 70.3319 46.8075C70.8949 46.4824 71.6147 46.6753 71.9398 47.2383L75.471 53.3545C75.796 53.9175 75.6031 54.6374 75.0401 54.9624C74.4772 55.2875 73.7573 55.0946 73.4322 54.5316L69.901 48.4154Z" fill="#FEAB4A"/>
<rect x="75.5039" y="81.4464" width="2.35414" height="9.41656" rx="1.17707" transform="rotate(45 75.5039 81.4464)" fill="#FEAB4A"/>
<rect x="114.038" y="63.3981" width="2.35414" height="9.41656" rx="1.17707" transform="rotate(75 114.038 63.3981)" fill="#FEAB4A"/>
<rect x="71.4873" y="65.8353" width="2.35414" height="9.41656" rx="1.17707" transform="rotate(105 71.4873 65.8353)" fill="#FEAB4A"/>
<rect x="85.0723" y="76.4823" width="4.48407" height="42.0382" rx="2.24204" transform="rotate(-30 85.0723 76.4823)" fill="#002D4F"/>
<g filter="url(#filter1_d_41_4532)">
<path d="M77.9242 63.4218C77.5214 61.5267 79.7789 60.2233 81.2188 61.5197L84.341 64.3309C84.9848 64.9107 85.9288 65.0099 86.6792 64.5767L90.3177 62.476C91.9955 61.5073 93.9328 63.2516 93.1448 65.0215L91.4359 68.8596C91.0835 69.6512 91.2809 70.5796 91.9248 71.1594L95.047 73.9706C96.4868 75.267 95.4265 77.6485 93.4996 77.446L89.3213 77.0068C88.4596 76.9162 87.6376 77.3908 87.2852 78.1824L85.5763 82.0205C84.7883 83.7904 82.1958 83.518 81.793 81.6228L80.9194 77.5133C80.7393 76.6658 80.0339 76.0307 79.1722 75.9401L74.9939 75.5009C73.0671 75.2984 72.5251 72.7486 74.2029 71.7799L77.8414 69.6792C78.5918 69.246 78.9778 68.3788 78.7977 67.5313L77.9242 63.4218Z" fill="#FED64A"/>
</g>
<path d="M109.768 72.7808C110.296 71.9683 111.555 72.3057 111.606 73.2731L111.714 75.3412C111.737 75.7738 112.035 76.1426 112.454 76.2547L114.454 76.7907C115.39 77.0415 115.458 78.3431 114.554 78.6902L112.62 79.4324C112.216 79.5876 111.958 79.9857 111.98 80.4183L112.089 82.4864C112.139 83.4538 110.922 83.9209 110.313 83.168L109.01 81.5586C108.737 81.222 108.279 81.0991 107.874 81.2544L105.941 81.9965C105.036 82.3437 104.216 81.3307 104.744 80.5183L105.872 78.7815C106.108 78.4182 106.083 77.9442 105.81 77.6075L104.507 75.9981C103.897 75.2453 104.607 74.1522 105.543 74.4029L107.543 74.9389C107.962 75.051 108.405 74.8809 108.641 74.5176L109.768 72.7808Z" fill="#FED64A"/>
<path d="M97.9989 41.3919C98.5265 40.5794 99.7855 40.9168 99.8362 41.8842L99.9446 43.9522C99.9673 44.3849 100.266 44.7537 100.684 44.8658L102.685 45.4018C103.62 45.6525 103.689 46.9542 102.784 47.3013L100.851 48.0435C100.447 48.1987 100.188 48.5968 100.211 49.0294L100.319 51.0975C100.37 52.0649 99.1529 52.532 98.5433 51.7791L97.24 50.1697C96.9674 49.833 96.509 49.7102 96.1045 49.8655L94.1712 50.6076C93.2668 50.9548 92.4465 49.9418 92.9741 49.1294L94.102 47.3926C94.338 47.0292 94.3131 46.5553 94.0405 46.2186L92.7372 44.6092C92.1276 43.8564 92.8375 42.7632 93.7732 43.014L95.7735 43.55C96.192 43.6621 96.6351 43.492 96.871 43.1287L97.9989 41.3919Z" fill="#FED64A"/>
<path d="M72.8866 98.6759C73.4142 97.8635 74.6732 98.2008 74.7239 99.1682L74.8323 101.236C74.855 101.669 75.1537 102.038 75.5721 102.15L77.5725 102.686C78.5082 102.937 78.5764 104.238 77.672 104.585L75.7387 105.328C75.3342 105.483 75.0757 105.881 75.0984 106.313L75.2068 108.382C75.2575 109.349 74.0406 109.816 73.431 109.063L72.1277 107.454C71.8551 107.117 71.3967 106.994 70.9922 107.15L69.0589 107.892C68.1545 108.239 67.3342 107.226 67.8618 106.413L68.9897 104.677C69.2257 104.313 69.2008 103.839 68.9282 103.503L67.6249 101.893C67.0153 101.14 67.7252 100.047 68.6609 100.298L70.6612 100.834C71.0797 100.946 71.5228 100.776 71.7587 100.413L72.8866 98.6759Z" fill="#FED64A"/>
<path d="M62.6855 76.7039C63.2131 75.8914 64.4721 76.2288 64.5228 77.1962L64.6311 79.2642C64.6538 79.6969 64.9525 80.0657 65.3709 80.1778L67.3713 80.7138C68.307 80.9646 68.3752 82.2662 67.4708 82.6133L65.5375 83.3555C65.133 83.5107 64.8745 83.9088 64.8972 84.3414L65.0056 86.4095C65.0563 87.3769 63.8395 87.844 63.2298 87.0911L61.9266 85.4817C61.6539 85.1451 61.1955 85.0222 60.791 85.1775L58.8577 85.9196C57.9533 86.2668 57.133 85.2538 57.6606 84.4414L58.7885 82.7046C59.0245 82.3413 58.9997 81.8673 58.727 81.5306L57.4237 79.9212C56.8141 79.1684 57.524 78.0753 58.4597 78.326L60.4601 78.862C60.8785 78.9741 61.3216 78.804 61.5576 78.4407L62.6855 76.7039Z" fill="#FED64A"/>
<defs>
<filter id="filter0_d_41_4532" x="21.9225" y="12.2181" width="132.379" height="143.002" filterUnits="userSpaceOnUse" color-interpolation-filters="sRGB">
<feFlood flood-opacity="0" result="BackgroundImageFix"/>
<feColorMatrix in="SourceAlpha" type="matrix" values="0 0 0 0 0 0 0 0 0 0 0 0 0 0 0 0 0 0 127 0" result="hardAlpha"/>
<feOffset dy="1.79"/>
<feGaussianBlur stdDeviation="13.175"/>
<feColorMatrix type="matrix" values="0 0 0 0 0.386528 0 0 0 0 0.398292 0 0 0 0 0.504167 0 0 0 0.21 0"/>
<feBlend mode="normal" in2="BackgroundImageFix" result="effect1_dropShadow_41_4532"/>
<feBlend mode="normal" in="SourceGraphic" in2="effect1_dropShadow_41_4532" result="shape"/>
</filter>
<filter id="filter1_d_41_4532" x="69.2012" y="60.998" width="30.5137" height="30.2095" filterUnits="userSpaceOnUse" color-interpolation-filters="sRGB">
<feFlood flood-opacity="0" result="BackgroundImageFix"/>
<feColorMatrix in="SourceAlpha" type="matrix" values="0 0 0 0 0 0 0 0 0 0 0 0 0 0 0 0 0 0 127 0" result="hardAlpha"/>
<feOffset dy="4"/>
<feGaussianBlur stdDeviation="2"/>
<feComposite in2="hardAlpha" operator="out"/>
<feColorMatrix type="matrix" values="0 0 0 0 0.996078 0 0 0 0 0.839216 0 0 0 0 0.290196 0 0 0 0.3 0"/>
<feBlend mode="normal" in2="BackgroundImageFix" result="effect1_dropShadow_41_4532"/>
<feBlend mode="normal" in="SourceGraphic" in2="effect1_dropShadow_41_4532" result="shape"/>
</filter>
<linearGradient id="paint0_linear_41_4532" x1="111.219" y1="55.5512" x2="140.646" y2="28.871" gradientUnits="userSpaceOnUse">
<stop stop-color="#FDECC2" stop-opacity="0.17"/>
<stop offset="1" stop-color="#FED64A"/>
</linearGradient>
</defs>
</svg>
