<svg width="176" height="176" viewBox="0 0 176 176" fill="none" xmlns="http://www.w3.org/2000/svg">
<rect x="37.0283" y="50.7698" width="75.7949" height="86.5368" rx="13.3997" transform="rotate(-11.4793 37.0283 50.7698)" fill="white"/>
<g filter="url(#filter0_d_41_4478)">
<rect x="47.4307" y="38.7238" width="80.6848" height="91.4427" rx="13.3997" fill="white"/>
</g>
<path d="M87.4661 61.7548L86.4942 64.4343L84.0843 63.6407C83.0641 63.3053 82.1818 62.6451 81.5723 61.7609C83.5227 62.0966 85.5163 62.0945 87.4661 61.7548Z" fill="#EFC597"/>
<g filter="url(#filter1_d_41_4478)">
<path d="M114.967 72.1482L81.3235 59.9996C80.5944 59.7364 79.7907 59.7735 79.0889 60.1025C78.3871 60.4315 77.8446 61.0257 77.5806 61.7545L71.7858 77.7313C71.6546 78.0928 71.596 78.4766 71.6133 78.8607C71.6306 79.2448 71.7235 79.6218 71.8866 79.97C72.0498 80.3182 72.28 80.6308 72.5641 80.89C72.8481 81.1491 73.1805 81.3497 73.5422 81.4803L107.185 93.6289C107.914 93.8915 108.718 93.8542 109.42 93.5253C110.121 93.1963 110.664 92.6025 110.928 91.8741L116.721 75.8972C116.853 75.5358 116.911 75.1521 116.894 74.7681C116.877 74.384 116.784 74.0071 116.621 73.6589C116.458 73.3107 116.228 72.9981 115.944 72.7388C115.66 72.4796 115.328 72.2789 114.967 72.1482Z" fill="url(#paint0_linear_41_4478)"/>
</g>
<path d="M74.1406 71.2334L73.4414 73.1604L68.7602 75.22C68.6397 75.264 68.511 75.2811 68.3832 75.2701C68.2553 75.2591 68.1314 75.2204 68.0202 75.1565C67.9089 75.0927 67.8129 75.0053 67.7389 74.9005C67.6649 74.7957 67.6147 74.676 67.5918 74.5497C67.4851 73.9656 67.5474 73.3631 67.7713 72.8131C67.9953 72.2631 68.3717 71.7886 68.8562 71.4452L70.3323 70.3986C71.1775 70.4826 72.0139 70.6396 72.8321 70.8678L74.1406 71.2334Z" fill="#FBDBB9"/>
<path d="M82.401 68.2576L79.045 67.1532L73.5762 65.3526C72.556 65.0173 71.6737 64.357 71.0642 63.4728C73.0147 63.8085 75.0083 63.8065 76.9581 63.4667L77.5796 61.7545C77.8436 61.0257 78.3861 60.4316 79.0879 60.1025C79.7897 59.7735 80.5934 59.7365 81.3224 59.9996L82.4528 60.4078L75.9222 53.7067C75.5235 53.2426 74.9984 52.9045 74.4109 52.7335C73.8234 52.5626 73.1989 52.5662 72.6135 52.7439C63.6806 55.4768 55.6053 54.607 55.4575 54.5902H55.456L51.7314 64.9489L59.8783 68.6187C61.8092 69.6085 63.9355 70.1579 66.1042 70.2273L69.352 70.3324C69.6795 70.3431 70.0065 70.3649 70.333 70.3979C71.1783 70.4819 72.0147 70.6389 72.8328 70.8671L74.1414 71.2327L80.7893 73.0912C81.4261 73.2896 82.1154 73.2304 82.709 72.9262C83.3027 72.6221 83.7534 72.0972 83.9644 71.4644C84.1754 70.8317 84.1298 70.1414 83.8375 69.5418C83.5452 68.9422 83.0294 68.4812 82.401 68.2576Z" fill="#FFE0C6"/>
<path d="M47.4297 50.8261V65.6183L49.4245 66.3441C50.305 66.6645 51.2783 66.2083 51.5955 65.3266L55.466 54.5667C55.811 53.6076 55.2361 52.5634 54.2412 52.342L47.4297 50.8261Z" fill="#BCE7FF"/>
<path d="M67.6547 98.8586L79.6404 105.418C80.1157 102.37 82.7114 100.039 85.8419 100.039H94.2889C95.8056 100.039 97.302 99.6907 98.6624 99.0201L99.5322 98.592C101.854 97.4487 104.45 96.9783 107.025 97.2341C109.601 97.4898 112.053 98.4615 114.105 100.039L116.208 101.945C117.341 102.969 118.732 103.662 120.231 103.95L120.27 103.962L115.431 119.971L108.555 115.548C107.508 114.95 106.269 114.783 105.1 115.082L92.4045 117.46C89.1521 118.059 85.7932 117.576 82.8409 116.086L60.8773 100.745C61.5386 99.6091 62.617 98.7766 63.8828 98.4244C65.1487 98.0722 66.502 98.228 67.6547 98.8586Z" fill="#FFE8D5"/>
<path d="M79.5613 107.648C79.5753 107.648 79.5893 107.648 79.6034 107.647L86.8088 107.316C88.9204 107.219 91.0365 107.318 93.1297 107.613C93.2493 107.631 93.3712 107.625 93.4886 107.596C93.6059 107.567 93.7163 107.514 93.8133 107.442C93.9103 107.37 93.992 107.279 94.0537 107.175C94.1154 107.071 94.1558 106.956 94.1727 106.836C94.1895 106.717 94.1825 106.595 94.1519 106.478C94.1213 106.361 94.0678 106.251 93.9945 106.155C93.9212 106.059 93.8296 105.978 93.7249 105.918C93.6202 105.857 93.5045 105.818 93.3846 105.802C91.1791 105.492 88.9496 105.387 86.7247 105.49L80.5579 105.773C81.0042 103.211 83.2038 101.259 85.8418 101.259H94.2893C95.9451 101.256 97.5785 100.875 99.0648 100.146L99.9359 99.7169C102.098 98.6458 104.517 98.2027 106.918 98.438C109.319 98.6733 111.606 99.5775 113.519 101.048L115.594 102.927C116.853 104.062 118.398 104.832 120.062 105.153C120.181 105.177 120.303 105.177 120.421 105.153C120.54 105.129 120.652 105.082 120.752 105.014C120.852 104.946 120.938 104.859 121.004 104.758C121.071 104.657 121.116 104.544 121.139 104.426C121.161 104.307 121.159 104.185 121.134 104.067C121.109 103.949 121.061 103.837 120.992 103.737C120.924 103.638 120.836 103.553 120.734 103.488C120.633 103.423 120.519 103.378 120.4 103.357C119.067 103.099 117.83 102.482 116.821 101.572L114.718 99.6678C114.699 99.6511 114.68 99.6349 114.66 99.6197C112.477 97.9318 109.862 96.8921 107.116 96.6194C104.37 96.3467 101.602 96.8519 99.129 98.0775L98.2578 98.506C97.0227 99.1125 95.6653 99.4291 94.2893 99.4314H85.8419C81.8748 99.4314 78.6473 102.708 78.6473 106.735C78.6473 106.977 78.7436 107.21 78.915 107.381C79.0864 107.553 79.3189 107.649 79.5613 107.649V107.648Z" fill="#EED6C4"/>
<path d="M120.375 102.268L126.495 102.529C127.401 102.568 128.115 103.314 128.115 104.22V116.689C128.115 117.489 127.554 118.181 126.77 118.345L115.246 120.76L120.375 102.268Z" fill="#BCE7FF"/>
<circle cx="121.391" cy="50.8264" r="18.8264" fill="url(#paint1_linear_41_4478)"/>
<path d="M123.79 56.1649H119.984V58.8951H117.006V56.1649H114.583V53.7656H117.006V52.501H114.583V50.1017H117.006V41.6865H123.589C125.488 41.6865 127.005 42.1829 128.139 43.1757C129.274 44.1606 129.841 45.4726 129.841 47.1115C129.841 48.7819 129.302 50.0938 128.222 51.0472C127.143 51.9927 125.642 52.4773 123.719 52.501H119.984V53.7656H123.79V56.1649ZM119.984 50.1017H123.542C124.613 50.1017 125.433 49.8535 126 49.3571C126.568 48.8607 126.851 48.12 126.851 47.1351C126.851 46.2526 126.571 45.5317 126.012 44.9722C125.46 44.4128 124.696 44.1212 123.719 44.0976H119.984V50.1017Z" fill="white"/>
<defs>
<filter id="filter0_d_41_4478" x="21.0807" y="14.1638" width="133.385" height="144.143" filterUnits="userSpaceOnUse" color-interpolation-filters="sRGB">
<feFlood flood-opacity="0" result="BackgroundImageFix"/>
<feColorMatrix in="SourceAlpha" type="matrix" values="0 0 0 0 0 0 0 0 0 0 0 0 0 0 0 0 0 0 127 0" result="hardAlpha"/>
<feOffset dy="1.79"/>
<feGaussianBlur stdDeviation="13.175"/>
<feColorMatrix type="matrix" values="0 0 0 0 0.386528 0 0 0 0 0.398292 0 0 0 0 0.504167 0 0 0 0.21 0"/>
<feBlend mode="normal" in2="BackgroundImageFix" result="effect1_dropShadow_41_4478"/>
<feBlend mode="normal" in="SourceGraphic" in2="effect1_dropShadow_41_4478" result="shape"/>
</filter>
<filter id="filter1_d_41_4478" x="69.4077" y="59.8259" width="49.6924" height="38.3815" filterUnits="userSpaceOnUse" color-interpolation-filters="sRGB">
<feFlood flood-opacity="0" result="BackgroundImageFix"/>
<feColorMatrix in="SourceAlpha" type="matrix" values="0 0 0 0 0 0 0 0 0 0 0 0 0 0 0 0 0 0 127 0" result="hardAlpha"/>
<feOffset dy="2.20267"/>
<feGaussianBlur stdDeviation="1.10133"/>
<feColorMatrix type="matrix" values="0 0 0 0 0.239216 0 0 0 0 0.847059 0 0 0 0 0.74902 0 0 0 0.33 0"/>
<feBlend mode="normal" in2="BackgroundImageFix" result="effect1_dropShadow_41_4478"/>
<feBlend mode="normal" in="SourceGraphic" in2="effect1_dropShadow_41_4478" result="shape"/>
</filter>
<linearGradient id="paint0_linear_41_4478" x1="107.164" y1="66.5317" x2="77.787" y2="82.9065" gradientUnits="userSpaceOnUse">
<stop stop-color="#2BD5CA"/>
<stop offset="1" stop-color="#6FE09C"/>
</linearGradient>
<linearGradient id="paint1_linear_41_4478" x1="121.391" y1="32" x2="121.391" y2="69.6529" gradientUnits="userSpaceOnUse">
<stop stop-color="#9EEDBF"/>
<stop offset="1" stop-color="#BBEDD0" stop-opacity="0.17"/>
</linearGradient>
</defs>
</svg>
