<svg width="347" height="275" viewBox="0 0 347 275" fill="none" xmlns="http://www.w3.org/2000/svg">
<rect width="347" height="275" rx="12" fill="#F6F9F9"/>
<path d="M78.5869 199.203V212H76.8994V200.592H70.5889V212H68.8926V199.203H78.5869ZM83.043 204.318V215.656H81.4082V202.49H82.9023L83.043 204.318ZM89.4502 207.166V207.351C89.4502 208.042 89.3682 208.684 89.2041 209.275C89.04 209.861 88.7998 210.371 88.4834 210.805C88.1729 211.238 87.7891 211.575 87.332 211.815C86.875 212.056 86.3506 212.176 85.7588 212.176C85.1553 212.176 84.6221 212.076 84.1592 211.877C83.6963 211.678 83.3037 211.388 82.9814 211.007C82.6592 210.626 82.4014 210.169 82.208 209.636C82.0205 209.103 81.8916 208.502 81.8213 207.834V206.85C81.8916 206.146 82.0234 205.517 82.2168 204.96C82.4102 204.403 82.665 203.929 82.9814 203.536C83.3037 203.138 83.6934 202.836 84.1504 202.631C84.6074 202.42 85.1348 202.314 85.7324 202.314C86.3301 202.314 86.8604 202.432 87.3232 202.666C87.7861 202.895 88.1758 203.223 88.4922 203.65C88.8086 204.078 89.0459 204.591 89.2041 205.188C89.3682 205.78 89.4502 206.439 89.4502 207.166ZM87.8154 207.351V207.166C87.8154 206.691 87.7656 206.246 87.666 205.83C87.5664 205.408 87.4111 205.039 87.2002 204.723C86.9951 204.4 86.7314 204.148 86.4092 203.967C86.0869 203.779 85.7031 203.686 85.2578 203.686C84.8477 203.686 84.4902 203.756 84.1855 203.896C83.8867 204.037 83.6318 204.228 83.4209 204.468C83.21 204.702 83.0371 204.972 82.9023 205.276C82.7734 205.575 82.6768 205.886 82.6123 206.208V208.484C82.7295 208.895 82.8936 209.281 83.1045 209.645C83.3154 210.002 83.5967 210.292 83.9482 210.515C84.2998 210.731 84.7422 210.84 85.2754 210.84C85.7148 210.84 86.0928 210.749 86.4092 210.567C86.7314 210.38 86.9951 210.125 87.2002 209.803C87.4111 209.48 87.5664 209.111 87.666 208.695C87.7656 208.273 87.8154 207.825 87.8154 207.351ZM95.4707 212.176C94.8086 212.176 94.208 212.064 93.6689 211.842C93.1357 211.613 92.6758 211.294 92.2891 210.884C91.9082 210.474 91.6152 209.987 91.4102 209.425C91.2051 208.862 91.1025 208.247 91.1025 207.579V207.21C91.1025 206.437 91.2168 205.748 91.4453 205.145C91.6738 204.535 91.9844 204.02 92.377 203.598C92.7695 203.176 93.2148 202.856 93.7129 202.64C94.2109 202.423 94.7266 202.314 95.2598 202.314C95.9395 202.314 96.5254 202.432 97.0176 202.666C97.5156 202.9 97.9229 203.229 98.2393 203.65C98.5557 204.066 98.79 204.559 98.9424 205.127C99.0947 205.689 99.1709 206.305 99.1709 206.973V207.702H92.0693V206.375H97.5449V206.252C97.5215 205.83 97.4336 205.42 97.2812 205.021C97.1348 204.623 96.9004 204.295 96.5781 204.037C96.2559 203.779 95.8164 203.65 95.2598 203.65C94.8906 203.65 94.5508 203.729 94.2402 203.888C93.9297 204.04 93.6631 204.269 93.4404 204.573C93.2178 204.878 93.0449 205.25 92.9219 205.689C92.7988 206.129 92.7373 206.636 92.7373 207.21V207.579C92.7373 208.03 92.7988 208.455 92.9219 208.854C93.0508 209.246 93.2354 209.592 93.4756 209.891C93.7217 210.189 94.0176 210.424 94.3633 210.594C94.7148 210.764 95.1133 210.849 95.5586 210.849C96.1328 210.849 96.6191 210.731 97.0176 210.497C97.416 210.263 97.7646 209.949 98.0635 209.557L99.0479 210.339C98.8428 210.649 98.582 210.945 98.2656 211.227C97.9492 211.508 97.5596 211.736 97.0967 211.912C96.6396 212.088 96.0977 212.176 95.4707 212.176ZM102.783 202.49H104.409L104.269 206.05C104.233 206.952 104.131 207.731 103.961 208.388C103.791 209.044 103.574 209.604 103.311 210.066C103.047 210.523 102.751 210.907 102.423 211.218C102.101 211.528 101.767 211.789 101.421 212H100.612L100.656 210.673L100.99 210.664C101.184 210.436 101.371 210.201 101.553 209.961C101.734 209.715 101.901 209.425 102.054 209.091C102.206 208.751 102.332 208.338 102.432 207.852C102.537 207.359 102.604 206.759 102.634 206.05L102.783 202.49ZM103.188 202.49H108.909V212H107.283V203.993H103.188V202.49ZM100.243 210.664H110.131V214.804H108.505V212H101.869V214.804H100.234L100.243 210.664ZM118.287 202.49V203.835H113.69V202.49H118.287ZM119.72 202.49V212H118.094V202.49H119.72ZM113.295 202.49H114.93L114.684 207.078C114.643 207.787 114.575 208.414 114.481 208.959C114.394 209.498 114.271 209.961 114.112 210.348C113.96 210.734 113.767 211.051 113.532 211.297C113.304 211.537 113.028 211.716 112.706 211.833C112.384 211.944 112.012 212 111.59 212H111.08V210.567L111.432 210.541C111.684 210.523 111.897 210.465 112.073 210.365C112.255 210.266 112.407 210.119 112.53 209.926C112.653 209.727 112.753 209.472 112.829 209.161C112.911 208.851 112.973 208.481 113.014 208.054C113.061 207.626 113.096 207.128 113.119 206.56L113.295 202.49ZM121.908 207.351V207.148C121.908 206.463 122.008 205.827 122.207 205.241C122.406 204.649 122.693 204.137 123.068 203.703C123.443 203.264 123.897 202.924 124.431 202.684C124.964 202.438 125.562 202.314 126.224 202.314C126.892 202.314 127.492 202.438 128.025 202.684C128.564 202.924 129.021 203.264 129.396 203.703C129.777 204.137 130.067 204.649 130.267 205.241C130.466 205.827 130.565 206.463 130.565 207.148V207.351C130.565 208.036 130.466 208.672 130.267 209.258C130.067 209.844 129.777 210.356 129.396 210.796C129.021 211.229 128.567 211.569 128.034 211.815C127.507 212.056 126.909 212.176 126.241 212.176C125.573 212.176 124.973 212.056 124.439 211.815C123.906 211.569 123.449 211.229 123.068 210.796C122.693 210.356 122.406 209.844 122.207 209.258C122.008 208.672 121.908 208.036 121.908 207.351ZM123.534 207.148V207.351C123.534 207.825 123.59 208.273 123.701 208.695C123.812 209.111 123.979 209.48 124.202 209.803C124.431 210.125 124.715 210.38 125.055 210.567C125.395 210.749 125.79 210.84 126.241 210.84C126.687 210.84 127.076 210.749 127.41 210.567C127.75 210.38 128.031 210.125 128.254 209.803C128.477 209.48 128.644 209.111 128.755 208.695C128.872 208.273 128.931 207.825 128.931 207.351V207.148C128.931 206.68 128.872 206.237 128.755 205.821C128.644 205.399 128.474 205.027 128.245 204.705C128.022 204.377 127.741 204.119 127.401 203.932C127.067 203.744 126.675 203.65 126.224 203.65C125.778 203.65 125.386 203.744 125.046 203.932C124.712 204.119 124.431 204.377 124.202 204.705C123.979 205.027 123.812 205.399 123.701 205.821C123.59 206.237 123.534 206.68 123.534 207.148ZM135.294 207.86L131.69 202.49H133.65L136.111 206.428H138.01L137.772 207.86H135.294ZM136.182 207.693L133.422 212H131.365L135.153 206.516L136.182 207.693ZM138.845 202.49V212H137.219V202.49H138.845ZM144.391 202.49L140.787 207.86H138.309L138.054 206.428H139.961L142.422 202.49H144.391ZM142.65 212L139.882 207.693L140.928 206.516L144.707 212H142.65ZM149.98 212.176C149.318 212.176 148.718 212.064 148.179 211.842C147.646 211.613 147.186 211.294 146.799 210.884C146.418 210.474 146.125 209.987 145.92 209.425C145.715 208.862 145.612 208.247 145.612 207.579V207.21C145.612 206.437 145.727 205.748 145.955 205.145C146.184 204.535 146.494 204.02 146.887 203.598C147.279 203.176 147.725 202.856 148.223 202.64C148.721 202.423 149.236 202.314 149.77 202.314C150.449 202.314 151.035 202.432 151.527 202.666C152.025 202.9 152.433 203.229 152.749 203.65C153.065 204.066 153.3 204.559 153.452 205.127C153.604 205.689 153.681 206.305 153.681 206.973V207.702H146.579V206.375H152.055V206.252C152.031 205.83 151.943 205.42 151.791 205.021C151.645 204.623 151.41 204.295 151.088 204.037C150.766 203.779 150.326 203.65 149.77 203.65C149.4 203.65 149.061 203.729 148.75 203.888C148.439 204.04 148.173 204.269 147.95 204.573C147.728 204.878 147.555 205.25 147.432 205.689C147.309 206.129 147.247 206.636 147.247 207.21V207.579C147.247 208.03 147.309 208.455 147.432 208.854C147.561 209.246 147.745 209.592 147.985 209.891C148.231 210.189 148.527 210.424 148.873 210.594C149.225 210.764 149.623 210.849 150.068 210.849C150.643 210.849 151.129 210.731 151.527 210.497C151.926 210.263 152.274 209.949 152.573 209.557L153.558 210.339C153.353 210.649 153.092 210.945 152.775 211.227C152.459 211.508 152.069 211.736 151.606 211.912C151.149 212.088 150.607 212.176 149.98 212.176ZM162.03 206.612V207.931H157.003V206.612H162.03ZM157.346 202.49V212H155.72V202.49H157.346ZM163.349 202.49V212H161.714V202.49H163.349ZM167.726 209.425L172.111 202.49H173.746V212H172.111V205.065L167.726 212H166.108V202.49H167.726V209.425ZM178.281 207.465H180.039L177.288 212H175.53L178.281 207.465ZM179.644 202.49H183.616V212H181.99V203.809H179.644C179.181 203.809 178.803 203.888 178.51 204.046C178.217 204.198 178.003 204.397 177.868 204.644C177.733 204.89 177.666 205.145 177.666 205.408C177.666 205.666 177.728 205.915 177.851 206.155C177.974 206.39 178.167 206.583 178.431 206.735C178.694 206.888 179.034 206.964 179.45 206.964H182.43V208.3H179.45C178.905 208.3 178.422 208.227 178 208.08C177.578 207.934 177.221 207.731 176.928 207.474C176.635 207.21 176.412 206.902 176.26 206.551C176.107 206.193 176.031 205.807 176.031 205.391C176.031 204.975 176.11 204.591 176.269 204.239C176.433 203.888 176.667 203.58 176.972 203.316C177.282 203.053 177.66 202.851 178.105 202.71C178.557 202.563 179.069 202.49 179.644 202.49ZM194.506 210.84C194.893 210.84 195.25 210.761 195.578 210.603C195.906 210.444 196.176 210.228 196.387 209.952C196.598 209.671 196.718 209.352 196.747 208.994H198.294C198.265 209.557 198.074 210.081 197.723 210.567C197.377 211.048 196.923 211.438 196.36 211.736C195.798 212.029 195.18 212.176 194.506 212.176C193.791 212.176 193.167 212.05 192.634 211.798C192.106 211.546 191.667 211.2 191.315 210.761C190.97 210.321 190.709 209.817 190.533 209.249C190.363 208.675 190.278 208.068 190.278 207.43V207.061C190.278 206.422 190.363 205.818 190.533 205.25C190.709 204.676 190.97 204.169 191.315 203.729C191.667 203.29 192.106 202.944 192.634 202.692C193.167 202.44 193.791 202.314 194.506 202.314C195.25 202.314 195.9 202.467 196.457 202.771C197.014 203.07 197.45 203.48 197.767 204.002C198.089 204.518 198.265 205.104 198.294 205.76H196.747C196.718 205.367 196.606 205.013 196.413 204.696C196.226 204.38 195.968 204.128 195.64 203.94C195.317 203.747 194.939 203.65 194.506 203.65C194.008 203.65 193.589 203.75 193.249 203.949C192.915 204.143 192.648 204.406 192.449 204.74C192.256 205.068 192.115 205.435 192.027 205.839C191.945 206.237 191.904 206.645 191.904 207.061V207.43C191.904 207.846 191.945 208.256 192.027 208.66C192.109 209.064 192.247 209.431 192.44 209.759C192.64 210.087 192.906 210.351 193.24 210.55C193.58 210.743 194.002 210.84 194.506 210.84ZM203.998 202.49V212H202.363V202.49H203.998ZM207.188 202.49V203.809H199.234V202.49H207.188ZM210.414 204.318V215.656H208.779V202.49H210.273L210.414 204.318ZM216.821 207.166V207.351C216.821 208.042 216.739 208.684 216.575 209.275C216.411 209.861 216.171 210.371 215.854 210.805C215.544 211.238 215.16 211.575 214.703 211.815C214.246 212.056 213.722 212.176 213.13 212.176C212.526 212.176 211.993 212.076 211.53 211.877C211.067 211.678 210.675 211.388 210.353 211.007C210.03 210.626 209.772 210.169 209.579 209.636C209.392 209.103 209.263 208.502 209.192 207.834V206.85C209.263 206.146 209.395 205.517 209.588 204.96C209.781 204.403 210.036 203.929 210.353 203.536C210.675 203.138 211.064 202.836 211.521 202.631C211.979 202.42 212.506 202.314 213.104 202.314C213.701 202.314 214.231 202.432 214.694 202.666C215.157 202.895 215.547 203.223 215.863 203.65C216.18 204.078 216.417 204.591 216.575 205.188C216.739 205.78 216.821 206.439 216.821 207.166ZM215.187 207.351V207.166C215.187 206.691 215.137 206.246 215.037 205.83C214.938 205.408 214.782 205.039 214.571 204.723C214.366 204.4 214.103 204.148 213.78 203.967C213.458 203.779 213.074 203.686 212.629 203.686C212.219 203.686 211.861 203.756 211.557 203.896C211.258 204.037 211.003 204.228 210.792 204.468C210.581 204.702 210.408 204.972 210.273 205.276C210.145 205.575 210.048 205.886 209.983 206.208V208.484C210.101 208.895 210.265 209.281 210.476 209.645C210.687 210.002 210.968 210.292 211.319 210.515C211.671 210.731 212.113 210.84 212.646 210.84C213.086 210.84 213.464 210.749 213.78 210.567C214.103 210.38 214.366 210.125 214.571 209.803C214.782 209.48 214.938 209.111 215.037 208.695C215.137 208.273 215.187 207.825 215.187 207.351ZM224.503 210.374V205.479C224.503 205.104 224.427 204.778 224.274 204.503C224.128 204.222 223.905 204.005 223.606 203.853C223.308 203.7 222.938 203.624 222.499 203.624C222.089 203.624 221.729 203.694 221.418 203.835C221.113 203.976 220.873 204.16 220.697 204.389C220.527 204.617 220.442 204.863 220.442 205.127H218.816C218.816 204.787 218.904 204.45 219.08 204.116C219.256 203.782 219.508 203.48 219.836 203.211C220.17 202.936 220.568 202.719 221.031 202.561C221.5 202.396 222.021 202.314 222.596 202.314C223.287 202.314 223.896 202.432 224.424 202.666C224.957 202.9 225.373 203.255 225.672 203.729C225.977 204.198 226.129 204.787 226.129 205.496V209.926C226.129 210.242 226.155 210.579 226.208 210.937C226.267 211.294 226.352 211.602 226.463 211.859V212H224.767C224.685 211.812 224.62 211.563 224.573 211.253C224.526 210.937 224.503 210.644 224.503 210.374ZM224.784 206.234L224.802 207.377H223.158C222.695 207.377 222.282 207.415 221.919 207.491C221.556 207.562 221.251 207.67 221.005 207.816C220.759 207.963 220.571 208.147 220.442 208.37C220.313 208.587 220.249 208.842 220.249 209.135C220.249 209.434 220.316 209.706 220.451 209.952C220.586 210.198 220.788 210.395 221.058 210.541C221.333 210.682 221.67 210.752 222.068 210.752C222.566 210.752 223.006 210.646 223.387 210.436C223.768 210.225 224.069 209.967 224.292 209.662C224.521 209.357 224.644 209.062 224.661 208.774L225.355 209.557C225.314 209.803 225.203 210.075 225.021 210.374C224.84 210.673 224.597 210.96 224.292 211.235C223.993 211.505 223.636 211.73 223.22 211.912C222.81 212.088 222.347 212.176 221.831 212.176C221.187 212.176 220.621 212.05 220.135 211.798C219.654 211.546 219.279 211.209 219.01 210.787C218.746 210.359 218.614 209.882 218.614 209.354C218.614 208.845 218.714 208.396 218.913 208.01C219.112 207.617 219.399 207.292 219.774 207.034C220.149 206.771 220.601 206.571 221.128 206.437C221.655 206.302 222.244 206.234 222.895 206.234H224.784ZM229.785 202.49L231.868 205.953L233.978 202.49H235.885L232.773 207.184L235.981 212H234.101L231.903 208.432L229.706 212H227.816L231.016 207.184L227.913 202.49H229.785ZM237.01 207.351V207.148C237.01 206.463 237.109 205.827 237.309 205.241C237.508 204.649 237.795 204.137 238.17 203.703C238.545 203.264 238.999 202.924 239.532 202.684C240.065 202.438 240.663 202.314 241.325 202.314C241.993 202.314 242.594 202.438 243.127 202.684C243.666 202.924 244.123 203.264 244.498 203.703C244.879 204.137 245.169 204.649 245.368 205.241C245.567 205.827 245.667 206.463 245.667 207.148V207.351C245.667 208.036 245.567 208.672 245.368 209.258C245.169 209.844 244.879 210.356 244.498 210.796C244.123 211.229 243.669 211.569 243.136 211.815C242.608 212.056 242.011 212.176 241.343 212.176C240.675 212.176 240.074 212.056 239.541 211.815C239.008 211.569 238.551 211.229 238.17 210.796C237.795 210.356 237.508 209.844 237.309 209.258C237.109 208.672 237.01 208.036 237.01 207.351ZM238.636 207.148V207.351C238.636 207.825 238.691 208.273 238.803 208.695C238.914 209.111 239.081 209.48 239.304 209.803C239.532 210.125 239.816 210.38 240.156 210.567C240.496 210.749 240.892 210.84 241.343 210.84C241.788 210.84 242.178 210.749 242.512 210.567C242.852 210.38 243.133 210.125 243.355 209.803C243.578 209.48 243.745 209.111 243.856 208.695C243.974 208.273 244.032 207.825 244.032 207.351V207.148C244.032 206.68 243.974 206.237 243.856 205.821C243.745 205.399 243.575 205.027 243.347 204.705C243.124 204.377 242.843 204.119 242.503 203.932C242.169 203.744 241.776 203.65 241.325 203.65C240.88 203.65 240.487 203.744 240.147 203.932C239.813 204.119 239.532 204.377 239.304 204.705C239.081 205.027 238.914 205.399 238.803 205.821C238.691 206.237 238.636 206.68 238.636 207.148ZM252.171 207.816H249.051L249.033 206.516H251.582C252.086 206.516 252.505 206.466 252.839 206.366C253.179 206.267 253.434 206.117 253.604 205.918C253.773 205.719 253.858 205.473 253.858 205.18C253.858 204.951 253.809 204.752 253.709 204.582C253.615 204.406 253.472 204.263 253.278 204.151C253.085 204.034 252.845 203.949 252.558 203.896C252.276 203.838 251.945 203.809 251.564 203.809H249.481V212H247.855V202.49H251.564C252.168 202.49 252.71 202.543 253.19 202.648C253.677 202.754 254.09 202.915 254.43 203.132C254.775 203.343 255.039 203.612 255.221 203.94C255.402 204.269 255.493 204.655 255.493 205.101C255.493 205.388 255.435 205.66 255.317 205.918C255.2 206.176 255.027 206.404 254.799 206.604C254.57 206.803 254.289 206.967 253.955 207.096C253.621 207.219 253.237 207.298 252.804 207.333L252.171 207.816ZM252.171 212H248.462L249.271 210.682H252.171C252.622 210.682 252.997 210.626 253.296 210.515C253.595 210.397 253.817 210.233 253.964 210.022C254.116 209.806 254.192 209.548 254.192 209.249C254.192 208.95 254.116 208.695 253.964 208.484C253.817 208.268 253.595 208.104 253.296 207.992C252.997 207.875 252.622 207.816 252.171 207.816H249.701L249.719 206.516H252.804L253.393 207.008C253.914 207.049 254.356 207.178 254.72 207.395C255.083 207.611 255.358 207.887 255.546 208.221C255.733 208.549 255.827 208.906 255.827 209.293C255.827 209.738 255.742 210.131 255.572 210.471C255.408 210.811 255.168 211.095 254.852 211.323C254.535 211.546 254.151 211.716 253.7 211.833C253.249 211.944 252.739 212 252.171 212ZM259.343 205.76H262.199C262.967 205.76 263.614 205.895 264.142 206.164C264.669 206.428 265.067 206.794 265.337 207.263C265.612 207.726 265.75 208.253 265.75 208.845C265.75 209.284 265.674 209.697 265.521 210.084C265.369 210.465 265.141 210.799 264.836 211.086C264.537 211.373 264.165 211.599 263.72 211.763C263.28 211.921 262.773 212 262.199 212H258.156V202.49H259.782V210.664H262.199C262.668 210.664 263.043 210.579 263.324 210.409C263.605 210.239 263.808 210.02 263.931 209.75C264.054 209.48 264.115 209.199 264.115 208.906C264.115 208.619 264.054 208.338 263.931 208.062C263.808 207.787 263.605 207.559 263.324 207.377C263.043 207.189 262.668 207.096 262.199 207.096H259.343V205.76ZM269.134 202.49V212H267.508V202.49H269.134ZM273.08 202.49L275.163 205.953L277.272 202.49H279.18L276.068 207.184L279.276 212H277.396L275.198 208.432L273.001 212H271.111L274.311 207.184L271.208 202.49H273.08ZM34.0879 234.49V244H32.4619V234.49H34.0879ZM40.3281 234.49L35.8193 239.939H33.543L33.2969 238.516H35.1602L38.3506 234.49H40.3281ZM38.5791 244L35.0811 239.693L36.127 238.516L40.6445 244H38.5791ZM41.4355 239.351V239.148C41.4355 238.463 41.5352 237.827 41.7344 237.241C41.9336 236.649 42.2207 236.137 42.5957 235.703C42.9707 235.264 43.4248 234.924 43.958 234.684C44.4912 234.438 45.0889 234.314 45.751 234.314C46.4189 234.314 47.0195 234.438 47.5527 234.684C48.0918 234.924 48.5488 235.264 48.9238 235.703C49.3047 236.137 49.5947 236.649 49.7939 237.241C49.9932 237.827 50.0928 238.463 50.0928 239.148V239.351C50.0928 240.036 49.9932 240.672 49.7939 241.258C49.5947 241.844 49.3047 242.356 48.9238 242.796C48.5488 243.229 48.0947 243.569 47.5615 243.815C47.0342 244.056 46.4365 244.176 45.7686 244.176C45.1006 244.176 44.5 244.056 43.9668 243.815C43.4336 243.569 42.9766 243.229 42.5957 242.796C42.2207 242.356 41.9336 241.844 41.7344 241.258C41.5352 240.672 41.4355 240.036 41.4355 239.351ZM43.0615 239.148V239.351C43.0615 239.825 43.1172 240.273 43.2285 240.695C43.3398 241.111 43.5068 241.48 43.7295 241.803C43.958 242.125 44.2422 242.38 44.582 242.567C44.9219 242.749 45.3174 242.84 45.7686 242.84C46.2139 242.84 46.6035 242.749 46.9375 242.567C47.2773 242.38 47.5586 242.125 47.7812 241.803C48.0039 241.48 48.1709 241.111 48.2822 240.695C48.3994 240.273 48.458 239.825 48.458 239.351V239.148C48.458 238.68 48.3994 238.237 48.2822 237.821C48.1709 237.399 48.001 237.027 47.7725 236.705C47.5498 236.377 47.2686 236.119 46.9287 235.932C46.5947 235.744 46.2021 235.65 45.751 235.65C45.3057 235.65 44.9131 235.744 44.5732 235.932C44.2393 236.119 43.958 236.377 43.7295 236.705C43.5068 237.027 43.3398 237.399 43.2285 237.821C43.1172 238.237 43.0615 238.68 43.0615 239.148ZM57.5986 241.838L60.833 234.49H62.3975L58.1611 244H57.0361L52.8174 234.49H54.3818L57.5986 241.838ZM53.9072 234.49V244H52.2812V234.49H53.9072ZM61.2373 244V234.49H62.8721V244H61.2373ZM71.8281 234.49V235.835H67.0205V234.49H71.8281ZM67.2578 234.49V244H65.6318V234.49H67.2578ZM73.2695 234.49V244H71.6348V234.49H73.2695ZM81.4873 242.374V237.479C81.4873 237.104 81.4111 236.778 81.2588 236.503C81.1123 236.222 80.8896 236.005 80.5908 235.853C80.292 235.7 79.9229 235.624 79.4834 235.624C79.0732 235.624 78.7129 235.694 78.4023 235.835C78.0977 235.976 77.8574 236.16 77.6816 236.389C77.5117 236.617 77.4268 236.863 77.4268 237.127H75.8008C75.8008 236.787 75.8887 236.45 76.0645 236.116C76.2402 235.782 76.4922 235.48 76.8203 235.211C77.1543 234.936 77.5527 234.719 78.0156 234.561C78.4844 234.396 79.0059 234.314 79.5801 234.314C80.2715 234.314 80.8809 234.432 81.4082 234.666C81.9414 234.9 82.3574 235.255 82.6562 235.729C82.9609 236.198 83.1133 236.787 83.1133 237.496V241.926C83.1133 242.242 83.1396 242.579 83.1924 242.937C83.251 243.294 83.3359 243.602 83.4473 243.859V244H81.751C81.6689 243.812 81.6045 243.563 81.5576 243.253C81.5107 242.937 81.4873 242.644 81.4873 242.374ZM81.7686 238.234L81.7861 239.377H80.1426C79.6797 239.377 79.2666 239.415 78.9033 239.491C78.54 239.562 78.2354 239.67 77.9893 239.816C77.7432 239.963 77.5557 240.147 77.4268 240.37C77.2979 240.587 77.2334 240.842 77.2334 241.135C77.2334 241.434 77.3008 241.706 77.4355 241.952C77.5703 242.198 77.7725 242.395 78.042 242.541C78.3174 242.682 78.6543 242.752 79.0527 242.752C79.5508 242.752 79.9902 242.646 80.3711 242.436C80.752 242.225 81.0537 241.967 81.2764 241.662C81.5049 241.357 81.6279 241.062 81.6455 240.774L82.3398 241.557C82.2988 241.803 82.1875 242.075 82.0059 242.374C81.8242 242.673 81.5811 242.96 81.2764 243.235C80.9775 243.505 80.6201 243.73 80.2041 243.912C79.7939 244.088 79.3311 244.176 78.8154 244.176C78.1709 244.176 77.6055 244.05 77.1191 243.798C76.6387 243.546 76.2637 243.209 75.9941 242.787C75.7305 242.359 75.5986 241.882 75.5986 241.354C75.5986 240.845 75.6982 240.396 75.8975 240.01C76.0967 239.617 76.3838 239.292 76.7588 239.034C77.1338 238.771 77.585 238.571 78.1123 238.437C78.6396 238.302 79.2285 238.234 79.8789 238.234H81.7686ZM92.1221 238.612V239.931H87.0947V238.612H92.1221ZM87.4375 234.49V244H85.8115V234.49H87.4375ZM93.4404 234.49V244H91.8057V234.49H93.4404ZM97.8174 241.425L102.203 234.49H103.838V244H102.203V237.065L97.8174 244H96.2002V234.49H97.8174V241.425ZM108.206 241.425L112.592 234.49H114.227V244H112.592V237.065L108.206 244H106.589V234.49H108.206V241.425ZM111.704 231.045H113.022C113.022 231.502 112.917 231.909 112.706 232.267C112.495 232.618 112.193 232.894 111.801 233.093C111.408 233.292 110.942 233.392 110.403 233.392C109.589 233.392 108.944 233.175 108.47 232.741C108.001 232.302 107.767 231.736 107.767 231.045H109.085C109.085 231.391 109.185 231.695 109.384 231.959C109.583 232.223 109.923 232.354 110.403 232.354C110.872 232.354 111.206 232.223 111.405 231.959C111.604 231.695 111.704 231.391 111.704 231.045ZM127.401 230.351H128.737C128.737 230.925 128.649 231.382 128.474 231.722C128.298 232.056 128.058 232.313 127.753 232.495C127.454 232.677 127.114 232.814 126.733 232.908C126.358 233.002 125.969 233.093 125.564 233.181C125.061 233.286 124.592 233.453 124.158 233.682C123.73 233.904 123.361 234.221 123.051 234.631C122.746 235.041 122.521 235.574 122.374 236.23C122.233 236.887 122.195 237.698 122.26 238.665V239.474H120.924V238.665C120.924 237.581 121.026 236.635 121.231 235.826C121.442 235.018 121.738 234.335 122.119 233.778C122.5 233.222 122.951 232.779 123.473 232.451C124 232.123 124.58 231.897 125.213 231.774C125.67 231.687 126.062 231.593 126.391 231.493C126.719 231.388 126.968 231.247 127.138 231.071C127.313 230.896 127.401 230.655 127.401 230.351ZM125.477 235.035C126.098 235.035 126.651 235.144 127.138 235.36C127.624 235.577 128.037 235.879 128.377 236.266C128.717 236.652 128.975 237.109 129.15 237.637C129.332 238.158 129.423 238.727 129.423 239.342V239.535C129.423 240.197 129.326 240.812 129.133 241.381C128.945 241.943 128.667 242.436 128.298 242.857C127.935 243.273 127.489 243.599 126.962 243.833C126.44 244.067 125.846 244.185 125.178 244.185C124.51 244.185 123.912 244.067 123.385 243.833C122.863 243.599 122.418 243.273 122.049 242.857C121.68 242.436 121.398 241.943 121.205 241.381C121.018 240.812 120.924 240.197 120.924 239.535V239.342C120.924 239.195 120.95 239.052 121.003 238.911C121.056 238.771 121.12 238.627 121.196 238.48C121.278 238.334 121.352 238.179 121.416 238.015C121.633 237.487 121.929 236.998 122.304 236.547C122.685 236.096 123.139 235.732 123.666 235.457C124.199 235.176 124.803 235.035 125.477 235.035ZM125.16 236.362C124.562 236.362 124.07 236.5 123.684 236.775C123.303 237.051 123.019 237.417 122.831 237.874C122.644 238.325 122.55 238.814 122.55 239.342V239.535C122.55 239.98 122.603 240.402 122.708 240.801C122.813 241.199 122.972 241.554 123.183 241.864C123.399 242.169 123.672 242.409 124 242.585C124.334 242.761 124.727 242.849 125.178 242.849C125.629 242.849 126.019 242.761 126.347 242.585C126.675 242.409 126.944 242.169 127.155 241.864C127.366 241.554 127.524 241.199 127.63 240.801C127.735 240.402 127.788 239.98 127.788 239.535V239.342C127.788 238.943 127.735 238.565 127.63 238.208C127.524 237.851 127.363 237.534 127.146 237.259C126.936 236.983 126.663 236.767 126.329 236.608C126.001 236.444 125.611 236.362 125.16 236.362ZM135.215 244.176C134.553 244.176 133.952 244.064 133.413 243.842C132.88 243.613 132.42 243.294 132.033 242.884C131.652 242.474 131.359 241.987 131.154 241.425C130.949 240.862 130.847 240.247 130.847 239.579V239.21C130.847 238.437 130.961 237.748 131.189 237.145C131.418 236.535 131.729 236.02 132.121 235.598C132.514 235.176 132.959 234.856 133.457 234.64C133.955 234.423 134.471 234.314 135.004 234.314C135.684 234.314 136.27 234.432 136.762 234.666C137.26 234.9 137.667 235.229 137.983 235.65C138.3 236.066 138.534 236.559 138.687 237.127C138.839 237.689 138.915 238.305 138.915 238.973V239.702H131.813V238.375H137.289V238.252C137.266 237.83 137.178 237.42 137.025 237.021C136.879 236.623 136.645 236.295 136.322 236.037C136 235.779 135.561 235.65 135.004 235.65C134.635 235.65 134.295 235.729 133.984 235.888C133.674 236.04 133.407 236.269 133.185 236.573C132.962 236.878 132.789 237.25 132.666 237.689C132.543 238.129 132.481 238.636 132.481 239.21V239.579C132.481 240.03 132.543 240.455 132.666 240.854C132.795 241.246 132.979 241.592 133.22 241.891C133.466 242.189 133.762 242.424 134.107 242.594C134.459 242.764 134.857 242.849 135.303 242.849C135.877 242.849 136.363 242.731 136.762 242.497C137.16 242.263 137.509 241.949 137.808 241.557L138.792 242.339C138.587 242.649 138.326 242.945 138.01 243.227C137.693 243.508 137.304 243.736 136.841 243.912C136.384 244.088 135.842 244.176 135.215 244.176ZM144.364 239.456H142.615V238.454H144.232C144.684 238.454 145.041 238.398 145.305 238.287C145.568 238.17 145.756 238.009 145.867 237.804C145.979 237.599 146.034 237.358 146.034 237.083C146.034 236.837 145.97 236.605 145.841 236.389C145.718 236.166 145.519 235.987 145.243 235.853C144.968 235.712 144.599 235.642 144.136 235.642C143.761 235.642 143.421 235.709 143.116 235.844C142.812 235.973 142.568 236.151 142.387 236.38C142.211 236.603 142.123 236.854 142.123 237.136H140.497C140.497 236.556 140.661 236.058 140.989 235.642C141.323 235.22 141.766 234.895 142.316 234.666C142.873 234.438 143.479 234.323 144.136 234.323C144.687 234.323 145.179 234.385 145.612 234.508C146.052 234.625 146.424 234.801 146.729 235.035C147.033 235.264 147.265 235.551 147.423 235.896C147.587 236.236 147.669 236.632 147.669 237.083C147.669 237.405 147.593 237.71 147.44 237.997C147.288 238.284 147.068 238.539 146.781 238.762C146.494 238.979 146.146 239.148 145.735 239.271C145.331 239.395 144.874 239.456 144.364 239.456ZM142.615 238.841H144.364C144.933 238.841 145.434 238.896 145.867 239.008C146.301 239.113 146.664 239.271 146.957 239.482C147.25 239.693 147.47 239.954 147.616 240.265C147.769 240.569 147.845 240.921 147.845 241.319C147.845 241.765 147.754 242.166 147.572 242.523C147.396 242.875 147.145 243.174 146.816 243.42C146.488 243.666 146.096 243.854 145.639 243.982C145.188 244.111 144.687 244.176 144.136 244.176C143.521 244.176 142.923 244.07 142.343 243.859C141.763 243.648 141.285 243.323 140.91 242.884C140.535 242.438 140.348 241.873 140.348 241.188H141.974C141.974 241.475 142.064 241.747 142.246 242.005C142.428 242.263 142.68 242.471 143.002 242.629C143.33 242.787 143.708 242.866 144.136 242.866C144.593 242.866 144.974 242.796 145.278 242.655C145.583 242.515 145.812 242.327 145.964 242.093C146.122 241.858 146.201 241.604 146.201 241.328C146.201 240.971 146.131 240.684 145.99 240.467C145.85 240.25 145.633 240.092 145.34 239.992C145.053 239.887 144.684 239.834 144.232 239.834H142.615V238.841ZM156.186 234.49V244H154.56V234.49H156.186ZM162.426 234.49L157.917 239.939H155.641L155.395 238.516H157.258L160.448 234.49H162.426ZM160.677 244L157.179 239.693L158.225 238.516L162.742 244H160.677ZM163.533 239.351V239.148C163.533 238.463 163.633 237.827 163.832 237.241C164.031 236.649 164.318 236.137 164.693 235.703C165.068 235.264 165.522 234.924 166.056 234.684C166.589 234.438 167.187 234.314 167.849 234.314C168.517 234.314 169.117 234.438 169.65 234.684C170.189 234.924 170.646 235.264 171.021 235.703C171.402 236.137 171.692 236.649 171.892 237.241C172.091 237.827 172.19 238.463 172.19 239.148V239.351C172.19 240.036 172.091 240.672 171.892 241.258C171.692 241.844 171.402 242.356 171.021 242.796C170.646 243.229 170.192 243.569 169.659 243.815C169.132 244.056 168.534 244.176 167.866 244.176C167.198 244.176 166.598 244.056 166.064 243.815C165.531 243.569 165.074 243.229 164.693 242.796C164.318 242.356 164.031 241.844 163.832 241.258C163.633 240.672 163.533 240.036 163.533 239.351ZM165.159 239.148V239.351C165.159 239.825 165.215 240.273 165.326 240.695C165.438 241.111 165.604 241.48 165.827 241.803C166.056 242.125 166.34 242.38 166.68 242.567C167.02 242.749 167.415 242.84 167.866 242.84C168.312 242.84 168.701 242.749 169.035 242.567C169.375 242.38 169.656 242.125 169.879 241.803C170.102 241.48 170.269 241.111 170.38 240.695C170.497 240.273 170.556 239.825 170.556 239.351V239.148C170.556 238.68 170.497 238.237 170.38 237.821C170.269 237.399 170.099 237.027 169.87 236.705C169.647 236.377 169.366 236.119 169.026 235.932C168.692 235.744 168.3 235.65 167.849 235.65C167.403 235.65 167.011 235.744 166.671 235.932C166.337 236.119 166.056 236.377 165.827 236.705C165.604 237.027 165.438 237.399 165.326 237.821C165.215 238.237 165.159 238.68 165.159 239.148ZM179.696 241.838L182.931 234.49H184.495L180.259 244H179.134L174.915 234.49H176.479L179.696 241.838ZM176.005 234.49V244H174.379V234.49H176.005ZM183.335 244V234.49H184.97V244H183.335ZM189.347 241.425L193.732 234.49H195.367V244H193.732V237.065L189.347 244H187.729V234.49H189.347V241.425ZM201.783 242.84C202.17 242.84 202.527 242.761 202.855 242.603C203.184 242.444 203.453 242.228 203.664 241.952C203.875 241.671 203.995 241.352 204.024 240.994H205.571C205.542 241.557 205.352 242.081 205 242.567C204.654 243.048 204.2 243.438 203.638 243.736C203.075 244.029 202.457 244.176 201.783 244.176C201.068 244.176 200.444 244.05 199.911 243.798C199.384 243.546 198.944 243.2 198.593 242.761C198.247 242.321 197.986 241.817 197.811 241.249C197.641 240.675 197.556 240.068 197.556 239.43V239.061C197.556 238.422 197.641 237.818 197.811 237.25C197.986 236.676 198.247 236.169 198.593 235.729C198.944 235.29 199.384 234.944 199.911 234.692C200.444 234.44 201.068 234.314 201.783 234.314C202.527 234.314 203.178 234.467 203.734 234.771C204.291 235.07 204.728 235.48 205.044 236.002C205.366 236.518 205.542 237.104 205.571 237.76H204.024C203.995 237.367 203.884 237.013 203.69 236.696C203.503 236.38 203.245 236.128 202.917 235.94C202.595 235.747 202.217 235.65 201.783 235.65C201.285 235.65 200.866 235.75 200.526 235.949C200.192 236.143 199.926 236.406 199.727 236.74C199.533 237.068 199.393 237.435 199.305 237.839C199.223 238.237 199.182 238.645 199.182 239.061V239.43C199.182 239.846 199.223 240.256 199.305 240.66C199.387 241.064 199.524 241.431 199.718 241.759C199.917 242.087 200.184 242.351 200.518 242.55C200.857 242.743 201.279 242.84 201.783 242.84ZM211.205 242.84C211.592 242.84 211.949 242.761 212.277 242.603C212.605 242.444 212.875 242.228 213.086 241.952C213.297 241.671 213.417 241.352 213.446 240.994H214.993C214.964 241.557 214.773 242.081 214.422 242.567C214.076 243.048 213.622 243.438 213.06 243.736C212.497 244.029 211.879 244.176 211.205 244.176C210.49 244.176 209.866 244.05 209.333 243.798C208.806 243.546 208.366 243.2 208.015 242.761C207.669 242.321 207.408 241.817 207.232 241.249C207.062 240.675 206.978 240.068 206.978 239.43V239.061C206.978 238.422 207.062 237.818 207.232 237.25C207.408 236.676 207.669 236.169 208.015 235.729C208.366 235.29 208.806 234.944 209.333 234.692C209.866 234.44 210.49 234.314 211.205 234.314C211.949 234.314 212.6 234.467 213.156 234.771C213.713 235.07 214.149 235.48 214.466 236.002C214.788 236.518 214.964 237.104 214.993 237.76H213.446C213.417 237.367 213.306 237.013 213.112 236.696C212.925 236.38 212.667 236.128 212.339 235.94C212.017 235.747 211.639 235.65 211.205 235.65C210.707 235.65 210.288 235.75 209.948 235.949C209.614 236.143 209.348 236.406 209.148 236.74C208.955 237.068 208.814 237.435 208.727 237.839C208.645 238.237 208.604 238.645 208.604 239.061V239.43C208.604 239.846 208.645 240.256 208.727 240.66C208.809 241.064 208.946 241.431 209.14 241.759C209.339 242.087 209.605 242.351 209.939 242.55C210.279 242.743 210.701 242.84 211.205 242.84ZM218.579 241.425L222.965 234.49H224.6V244H222.965V237.065L218.579 244H216.962V234.49H218.579V241.425ZM228.968 241.425L233.354 234.49H234.988V244H233.354V237.065L228.968 244H227.351V234.49H228.968V241.425ZM232.466 231.045H233.784C233.784 231.502 233.679 231.909 233.468 232.267C233.257 232.618 232.955 232.894 232.562 233.093C232.17 233.292 231.704 233.392 231.165 233.392C230.351 233.392 229.706 233.175 229.231 232.741C228.763 232.302 228.528 231.736 228.528 231.045H229.847C229.847 231.391 229.946 231.695 230.146 231.959C230.345 232.223 230.685 232.354 231.165 232.354C231.634 232.354 231.968 232.223 232.167 231.959C232.366 231.695 232.466 231.391 232.466 231.045ZM243.821 241.425L248.207 234.49H249.842V244H248.207V237.065L243.821 244H242.204V234.49H243.821V241.425ZM258.631 234.49H260.257L260.116 238.05C260.081 238.952 259.979 239.731 259.809 240.388C259.639 241.044 259.422 241.604 259.158 242.066C258.895 242.523 258.599 242.907 258.271 243.218C257.948 243.528 257.614 243.789 257.269 244H256.46L256.504 242.673L256.838 242.664C257.031 242.436 257.219 242.201 257.4 241.961C257.582 241.715 257.749 241.425 257.901 241.091C258.054 240.751 258.18 240.338 258.279 239.852C258.385 239.359 258.452 238.759 258.481 238.05L258.631 234.49ZM259.035 234.49H264.757V244H263.131V235.993H259.035V234.49ZM256.091 242.664H265.979V246.804H264.353V244H257.717V246.804H256.082L256.091 242.664ZM267.35 239.351V239.148C267.35 238.463 267.449 237.827 267.648 237.241C267.848 236.649 268.135 236.137 268.51 235.703C268.885 235.264 269.339 234.924 269.872 234.684C270.405 234.438 271.003 234.314 271.665 234.314C272.333 234.314 272.934 234.438 273.467 234.684C274.006 234.924 274.463 235.264 274.838 235.703C275.219 236.137 275.509 236.649 275.708 237.241C275.907 237.827 276.007 238.463 276.007 239.148V239.351C276.007 240.036 275.907 240.672 275.708 241.258C275.509 241.844 275.219 242.356 274.838 242.796C274.463 243.229 274.009 243.569 273.476 243.815C272.948 244.056 272.351 244.176 271.683 244.176C271.015 244.176 270.414 244.056 269.881 243.815C269.348 243.569 268.891 243.229 268.51 242.796C268.135 242.356 267.848 241.844 267.648 241.258C267.449 240.672 267.35 240.036 267.35 239.351ZM268.976 239.148V239.351C268.976 239.825 269.031 240.273 269.143 240.695C269.254 241.111 269.421 241.48 269.644 241.803C269.872 242.125 270.156 242.38 270.496 242.567C270.836 242.749 271.231 242.84 271.683 242.84C272.128 242.84 272.518 242.749 272.852 242.567C273.191 242.38 273.473 242.125 273.695 241.803C273.918 241.48 274.085 241.111 274.196 240.695C274.313 240.273 274.372 239.825 274.372 239.351V239.148C274.372 238.68 274.313 238.237 274.196 237.821C274.085 237.399 273.915 237.027 273.687 236.705C273.464 236.377 273.183 236.119 272.843 235.932C272.509 235.744 272.116 235.65 271.665 235.65C271.22 235.65 270.827 235.744 270.487 235.932C270.153 236.119 269.872 236.377 269.644 236.705C269.421 237.027 269.254 237.399 269.143 237.821C269.031 238.237 268.976 238.68 268.976 239.148ZM284.383 234.49V235.835H279.575V234.49H284.383ZM279.812 234.49V244H278.187V234.49H279.812ZM285.824 234.49V244H284.189V234.49H285.824ZM294.789 234.49V235.835H290.192V234.49H294.789ZM296.222 234.49V244H294.596V234.49H296.222ZM289.797 234.49H291.432L291.186 239.078C291.145 239.787 291.077 240.414 290.983 240.959C290.896 241.498 290.772 241.961 290.614 242.348C290.462 242.734 290.269 243.051 290.034 243.297C289.806 243.537 289.53 243.716 289.208 243.833C288.886 243.944 288.514 244 288.092 244H287.582V242.567L287.934 242.541C288.186 242.523 288.399 242.465 288.575 242.365C288.757 242.266 288.909 242.119 289.032 241.926C289.155 241.727 289.255 241.472 289.331 241.161C289.413 240.851 289.475 240.481 289.516 240.054C289.562 239.626 289.598 239.128 289.621 238.56L289.797 234.49ZM304.448 242.374V237.479C304.448 237.104 304.372 236.778 304.22 236.503C304.073 236.222 303.851 236.005 303.552 235.853C303.253 235.7 302.884 235.624 302.444 235.624C302.034 235.624 301.674 235.694 301.363 235.835C301.059 235.976 300.818 236.16 300.643 236.389C300.473 236.617 300.388 236.863 300.388 237.127H298.762C298.762 236.787 298.85 236.45 299.025 236.116C299.201 235.782 299.453 235.48 299.781 235.211C300.115 234.936 300.514 234.719 300.977 234.561C301.445 234.396 301.967 234.314 302.541 234.314C303.232 234.314 303.842 234.432 304.369 234.666C304.902 234.9 305.318 235.255 305.617 235.729C305.922 236.198 306.074 236.787 306.074 237.496V241.926C306.074 242.242 306.101 242.579 306.153 242.937C306.212 243.294 306.297 243.602 306.408 243.859V244H304.712C304.63 243.812 304.565 243.563 304.519 243.253C304.472 242.937 304.448 242.644 304.448 242.374ZM304.729 238.234L304.747 239.377H303.104C302.641 239.377 302.228 239.415 301.864 239.491C301.501 239.562 301.196 239.67 300.95 239.816C300.704 239.963 300.517 240.147 300.388 240.37C300.259 240.587 300.194 240.842 300.194 241.135C300.194 241.434 300.262 241.706 300.396 241.952C300.531 242.198 300.733 242.395 301.003 242.541C301.278 242.682 301.615 242.752 302.014 242.752C302.512 242.752 302.951 242.646 303.332 242.436C303.713 242.225 304.015 241.967 304.237 241.662C304.466 241.357 304.589 241.062 304.606 240.774L305.301 241.557C305.26 241.803 305.148 242.075 304.967 242.374C304.785 242.673 304.542 242.96 304.237 243.235C303.938 243.505 303.581 243.73 303.165 243.912C302.755 244.088 302.292 244.176 301.776 244.176C301.132 244.176 300.566 244.05 300.08 243.798C299.6 243.546 299.225 243.209 298.955 242.787C298.691 242.359 298.56 241.882 298.56 241.354C298.56 240.845 298.659 240.396 298.858 240.01C299.058 239.617 299.345 239.292 299.72 239.034C300.095 238.771 300.546 238.571 301.073 238.437C301.601 238.302 302.189 238.234 302.84 238.234H304.729ZM312.367 234.49V244H310.732V234.49H312.367ZM315.558 234.49V235.809H307.604V234.49H315.558Z" fill="#606970"/>
<path d="M102.335 166.384H99.0479L99.0303 164.573H101.79C102.276 164.573 102.675 164.512 102.985 164.389C103.296 164.26 103.527 164.075 103.68 163.835C103.838 163.589 103.917 163.29 103.917 162.938C103.917 162.54 103.841 162.218 103.688 161.972C103.542 161.726 103.311 161.547 102.994 161.436C102.684 161.324 102.282 161.269 101.79 161.269H99.9619V172H97.3252V159.203H101.79C102.534 159.203 103.199 159.273 103.785 159.414C104.377 159.555 104.878 159.769 105.288 160.056C105.698 160.343 106.012 160.706 106.229 161.146C106.445 161.579 106.554 162.095 106.554 162.692C106.554 163.22 106.434 163.706 106.193 164.151C105.959 164.597 105.587 164.96 105.077 165.241C104.573 165.522 103.914 165.678 103.1 165.707L102.335 166.384ZM102.221 172H98.3271L99.3555 169.943H102.221C102.684 169.943 103.062 169.87 103.354 169.724C103.647 169.571 103.864 169.366 104.005 169.108C104.146 168.851 104.216 168.555 104.216 168.221C104.216 167.846 104.151 167.521 104.022 167.245C103.899 166.97 103.7 166.759 103.425 166.612C103.149 166.46 102.786 166.384 102.335 166.384H99.7949L99.8125 164.573H102.977L103.583 165.285C104.362 165.273 104.989 165.411 105.464 165.698C105.944 165.979 106.293 166.346 106.51 166.797C106.732 167.248 106.844 167.731 106.844 168.247C106.844 169.067 106.665 169.759 106.308 170.321C105.95 170.878 105.426 171.297 104.734 171.578C104.049 171.859 103.211 172 102.221 172ZM110.412 165.312H113.172C114.039 165.312 114.777 165.455 115.387 165.742C116.002 166.023 116.471 166.416 116.793 166.92C117.121 167.424 117.285 168.007 117.285 168.669C117.285 169.149 117.191 169.595 117.004 170.005C116.822 170.409 116.556 170.761 116.204 171.06C115.853 171.358 115.422 171.59 114.912 171.754C114.402 171.918 113.822 172 113.172 172H108.83V162.49H111.37V170.031H113.172C113.553 170.031 113.857 169.97 114.086 169.847C114.32 169.718 114.49 169.551 114.596 169.346C114.707 169.141 114.763 168.918 114.763 168.678C114.763 168.426 114.707 168.197 114.596 167.992C114.49 167.781 114.32 167.611 114.086 167.482C113.857 167.354 113.553 167.289 113.172 167.289H110.412V165.312ZM121.346 162.49V172H118.814V162.49H121.346ZM130.038 162.49V164.477H126.083V172H123.552V162.49H130.038ZM130.548 167.342V167.157C130.548 166.46 130.647 165.818 130.847 165.232C131.046 164.641 131.336 164.128 131.717 163.694C132.098 163.261 132.566 162.924 133.123 162.684C133.68 162.438 134.318 162.314 135.039 162.314C135.76 162.314 136.401 162.438 136.964 162.684C137.526 162.924 137.998 163.261 138.379 163.694C138.766 164.128 139.059 164.641 139.258 165.232C139.457 165.818 139.557 166.46 139.557 167.157V167.342C139.557 168.033 139.457 168.675 139.258 169.267C139.059 169.853 138.766 170.365 138.379 170.805C137.998 171.238 137.529 171.575 136.973 171.815C136.416 172.056 135.777 172.176 135.057 172.176C134.336 172.176 133.694 172.056 133.132 171.815C132.575 171.575 132.104 171.238 131.717 170.805C131.336 170.365 131.046 169.853 130.847 169.267C130.647 168.675 130.548 168.033 130.548 167.342ZM133.079 167.157V167.342C133.079 167.74 133.114 168.112 133.185 168.458C133.255 168.804 133.366 169.108 133.519 169.372C133.677 169.63 133.882 169.832 134.134 169.979C134.386 170.125 134.693 170.198 135.057 170.198C135.408 170.198 135.71 170.125 135.962 169.979C136.214 169.832 136.416 169.63 136.568 169.372C136.721 169.108 136.832 168.804 136.902 168.458C136.979 168.112 137.017 167.74 137.017 167.342V167.157C137.017 166.771 136.979 166.407 136.902 166.067C136.832 165.722 136.718 165.417 136.56 165.153C136.407 164.884 136.205 164.673 135.953 164.521C135.701 164.368 135.396 164.292 135.039 164.292C134.682 164.292 134.377 164.368 134.125 164.521C133.879 164.673 133.677 164.884 133.519 165.153C133.366 165.417 133.255 165.722 133.185 166.067C133.114 166.407 133.079 166.771 133.079 167.157ZM142.193 162.49H144.725L144.646 165.672C144.622 166.691 144.505 167.567 144.294 168.3C144.083 169.032 143.802 169.647 143.45 170.146C143.099 170.644 142.697 171.042 142.246 171.341C141.801 171.634 141.332 171.854 140.84 172H140.365L140.339 170.049L140.603 170.022C140.901 169.712 141.147 169.41 141.341 169.117C141.534 168.818 141.684 168.505 141.789 168.177C141.895 167.849 141.971 167.482 142.018 167.078C142.07 166.674 142.103 166.205 142.114 165.672L142.193 162.49ZM142.879 162.49H149.181V172H146.658V164.521H142.879V162.49ZM139.785 170.022H150.543V174.856H148.012V172H142.378V174.856H139.785V170.022ZM158.242 166.331V168.3H153.408V166.331H158.242ZM154.252 162.49V172H151.721V162.49H154.252ZM159.956 162.49V172H157.416V162.49H159.956ZM161.521 167.342V167.157C161.521 166.46 161.62 165.818 161.819 165.232C162.019 164.641 162.309 164.128 162.689 163.694C163.07 163.261 163.539 162.924 164.096 162.684C164.652 162.438 165.291 162.314 166.012 162.314C166.732 162.314 167.374 162.438 167.937 162.684C168.499 162.924 168.971 163.261 169.352 163.694C169.738 164.128 170.031 164.641 170.23 165.232C170.43 165.818 170.529 166.46 170.529 167.157V167.342C170.529 168.033 170.43 168.675 170.23 169.267C170.031 169.853 169.738 170.365 169.352 170.805C168.971 171.238 168.502 171.575 167.945 171.815C167.389 172.056 166.75 172.176 166.029 172.176C165.309 172.176 164.667 172.056 164.104 171.815C163.548 171.575 163.076 171.238 162.689 170.805C162.309 170.365 162.019 169.853 161.819 169.267C161.62 168.675 161.521 168.033 161.521 167.342ZM164.052 167.157V167.342C164.052 167.74 164.087 168.112 164.157 168.458C164.228 168.804 164.339 169.108 164.491 169.372C164.649 169.63 164.854 169.832 165.106 169.979C165.358 170.125 165.666 170.198 166.029 170.198C166.381 170.198 166.683 170.125 166.935 169.979C167.187 169.832 167.389 169.63 167.541 169.372C167.693 169.108 167.805 168.804 167.875 168.458C167.951 168.112 167.989 167.74 167.989 167.342V167.157C167.989 166.771 167.951 166.407 167.875 166.067C167.805 165.722 167.69 165.417 167.532 165.153C167.38 164.884 167.178 164.673 166.926 164.521C166.674 164.368 166.369 164.292 166.012 164.292C165.654 164.292 165.35 164.368 165.098 164.521C164.852 164.673 164.649 164.884 164.491 165.153C164.339 165.417 164.228 165.722 164.157 166.067C164.087 166.407 164.052 166.771 164.052 167.157ZM179.09 168.467L182.28 162.49H184.812V172H182.28V166.015L179.09 172H176.559V162.49H179.09V168.467ZM194.066 170.928L196.589 162.49H199.305L195.481 173.433C195.399 173.673 195.288 173.931 195.147 174.206C195.013 174.481 194.828 174.742 194.594 174.988C194.365 175.24 194.075 175.445 193.724 175.604C193.378 175.762 192.953 175.841 192.449 175.841C192.209 175.841 192.013 175.826 191.86 175.797C191.708 175.768 191.526 175.727 191.315 175.674V173.819C191.38 173.819 191.447 173.819 191.518 173.819C191.588 173.825 191.655 173.828 191.72 173.828C192.054 173.828 192.326 173.79 192.537 173.714C192.748 173.638 192.918 173.521 193.047 173.362C193.176 173.21 193.278 173.011 193.354 172.765L194.066 170.928ZM193.012 162.49L195.077 169.381L195.438 172.062L193.715 172.246L190.296 162.49H193.012ZM201.537 162.49H204.068L203.989 165.672C203.966 166.691 203.849 167.567 203.638 168.3C203.427 169.032 203.146 169.647 202.794 170.146C202.442 170.644 202.041 171.042 201.59 171.341C201.145 171.634 200.676 171.854 200.184 172H199.709L199.683 170.049L199.946 170.022C200.245 169.712 200.491 169.41 200.685 169.117C200.878 168.818 201.027 168.505 201.133 168.177C201.238 167.849 201.314 167.482 201.361 167.078C201.414 166.674 201.446 166.205 201.458 165.672L201.537 162.49ZM202.223 162.49H208.524V172H206.002V164.521H202.223V162.49ZM199.129 170.022H209.887V174.856H207.355V172H201.722V174.856H199.129V170.022ZM210.774 167.342V167.157C210.774 166.46 210.874 165.818 211.073 165.232C211.272 164.641 211.562 164.128 211.943 163.694C212.324 163.261 212.793 162.924 213.35 162.684C213.906 162.438 214.545 162.314 215.266 162.314C215.986 162.314 216.628 162.438 217.19 162.684C217.753 162.924 218.225 163.261 218.605 163.694C218.992 164.128 219.285 164.641 219.484 165.232C219.684 165.818 219.783 166.46 219.783 167.157V167.342C219.783 168.033 219.684 168.675 219.484 169.267C219.285 169.853 218.992 170.365 218.605 170.805C218.225 171.238 217.756 171.575 217.199 171.815C216.643 172.056 216.004 172.176 215.283 172.176C214.562 172.176 213.921 172.056 213.358 171.815C212.802 171.575 212.33 171.238 211.943 170.805C211.562 170.365 211.272 169.853 211.073 169.267C210.874 168.675 210.774 168.033 210.774 167.342ZM213.306 167.157V167.342C213.306 167.74 213.341 168.112 213.411 168.458C213.481 168.804 213.593 169.108 213.745 169.372C213.903 169.63 214.108 169.832 214.36 169.979C214.612 170.125 214.92 170.198 215.283 170.198C215.635 170.198 215.937 170.125 216.188 169.979C216.44 169.832 216.643 169.63 216.795 169.372C216.947 169.108 217.059 168.804 217.129 168.458C217.205 168.112 217.243 167.74 217.243 167.342V167.157C217.243 166.771 217.205 166.407 217.129 166.067C217.059 165.722 216.944 165.417 216.786 165.153C216.634 164.884 216.432 164.673 216.18 164.521C215.928 164.368 215.623 164.292 215.266 164.292C214.908 164.292 214.604 164.368 214.352 164.521C214.105 164.673 213.903 164.884 213.745 165.153C213.593 165.417 213.481 165.722 213.411 166.067C213.341 166.407 213.306 166.771 213.306 167.157ZM227.166 158.307H229.214C229.214 158.781 229.155 159.188 229.038 159.528C228.921 159.862 228.733 160.149 228.476 160.39C228.218 160.624 227.872 160.823 227.438 160.987C227.005 161.151 226.469 161.292 225.83 161.409C225.338 161.509 224.91 161.673 224.547 161.901C224.189 162.13 223.894 162.443 223.659 162.842C223.431 163.234 223.267 163.732 223.167 164.336C223.067 164.934 223.032 165.654 223.062 166.498V166.92L221.093 167.192V166.771C221.099 165.622 221.201 164.623 221.4 163.773C221.605 162.924 221.896 162.209 222.271 161.629C222.646 161.043 223.097 160.577 223.624 160.231C224.151 159.88 224.737 159.634 225.382 159.493C225.815 159.399 226.161 159.309 226.419 159.221C226.683 159.127 226.873 159.01 226.99 158.869C227.107 158.729 227.166 158.541 227.166 158.307ZM226.059 163.026C226.703 163.026 227.274 163.138 227.772 163.36C228.271 163.577 228.689 163.885 229.029 164.283C229.369 164.682 229.627 165.15 229.803 165.689C229.979 166.229 230.066 166.817 230.066 167.456V167.641C230.066 168.291 229.967 168.895 229.768 169.451C229.574 170.002 229.287 170.482 228.906 170.893C228.525 171.303 228.057 171.622 227.5 171.851C226.943 172.073 226.308 172.185 225.593 172.185C224.872 172.185 224.23 172.064 223.668 171.824C223.111 171.578 222.64 171.235 222.253 170.796C221.872 170.351 221.582 169.832 221.383 169.24C221.189 168.643 221.093 167.992 221.093 167.289V167.096C221.093 166.996 221.137 166.899 221.225 166.806C221.318 166.706 221.427 166.595 221.55 166.472C221.679 166.349 221.793 166.193 221.893 166.006C222.244 165.355 222.628 164.811 223.044 164.371C223.46 163.926 223.914 163.592 224.406 163.369C224.904 163.141 225.455 163.026 226.059 163.026ZM225.575 165.004C225.101 165.004 224.72 165.118 224.433 165.347C224.146 165.569 223.938 165.868 223.809 166.243C223.686 166.612 223.624 167.017 223.624 167.456V167.641C223.624 167.998 223.659 168.332 223.729 168.643C223.8 168.947 223.911 169.22 224.063 169.46C224.216 169.694 224.418 169.879 224.67 170.014C224.922 170.143 225.229 170.207 225.593 170.207C225.944 170.207 226.243 170.143 226.489 170.014C226.741 169.879 226.943 169.694 227.096 169.46C227.248 169.22 227.359 168.947 227.43 168.643C227.5 168.332 227.535 167.998 227.535 167.641V167.456C227.535 167.122 227.5 166.809 227.43 166.516C227.359 166.217 227.248 165.956 227.096 165.733C226.943 165.505 226.741 165.326 226.489 165.197C226.237 165.068 225.933 165.004 225.575 165.004ZM237.959 166.331V168.3H233.125V166.331H237.959ZM233.969 162.49V172H231.438V162.49H233.969ZM239.673 162.49V172H237.133V162.49H239.673ZM241.237 167.342V167.157C241.237 166.46 241.337 165.818 241.536 165.232C241.735 164.641 242.025 164.128 242.406 163.694C242.787 163.261 243.256 162.924 243.812 162.684C244.369 162.438 245.008 162.314 245.729 162.314C246.449 162.314 247.091 162.438 247.653 162.684C248.216 162.924 248.688 163.261 249.068 163.694C249.455 164.128 249.748 164.641 249.947 165.232C250.146 165.818 250.246 166.46 250.246 167.157V167.342C250.246 168.033 250.146 168.675 249.947 169.267C249.748 169.853 249.455 170.365 249.068 170.805C248.688 171.238 248.219 171.575 247.662 171.815C247.105 172.056 246.467 172.176 245.746 172.176C245.025 172.176 244.384 172.056 243.821 171.815C243.265 171.575 242.793 171.238 242.406 170.805C242.025 170.365 241.735 169.853 241.536 169.267C241.337 168.675 241.237 168.033 241.237 167.342ZM243.769 167.157V167.342C243.769 167.74 243.804 168.112 243.874 168.458C243.944 168.804 244.056 169.108 244.208 169.372C244.366 169.63 244.571 169.832 244.823 169.979C245.075 170.125 245.383 170.198 245.746 170.198C246.098 170.198 246.399 170.125 246.651 169.979C246.903 169.832 247.105 169.63 247.258 169.372C247.41 169.108 247.521 168.804 247.592 168.458C247.668 168.112 247.706 167.74 247.706 167.342V167.157C247.706 166.771 247.668 166.407 247.592 166.067C247.521 165.722 247.407 165.417 247.249 165.153C247.097 164.884 246.895 164.673 246.643 164.521C246.391 164.368 246.086 164.292 245.729 164.292C245.371 164.292 245.066 164.368 244.814 164.521C244.568 164.673 244.366 164.884 244.208 165.153C244.056 165.417 243.944 165.722 243.874 166.067C243.804 166.407 243.769 166.771 243.769 167.157Z" fill="#002D4F"/>
<g filter="url(#filter0_d_2_2975)">
<circle cx="174" cy="82" r="47" fill="url(#paint0_linear_2_2975)" shape-rendering="crispEdges"/>
</g>
<path d="M150 65.8577C150 62.6353 151.047 60.0261 153.142 58.0301C155.237 56.01 157.982 55 161.377 55C164.82 55 167.589 55.998 169.684 57.994C171.779 59.9659 172.826 62.6473 172.826 66.0381V68.6353C172.826 71.8818 171.779 74.491 169.684 76.4629C167.589 78.4349 164.844 79.4208 161.449 79.4208C158.03 79.4208 155.261 78.4349 153.142 76.4629C151.047 74.4669 150 71.7856 150 68.4188V65.8577ZM156.935 68.6353C156.935 70.0782 157.344 71.2445 158.163 72.1343C159.005 73 160.101 73.4329 161.449 73.4329C162.798 73.4329 163.869 72.988 164.664 72.0982C165.458 71.2084 165.856 70.018 165.856 68.5271V65.8577C165.856 64.4148 165.458 63.2485 164.664 62.3587C163.869 61.4689 162.774 61.024 161.377 61.024C160.053 61.024 158.981 61.4689 158.163 62.3587C157.344 63.2244 156.935 64.4389 156.935 66.002V68.6353ZM175.138 95.4008C175.138 92.1543 176.197 89.5451 178.316 87.5732C180.435 85.5772 183.18 84.5792 186.551 84.5792C189.97 84.5792 192.727 85.5651 194.822 87.5371C196.941 89.485 198 92.1784 198 95.6172V98.2144C198 101.437 196.965 104.046 194.894 106.042C192.823 108.014 190.066 109 186.623 109C183.156 109 180.375 108.002 178.28 106.006C176.185 104.01 175.138 101.365 175.138 98.0701V95.4008ZM182.072 98.2144C182.072 99.5371 182.506 100.667 183.372 101.605C184.239 102.543 185.323 103.012 186.623 103.012C189.561 103.012 191.029 101.389 191.029 98.1423V95.4008C191.029 93.9579 190.62 92.8036 189.801 91.9379C188.983 91.0481 187.899 90.6032 186.551 90.6032C185.202 90.6032 184.119 91.0481 183.3 91.9379C182.482 92.8036 182.072 93.994 182.072 95.509V98.2144ZM164.942 102.055C164.135 103.344 162.466 103.786 161.127 103.065C159.659 102.275 159.164 100.408 160.049 98.994L182.661 62.8471C183.468 61.5578 185.136 61.1157 186.475 61.8366C187.944 62.6271 188.438 64.494 187.554 65.9078L164.942 102.055Z" fill="white"/>
<defs>
<filter id="filter0_d_2_2975" x="114" y="26" width="120" height="120" filterUnits="userSpaceOnUse" color-interpolation-filters="sRGB">
<feFlood flood-opacity="0" result="BackgroundImageFix"/>
<feColorMatrix in="SourceAlpha" type="matrix" values="0 0 0 0 0 0 0 0 0 0 0 0 0 0 0 0 0 0 127 0" result="hardAlpha"/>
<feOffset dy="4"/>
<feGaussianBlur stdDeviation="6.5"/>
<feComposite in2="hardAlpha" operator="out"/>
<feColorMatrix type="matrix" values="0 0 0 0 0.996078 0 0 0 0 0.671373 0 0 0 0 0.290196 0 0 0 0.3 0"/>
<feBlend mode="normal" in2="BackgroundImageFix" result="effect1_dropShadow_2_2975"/>
<feBlend mode="normal" in="SourceGraphic" in2="effect1_dropShadow_2_2975" result="shape"/>
</filter>
<linearGradient id="paint0_linear_2_2975" x1="147.337" y1="129" x2="197.048" y2="35" gradientUnits="userSpaceOnUse">
<stop stop-color="#FF927A"/>
<stop offset="1" stop-color="#FFD056" stop-opacity="0.58"/>
</linearGradient>
</defs>
</svg>
