<svg width="347" height="275" viewBox="0 0 347 275" fill="none" xmlns="http://www.w3.org/2000/svg">
<rect width="347" height="275" rx="12" fill="#F6F9F9"/>
<path d="M70.4053 159.177V172H67.874V162.095L64.833 163.062V161.066L70.1328 159.177H70.4053ZM83.1846 164.477V166.691C83.1846 167.652 83.082 168.481 82.877 169.179C82.6719 169.87 82.376 170.438 81.9893 170.884C81.6084 171.323 81.1543 171.648 80.627 171.859C80.0996 172.07 79.5137 172.176 78.8691 172.176C78.3535 172.176 77.873 172.111 77.4277 171.982C76.9824 171.848 76.5811 171.64 76.2236 171.358C75.8721 171.077 75.5674 170.723 75.3096 170.295C75.0576 169.861 74.8643 169.346 74.7295 168.748C74.5947 168.15 74.5273 167.465 74.5273 166.691V164.477C74.5273 163.516 74.6299 162.692 74.835 162.007C75.0459 161.315 75.3418 160.75 75.7227 160.311C76.1094 159.871 76.5664 159.549 77.0938 159.344C77.6211 159.133 78.207 159.027 78.8516 159.027C79.3672 159.027 79.8447 159.095 80.2842 159.229C80.7295 159.358 81.1309 159.561 81.4883 159.836C81.8457 160.111 82.1504 160.466 82.4023 160.899C82.6543 161.327 82.8477 161.84 82.9824 162.438C83.1172 163.029 83.1846 163.709 83.1846 164.477ZM80.6445 167.025V164.134C80.6445 163.671 80.6182 163.267 80.5654 162.921C80.5186 162.575 80.4453 162.282 80.3457 162.042C80.2461 161.796 80.123 161.597 79.9766 161.444C79.8301 161.292 79.6631 161.181 79.4756 161.11C79.2881 161.04 79.0801 161.005 78.8516 161.005C78.5645 161.005 78.3096 161.061 78.0869 161.172C77.8701 161.283 77.6855 161.462 77.5332 161.708C77.3809 161.948 77.2637 162.271 77.1816 162.675C77.1055 163.073 77.0674 163.56 77.0674 164.134V167.025C77.0674 167.488 77.0908 167.896 77.1377 168.247C77.1904 168.599 77.2666 168.9 77.3662 169.152C77.4717 169.398 77.5947 169.601 77.7354 169.759C77.8818 169.911 78.0488 170.022 78.2363 170.093C78.4297 170.163 78.6406 170.198 78.8691 170.198C79.1504 170.198 79.3994 170.143 79.6162 170.031C79.8389 169.914 80.0264 169.732 80.1787 169.486C80.3369 169.234 80.4541 168.906 80.5303 168.502C80.6064 168.098 80.6445 167.605 80.6445 167.025ZM93.5205 164.477V166.691C93.5205 167.652 93.418 168.481 93.2129 169.179C93.0078 169.87 92.7119 170.438 92.3252 170.884C91.9443 171.323 91.4902 171.648 90.9629 171.859C90.4355 172.07 89.8496 172.176 89.2051 172.176C88.6895 172.176 88.209 172.111 87.7637 171.982C87.3184 171.848 86.917 171.64 86.5596 171.358C86.208 171.077 85.9033 170.723 85.6455 170.295C85.3936 169.861 85.2002 169.346 85.0654 168.748C84.9307 168.15 84.8633 167.465 84.8633 166.691V164.477C84.8633 163.516 84.9658 162.692 85.1709 162.007C85.3818 161.315 85.6777 160.75 86.0586 160.311C86.4453 159.871 86.9023 159.549 87.4297 159.344C87.957 159.133 88.543 159.027 89.1875 159.027C89.7031 159.027 90.1807 159.095 90.6201 159.229C91.0654 159.358 91.4668 159.561 91.8242 159.836C92.1816 160.111 92.4863 160.466 92.7383 160.899C92.9902 161.327 93.1836 161.84 93.3184 162.438C93.4531 163.029 93.5205 163.709 93.5205 164.477ZM90.9805 167.025V164.134C90.9805 163.671 90.9541 163.267 90.9014 162.921C90.8545 162.575 90.7812 162.282 90.6816 162.042C90.582 161.796 90.459 161.597 90.3125 161.444C90.166 161.292 89.999 161.181 89.8115 161.11C89.624 161.04 89.416 161.005 89.1875 161.005C88.9004 161.005 88.6455 161.061 88.4229 161.172C88.2061 161.283 88.0215 161.462 87.8691 161.708C87.7168 161.948 87.5996 162.271 87.5176 162.675C87.4414 163.073 87.4033 163.56 87.4033 164.134V167.025C87.4033 167.488 87.4268 167.896 87.4736 168.247C87.5264 168.599 87.6025 168.9 87.7021 169.152C87.8076 169.398 87.9307 169.601 88.0713 169.759C88.2178 169.911 88.3848 170.022 88.5723 170.093C88.7656 170.163 88.9766 170.198 89.2051 170.198C89.4863 170.198 89.7354 170.143 89.9521 170.031C90.1748 169.914 90.3623 169.732 90.5146 169.486C90.6729 169.234 90.79 168.906 90.8662 168.502C90.9424 168.098 90.9805 167.605 90.9805 167.025ZM95.208 162.341V161.664C95.208 161.178 95.3135 160.735 95.5244 160.337C95.7354 159.938 96.0459 159.619 96.4561 159.379C96.8662 159.139 97.3701 159.019 97.9678 159.019C98.583 159.019 99.0957 159.139 99.5059 159.379C99.9219 159.619 100.232 159.938 100.438 160.337C100.648 160.735 100.754 161.178 100.754 161.664V162.341C100.754 162.815 100.648 163.252 100.438 163.65C100.232 164.049 99.9248 164.368 99.5146 164.608C99.1045 164.849 98.5977 164.969 97.9941 164.969C97.3848 164.969 96.8721 164.849 96.4561 164.608C96.0459 164.368 95.7354 164.049 95.5244 163.65C95.3135 163.252 95.208 162.815 95.208 162.341ZM96.8867 161.664V162.341C96.8867 162.546 96.9248 162.742 97.001 162.93C97.083 163.111 97.2061 163.261 97.3701 163.378C97.54 163.489 97.7451 163.545 97.9854 163.545C98.2373 163.545 98.4424 163.489 98.6006 163.378C98.7588 163.261 98.876 163.111 98.9521 162.93C99.0283 162.742 99.0664 162.546 99.0664 162.341V161.664C99.0664 161.447 99.0254 161.248 98.9434 161.066C98.8672 160.879 98.7471 160.729 98.583 160.618C98.4248 160.501 98.2197 160.442 97.9678 160.442C97.7334 160.442 97.5342 160.501 97.3701 160.618C97.2061 160.729 97.083 160.879 97.001 161.066C96.9248 161.248 96.8867 161.447 96.8867 161.664ZM101.325 169.539V168.862C101.325 168.382 101.431 167.942 101.642 167.544C101.858 167.146 102.172 166.826 102.582 166.586C102.998 166.346 103.508 166.226 104.111 166.226C104.721 166.226 105.23 166.346 105.641 166.586C106.051 166.826 106.361 167.146 106.572 167.544C106.783 167.942 106.889 168.382 106.889 168.862V169.539C106.889 170.02 106.783 170.459 106.572 170.857C106.367 171.256 106.06 171.575 105.649 171.815C105.239 172.056 104.732 172.176 104.129 172.176C103.52 172.176 103.007 172.056 102.591 171.815C102.175 171.575 101.858 171.256 101.642 170.857C101.431 170.459 101.325 170.02 101.325 169.539ZM103.013 168.862V169.539C103.013 169.75 103.06 169.949 103.153 170.137C103.247 170.324 103.376 170.474 103.54 170.585C103.71 170.696 103.906 170.752 104.129 170.752C104.41 170.752 104.63 170.696 104.788 170.585C104.946 170.474 105.055 170.324 105.113 170.137C105.178 169.949 105.21 169.75 105.21 169.539V168.862C105.21 168.651 105.169 168.455 105.087 168.273C105.005 168.086 104.882 167.937 104.718 167.825C104.56 167.708 104.357 167.649 104.111 167.649C103.865 167.649 103.66 167.708 103.496 167.825C103.338 167.937 103.218 168.086 103.136 168.273C103.054 168.455 103.013 168.651 103.013 168.862ZM104.735 161.031L98.4863 171.033L97.2559 170.383L103.505 160.381L104.735 161.031ZM117.374 167.465H115.493V166.331H116.838C117.154 166.331 117.406 166.287 117.594 166.199C117.787 166.111 117.925 165.988 118.007 165.83C118.095 165.666 118.139 165.481 118.139 165.276C118.139 165.095 118.101 164.922 118.024 164.758C117.954 164.588 117.825 164.45 117.638 164.345C117.456 164.233 117.198 164.178 116.864 164.178C116.589 164.178 116.343 164.219 116.126 164.301C115.915 164.383 115.748 164.503 115.625 164.661C115.508 164.813 115.449 164.998 115.449 165.215H112.909C112.909 164.611 113.082 164.096 113.428 163.668C113.773 163.234 114.236 162.903 114.816 162.675C115.396 162.44 116.032 162.323 116.724 162.323C117.327 162.323 117.872 162.385 118.358 162.508C118.845 162.625 119.261 162.801 119.606 163.035C119.952 163.27 120.216 163.56 120.397 163.905C120.585 164.245 120.679 164.641 120.679 165.092C120.679 165.414 120.603 165.719 120.45 166.006C120.298 166.293 120.078 166.548 119.791 166.771C119.504 166.987 119.155 167.157 118.745 167.28C118.341 167.403 117.884 167.465 117.374 167.465ZM115.493 166.832H117.374C117.942 166.832 118.44 166.888 118.868 166.999C119.302 167.104 119.665 167.263 119.958 167.474C120.251 167.685 120.471 167.945 120.617 168.256C120.77 168.561 120.846 168.912 120.846 169.311C120.846 169.762 120.746 170.166 120.547 170.523C120.348 170.875 120.063 171.174 119.694 171.42C119.325 171.666 118.889 171.854 118.385 171.982C117.881 172.111 117.327 172.176 116.724 172.176C116.079 172.176 115.452 172.07 114.843 171.859C114.233 171.648 113.732 171.323 113.34 170.884C112.953 170.444 112.76 169.879 112.76 169.188H115.3C115.3 169.387 115.358 169.574 115.476 169.75C115.593 169.926 115.769 170.066 116.003 170.172C116.237 170.271 116.527 170.321 116.873 170.321C117.219 170.321 117.497 170.266 117.708 170.154C117.919 170.043 118.071 169.896 118.165 169.715C118.265 169.527 118.314 169.334 118.314 169.135C118.314 168.854 118.259 168.625 118.147 168.449C118.042 168.273 117.878 168.145 117.655 168.062C117.438 167.98 117.166 167.939 116.838 167.939H115.493V166.832ZM127.534 169.855V165.619C127.534 165.314 127.484 165.054 127.385 164.837C127.285 164.614 127.13 164.441 126.919 164.318C126.714 164.195 126.447 164.134 126.119 164.134C125.838 164.134 125.595 164.184 125.39 164.283C125.185 164.377 125.026 164.515 124.915 164.696C124.804 164.872 124.748 165.08 124.748 165.32H122.217C122.217 164.916 122.311 164.532 122.498 164.169C122.686 163.806 122.958 163.486 123.315 163.211C123.673 162.93 124.098 162.71 124.59 162.552C125.088 162.394 125.645 162.314 126.26 162.314C126.998 162.314 127.654 162.438 128.229 162.684C128.803 162.93 129.254 163.299 129.582 163.791C129.916 164.283 130.083 164.898 130.083 165.637V169.706C130.083 170.228 130.115 170.655 130.18 170.989C130.244 171.317 130.338 171.604 130.461 171.851V172H127.903C127.78 171.742 127.687 171.42 127.622 171.033C127.563 170.641 127.534 170.248 127.534 169.855ZM127.868 166.208L127.886 167.641H126.471C126.137 167.641 125.847 167.679 125.601 167.755C125.354 167.831 125.152 167.939 124.994 168.08C124.836 168.215 124.719 168.373 124.643 168.555C124.572 168.736 124.537 168.936 124.537 169.152C124.537 169.369 124.587 169.565 124.687 169.741C124.786 169.911 124.93 170.046 125.117 170.146C125.305 170.239 125.524 170.286 125.776 170.286C126.157 170.286 126.488 170.21 126.77 170.058C127.051 169.905 127.268 169.718 127.42 169.495C127.578 169.272 127.66 169.062 127.666 168.862L128.334 169.935C128.24 170.175 128.111 170.424 127.947 170.682C127.789 170.939 127.587 171.183 127.341 171.411C127.095 171.634 126.799 171.818 126.453 171.965C126.107 172.105 125.697 172.176 125.223 172.176C124.619 172.176 124.071 172.056 123.579 171.815C123.093 171.569 122.706 171.232 122.419 170.805C122.138 170.371 121.997 169.879 121.997 169.328C121.997 168.83 122.091 168.388 122.278 168.001C122.466 167.614 122.741 167.289 123.104 167.025C123.474 166.756 123.934 166.554 124.484 166.419C125.035 166.278 125.674 166.208 126.4 166.208H127.868ZM146.773 170.031L146.598 174.821H144.242V172H143.179V170.031H146.773ZM131.999 162.49H134.53V170.022H137.167V162.49H139.707V170.022H142.335V162.49H144.866V172H131.999V162.49ZM150.799 168.467L153.989 162.49H156.521V172H153.989V166.015L150.799 172H148.268V162.49H150.799V168.467ZM163.314 162.49V172H160.774V162.49H163.314ZM166.373 162.49V164.45H157.76V162.49H166.373ZM172.657 169.855V165.619C172.657 165.314 172.607 165.054 172.508 164.837C172.408 164.614 172.253 164.441 172.042 164.318C171.837 164.195 171.57 164.134 171.242 164.134C170.961 164.134 170.718 164.184 170.513 164.283C170.308 164.377 170.149 164.515 170.038 164.696C169.927 164.872 169.871 165.08 169.871 165.32H167.34C167.34 164.916 167.434 164.532 167.621 164.169C167.809 163.806 168.081 163.486 168.438 163.211C168.796 162.93 169.221 162.71 169.713 162.552C170.211 162.394 170.768 162.314 171.383 162.314C172.121 162.314 172.777 162.438 173.352 162.684C173.926 162.93 174.377 163.299 174.705 163.791C175.039 164.283 175.206 164.898 175.206 165.637V169.706C175.206 170.228 175.238 170.655 175.303 170.989C175.367 171.317 175.461 171.604 175.584 171.851V172H173.026C172.903 171.742 172.81 171.42 172.745 171.033C172.687 170.641 172.657 170.248 172.657 169.855ZM172.991 166.208L173.009 167.641H171.594C171.26 167.641 170.97 167.679 170.724 167.755C170.478 167.831 170.275 167.939 170.117 168.08C169.959 168.215 169.842 168.373 169.766 168.555C169.695 168.736 169.66 168.936 169.66 169.152C169.66 169.369 169.71 169.565 169.81 169.741C169.909 169.911 170.053 170.046 170.24 170.146C170.428 170.239 170.647 170.286 170.899 170.286C171.28 170.286 171.611 170.21 171.893 170.058C172.174 169.905 172.391 169.718 172.543 169.495C172.701 169.272 172.783 169.062 172.789 168.862L173.457 169.935C173.363 170.175 173.234 170.424 173.07 170.682C172.912 170.939 172.71 171.183 172.464 171.411C172.218 171.634 171.922 171.818 171.576 171.965C171.23 172.105 170.82 172.176 170.346 172.176C169.742 172.176 169.194 172.056 168.702 171.815C168.216 171.569 167.829 171.232 167.542 170.805C167.261 170.371 167.12 169.879 167.12 169.328C167.12 168.83 167.214 168.388 167.401 168.001C167.589 167.614 167.864 167.289 168.228 167.025C168.597 166.756 169.057 166.554 169.607 166.419C170.158 166.278 170.797 166.208 171.523 166.208H172.991ZM181.235 167.342V167.157C181.235 166.46 181.335 165.818 181.534 165.232C181.733 164.641 182.023 164.128 182.404 163.694C182.785 163.261 183.254 162.924 183.811 162.684C184.367 162.438 185.006 162.314 185.727 162.314C186.447 162.314 187.089 162.438 187.651 162.684C188.214 162.924 188.686 163.261 189.066 163.694C189.453 164.128 189.746 164.641 189.945 165.232C190.145 165.818 190.244 166.46 190.244 167.157V167.342C190.244 168.033 190.145 168.675 189.945 169.267C189.746 169.853 189.453 170.365 189.066 170.805C188.686 171.238 188.217 171.575 187.66 171.815C187.104 172.056 186.465 172.176 185.744 172.176C185.023 172.176 184.382 172.056 183.819 171.815C183.263 171.575 182.791 171.238 182.404 170.805C182.023 170.365 181.733 169.853 181.534 169.267C181.335 168.675 181.235 168.033 181.235 167.342ZM183.767 167.157V167.342C183.767 167.74 183.802 168.112 183.872 168.458C183.942 168.804 184.054 169.108 184.206 169.372C184.364 169.63 184.569 169.832 184.821 169.979C185.073 170.125 185.381 170.198 185.744 170.198C186.096 170.198 186.397 170.125 186.649 169.979C186.901 169.832 187.104 169.63 187.256 169.372C187.408 169.108 187.52 168.804 187.59 168.458C187.666 168.112 187.704 167.74 187.704 167.342V167.157C187.704 166.771 187.666 166.407 187.59 166.067C187.52 165.722 187.405 165.417 187.247 165.153C187.095 164.884 186.893 164.673 186.641 164.521C186.389 164.368 186.084 164.292 185.727 164.292C185.369 164.292 185.064 164.368 184.812 164.521C184.566 164.673 184.364 164.884 184.206 165.153C184.054 165.417 183.942 165.722 183.872 166.067C183.802 166.407 183.767 166.771 183.767 167.157ZM196.396 162.49V172H193.856V162.49H196.396ZM199.455 162.49V164.45H190.842V162.49H199.455ZM211.628 162.49V164.477H207.022V162.49H211.628ZM207.752 162.49V172H205.221V162.49H207.752ZM213.474 162.49V172H210.934V162.49H213.474ZM215.021 167.342V167.157C215.021 166.46 215.12 165.818 215.319 165.232C215.519 164.641 215.809 164.128 216.189 163.694C216.57 163.261 217.039 162.924 217.596 162.684C218.152 162.438 218.791 162.314 219.512 162.314C220.232 162.314 220.874 162.438 221.437 162.684C221.999 162.924 222.471 163.261 222.852 163.694C223.238 164.128 223.531 164.641 223.73 165.232C223.93 165.818 224.029 166.46 224.029 167.157V167.342C224.029 168.033 223.93 168.675 223.73 169.267C223.531 169.853 223.238 170.365 222.852 170.805C222.471 171.238 222.002 171.575 221.445 171.815C220.889 172.056 220.25 172.176 219.529 172.176C218.809 172.176 218.167 172.056 217.604 171.815C217.048 171.575 216.576 171.238 216.189 170.805C215.809 170.365 215.519 169.853 215.319 169.267C215.12 168.675 215.021 168.033 215.021 167.342ZM217.552 167.157V167.342C217.552 167.74 217.587 168.112 217.657 168.458C217.728 168.804 217.839 169.108 217.991 169.372C218.149 169.63 218.354 169.832 218.606 169.979C218.858 170.125 219.166 170.198 219.529 170.198C219.881 170.198 220.183 170.125 220.435 169.979C220.687 169.832 220.889 169.63 221.041 169.372C221.193 169.108 221.305 168.804 221.375 168.458C221.451 168.112 221.489 167.74 221.489 167.342V167.157C221.489 166.771 221.451 166.407 221.375 166.067C221.305 165.722 221.19 165.417 221.032 165.153C220.88 164.884 220.678 164.673 220.426 164.521C220.174 164.368 219.869 164.292 219.512 164.292C219.154 164.292 218.85 164.368 218.598 164.521C218.352 164.673 218.149 164.884 217.991 165.153C217.839 165.417 217.728 165.722 217.657 166.067C217.587 166.407 217.552 166.771 217.552 167.157ZM226.666 162.49H229.197L229.118 165.672C229.095 166.691 228.978 167.567 228.767 168.3C228.556 169.032 228.274 169.647 227.923 170.146C227.571 170.644 227.17 171.042 226.719 171.341C226.273 171.634 225.805 171.854 225.312 172H224.838L224.812 170.049L225.075 170.022C225.374 169.712 225.62 169.41 225.813 169.117C226.007 168.818 226.156 168.505 226.262 168.177C226.367 167.849 226.443 167.482 226.49 167.078C226.543 166.674 226.575 166.205 226.587 165.672L226.666 162.49ZM227.352 162.49H233.653V172H231.131V164.521H227.352V162.49ZM224.258 170.022H235.016V174.856H232.484V172H226.851V174.856H224.258V170.022ZM238.197 162.49H240.729L240.649 165.672C240.626 166.691 240.509 167.567 240.298 168.3C240.087 169.032 239.806 169.647 239.454 170.146C239.103 170.644 238.701 171.042 238.25 171.341C237.805 171.634 237.336 171.854 236.844 172H236.369L236.343 170.049L236.606 170.022C236.905 169.712 237.151 169.41 237.345 169.117C237.538 168.818 237.688 168.505 237.793 168.177C237.898 167.849 237.975 167.482 238.021 167.078C238.074 166.674 238.106 166.205 238.118 165.672L238.197 162.49ZM238.883 162.49H245.185V172H242.662V164.521H238.883V162.49ZM235.789 170.022H246.547V174.856H244.016V172H238.382V174.856H235.789V170.022ZM252.216 172.176C251.478 172.176 250.815 172.059 250.229 171.824C249.644 171.584 249.146 171.253 248.735 170.831C248.331 170.409 248.021 169.92 247.804 169.363C247.587 168.801 247.479 168.203 247.479 167.57V167.219C247.479 166.498 247.581 165.839 247.786 165.241C247.991 164.644 248.284 164.125 248.665 163.686C249.052 163.246 249.521 162.909 250.071 162.675C250.622 162.435 251.243 162.314 251.935 162.314C252.608 162.314 253.206 162.426 253.728 162.648C254.249 162.871 254.686 163.188 255.037 163.598C255.395 164.008 255.664 164.5 255.846 165.074C256.027 165.643 256.118 166.275 256.118 166.973V168.027H248.56V166.34H253.631V166.146C253.631 165.795 253.566 165.481 253.438 165.206C253.314 164.925 253.127 164.702 252.875 164.538C252.623 164.374 252.301 164.292 251.908 164.292C251.574 164.292 251.287 164.365 251.047 164.512C250.807 164.658 250.61 164.863 250.458 165.127C250.312 165.391 250.2 165.701 250.124 166.059C250.054 166.41 250.019 166.797 250.019 167.219V167.57C250.019 167.951 250.071 168.303 250.177 168.625C250.288 168.947 250.443 169.226 250.643 169.46C250.848 169.694 251.094 169.876 251.381 170.005C251.674 170.134 252.005 170.198 252.374 170.198C252.831 170.198 253.256 170.11 253.648 169.935C254.047 169.753 254.39 169.48 254.677 169.117L255.907 170.453C255.708 170.74 255.436 171.016 255.09 171.279C254.75 171.543 254.34 171.76 253.859 171.93C253.379 172.094 252.831 172.176 252.216 172.176ZM260.091 164.318V175.656H257.56V162.49H259.906L260.091 164.318ZM266.111 167.14V167.324C266.111 168.016 266.029 168.657 265.865 169.249C265.707 169.841 265.473 170.356 265.162 170.796C264.852 171.229 264.465 171.569 264.002 171.815C263.545 172.056 263.018 172.176 262.42 172.176C261.84 172.176 261.336 172.059 260.908 171.824C260.48 171.59 260.12 171.262 259.827 170.84C259.54 170.412 259.309 169.917 259.133 169.354C258.957 168.792 258.822 168.188 258.729 167.544V167.061C258.822 166.369 258.957 165.736 259.133 165.162C259.309 164.582 259.54 164.081 259.827 163.659C260.12 163.231 260.478 162.9 260.899 162.666C261.327 162.432 261.828 162.314 262.402 162.314C263.006 162.314 263.536 162.429 263.993 162.657C264.456 162.886 264.843 163.214 265.153 163.642C265.47 164.069 265.707 164.579 265.865 165.171C266.029 165.763 266.111 166.419 266.111 167.14ZM263.571 167.324V167.14C263.571 166.735 263.536 166.363 263.466 166.023C263.401 165.678 263.296 165.376 263.149 165.118C263.009 164.86 262.821 164.661 262.587 164.521C262.358 164.374 262.08 164.301 261.752 164.301C261.406 164.301 261.11 164.356 260.864 164.468C260.624 164.579 260.428 164.74 260.275 164.951C260.123 165.162 260.009 165.414 259.933 165.707C259.856 166 259.81 166.331 259.792 166.7V167.922C259.821 168.355 259.903 168.745 260.038 169.091C260.173 169.431 260.381 169.7 260.662 169.899C260.943 170.099 261.312 170.198 261.77 170.198C262.104 170.198 262.385 170.125 262.613 169.979C262.842 169.826 263.026 169.618 263.167 169.354C263.313 169.091 263.416 168.786 263.475 168.44C263.539 168.095 263.571 167.723 263.571 167.324ZM270.901 168.414L266.946 162.49H270.084L272.105 166.076H273.925L273.617 168.414H270.901ZM272.141 167.983L269.97 172H266.92L270.075 166.762L272.141 167.983ZM275.568 162.49V172H273.037V162.49H275.568ZM281.686 162.49L277.73 168.414H275.015L274.707 166.076H276.526L278.539 162.49H281.686ZM278.653 172L276.482 167.983L278.627 166.762L281.765 172H278.653ZM288.128 169.855V165.619C288.128 165.314 288.078 165.054 287.979 164.837C287.879 164.614 287.724 164.441 287.513 164.318C287.308 164.195 287.041 164.134 286.713 164.134C286.432 164.134 286.188 164.184 285.983 164.283C285.778 164.377 285.62 164.515 285.509 164.696C285.397 164.872 285.342 165.08 285.342 165.32H282.811C282.811 164.916 282.904 164.532 283.092 164.169C283.279 163.806 283.552 163.486 283.909 163.211C284.267 162.93 284.691 162.71 285.184 162.552C285.682 162.394 286.238 162.314 286.854 162.314C287.592 162.314 288.248 162.438 288.822 162.684C289.396 162.93 289.848 163.299 290.176 163.791C290.51 164.283 290.677 164.898 290.677 165.637V169.706C290.677 170.228 290.709 170.655 290.773 170.989C290.838 171.317 290.932 171.604 291.055 171.851V172H288.497C288.374 171.742 288.28 171.42 288.216 171.033C288.157 170.641 288.128 170.248 288.128 169.855ZM288.462 166.208L288.479 167.641H287.064C286.73 167.641 286.44 167.679 286.194 167.755C285.948 167.831 285.746 167.939 285.588 168.08C285.43 168.215 285.312 168.373 285.236 168.555C285.166 168.736 285.131 168.936 285.131 169.152C285.131 169.369 285.181 169.565 285.28 169.741C285.38 169.911 285.523 170.046 285.711 170.146C285.898 170.239 286.118 170.286 286.37 170.286C286.751 170.286 287.082 170.21 287.363 170.058C287.645 169.905 287.861 169.718 288.014 169.495C288.172 169.272 288.254 169.062 288.26 168.862L288.928 169.935C288.834 170.175 288.705 170.424 288.541 170.682C288.383 170.939 288.181 171.183 287.935 171.411C287.688 171.634 287.393 171.818 287.047 171.965C286.701 172.105 286.291 172.176 285.816 172.176C285.213 172.176 284.665 172.056 284.173 171.815C283.687 171.569 283.3 171.232 283.013 170.805C282.731 170.371 282.591 169.879 282.591 169.328C282.591 168.83 282.685 168.388 282.872 168.001C283.06 167.614 283.335 167.289 283.698 167.025C284.067 166.756 284.527 166.554 285.078 166.419C285.629 166.278 286.268 166.208 286.994 166.208H288.462Z" fill="#002D4F"/>
<path d="M63.2676 204.925V206.313H58.0205V204.925H63.2676ZM54.9004 207.931H56.5879C56.6816 208.534 56.8369 209.05 57.0537 209.478C57.2764 209.905 57.6016 210.233 58.0293 210.462C58.457 210.685 59.0312 210.796 59.752 210.796C60.3203 210.796 60.8125 210.679 61.2285 210.444C61.6445 210.204 61.9873 209.876 62.2568 209.46C62.5264 209.044 62.7256 208.561 62.8545 208.01C62.9893 207.459 63.0566 206.87 63.0566 206.243V204.96C63.0566 204.415 63.0098 203.911 62.916 203.448C62.8223 202.979 62.6816 202.561 62.4941 202.191C62.3066 201.816 62.0723 201.497 61.791 201.233C61.5156 200.97 61.1934 200.768 60.8242 200.627C60.4609 200.486 60.0537 200.416 59.6025 200.416C58.9463 200.416 58.4102 200.533 57.9941 200.768C57.584 201.002 57.2676 201.336 57.0449 201.77C56.8281 202.197 56.6758 202.71 56.5879 203.308H54.9004C54.9883 202.464 55.2197 201.723 55.5947 201.084C55.9697 200.439 56.4883 199.936 57.1504 199.572C57.8184 199.209 58.6357 199.027 59.6025 199.027C60.3936 199.027 61.1055 199.168 61.7383 199.449C62.3711 199.73 62.9102 200.132 63.3555 200.653C63.8066 201.175 64.1494 201.802 64.3838 202.534C64.624 203.267 64.7441 204.081 64.7441 204.978V206.243C64.7441 207.14 64.624 207.954 64.3838 208.687C64.1494 209.413 63.8125 210.037 63.373 210.559C62.9336 211.074 62.4062 211.473 61.791 211.754C61.1816 212.035 60.502 212.176 59.752 212.176C58.7266 212.176 57.8711 211.991 57.1855 211.622C56.5 211.247 55.9697 210.74 55.5947 210.102C55.2256 209.463 54.9941 208.739 54.9004 207.931ZM73.1465 202.49V203.835H68.5498V202.49H73.1465ZM74.5791 202.49V212H72.9531V202.49H74.5791ZM68.1543 202.49H69.7891L69.543 207.078C69.502 207.787 69.4346 208.414 69.3408 208.959C69.2529 209.498 69.1299 209.961 68.9717 210.348C68.8193 210.734 68.626 211.051 68.3916 211.297C68.1631 211.537 67.8877 211.716 67.5654 211.833C67.2432 211.944 66.8711 212 66.4492 212H65.9395V210.567L66.291 210.541C66.543 210.523 66.7568 210.465 66.9326 210.365C67.1143 210.266 67.2666 210.119 67.3896 209.926C67.5127 209.727 67.6123 209.472 67.6885 209.161C67.7705 208.851 67.832 208.481 67.873 208.054C67.9199 207.626 67.9551 207.128 67.9785 206.56L68.1543 202.49ZM81.1445 212.176C80.4824 212.176 79.8818 212.064 79.3428 211.842C78.8096 211.613 78.3496 211.294 77.9629 210.884C77.582 210.474 77.2891 209.987 77.084 209.425C76.8789 208.862 76.7764 208.247 76.7764 207.579V207.21C76.7764 206.437 76.8906 205.748 77.1191 205.145C77.3477 204.535 77.6582 204.02 78.0508 203.598C78.4434 203.176 78.8887 202.856 79.3867 202.64C79.8848 202.423 80.4004 202.314 80.9336 202.314C81.6133 202.314 82.1992 202.432 82.6914 202.666C83.1895 202.9 83.5967 203.229 83.9131 203.65C84.2295 204.066 84.4639 204.559 84.6162 205.127C84.7686 205.689 84.8447 206.305 84.8447 206.973V207.702H77.7432V206.375H83.2188V206.252C83.1953 205.83 83.1074 205.42 82.9551 205.021C82.8086 204.623 82.5742 204.295 82.252 204.037C81.9297 203.779 81.4902 203.65 80.9336 203.65C80.5645 203.65 80.2246 203.729 79.9141 203.888C79.6035 204.04 79.3369 204.269 79.1143 204.573C78.8916 204.878 78.7188 205.25 78.5957 205.689C78.4727 206.129 78.4111 206.636 78.4111 207.21V207.579C78.4111 208.03 78.4727 208.455 78.5957 208.854C78.7246 209.246 78.9092 209.592 79.1494 209.891C79.3955 210.189 79.6914 210.424 80.0371 210.594C80.3887 210.764 80.7871 210.849 81.2324 210.849C81.8066 210.849 82.293 210.731 82.6914 210.497C83.0898 210.263 83.4385 209.949 83.7373 209.557L84.7217 210.339C84.5166 210.649 84.2559 210.945 83.9395 211.227C83.623 211.508 83.2334 211.736 82.7705 211.912C82.3135 212.088 81.7715 212.176 81.1445 212.176ZM88.5098 202.49V212H86.8838V202.49H88.5098ZM94.75 202.49L90.2412 207.939H87.9648L87.7188 206.516H89.582L92.7725 202.49H94.75ZM93.001 212L89.5029 207.693L90.5488 206.516L95.0664 212H93.001ZM100.357 202.49V212H98.7227V202.49H100.357ZM103.548 202.49V203.809H95.5938V202.49H103.548ZM106.773 204.318V215.656H105.139V202.49H106.633L106.773 204.318ZM113.181 207.166V207.351C113.181 208.042 113.099 208.684 112.935 209.275C112.771 209.861 112.53 210.371 112.214 210.805C111.903 211.238 111.52 211.575 111.062 211.815C110.605 212.056 110.081 212.176 109.489 212.176C108.886 212.176 108.353 212.076 107.89 211.877C107.427 211.678 107.034 211.388 106.712 211.007C106.39 210.626 106.132 210.169 105.938 209.636C105.751 209.103 105.622 208.502 105.552 207.834V206.85C105.622 206.146 105.754 205.517 105.947 204.96C106.141 204.403 106.396 203.929 106.712 203.536C107.034 203.138 107.424 202.836 107.881 202.631C108.338 202.42 108.865 202.314 109.463 202.314C110.061 202.314 110.591 202.432 111.054 202.666C111.517 202.895 111.906 203.223 112.223 203.65C112.539 204.078 112.776 204.591 112.935 205.188C113.099 205.78 113.181 206.439 113.181 207.166ZM111.546 207.351V207.166C111.546 206.691 111.496 206.246 111.396 205.83C111.297 205.408 111.142 205.039 110.931 204.723C110.726 204.4 110.462 204.148 110.14 203.967C109.817 203.779 109.434 203.686 108.988 203.686C108.578 203.686 108.221 203.756 107.916 203.896C107.617 204.037 107.362 204.228 107.151 204.468C106.94 204.702 106.768 204.972 106.633 205.276C106.504 205.575 106.407 205.886 106.343 206.208V208.484C106.46 208.895 106.624 209.281 106.835 209.645C107.046 210.002 107.327 210.292 107.679 210.515C108.03 210.731 108.473 210.84 109.006 210.84C109.445 210.84 109.823 210.749 110.14 210.567C110.462 210.38 110.726 210.125 110.931 209.803C111.142 209.48 111.297 209.111 111.396 208.695C111.496 208.273 111.546 207.825 111.546 207.351ZM114.824 207.351V207.148C114.824 206.463 114.924 205.827 115.123 205.241C115.322 204.649 115.609 204.137 115.984 203.703C116.359 203.264 116.813 202.924 117.347 202.684C117.88 202.438 118.478 202.314 119.14 202.314C119.808 202.314 120.408 202.438 120.941 202.684C121.48 202.924 121.938 203.264 122.312 203.703C122.693 204.137 122.983 204.649 123.183 205.241C123.382 205.827 123.481 206.463 123.481 207.148V207.351C123.481 208.036 123.382 208.672 123.183 209.258C122.983 209.844 122.693 210.356 122.312 210.796C121.938 211.229 121.483 211.569 120.95 211.815C120.423 212.056 119.825 212.176 119.157 212.176C118.489 212.176 117.889 212.056 117.355 211.815C116.822 211.569 116.365 211.229 115.984 210.796C115.609 210.356 115.322 209.844 115.123 209.258C114.924 208.672 114.824 208.036 114.824 207.351ZM116.45 207.148V207.351C116.45 207.825 116.506 208.273 116.617 208.695C116.729 209.111 116.896 209.48 117.118 209.803C117.347 210.125 117.631 210.38 117.971 210.567C118.311 210.749 118.706 210.84 119.157 210.84C119.603 210.84 119.992 210.749 120.326 210.567C120.666 210.38 120.947 210.125 121.17 209.803C121.393 209.48 121.56 209.111 121.671 208.695C121.788 208.273 121.847 207.825 121.847 207.351V207.148C121.847 206.68 121.788 206.237 121.671 205.821C121.56 205.399 121.39 205.027 121.161 204.705C120.938 204.377 120.657 204.119 120.317 203.932C119.983 203.744 119.591 203.65 119.14 203.65C118.694 203.65 118.302 203.744 117.962 203.932C117.628 204.119 117.347 204.377 117.118 204.705C116.896 205.027 116.729 205.399 116.617 205.821C116.506 206.237 116.45 206.68 116.45 207.148ZM131.972 206.612V207.931H126.944V206.612H131.972ZM127.287 202.49V212H125.661V202.49H127.287ZM133.29 202.49V212H131.655V202.49H133.29ZM142.36 206.612V207.931H137.333V206.612H142.36ZM137.676 202.49V212H136.05V202.49H137.676ZM143.679 202.49V212H142.044V202.49H143.679ZM147.634 205.76H150.49C151.258 205.76 151.905 205.895 152.433 206.164C152.96 206.428 153.358 206.794 153.628 207.263C153.903 207.726 154.041 208.253 154.041 208.845C154.041 209.284 153.965 209.697 153.812 210.084C153.66 210.465 153.432 210.799 153.127 211.086C152.828 211.373 152.456 211.599 152.011 211.763C151.571 211.921 151.064 212 150.49 212H146.447V202.49H148.073V210.664H150.49C150.959 210.664 151.334 210.579 151.615 210.409C151.896 210.239 152.099 210.02 152.222 209.75C152.345 209.48 152.406 209.199 152.406 208.906C152.406 208.619 152.345 208.338 152.222 208.062C152.099 207.787 151.896 207.559 151.615 207.377C151.334 207.189 150.959 207.096 150.49 207.096H147.634V205.76ZM157.425 202.49V212H155.799V202.49H157.425ZM162.03 209.425L166.416 202.49H168.051V212H166.416V205.065L162.03 212H160.413V202.49H162.03V209.425ZM165.528 199.045H166.847C166.847 199.502 166.741 199.909 166.53 200.267C166.319 200.618 166.018 200.894 165.625 201.093C165.232 201.292 164.767 201.392 164.228 201.392C163.413 201.392 162.769 201.175 162.294 200.741C161.825 200.302 161.591 199.736 161.591 199.045H162.909C162.909 199.391 163.009 199.695 163.208 199.959C163.407 200.223 163.747 200.354 164.228 200.354C164.696 200.354 165.03 200.223 165.229 199.959C165.429 199.695 165.528 199.391 165.528 199.045ZM181.463 202.49V203.835H176.655V202.49H181.463ZM176.893 202.49V212H175.267V202.49H176.893ZM182.904 202.49V212H181.27V202.49H182.904ZM185.084 207.351V207.148C185.084 206.463 185.184 205.827 185.383 205.241C185.582 204.649 185.869 204.137 186.244 203.703C186.619 203.264 187.073 202.924 187.606 202.684C188.14 202.438 188.737 202.314 189.399 202.314C190.067 202.314 190.668 202.438 191.201 202.684C191.74 202.924 192.197 203.264 192.572 203.703C192.953 204.137 193.243 204.649 193.442 205.241C193.642 205.827 193.741 206.463 193.741 207.148V207.351C193.741 208.036 193.642 208.672 193.442 209.258C193.243 209.844 192.953 210.356 192.572 210.796C192.197 211.229 191.743 211.569 191.21 211.815C190.683 212.056 190.085 212.176 189.417 212.176C188.749 212.176 188.148 212.056 187.615 211.815C187.082 211.569 186.625 211.229 186.244 210.796C185.869 210.356 185.582 209.844 185.383 209.258C185.184 208.672 185.084 208.036 185.084 207.351ZM186.71 207.148V207.351C186.71 207.825 186.766 208.273 186.877 208.695C186.988 209.111 187.155 209.48 187.378 209.803C187.606 210.125 187.891 210.38 188.23 210.567C188.57 210.749 188.966 210.84 189.417 210.84C189.862 210.84 190.252 210.749 190.586 210.567C190.926 210.38 191.207 210.125 191.43 209.803C191.652 209.48 191.819 209.111 191.931 208.695C192.048 208.273 192.106 207.825 192.106 207.351V207.148C192.106 206.68 192.048 206.237 191.931 205.821C191.819 205.399 191.649 205.027 191.421 204.705C191.198 204.377 190.917 204.119 190.577 203.932C190.243 203.744 189.851 203.65 189.399 203.65C188.954 203.65 188.562 203.744 188.222 203.932C187.888 204.119 187.606 204.377 187.378 204.705C187.155 205.027 186.988 205.399 186.877 205.821C186.766 206.237 186.71 206.68 186.71 207.148ZM201.994 202.49V203.835H197.397V202.49H201.994ZM203.427 202.49V212H201.801V202.49H203.427ZM197.002 202.49H198.637L198.391 207.078C198.35 207.787 198.282 208.414 198.188 208.959C198.101 209.498 197.978 209.961 197.819 210.348C197.667 210.734 197.474 211.051 197.239 211.297C197.011 211.537 196.735 211.716 196.413 211.833C196.091 211.944 195.719 212 195.297 212H194.787V210.567L195.139 210.541C195.391 210.523 195.604 210.465 195.78 210.365C195.962 210.266 196.114 210.119 196.237 209.926C196.36 209.727 196.46 209.472 196.536 209.161C196.618 208.851 196.68 208.481 196.721 208.054C196.768 207.626 196.803 207.128 196.826 206.56L197.002 202.49ZM207.804 209.425L212.189 202.49H213.824V212H212.189V205.065L207.804 212H206.187V202.49H207.804V209.425ZM220.24 210.84C220.627 210.84 220.984 210.761 221.312 210.603C221.641 210.444 221.91 210.228 222.121 209.952C222.332 209.671 222.452 209.352 222.481 208.994H224.028C223.999 209.557 223.809 210.081 223.457 210.567C223.111 211.048 222.657 211.438 222.095 211.736C221.532 212.029 220.914 212.176 220.24 212.176C219.525 212.176 218.901 212.05 218.368 211.798C217.841 211.546 217.401 211.2 217.05 210.761C216.704 210.321 216.443 209.817 216.268 209.249C216.098 208.675 216.013 208.068 216.013 207.43V207.061C216.013 206.422 216.098 205.818 216.268 205.25C216.443 204.676 216.704 204.169 217.05 203.729C217.401 203.29 217.841 202.944 218.368 202.692C218.901 202.44 219.525 202.314 220.24 202.314C220.984 202.314 221.635 202.467 222.191 202.771C222.748 203.07 223.185 203.48 223.501 204.002C223.823 204.518 223.999 205.104 224.028 205.76H222.481C222.452 205.367 222.341 205.013 222.147 204.696C221.96 204.38 221.702 204.128 221.374 203.94C221.052 203.747 220.674 203.65 220.24 203.65C219.742 203.65 219.323 203.75 218.983 203.949C218.649 204.143 218.383 204.406 218.184 204.74C217.99 205.068 217.85 205.435 217.762 205.839C217.68 206.237 217.639 206.645 217.639 207.061V207.43C217.639 207.846 217.68 208.256 217.762 208.66C217.844 209.064 217.981 209.431 218.175 209.759C218.374 210.087 218.641 210.351 218.975 210.55C219.314 210.743 219.736 210.84 220.24 210.84ZM236.658 202.49V203.835H231.851V202.49H236.658ZM232.088 202.49V212H230.462V202.49H232.088ZM238.1 202.49V212H236.465V202.49H238.1ZM242.336 204.318V215.656H240.701V202.49H242.195L242.336 204.318ZM248.743 207.166V207.351C248.743 208.042 248.661 208.684 248.497 209.275C248.333 209.861 248.093 210.371 247.776 210.805C247.466 211.238 247.082 211.575 246.625 211.815C246.168 212.056 245.644 212.176 245.052 212.176C244.448 212.176 243.915 212.076 243.452 211.877C242.989 211.678 242.597 211.388 242.274 211.007C241.952 210.626 241.694 210.169 241.501 209.636C241.313 209.103 241.185 208.502 241.114 207.834V206.85C241.185 206.146 241.316 205.517 241.51 204.96C241.703 204.403 241.958 203.929 242.274 203.536C242.597 203.138 242.986 202.836 243.443 202.631C243.9 202.42 244.428 202.314 245.025 202.314C245.623 202.314 246.153 202.432 246.616 202.666C247.079 202.895 247.469 203.223 247.785 203.65C248.102 204.078 248.339 204.591 248.497 205.188C248.661 205.78 248.743 206.439 248.743 207.166ZM247.108 207.351V207.166C247.108 206.691 247.059 206.246 246.959 205.83C246.859 205.408 246.704 205.039 246.493 204.723C246.288 204.4 246.024 204.148 245.702 203.967C245.38 203.779 244.996 203.686 244.551 203.686C244.141 203.686 243.783 203.756 243.479 203.896C243.18 204.037 242.925 204.228 242.714 204.468C242.503 204.702 242.33 204.972 242.195 205.276C242.066 205.575 241.97 205.886 241.905 206.208V208.484C242.022 208.895 242.187 209.281 242.397 209.645C242.608 210.002 242.89 210.292 243.241 210.515C243.593 210.731 244.035 210.84 244.568 210.84C245.008 210.84 245.386 210.749 245.702 210.567C246.024 210.38 246.288 210.125 246.493 209.803C246.704 209.48 246.859 209.111 246.959 208.695C247.059 208.273 247.108 207.825 247.108 207.351ZM252.575 209.425L256.961 202.49H258.596V212H256.961V205.065L252.575 212H250.958V202.49H252.575V209.425ZM262.92 202.49H264.546L264.405 206.05C264.37 206.952 264.268 207.731 264.098 208.388C263.928 209.044 263.711 209.604 263.447 210.066C263.184 210.523 262.888 210.907 262.56 211.218C262.237 211.528 261.903 211.789 261.558 212H260.749L260.793 210.673L261.127 210.664C261.32 210.436 261.508 210.201 261.689 209.961C261.871 209.715 262.038 209.425 262.19 209.091C262.343 208.751 262.469 208.338 262.568 207.852C262.674 207.359 262.741 206.759 262.771 206.05L262.92 202.49ZM263.324 202.49H269.046V212H267.42V203.993H263.324V202.49ZM260.38 210.664H270.268V214.804H268.642V212H262.006V214.804H260.371L260.38 210.664ZM276.016 212.176C275.354 212.176 274.753 212.064 274.214 211.842C273.681 211.613 273.221 211.294 272.834 210.884C272.453 210.474 272.16 209.987 271.955 209.425C271.75 208.862 271.647 208.247 271.647 207.579V207.21C271.647 206.437 271.762 205.748 271.99 205.145C272.219 204.535 272.529 204.02 272.922 203.598C273.314 203.176 273.76 202.856 274.258 202.64C274.756 202.423 275.271 202.314 275.805 202.314C276.484 202.314 277.07 202.432 277.562 202.666C278.061 202.9 278.468 203.229 278.784 203.65C279.101 204.066 279.335 204.559 279.487 205.127C279.64 205.689 279.716 206.305 279.716 206.973V207.702H272.614V206.375H278.09V206.252C278.066 205.83 277.979 205.42 277.826 205.021C277.68 204.623 277.445 204.295 277.123 204.037C276.801 203.779 276.361 203.65 275.805 203.65C275.436 203.65 275.096 203.729 274.785 203.888C274.475 204.04 274.208 204.269 273.985 204.573C273.763 204.878 273.59 205.25 273.467 205.689C273.344 206.129 273.282 206.636 273.282 207.21V207.579C273.282 208.03 273.344 208.455 273.467 208.854C273.596 209.246 273.78 209.592 274.021 209.891C274.267 210.189 274.562 210.424 274.908 210.594C275.26 210.764 275.658 210.849 276.104 210.849C276.678 210.849 277.164 210.731 277.562 210.497C277.961 210.263 278.31 209.949 278.608 209.557L279.593 210.339C279.388 210.649 279.127 210.945 278.811 211.227C278.494 211.508 278.104 211.736 277.642 211.912C277.185 212.088 276.643 212.176 276.016 212.176ZM285.385 202.49V212H283.75V202.49H285.385ZM288.575 202.49V203.809H280.621V202.49H288.575ZM40.4863 238.612V239.931H35.459V238.612H40.4863ZM35.8018 234.49V244H34.1758V234.49H35.8018ZM41.8047 234.49V244H40.1699V234.49H41.8047ZM50.0312 242.374V237.479C50.0312 237.104 49.9551 236.778 49.8027 236.503C49.6562 236.222 49.4336 236.005 49.1348 235.853C48.8359 235.7 48.4668 235.624 48.0273 235.624C47.6172 235.624 47.2568 235.694 46.9463 235.835C46.6416 235.976 46.4014 236.16 46.2256 236.389C46.0557 236.617 45.9707 236.863 45.9707 237.127H44.3447C44.3447 236.787 44.4326 236.45 44.6084 236.116C44.7842 235.782 45.0361 235.48 45.3643 235.211C45.6982 234.936 46.0967 234.719 46.5596 234.561C47.0283 234.396 47.5498 234.314 48.124 234.314C48.8154 234.314 49.4248 234.432 49.9521 234.666C50.4854 234.9 50.9014 235.255 51.2002 235.729C51.5049 236.198 51.6572 236.787 51.6572 237.496V241.926C51.6572 242.242 51.6836 242.579 51.7363 242.937C51.7949 243.294 51.8799 243.602 51.9912 243.859V244H50.2949C50.2129 243.812 50.1484 243.563 50.1016 243.253C50.0547 242.937 50.0312 242.644 50.0312 242.374ZM50.3125 238.234L50.3301 239.377H48.6865C48.2236 239.377 47.8105 239.415 47.4473 239.491C47.084 239.562 46.7793 239.67 46.5332 239.816C46.2871 239.963 46.0996 240.147 45.9707 240.37C45.8418 240.587 45.7773 240.842 45.7773 241.135C45.7773 241.434 45.8447 241.706 45.9795 241.952C46.1143 242.198 46.3164 242.395 46.5859 242.541C46.8613 242.682 47.1982 242.752 47.5967 242.752C48.0947 242.752 48.5342 242.646 48.915 242.436C49.2959 242.225 49.5977 241.967 49.8203 241.662C50.0488 241.357 50.1719 241.062 50.1895 240.774L50.8838 241.557C50.8428 241.803 50.7314 242.075 50.5498 242.374C50.3682 242.673 50.125 242.96 49.8203 243.235C49.5215 243.505 49.1641 243.73 48.748 243.912C48.3379 244.088 47.875 244.176 47.3594 244.176C46.7148 244.176 46.1494 244.05 45.6631 243.798C45.1826 243.546 44.8076 243.209 44.5381 242.787C44.2744 242.359 44.1426 241.882 44.1426 241.354C44.1426 240.845 44.2422 240.396 44.4414 240.01C44.6406 239.617 44.9277 239.292 45.3027 239.034C45.6777 238.771 46.1289 238.571 46.6562 238.437C47.1836 238.302 47.7725 238.234 48.4229 238.234H50.3125ZM63.1445 239.816H60.0244L60.0068 238.516H62.5557C63.0596 238.516 63.4785 238.466 63.8125 238.366C64.1523 238.267 64.4072 238.117 64.5771 237.918C64.7471 237.719 64.832 237.473 64.832 237.18C64.832 236.951 64.7822 236.752 64.6826 236.582C64.5889 236.406 64.4453 236.263 64.252 236.151C64.0586 236.034 63.8184 235.949 63.5312 235.896C63.25 235.838 62.9189 235.809 62.5381 235.809H60.4551V244H58.8291V234.49H62.5381C63.1416 234.49 63.6836 234.543 64.1641 234.648C64.6504 234.754 65.0635 234.915 65.4033 235.132C65.749 235.343 66.0127 235.612 66.1943 235.94C66.376 236.269 66.4668 236.655 66.4668 237.101C66.4668 237.388 66.4082 237.66 66.291 237.918C66.1738 238.176 66.001 238.404 65.7725 238.604C65.5439 238.803 65.2627 238.967 64.9287 239.096C64.5947 239.219 64.2109 239.298 63.7773 239.333L63.1445 239.816ZM63.1445 244H59.4355L60.2441 242.682H63.1445C63.5957 242.682 63.9707 242.626 64.2695 242.515C64.5684 242.397 64.791 242.233 64.9375 242.022C65.0898 241.806 65.166 241.548 65.166 241.249C65.166 240.95 65.0898 240.695 64.9375 240.484C64.791 240.268 64.5684 240.104 64.2695 239.992C63.9707 239.875 63.5957 239.816 63.1445 239.816H60.6748L60.6924 238.516H63.7773L64.3662 239.008C64.8877 239.049 65.3301 239.178 65.6934 239.395C66.0566 239.611 66.332 239.887 66.5195 240.221C66.707 240.549 66.8008 240.906 66.8008 241.293C66.8008 241.738 66.7158 242.131 66.5459 242.471C66.3818 242.811 66.1416 243.095 65.8252 243.323C65.5088 243.546 65.125 243.716 64.6738 243.833C64.2227 243.944 63.7129 244 63.1445 244ZM74.5879 242.374V237.479C74.5879 237.104 74.5117 236.778 74.3594 236.503C74.2129 236.222 73.9902 236.005 73.6914 235.853C73.3926 235.7 73.0234 235.624 72.584 235.624C72.1738 235.624 71.8135 235.694 71.5029 235.835C71.1982 235.976 70.958 236.16 70.7822 236.389C70.6123 236.617 70.5273 236.863 70.5273 237.127H68.9014C68.9014 236.787 68.9893 236.45 69.165 236.116C69.3408 235.782 69.5928 235.48 69.9209 235.211C70.2549 234.936 70.6533 234.719 71.1162 234.561C71.585 234.396 72.1064 234.314 72.6807 234.314C73.3721 234.314 73.9814 234.432 74.5088 234.666C75.042 234.9 75.458 235.255 75.7568 235.729C76.0615 236.198 76.2139 236.787 76.2139 237.496V241.926C76.2139 242.242 76.2402 242.579 76.293 242.937C76.3516 243.294 76.4365 243.602 76.5479 243.859V244H74.8516C74.7695 243.812 74.7051 243.563 74.6582 243.253C74.6113 242.937 74.5879 242.644 74.5879 242.374ZM74.8691 238.234L74.8867 239.377H73.2432C72.7803 239.377 72.3672 239.415 72.0039 239.491C71.6406 239.562 71.3359 239.67 71.0898 239.816C70.8438 239.963 70.6562 240.147 70.5273 240.37C70.3984 240.587 70.334 240.842 70.334 241.135C70.334 241.434 70.4014 241.706 70.5361 241.952C70.6709 242.198 70.873 242.395 71.1426 242.541C71.418 242.682 71.7549 242.752 72.1533 242.752C72.6514 242.752 73.0908 242.646 73.4717 242.436C73.8525 242.225 74.1543 241.967 74.377 241.662C74.6055 241.357 74.7285 241.062 74.7461 240.774L75.4404 241.557C75.3994 241.803 75.2881 242.075 75.1064 242.374C74.9248 242.673 74.6816 242.96 74.377 243.235C74.0781 243.505 73.7207 243.73 73.3047 243.912C72.8945 244.088 72.4316 244.176 71.916 244.176C71.2715 244.176 70.7061 244.05 70.2197 243.798C69.7393 243.546 69.3643 243.209 69.0947 242.787C68.8311 242.359 68.6992 241.882 68.6992 241.354C68.6992 240.845 68.7988 240.396 68.998 240.01C69.1973 239.617 69.4844 239.292 69.8594 239.034C70.2344 238.771 70.6855 238.571 71.2129 238.437C71.7402 238.302 72.3291 238.234 72.9795 238.234H74.8691ZM78.9121 234.49H80.5381V242.664H84.0186V234.49H85.6533V242.664H89.125V234.49H90.751V244H78.9121V234.49ZM101.755 244.176C101.093 244.176 100.492 244.064 99.9531 243.842C99.4199 243.613 98.96 243.294 98.5732 242.884C98.1924 242.474 97.8994 241.987 97.6943 241.425C97.4893 240.862 97.3867 240.247 97.3867 239.579V239.21C97.3867 238.437 97.501 237.748 97.7295 237.145C97.958 236.535 98.2686 236.02 98.6611 235.598C99.0537 235.176 99.499 234.856 99.9971 234.64C100.495 234.423 101.011 234.314 101.544 234.314C102.224 234.314 102.81 234.432 103.302 234.666C103.8 234.9 104.207 235.229 104.523 235.65C104.84 236.066 105.074 236.559 105.227 237.127C105.379 237.689 105.455 238.305 105.455 238.973V239.702H98.3535V238.375H103.829V238.252C103.806 237.83 103.718 237.42 103.565 237.021C103.419 236.623 103.185 236.295 102.862 236.037C102.54 235.779 102.101 235.65 101.544 235.65C101.175 235.65 100.835 235.729 100.524 235.888C100.214 236.04 99.9473 236.269 99.7246 236.573C99.502 236.878 99.3291 237.25 99.2061 237.689C99.083 238.129 99.0215 238.636 99.0215 239.21V239.579C99.0215 240.03 99.083 240.455 99.2061 240.854C99.335 241.246 99.5195 241.592 99.7598 241.891C100.006 242.189 100.302 242.424 100.647 242.594C100.999 242.764 101.397 242.849 101.843 242.849C102.417 242.849 102.903 242.731 103.302 242.497C103.7 242.263 104.049 241.949 104.348 241.557L105.332 242.339C105.127 242.649 104.866 242.945 104.55 243.227C104.233 243.508 103.844 243.736 103.381 243.912C102.924 244.088 102.382 244.176 101.755 244.176ZM108.971 236.38V244H107.336V234.49H108.883L108.971 236.38ZM108.637 238.885L107.881 238.858C107.887 238.208 107.972 237.607 108.136 237.057C108.3 236.5 108.543 236.017 108.865 235.606C109.188 235.196 109.589 234.88 110.069 234.657C110.55 234.429 111.106 234.314 111.739 234.314C112.185 234.314 112.595 234.379 112.97 234.508C113.345 234.631 113.67 234.827 113.945 235.097C114.221 235.366 114.435 235.712 114.587 236.134C114.739 236.556 114.815 237.065 114.815 237.663V244H113.189V237.742C113.189 237.244 113.104 236.846 112.935 236.547C112.771 236.248 112.536 236.031 112.231 235.896C111.927 235.756 111.569 235.686 111.159 235.686C110.679 235.686 110.277 235.771 109.955 235.94C109.633 236.11 109.375 236.345 109.182 236.644C108.988 236.942 108.848 237.285 108.76 237.672C108.678 238.053 108.637 238.457 108.637 238.885ZM114.798 237.988L113.708 238.322C113.714 237.801 113.799 237.3 113.963 236.819C114.133 236.339 114.376 235.911 114.692 235.536C115.015 235.161 115.41 234.865 115.879 234.648C116.348 234.426 116.884 234.314 117.487 234.314C117.997 234.314 118.448 234.382 118.841 234.517C119.239 234.651 119.573 234.859 119.843 235.141C120.118 235.416 120.326 235.771 120.467 236.204C120.607 236.638 120.678 237.153 120.678 237.751V244H119.043V237.733C119.043 237.2 118.958 236.787 118.788 236.494C118.624 236.195 118.39 235.987 118.085 235.87C117.786 235.747 117.429 235.686 117.013 235.686C116.655 235.686 116.339 235.747 116.063 235.87C115.788 235.993 115.557 236.163 115.369 236.38C115.182 236.591 115.038 236.834 114.938 237.109C114.845 237.385 114.798 237.678 114.798 237.988ZM128.746 242.374V237.479C128.746 237.104 128.67 236.778 128.518 236.503C128.371 236.222 128.148 236.005 127.85 235.853C127.551 235.7 127.182 235.624 126.742 235.624C126.332 235.624 125.972 235.694 125.661 235.835C125.356 235.976 125.116 236.16 124.94 236.389C124.771 236.617 124.686 236.863 124.686 237.127H123.06C123.06 236.787 123.147 236.45 123.323 236.116C123.499 235.782 123.751 235.48 124.079 235.211C124.413 234.936 124.812 234.719 125.274 234.561C125.743 234.396 126.265 234.314 126.839 234.314C127.53 234.314 128.14 234.432 128.667 234.666C129.2 234.9 129.616 235.255 129.915 235.729C130.22 236.198 130.372 236.787 130.372 237.496V241.926C130.372 242.242 130.398 242.579 130.451 242.937C130.51 243.294 130.595 243.602 130.706 243.859V244H129.01C128.928 243.812 128.863 243.563 128.816 243.253C128.77 242.937 128.746 242.644 128.746 242.374ZM129.027 238.234L129.045 239.377H127.401C126.938 239.377 126.525 239.415 126.162 239.491C125.799 239.562 125.494 239.67 125.248 239.816C125.002 239.963 124.814 240.147 124.686 240.37C124.557 240.587 124.492 240.842 124.492 241.135C124.492 241.434 124.56 241.706 124.694 241.952C124.829 242.198 125.031 242.395 125.301 242.541C125.576 242.682 125.913 242.752 126.312 242.752C126.81 242.752 127.249 242.646 127.63 242.436C128.011 242.225 128.312 241.967 128.535 241.662C128.764 241.357 128.887 241.062 128.904 240.774L129.599 241.557C129.558 241.803 129.446 242.075 129.265 242.374C129.083 242.673 128.84 242.96 128.535 243.235C128.236 243.505 127.879 243.73 127.463 243.912C127.053 244.088 126.59 244.176 126.074 244.176C125.43 244.176 124.864 244.05 124.378 243.798C123.897 243.546 123.522 243.209 123.253 242.787C122.989 242.359 122.857 241.882 122.857 241.354C122.857 240.845 122.957 240.396 123.156 240.01C123.355 239.617 123.643 239.292 124.018 239.034C124.393 238.771 124.844 238.571 125.371 238.437C125.898 238.302 126.487 238.234 127.138 238.234H129.027ZM134.696 234.49V244H133.062V234.49H134.696ZM132.938 231.968C132.938 231.704 133.018 231.481 133.176 231.3C133.34 231.118 133.58 231.027 133.896 231.027C134.207 231.027 134.444 231.118 134.608 231.3C134.778 231.481 134.863 231.704 134.863 231.968C134.863 232.22 134.778 232.437 134.608 232.618C134.444 232.794 134.207 232.882 133.896 232.882C133.58 232.882 133.34 232.794 133.176 232.618C133.018 232.437 132.938 232.22 132.938 231.968ZM139.073 230.5V244H137.438V230.5H139.073ZM149.954 242.84C150.341 242.84 150.698 242.761 151.026 242.603C151.354 242.444 151.624 242.228 151.835 241.952C152.046 241.671 152.166 241.352 152.195 240.994H153.742C153.713 241.557 153.522 242.081 153.171 242.567C152.825 243.048 152.371 243.438 151.809 243.736C151.246 244.029 150.628 244.176 149.954 244.176C149.239 244.176 148.615 244.05 148.082 243.798C147.555 243.546 147.115 243.2 146.764 242.761C146.418 242.321 146.157 241.817 145.981 241.249C145.812 240.675 145.727 240.068 145.727 239.43V239.061C145.727 238.422 145.812 237.818 145.981 237.25C146.157 236.676 146.418 236.169 146.764 235.729C147.115 235.29 147.555 234.944 148.082 234.692C148.615 234.44 149.239 234.314 149.954 234.314C150.698 234.314 151.349 234.467 151.905 234.771C152.462 235.07 152.898 235.48 153.215 236.002C153.537 236.518 153.713 237.104 153.742 237.76H152.195C152.166 237.367 152.055 237.013 151.861 236.696C151.674 236.38 151.416 236.128 151.088 235.94C150.766 235.747 150.388 235.65 149.954 235.65C149.456 235.65 149.037 235.75 148.697 235.949C148.363 236.143 148.097 236.406 147.897 236.74C147.704 237.068 147.563 237.435 147.476 237.839C147.394 238.237 147.353 238.645 147.353 239.061V239.43C147.353 239.846 147.394 240.256 147.476 240.66C147.558 241.064 147.695 241.431 147.889 241.759C148.088 242.087 148.354 242.351 148.688 242.55C149.028 242.743 149.45 242.84 149.954 242.84ZM157.196 236.318V247.656H155.562V234.49H157.056L157.196 236.318ZM163.604 239.166V239.351C163.604 240.042 163.521 240.684 163.357 241.275C163.193 241.861 162.953 242.371 162.637 242.805C162.326 243.238 161.942 243.575 161.485 243.815C161.028 244.056 160.504 244.176 159.912 244.176C159.309 244.176 158.775 244.076 158.312 243.877C157.85 243.678 157.457 243.388 157.135 243.007C156.812 242.626 156.555 242.169 156.361 241.636C156.174 241.103 156.045 240.502 155.975 239.834V238.85C156.045 238.146 156.177 237.517 156.37 236.96C156.563 236.403 156.818 235.929 157.135 235.536C157.457 235.138 157.847 234.836 158.304 234.631C158.761 234.42 159.288 234.314 159.886 234.314C160.483 234.314 161.014 234.432 161.477 234.666C161.939 234.895 162.329 235.223 162.646 235.65C162.962 236.078 163.199 236.591 163.357 237.188C163.521 237.78 163.604 238.439 163.604 239.166ZM161.969 239.351V239.166C161.969 238.691 161.919 238.246 161.819 237.83C161.72 237.408 161.564 237.039 161.354 236.723C161.148 236.4 160.885 236.148 160.562 235.967C160.24 235.779 159.856 235.686 159.411 235.686C159.001 235.686 158.644 235.756 158.339 235.896C158.04 236.037 157.785 236.228 157.574 236.468C157.363 236.702 157.19 236.972 157.056 237.276C156.927 237.575 156.83 237.886 156.766 238.208V240.484C156.883 240.895 157.047 241.281 157.258 241.645C157.469 242.002 157.75 242.292 158.102 242.515C158.453 242.731 158.896 242.84 159.429 242.84C159.868 242.84 160.246 242.749 160.562 242.567C160.885 242.38 161.148 242.125 161.354 241.803C161.564 241.48 161.72 241.111 161.819 240.695C161.919 240.273 161.969 239.825 161.969 239.351ZM171.285 242.374V237.479C171.285 237.104 171.209 236.778 171.057 236.503C170.91 236.222 170.688 236.005 170.389 235.853C170.09 235.7 169.721 235.624 169.281 235.624C168.871 235.624 168.511 235.694 168.2 235.835C167.896 235.976 167.655 236.16 167.479 236.389C167.31 236.617 167.225 236.863 167.225 237.127H165.599C165.599 236.787 165.687 236.45 165.862 236.116C166.038 235.782 166.29 235.48 166.618 235.211C166.952 234.936 167.351 234.719 167.813 234.561C168.282 234.396 168.804 234.314 169.378 234.314C170.069 234.314 170.679 234.432 171.206 234.666C171.739 234.9 172.155 235.255 172.454 235.729C172.759 236.198 172.911 236.787 172.911 237.496V241.926C172.911 242.242 172.938 242.579 172.99 242.937C173.049 243.294 173.134 243.602 173.245 243.859V244H171.549C171.467 243.812 171.402 243.563 171.355 243.253C171.309 242.937 171.285 242.644 171.285 242.374ZM171.566 238.234L171.584 239.377H169.94C169.478 239.377 169.064 239.415 168.701 239.491C168.338 239.562 168.033 239.67 167.787 239.816C167.541 239.963 167.354 240.147 167.225 240.37C167.096 240.587 167.031 240.842 167.031 241.135C167.031 241.434 167.099 241.706 167.233 241.952C167.368 242.198 167.57 242.395 167.84 242.541C168.115 242.682 168.452 242.752 168.851 242.752C169.349 242.752 169.788 242.646 170.169 242.436C170.55 242.225 170.852 241.967 171.074 241.662C171.303 241.357 171.426 241.062 171.443 240.774L172.138 241.557C172.097 241.803 171.985 242.075 171.804 242.374C171.622 242.673 171.379 242.96 171.074 243.235C170.775 243.505 170.418 243.73 170.002 243.912C169.592 244.088 169.129 244.176 168.613 244.176C167.969 244.176 167.403 244.05 166.917 243.798C166.437 243.546 166.062 243.209 165.792 242.787C165.528 242.359 165.396 241.882 165.396 241.354C165.396 240.845 165.496 240.396 165.695 240.01C165.895 239.617 166.182 239.292 166.557 239.034C166.932 238.771 167.383 238.571 167.91 238.437C168.438 238.302 169.026 238.234 169.677 238.234H171.566ZM179.02 239.456H177.271V238.454H178.888C179.339 238.454 179.696 238.398 179.96 238.287C180.224 238.17 180.411 238.009 180.522 237.804C180.634 237.599 180.689 237.358 180.689 237.083C180.689 236.837 180.625 236.605 180.496 236.389C180.373 236.166 180.174 235.987 179.898 235.853C179.623 235.712 179.254 235.642 178.791 235.642C178.416 235.642 178.076 235.709 177.771 235.844C177.467 235.973 177.224 236.151 177.042 236.38C176.866 236.603 176.778 236.854 176.778 237.136H175.152C175.152 236.556 175.316 236.058 175.645 235.642C175.979 235.22 176.421 234.895 176.972 234.666C177.528 234.438 178.135 234.323 178.791 234.323C179.342 234.323 179.834 234.385 180.268 234.508C180.707 234.625 181.079 234.801 181.384 235.035C181.688 235.264 181.92 235.551 182.078 235.896C182.242 236.236 182.324 236.632 182.324 237.083C182.324 237.405 182.248 237.71 182.096 237.997C181.943 238.284 181.724 238.539 181.437 238.762C181.149 238.979 180.801 239.148 180.391 239.271C179.986 239.395 179.529 239.456 179.02 239.456ZM177.271 238.841H179.02C179.588 238.841 180.089 238.896 180.522 239.008C180.956 239.113 181.319 239.271 181.612 239.482C181.905 239.693 182.125 239.954 182.271 240.265C182.424 240.569 182.5 240.921 182.5 241.319C182.5 241.765 182.409 242.166 182.228 242.523C182.052 242.875 181.8 243.174 181.472 243.42C181.144 243.666 180.751 243.854 180.294 243.982C179.843 244.111 179.342 244.176 178.791 244.176C178.176 244.176 177.578 244.07 176.998 243.859C176.418 243.648 175.94 243.323 175.565 242.884C175.19 242.438 175.003 241.873 175.003 241.188H176.629C176.629 241.475 176.72 241.747 176.901 242.005C177.083 242.263 177.335 242.471 177.657 242.629C177.985 242.787 178.363 242.866 178.791 242.866C179.248 242.866 179.629 242.796 179.934 242.655C180.238 242.515 180.467 242.327 180.619 242.093C180.777 241.858 180.856 241.604 180.856 241.328C180.856 240.971 180.786 240.684 180.646 240.467C180.505 240.25 180.288 240.092 179.995 239.992C179.708 239.887 179.339 239.834 178.888 239.834H177.271V238.841ZM187.281 243.016L189.927 234.49H191.667L187.853 245.468C187.765 245.702 187.647 245.954 187.501 246.224C187.36 246.499 187.179 246.76 186.956 247.006C186.733 247.252 186.464 247.451 186.147 247.604C185.837 247.762 185.465 247.841 185.031 247.841C184.902 247.841 184.738 247.823 184.539 247.788C184.34 247.753 184.199 247.724 184.117 247.7L184.108 246.382C184.155 246.388 184.229 246.394 184.328 246.399C184.434 246.411 184.507 246.417 184.548 246.417C184.917 246.417 185.23 246.367 185.488 246.268C185.746 246.174 185.963 246.013 186.139 245.784C186.32 245.562 186.476 245.254 186.604 244.861L187.281 243.016ZM185.339 234.49L187.809 241.873L188.23 243.587L187.062 244.185L183.563 234.49H185.339ZM203.937 234.49V235.835H199.129V234.49H203.937ZM199.366 234.49V244H197.74V234.49H199.366ZM205.378 234.49V244H203.743V234.49H205.378ZM207.558 239.351V239.148C207.558 238.463 207.657 237.827 207.856 237.241C208.056 236.649 208.343 236.137 208.718 235.703C209.093 235.264 209.547 234.924 210.08 234.684C210.613 234.438 211.211 234.314 211.873 234.314C212.541 234.314 213.142 234.438 213.675 234.684C214.214 234.924 214.671 235.264 215.046 235.703C215.427 236.137 215.717 236.649 215.916 237.241C216.115 237.827 216.215 238.463 216.215 239.148V239.351C216.215 240.036 216.115 240.672 215.916 241.258C215.717 241.844 215.427 242.356 215.046 242.796C214.671 243.229 214.217 243.569 213.684 243.815C213.156 244.056 212.559 244.176 211.891 244.176C211.223 244.176 210.622 244.056 210.089 243.815C209.556 243.569 209.099 243.229 208.718 242.796C208.343 242.356 208.056 241.844 207.856 241.258C207.657 240.672 207.558 240.036 207.558 239.351ZM209.184 239.148V239.351C209.184 239.825 209.239 240.273 209.351 240.695C209.462 241.111 209.629 241.48 209.852 241.803C210.08 242.125 210.364 242.38 210.704 242.567C211.044 242.749 211.439 242.84 211.891 242.84C212.336 242.84 212.726 242.749 213.06 242.567C213.399 242.38 213.681 242.125 213.903 241.803C214.126 241.48 214.293 241.111 214.404 240.695C214.521 240.273 214.58 239.825 214.58 239.351V239.148C214.58 238.68 214.521 238.237 214.404 237.821C214.293 237.399 214.123 237.027 213.895 236.705C213.672 236.377 213.391 236.119 213.051 235.932C212.717 235.744 212.324 235.65 211.873 235.65C211.428 235.65 211.035 235.744 210.695 235.932C210.361 236.119 210.08 236.377 209.852 236.705C209.629 237.027 209.462 237.399 209.351 237.821C209.239 238.237 209.184 238.68 209.184 239.148ZM222.06 242.84C222.446 242.84 222.804 242.761 223.132 242.603C223.46 242.444 223.729 242.228 223.94 241.952C224.151 241.671 224.271 241.352 224.301 240.994H225.848C225.818 241.557 225.628 242.081 225.276 242.567C224.931 243.048 224.477 243.438 223.914 243.736C223.352 244.029 222.733 244.176 222.06 244.176C221.345 244.176 220.721 244.05 220.188 243.798C219.66 243.546 219.221 243.2 218.869 242.761C218.523 242.321 218.263 241.817 218.087 241.249C217.917 240.675 217.832 240.068 217.832 239.43V239.061C217.832 238.422 217.917 237.818 218.087 237.25C218.263 236.676 218.523 236.169 218.869 235.729C219.221 235.29 219.66 234.944 220.188 234.692C220.721 234.44 221.345 234.314 222.06 234.314C222.804 234.314 223.454 234.467 224.011 234.771C224.567 235.07 225.004 235.48 225.32 236.002C225.643 236.518 225.818 237.104 225.848 237.76H224.301C224.271 237.367 224.16 237.013 223.967 236.696C223.779 236.38 223.521 236.128 223.193 235.94C222.871 235.747 222.493 235.65 222.06 235.65C221.562 235.65 221.143 235.75 220.803 235.949C220.469 236.143 220.202 236.406 220.003 236.74C219.81 237.068 219.669 237.435 219.581 237.839C219.499 238.237 219.458 238.645 219.458 239.061V239.43C219.458 239.846 219.499 240.256 219.581 240.66C219.663 241.064 219.801 241.431 219.994 241.759C220.193 242.087 220.46 242.351 220.794 242.55C221.134 242.743 221.556 242.84 222.06 242.84ZM234.03 234.49V235.835H229.434V234.49H234.03ZM235.463 234.49V244H233.837V234.49H235.463ZM229.038 234.49H230.673L230.427 239.078C230.386 239.787 230.318 240.414 230.225 240.959C230.137 241.498 230.014 241.961 229.855 242.348C229.703 242.734 229.51 243.051 229.275 243.297C229.047 243.537 228.771 243.716 228.449 243.833C228.127 243.944 227.755 244 227.333 244H226.823V242.567L227.175 242.541C227.427 242.523 227.641 242.465 227.816 242.365C227.998 242.266 228.15 242.119 228.273 241.926C228.396 241.727 228.496 241.472 228.572 241.161C228.654 240.851 228.716 240.481 228.757 240.054C228.804 239.626 228.839 239.128 228.862 238.56L229.038 234.49ZM242.028 244.176C241.366 244.176 240.766 244.064 240.227 243.842C239.693 243.613 239.233 243.294 238.847 242.884C238.466 242.474 238.173 241.987 237.968 241.425C237.763 240.862 237.66 240.247 237.66 239.579V239.21C237.66 238.437 237.774 237.748 238.003 237.145C238.231 236.535 238.542 236.02 238.935 235.598C239.327 235.176 239.772 234.856 240.271 234.64C240.769 234.423 241.284 234.314 241.817 234.314C242.497 234.314 243.083 234.432 243.575 234.666C244.073 234.9 244.48 235.229 244.797 235.65C245.113 236.066 245.348 236.559 245.5 237.127C245.652 237.689 245.729 238.305 245.729 238.973V239.702H238.627V238.375H244.103V238.252C244.079 237.83 243.991 237.42 243.839 237.021C243.692 236.623 243.458 236.295 243.136 236.037C242.813 235.779 242.374 235.65 241.817 235.65C241.448 235.65 241.108 235.729 240.798 235.888C240.487 236.04 240.221 236.269 239.998 236.573C239.775 236.878 239.603 237.25 239.479 237.689C239.356 238.129 239.295 238.636 239.295 239.21V239.579C239.295 240.03 239.356 240.455 239.479 240.854C239.608 241.246 239.793 241.592 240.033 241.891C240.279 242.189 240.575 242.424 240.921 242.594C241.272 242.764 241.671 242.849 242.116 242.849C242.69 242.849 243.177 242.731 243.575 242.497C243.974 242.263 244.322 241.949 244.621 241.557L245.605 242.339C245.4 242.649 245.14 242.945 244.823 243.227C244.507 243.508 244.117 243.736 243.654 243.912C243.197 244.088 242.655 244.176 242.028 244.176ZM251.661 239.351V239.148C251.661 238.463 251.761 237.827 251.96 237.241C252.159 236.649 252.446 236.137 252.821 235.703C253.196 235.264 253.65 234.924 254.184 234.684C254.717 234.438 255.314 234.314 255.977 234.314C256.645 234.314 257.245 234.438 257.778 234.684C258.317 234.924 258.774 235.264 259.149 235.703C259.53 236.137 259.82 236.649 260.02 237.241C260.219 237.827 260.318 238.463 260.318 239.148V239.351C260.318 240.036 260.219 240.672 260.02 241.258C259.82 241.844 259.53 242.356 259.149 242.796C258.774 243.229 258.32 243.569 257.787 243.815C257.26 244.056 256.662 244.176 255.994 244.176C255.326 244.176 254.726 244.056 254.192 243.815C253.659 243.569 253.202 243.229 252.821 242.796C252.446 242.356 252.159 241.844 251.96 241.258C251.761 240.672 251.661 240.036 251.661 239.351ZM253.287 239.148V239.351C253.287 239.825 253.343 240.273 253.454 240.695C253.565 241.111 253.732 241.48 253.955 241.803C254.184 242.125 254.468 242.38 254.808 242.567C255.147 242.749 255.543 242.84 255.994 242.84C256.439 242.84 256.829 242.749 257.163 242.567C257.503 242.38 257.784 242.125 258.007 241.803C258.229 241.48 258.396 241.111 258.508 240.695C258.625 240.273 258.684 239.825 258.684 239.351V239.148C258.684 238.68 258.625 238.237 258.508 237.821C258.396 237.399 258.227 237.027 257.998 236.705C257.775 236.377 257.494 236.119 257.154 235.932C256.82 235.744 256.428 235.65 255.977 235.65C255.531 235.65 255.139 235.744 254.799 235.932C254.465 236.119 254.184 236.377 253.955 236.705C253.732 237.027 253.565 237.399 253.454 237.821C253.343 238.237 253.287 238.68 253.287 239.148ZM268.694 234.49V235.835H263.887V234.49H268.694ZM264.124 234.49V244H262.498V234.49H264.124ZM270.136 234.49V244H268.501V234.49H270.136ZM279.101 234.49V235.835H274.504V234.49H279.101ZM280.533 234.49V244H278.907V234.49H280.533ZM274.108 234.49H275.743L275.497 239.078C275.456 239.787 275.389 240.414 275.295 240.959C275.207 241.498 275.084 241.961 274.926 242.348C274.773 242.734 274.58 243.051 274.346 243.297C274.117 243.537 273.842 243.716 273.52 243.833C273.197 243.944 272.825 244 272.403 244H271.894V242.567L272.245 242.541C272.497 242.523 272.711 242.465 272.887 242.365C273.068 242.266 273.221 242.119 273.344 241.926C273.467 241.727 273.566 241.472 273.643 241.161C273.725 240.851 273.786 240.481 273.827 240.054C273.874 239.626 273.909 239.128 273.933 238.56L274.108 234.49ZM288.76 242.374V237.479C288.76 237.104 288.684 236.778 288.531 236.503C288.385 236.222 288.162 236.005 287.863 235.853C287.564 235.7 287.195 235.624 286.756 235.624C286.346 235.624 285.985 235.694 285.675 235.835C285.37 235.976 285.13 236.16 284.954 236.389C284.784 236.617 284.699 236.863 284.699 237.127H283.073C283.073 236.787 283.161 236.45 283.337 236.116C283.513 235.782 283.765 235.48 284.093 235.211C284.427 234.936 284.825 234.719 285.288 234.561C285.757 234.396 286.278 234.314 286.853 234.314C287.544 234.314 288.153 234.432 288.681 234.666C289.214 234.9 289.63 235.255 289.929 235.729C290.233 236.198 290.386 236.787 290.386 237.496V241.926C290.386 242.242 290.412 242.579 290.465 242.937C290.523 243.294 290.608 243.602 290.72 243.859V244H289.023C288.941 243.812 288.877 243.563 288.83 243.253C288.783 242.937 288.76 242.644 288.76 242.374ZM289.041 238.234L289.059 239.377H287.415C286.952 239.377 286.539 239.415 286.176 239.491C285.812 239.562 285.508 239.67 285.262 239.816C285.016 239.963 284.828 240.147 284.699 240.37C284.57 240.587 284.506 240.842 284.506 241.135C284.506 241.434 284.573 241.706 284.708 241.952C284.843 242.198 285.045 242.395 285.314 242.541C285.59 242.682 285.927 242.752 286.325 242.752C286.823 242.752 287.263 242.646 287.644 242.436C288.024 242.225 288.326 241.967 288.549 241.662C288.777 241.357 288.9 241.062 288.918 240.774L289.612 241.557C289.571 241.803 289.46 242.075 289.278 242.374C289.097 242.673 288.854 242.96 288.549 243.235C288.25 243.505 287.893 243.73 287.477 243.912C287.066 244.088 286.604 244.176 286.088 244.176C285.443 244.176 284.878 244.05 284.392 243.798C283.911 243.546 283.536 243.209 283.267 242.787C283.003 242.359 282.871 241.882 282.871 241.354C282.871 240.845 282.971 240.396 283.17 240.01C283.369 239.617 283.656 239.292 284.031 239.034C284.406 238.771 284.857 238.571 285.385 238.437C285.912 238.302 286.501 238.234 287.151 238.234H289.041ZM296.679 234.49V244H295.044V234.49H296.679ZM299.869 234.49V235.809H291.915V234.49H299.869ZM302.805 237.76H305.661C306.429 237.76 307.076 237.895 307.604 238.164C308.131 238.428 308.529 238.794 308.799 239.263C309.074 239.726 309.212 240.253 309.212 240.845C309.212 241.284 309.136 241.697 308.983 242.084C308.831 242.465 308.603 242.799 308.298 243.086C307.999 243.373 307.627 243.599 307.182 243.763C306.742 243.921 306.235 244 305.661 244H301.618V234.49H303.244V242.664H305.661C306.13 242.664 306.505 242.579 306.786 242.409C307.067 242.239 307.27 242.02 307.393 241.75C307.516 241.48 307.577 241.199 307.577 240.906C307.577 240.619 307.516 240.338 307.393 240.062C307.27 239.787 307.067 239.559 306.786 239.377C306.505 239.189 306.13 239.096 305.661 239.096H302.805V237.76ZM312.596 234.49V244H310.97V234.49H312.596Z" fill="#606970"/>
<g filter="url(#filter0_d_2_2948)">
<g filter="url(#filter1_d_2_2948)">
<path d="M213.75 42.8546C195.207 42.8546 175.991 26.0193 175.8 25.8507C174.523 24.7164 172.576 24.7164 171.299 25.8507C171.108 26.0206 151.942 42.8546 133.35 42.8546C131.5 42.8546 130 44.3237 130 46.1358V85.4317C130 117.265 154.173 129.985 172.355 136.784C172.74 136.928 173.145 137 173.55 137C173.955 137 174.36 136.928 174.745 136.784C200.239 127.251 217.1 112.381 217.1 85.4317V46.1358C217.1 44.3237 215.6 42.8546 213.75 42.8546Z" fill="url(#paint0_linear_2_2948)"/>
</g>
</g>
<path fill-rule="evenodd" clip-rule="evenodd" d="M150.103 80.9969C150.103 68.3319 160.623 58.0281 173.553 58.0281C186.483 58.0281 197.003 68.3319 197.003 80.9969C197.003 93.6619 186.483 103.966 173.553 103.966C160.623 103.966 150.103 93.6619 150.103 80.9969ZM183.238 75.3023C183.757 74.6561 183.653 73.712 183.007 73.1937C182.36 72.6753 181.416 72.779 180.898 73.4252L170.31 86.6261L166.167 81.8912C165.621 81.2677 164.674 81.2045 164.05 81.7501C163.427 82.2956 163.363 83.2432 163.909 83.8667L169.231 89.9489C169.523 90.2829 169.948 90.4703 170.392 90.4608C170.836 90.4513 171.252 90.2459 171.53 89.8997L183.238 75.3023Z" fill="url(#paint1_linear_2_2948)"/>
<defs>
<filter id="filter0_d_2_2948" x="118" y="25" width="111.1" height="136" filterUnits="userSpaceOnUse" color-interpolation-filters="sRGB">
<feFlood flood-opacity="0" result="BackgroundImageFix"/>
<feColorMatrix in="SourceAlpha" type="matrix" values="0 0 0 0 0 0 0 0 0 0 0 0 0 0 0 0 0 0 127 0" result="hardAlpha"/>
<feOffset dy="12"/>
<feGaussianBlur stdDeviation="6"/>
<feComposite in2="hardAlpha" operator="out"/>
<feColorMatrix type="matrix" values="0 0 0 0 0.55 0 0 0 0 0.61 0 0 0 0 1 0 0 0 0.3 0"/>
<feBlend mode="normal" in2="BackgroundImageFix" result="effect1_dropShadow_2_2948"/>
<feBlend mode="normal" in="SourceGraphic" in2="effect1_dropShadow_2_2948" result="shape"/>
</filter>
<filter id="filter1_d_2_2948" x="126.377" y="25" width="94.3449" height="119.245" filterUnits="userSpaceOnUse" color-interpolation-filters="sRGB">
<feFlood flood-opacity="0" result="BackgroundImageFix"/>
<feColorMatrix in="SourceAlpha" type="matrix" values="0 0 0 0 0 0 0 0 0 0 0 0 0 0 0 0 0 0 127 0" result="hardAlpha"/>
<feOffset dy="3.6225"/>
<feGaussianBlur stdDeviation="1.81125"/>
<feColorMatrix type="matrix" values="0 0 0 0 0.239216 0 0 0 0 0.847059 0 0 0 0 0.74902 0 0 0 0.33 0"/>
<feBlend mode="normal" in2="BackgroundImageFix" result="effect1_dropShadow_2_2948"/>
<feBlend mode="normal" in="SourceGraphic" in2="effect1_dropShadow_2_2948" result="shape"/>
</filter>
<linearGradient id="paint0_linear_2_2948" x1="198.381" y1="47.1053" x2="172.969" y2="102.293" gradientUnits="userSpaceOnUse">
<stop stop-color="#3DA0FE" stop-opacity="0.46"/>
<stop offset="1" stop-color="#8798FE"/>
</linearGradient>
<linearGradient id="paint1_linear_2_2948" x1="173.553" y1="103.839" x2="173.553" y2="58.0281" gradientUnits="userSpaceOnUse">
<stop stop-color="#BADDFF"/>
<stop offset="0.9973" stop-color="#F0FFF4"/>
</linearGradient>
</defs>
</svg>
