<svg width="976" height="850" viewBox="0 0 976 850" fill="none" xmlns="http://www.w3.org/2000/svg">
    <g filter="url(#filter0_d_2_3017)">
        <path d="M292.756 747.812L286.313 622.928L327.226 592.067C341.601 581.224 351.669 555.36 340.473 541.14C329.278 526.921 301.16 529.859 286.785 540.702L247.051 570.674L122.877 532.05C95.9805 520.423 72.0767 526.774 60.3559 553.076C57.5303 559.486 60.4855 566.97 67.0973 569.846L182.253 619.551L131.019 658.196L104.356 648.358C92.0464 643.767 78.1458 645.811 67.7516 653.651L64.9503 655.764C59.4215 659.935 59.3655 668.071 64.8623 672.367L106.133 704.489C111.875 708.946 116.445 714.75 119.385 721.32L140.605 768.567C143.522 774.808 151.575 776.829 157.103 772.658L159.905 770.545C170.299 762.705 175.86 750.069 174.46 737.248L171.535 709.505L221.884 671.527L241.219 790.849C242.319 797.767 249.017 802.543 256.07 801.502C285.025 797.238 297.39 776.232 292.756 747.812Z" fill="url(#paint0_linear_2_3017)" />
    </g>
    <circle cx="153.587" cy="422.435" r="11.8434" fill="url(#paint1_linear_2_3017)" />
    <circle cx="238.274" cy="494.122" r="35.5303" fill="url(#paint2_linear_2_3017)" />
    <circle cx="410.244" cy="734.092" r="82.5" fill="url(#paint3_linear_2_3017)" />
    <circle cx="767.244" cy="481.092" r="208.5" fill="url(#paint4_linear_2_3017)" />
    <circle cx="576.9" cy="392.882" r="23.6869" fill="url(#paint5_linear_2_3017)" />
    <g clip-path="url(#clip0_2_3017)">
        <path d="M360.985 533.771L352.796 523.666C359.09 518.565 365.205 513.107 370.989 507.434L380.087 516.716C374.021 522.676 367.588 528.416 360.985 533.771ZM397.512 497.962L387.578 489.578C392.804 483.39 397.797 476.871 402.405 470.232L413.082 477.641C408.25 484.616 403.002 491.452 397.512 497.962ZM426.681 455.925L415.342 449.562C415.883 448.587 416.425 447.612 416.97 446.624C418.049 444.643 421.061 437.918 424.928 427.557L437.113 432.101C433.255 442.457 429.952 449.987 428.395 452.844C427.817 453.881 427.245 454.905 426.681 455.925ZM441.648 381.008L452.152 383.664C450.106 391.74 447.804 399.954 445.279 408.079L432.857 404.225C435.073 397.07 437.133 389.848 438.978 382.711C439.183 381.982 439.483 381.017 439.546 380.583L441.648 381.008ZM424.397 398.658C416.297 401.844 407.893 404.153 399.418 405.537L399.002 405.599L396.918 392.768L397.365 392.701C404.901 391.474 412.411 389.41 419.648 386.555L424.397 398.658ZM471.752 374.006L463.639 363.852C469.714 359.006 475.829 353.57 481.833 347.687L490.93 356.97C484.618 363.153 478.172 368.888 471.752 374.006ZM458.095 359.758L445.323 357.33C446.896 349.043 448.155 340.891 449.07 333.079L461.985 334.586C461.035 342.707 459.73 351.172 458.095 359.758ZM365.044 409.407C355.491 409.663 346.878 408.98 338.717 407.323L341.315 394.578C348.497 396.043 356.14 396.64 364.7 396.411L365.044 409.407ZM527.068 295.79L515.121 290.67C518.249 283.372 521.168 275.878 524.037 267.749L536.298 272.086C533.326 280.48 530.304 288.238 527.068 295.79ZM505.833 338.447L494.722 331.69C498.848 324.912 502.79 317.901 506.782 310.25L518.309 316.274C514.174 324.175 510.098 331.432 505.833 338.447ZM313.511 398.218C306.062 394.203 298.837 388.937 292.019 382.585L300.886 373.08C306.975 378.757 313.123 383.231 319.677 386.776L313.511 398.218ZM464.077 311.989L451.099 311.295C451.644 301.13 451.651 293.693 451.139 287.186L464.095 286.158C464.661 293.264 464.658 301.224 464.077 311.989ZM543.993 249.719L532.122 244.416L534.091 240.011C536.803 233.962 539.243 227.836 541.329 221.808L553.612 226.056C551.401 232.437 548.827 238.921 545.954 245.319L543.993 249.719ZM274.638 362.539C273.226 360.338 271.907 358.034 270.723 355.664C267.907 350.028 265.749 343.896 264.316 337.424L277.009 334.616C278.215 340.05 280.006 345.18 282.343 349.859C283.313 351.8 284.399 353.705 285.552 355.499L274.638 362.539ZM559.859 203.631L547.177 200.777C549.232 191.646 550.568 183.109 551.501 176.696L564.362 178.566C563.398 185.207 562.013 194.07 559.859 203.631ZM458.286 260.007L446.178 264.748C445.343 262.605 444.364 260.423 443.287 258.267C441.039 253.767 438.272 249.213 434.817 244.333L445.432 236.828C449.267 242.245 452.369 247.358 454.916 252.457C456.168 254.962 457.303 257.502 458.286 260.007ZM275.295 311.517L262.317 310.801C262.781 302.331 264.215 293.588 266.579 284.828L279.127 288.218C276.995 296.102 275.705 303.945 275.295 311.517ZM567.836 153.881L554.984 151.918C556.486 142.057 558.036 134.307 559.988 126.781L572.571 130.041C570.731 137.12 569.275 144.476 567.836 153.881ZM419.359 226.502C413.395 221.03 407.019 216.525 400.397 213.115L406.349 201.556C413.995 205.494 421.327 210.662 428.145 216.925L419.359 226.502ZM287.412 265.914L275.688 260.302C279.582 252.164 284.137 244.59 289.215 237.816L299.624 245.606C295.047 251.704 290.939 258.541 287.412 265.914ZM580.267 107.317L568.301 102.25C571.403 94.9214 574.997 87.7941 579.274 80.4702L579.999 79.2361L591.186 85.8543L590.506 87.0213C586.488 93.8578 583.154 100.498 580.267 107.317ZM378.763 206.014C376.867 205.732 374.926 205.517 373.012 205.4C367.368 205.044 361.68 205.405 356.107 206.489L353.621 193.725C360.276 192.435 367.073 191.99 373.826 192.417C376.125 192.566 378.437 192.808 380.7 193.153L378.763 206.014ZM315.569 228.049L306.851 218.409C313.687 212.222 320.934 207.036 328.372 202.974L334.589 214.389C328.054 217.955 321.653 222.55 315.569 228.049ZM604.489 65.3362L593.897 57.806C598.788 50.925 604.054 44.1471 609.552 37.6331L619.486 46.0173C614.22 52.2586 609.174 58.7593 604.489 65.3362ZM636.017 27.9779L626.79 18.8158C632.691 12.861 638.967 7.00912 645.436 1.43013L653.929 11.2718C647.72 16.6317 641.69 22.26 636.017 27.9779Z" fill="black" />
    </g>
    <defs>
        <filter id="filter0_d_2_3017" x="35.2866" y="516.475" width="333.98" height="323.169" filterUnits="userSpaceOnUse" color-interpolation-filters="sRGB">
            <feFlood flood-opacity="0" result="BackgroundImageFix" />
            <feColorMatrix in="SourceAlpha" type="matrix" values="0 0 0 0 0 0 0 0 0 0 0 0 0 0 0 0 0 0 127 0" result="hardAlpha" />
            <feOffset dy="14" />
            <feGaussianBlur stdDeviation="12" />
            <feComposite in2="hardAlpha" operator="out" />
            <feColorMatrix type="matrix" values="0 0 0 0 0.531111 0 0 0 0 0.594277 0 0 0 0 0.995833 0 0 0 0.3 0" />
            <feBlend mode="normal" in2="BackgroundImageFix" result="effect1_dropShadow_2_3017" />
            <feBlend mode="normal" in="SourceGraphic" in2="effect1_dropShadow_2_3017" result="shape" />
        </filter>
        <linearGradient id="paint0_linear_2_3017" x1="339.836" y1="540.33" x2="105.665" y2="724.703" gradientUnits="userSpaceOnUse">
            <stop stop-color="#B697F9" />
            <stop offset="1" stop-color="#8798FE" />
        </linearGradient>
        <linearGradient id="paint1_linear_2_3017" x1="153.587" y1="410.592" x2="153.587" y2="434.279" gradientUnits="userSpaceOnUse">
            <stop stop-color="#58FFBF" />
            <stop offset="1" stop-color="#3DA0FE" stop-opacity="0" />
        </linearGradient>
        <linearGradient id="paint2_linear_2_3017" x1="238.274" y1="458.592" x2="238.274" y2="529.652" gradientUnits="userSpaceOnUse">
            <stop stop-color="#F5B1A8" />
            <stop offset="1" stop-color="#FDECC2" stop-opacity="0.17" />
        </linearGradient>
        <linearGradient id="paint3_linear_2_3017" x1="410.244" y1="651.592" x2="410.244" y2="816.592" gradientUnits="userSpaceOnUse">
            <stop stop-color="#FFD056" stop-opacity="0.58" />
            <stop offset="1" stop-color="#FDECC2" stop-opacity="0.17" />
        </linearGradient>
        <linearGradient id="paint4_linear_2_3017" x1="767.244" y1="272.592" x2="767.244" y2="689.592" gradientUnits="userSpaceOnUse">
            <stop stop-color="#3DD8BF" stop-opacity="0.33" />
            <stop offset="1" stop-color="#FDECC2" stop-opacity="0.17" />
        </linearGradient>
        <linearGradient id="paint5_linear_2_3017" x1="576.9" y1="369.196" x2="576.9" y2="416.569" gradientUnits="userSpaceOnUse">
            <stop stop-color="#A8F5C8" />
            <stop offset="1" stop-color="#C2FDDA" stop-opacity="0.17" />
        </linearGradient>
        <clipPath id="clip0_2_3017">
            <rect width="498.38" height="349.1" fill="white" transform="translate(202.457 222.728) rotate(-26.5453)" />
        </clipPath>
    </defs>
</svg>
