<svg width="688" height="850" viewBox="0 0 688 850" fill="none" xmlns="http://www.w3.org/2000/svg">
    <g filter="url(#filter0_d_2_3017)">
        <path d="M293.012 748.22L286.569 623.337L327.483 592.476C341.858 581.633 351.925 555.768 340.73 541.549C329.534 527.329 301.416 530.268 287.041 541.111L247.307 571.082L123.133 532.459C96.2366 520.831 72.3328 527.183 60.612 553.485C57.7864 559.895 60.7416 567.379 67.3534 570.255L182.509 619.959L131.275 658.605L104.612 648.767C92.3025 644.176 78.4019 646.219 68.0077 654.06L65.2064 656.173C59.6776 660.343 59.6216 668.48 65.1184 672.775L106.389 704.897C112.131 709.354 116.701 715.158 119.641 721.729L140.861 768.975C143.778 775.217 151.831 777.237 157.36 773.067L160.161 770.954C170.555 763.113 176.116 750.477 174.716 737.657L171.791 709.914L222.14 671.936L241.476 791.257C242.575 798.175 249.273 802.952 256.326 801.911C285.281 797.647 297.646 776.64 293.012 748.22Z" fill="url(#paint0_linear_2_3017)" />
    </g>
    <circle cx="153.843" cy="422.844" r="11.8434" fill="url(#paint1_linear_2_3017)" />
    <circle cx="238.53" cy="494.53" r="35.5303" fill="url(#paint2_linear_2_3017)" />
    <circle cx="410.5" cy="734.5" r="82.5" fill="url(#paint3_linear_2_3017)" />
    <circle cx="767.5" cy="481.5" r="208.5" fill="url(#paint4_linear_2_3017)" />
    <circle cx="577.156" cy="393.291" r="23.6869" fill="url(#paint5_linear_2_3017)" />
    <g clip-path="url(#clip0_2_3017)">
        <path d="M361.241 534.179L353.052 524.074C359.346 518.974 365.461 513.515 371.245 507.842L380.343 517.125C374.277 523.084 367.844 528.824 361.241 534.179ZM397.768 498.37L387.834 489.986C393.06 483.798 398.053 477.28 402.662 470.64L413.339 478.05C408.506 485.025 403.258 491.861 397.768 498.37ZM426.937 456.333L415.598 449.97C416.139 448.995 416.681 448.021 417.227 447.032C418.305 445.052 421.317 438.327 425.185 427.966L437.37 432.509C433.511 442.866 430.208 450.395 428.651 453.253C428.073 454.29 427.501 455.314 426.937 456.333ZM441.904 381.417L452.408 384.072C450.362 392.148 448.06 400.363 445.535 408.488L433.113 404.633C435.329 397.478 437.389 390.257 439.234 383.12C439.44 382.391 439.74 381.425 439.802 380.991L441.904 381.417ZM424.653 399.067C416.553 402.253 408.149 404.562 399.674 405.945L399.258 406.008L397.174 393.176L397.621 393.11C405.157 391.882 412.667 389.819 419.904 386.964L424.653 399.067ZM472.008 374.415L463.895 364.26C469.97 359.415 476.085 353.979 482.089 348.095L491.186 357.378C484.874 363.561 478.428 369.296 472.008 374.415ZM458.351 360.166L445.579 357.738C447.152 349.452 448.411 341.299 449.326 333.487L462.242 334.994C461.291 343.115 459.986 351.58 458.351 360.166ZM365.3 409.815C355.747 410.071 347.134 409.389 338.973 407.731L341.572 394.986C348.753 396.451 356.396 397.049 364.956 396.819L365.3 409.815ZM527.324 296.198L515.377 291.078C518.505 283.781 521.424 276.286 524.293 268.157L536.554 272.495C533.582 280.888 530.56 288.646 527.324 296.198ZM506.089 338.855L494.979 332.098C499.104 325.32 503.047 318.309 507.038 310.659L518.565 316.682C514.43 324.583 510.354 331.84 506.089 338.855ZM313.767 398.626C306.318 394.612 299.093 389.346 292.275 382.993L301.142 373.488C307.231 379.166 313.379 383.64 319.934 387.184L313.767 398.626ZM464.333 312.397L451.355 311.704C451.9 301.539 451.907 294.102 451.395 287.595L464.351 286.566C464.917 293.672 464.914 301.633 464.333 312.397ZM544.25 250.128L532.378 244.824L534.347 240.42C537.059 234.37 539.499 228.244 541.585 222.216L553.868 226.465C551.657 232.846 549.083 239.329 546.21 245.728L544.25 250.128ZM274.894 362.947C273.482 360.747 272.163 358.443 270.979 356.072C268.163 350.436 266.005 344.304 264.572 337.833L277.265 335.024C278.471 340.458 280.262 345.588 282.599 350.267C283.569 352.208 284.655 354.114 285.809 355.907L274.894 362.947ZM560.115 204.039L547.433 201.186C549.489 192.054 550.824 183.518 551.757 177.105L564.618 178.974C563.654 185.615 562.269 194.478 560.115 204.039ZM458.542 260.415L446.434 265.156C445.599 263.014 444.62 260.831 443.543 258.675C441.295 254.175 438.528 249.622 435.073 244.741L445.688 237.236C449.523 242.653 452.625 247.766 455.173 252.865C456.424 255.37 457.559 257.911 458.542 260.415ZM275.551 311.925L262.573 311.209C263.037 302.739 264.471 293.997 266.835 285.237L279.383 288.626C277.251 296.51 275.961 304.354 275.551 311.925ZM568.092 154.289L555.24 152.326C556.742 142.465 558.292 134.716 560.244 127.19L572.828 130.45C570.987 137.529 569.531 144.885 568.092 154.289ZM419.615 226.91C413.651 221.439 407.275 216.933 400.653 213.523L406.605 201.965C414.251 205.903 421.583 211.071 428.401 217.334L419.615 226.91ZM287.669 266.322L275.945 260.71C279.838 252.572 284.393 244.998 289.472 238.224L299.88 246.014C295.303 252.112 291.195 258.949 287.669 266.322ZM580.523 107.725L568.557 102.659C571.659 95.3299 575.253 88.2025 579.531 80.8786L580.255 79.6446L591.442 86.2627L590.762 87.4297C586.744 94.2662 583.41 100.906 580.523 107.725ZM379.019 206.423C377.123 206.14 375.182 205.925 373.268 205.808C367.625 205.453 361.936 205.813 356.363 206.898L353.877 194.134C360.532 192.843 367.329 192.399 374.082 192.826C376.381 192.974 378.693 193.216 380.956 193.562L379.019 206.423ZM315.825 228.457L307.107 218.817C313.943 212.63 321.19 207.445 328.628 203.382L334.845 214.797C328.31 218.364 321.909 222.959 315.825 228.457ZM604.745 65.7447L594.153 58.2144C599.044 51.3335 604.31 44.5555 609.808 38.0415L619.742 46.4258C614.477 52.667 609.43 59.1678 604.745 65.7447ZM636.273 28.3864L627.046 19.2243C632.947 13.2694 639.223 7.41757 645.692 1.83858L654.185 11.6802C647.976 17.0402 641.946 22.6685 636.273 28.3864Z" fill="black" />
    </g>
    <defs>
        <filter id="filter0_d_2_3017" x="35.5427" y="516.884" width="333.98" height="323.169" filterUnits="userSpaceOnUse" color-interpolation-filters="sRGB">
            <feFlood flood-opacity="0" result="BackgroundImageFix" />
            <feColorMatrix in="SourceAlpha" type="matrix" values="0 0 0 0 0 0 0 0 0 0 0 0 0 0 0 0 0 0 127 0" result="hardAlpha" />
            <feOffset dy="14" />
            <feGaussianBlur stdDeviation="12" />
            <feComposite in2="hardAlpha" operator="out" />
            <feColorMatrix type="matrix" values="0 0 0 0 0.531111 0 0 0 0 0.594277 0 0 0 0 0.995833 0 0 0 0.3 0" />
            <feBlend mode="normal" in2="BackgroundImageFix" result="effect1_dropShadow_2_3017" />
            <feBlend mode="normal" in="SourceGraphic" in2="effect1_dropShadow_2_3017" result="shape" />
        </filter>
        <linearGradient id="paint0_linear_2_3017" x1="340.092" y1="540.739" x2="105.921" y2="725.112" gradientUnits="userSpaceOnUse">
            <stop stop-color="#B697F9" />
            <stop offset="1" stop-color="#8798FE" />
        </linearGradient>
        <linearGradient id="paint1_linear_2_3017" x1="153.843" y1="411" x2="153.843" y2="434.687" gradientUnits="userSpaceOnUse">
            <stop stop-color="#58FFBF" />
            <stop offset="1" stop-color="#3DA0FE" stop-opacity="0" />
        </linearGradient>
        <linearGradient id="paint2_linear_2_3017" x1="238.53" y1="459" x2="238.53" y2="530.061" gradientUnits="userSpaceOnUse">
            <stop stop-color="#F5B1A8" />
            <stop offset="1" stop-color="#FDECC2" stop-opacity="0.17" />
        </linearGradient>
        <linearGradient id="paint3_linear_2_3017" x1="410.5" y1="652" x2="410.5" y2="817" gradientUnits="userSpaceOnUse">
            <stop stop-color="#FFD056" stop-opacity="0.58" />
            <stop offset="1" stop-color="#FDECC2" stop-opacity="0.17" />
        </linearGradient>
        <linearGradient id="paint4_linear_2_3017" x1="767.5" y1="273" x2="767.5" y2="690" gradientUnits="userSpaceOnUse">
            <stop stop-color="#3DD8BF" stop-opacity="0.33" />
            <stop offset="1" stop-color="#FDECC2" stop-opacity="0.17" />
        </linearGradient>
        <linearGradient id="paint5_linear_2_3017" x1="577.156" y1="369.604" x2="577.156" y2="416.978" gradientUnits="userSpaceOnUse">
            <stop stop-color="#A8F5C8" />
            <stop offset="1" stop-color="#C2FDDA" stop-opacity="0.17" />
        </linearGradient>
        <clipPath id="clip0_2_3017">
            <rect width="498.38" height="349.1" fill="white" transform="translate(202.713 223.137) rotate(-26.5453)" />
        </clipPath>
    </defs>
</svg>
