<svg width="120" height="120" viewBox="0 0 120 120" fill="none" xmlns="http://www.w3.org/2000/svg">
    <g filter="url(#filter0_d_0_1)">
        <circle cx="60" cy="56" r="47" fill="url(#paint0_linear_0_1)" shape-rendering="crispEdges" />
    </g>
    <path d="M36 39.8577C36 36.6353 37.0474 34.0261 39.1422 32.0301C41.237 30.01 43.9819 29 47.377 29C50.8202 29 53.5892 29.998 55.684 31.994C57.7788 33.9659 58.8262 36.6473 58.8262 40.0381V42.6353C58.8262 45.8818 57.7788 48.491 55.684 50.4629C53.5892 52.4349 50.8442 53.4208 47.4492 53.4208C44.0301 53.4208 41.2611 52.4349 39.1422 50.4629C37.0474 48.4669 36 45.7856 36 42.4188V39.8577ZM42.9345 42.6353C42.9345 44.0782 43.3439 45.2445 44.1625 46.1343C45.0053 47 46.1008 47.4329 47.4492 47.4329C48.7976 47.4329 49.8691 46.988 50.6637 46.0982C51.4582 45.2084 51.8555 44.018 51.8555 42.5271V39.8577C51.8555 38.4148 51.4582 37.2485 50.6637 36.3587C49.8691 35.4689 48.7735 35.024 47.377 35.024C46.0527 35.024 44.9812 35.4689 44.1625 36.3587C43.3439 37.2244 42.9345 38.4389 42.9345 40.002V42.6353ZM61.1377 69.4008C61.1377 66.1543 62.1971 63.5451 64.316 61.5732C66.4349 59.5772 69.1798 58.5792 72.5508 58.5792C75.9699 58.5792 78.7269 59.5651 80.8217 61.5371C82.9406 63.485 84 66.1784 84 69.6172V72.2144C84 75.4369 82.9646 78.0461 80.8939 80.0421C78.8232 82.014 76.0662 83 72.623 83C69.1558 83 66.3747 82.002 64.2799 80.006C62.1851 78.01 61.1377 75.3647 61.1377 72.0701V69.4008ZM68.0722 72.2144C68.0722 73.5371 68.5056 74.6673 69.3725 75.6052C70.2393 76.5431 71.3228 77.012 72.623 77.012C75.5606 77.012 77.0293 75.3888 77.0293 72.1423V69.4008C77.0293 67.9579 76.62 66.8036 75.8014 65.9379C74.9827 65.0481 73.8992 64.6032 72.5508 64.6032C71.2024 64.6032 70.1189 65.0481 69.3002 65.9379C68.4816 66.8036 68.0722 67.994 68.0722 69.509V72.2144ZM50.9417 76.0547C50.1352 77.344 48.4665 77.7861 47.1274 77.0652V77.0652C45.659 76.2747 45.1644 74.4078 46.0489 72.994L68.661 36.8471C69.4676 35.5578 71.1362 35.1157 72.4753 35.8366V35.8366C73.9437 36.6271 74.4383 38.494 73.5539 39.9078L50.9417 76.0547Z" fill="white" />
    <defs>
        <filter id="filter0_d_0_1" x="0" y="0" width="120" height="120" filterUnits="userSpaceOnUse" color-interpolation-filters="sRGB">
            <feFlood flood-opacity="0" result="BackgroundImageFix" />
            <feColorMatrix in="SourceAlpha" type="matrix" values="0 0 0 0 0 0 0 0 0 0 0 0 0 0 0 0 0 0 127 0" result="hardAlpha" />
            <feOffset dy="4" />
            <feGaussianBlur stdDeviation="6.5" />
            <feComposite in2="hardAlpha" operator="out" />
            <feColorMatrix type="matrix" values="0 0 0 0 0.996078 0 0 0 0 0.671373 0 0 0 0 0.290196 0 0 0 0.3 0" />
            <feBlend mode="normal" in2="BackgroundImageFix" result="effect1_dropShadow_0_1" />
            <feBlend mode="normal" in="SourceGraphic" in2="effect1_dropShadow_0_1" result="shape" />
        </filter>
        <linearGradient id="paint0_linear_0_1" x1="33.3365" y1="103" x2="83.0481" y2="9" gradientUnits="userSpaceOnUse">
            <stop stop-color="#FF927A" />
            <stop offset="1" stop-color="#FFD056" stop-opacity="0.58" />
        </linearGradient>
    </defs>
</svg>
