<?xml version="1.0" encoding="UTF-8"?> <!-- Generator: Adobe Illustrator 22.0.1, SVG Export Plug-In . SVG Version: 6.00 Build 0) --> <svg xmlns="http://www.w3.org/2000/svg" xmlns:xlink="http://www.w3.org/1999/xlink" id="Слой_1" x="0px" y="0px" viewBox="0 0 438 80.7" style="enable-background:new 0 0 438 80.7;" xml:space="preserve"> <style type="text/css"> .st0{fill:#006EB7;} .st1{fill:#D4332A;} </style> <g> <path class="st0" d="M35.2,3l-1.4,8.2H16.1l-1.5,8c1.3-0.3,3.3-0.5,5-0.5c7.8,0,14.3,4.2,14.4,12.8c0,5.3-2.3,9.2-5.7,11.8 c-4.4,3.5-10.9,4.8-17,4.8C6.6,48,2,47.7,0,47.4L8.1,3H35.2z M10.7,40.5L10.7,40.5c1.1,0.2,2,0.2,3.5,0.2c4.6,0,9.8-2.8,9.8-8.1 c0-4.4-3-6.6-7.2-6.6c-1.1,0-2.4,0.1-3.5,0.3L10.7,40.5z"></path> <path class="st0" d="M51.1,41.4L51.1,41.4c3,0,6.4-2.4,6.4-6.1c0-2.4-1.5-3.8-3.7-3.8c-2.8,0-5.2,2.5-5.8,4.6 c-0.3,0.8-0.4,1.4-0.4,2.4C47.6,40.2,48.8,41.4,51.1,41.4L51.1,41.4L51.1,41.4z M52.4,15.2l-3,12.4h0.1c2.1-1.9,5.5-2.9,8.4-2.9 c5.2,0,8.9,3.2,8.9,8.9c0,7-5.8,14.6-17.6,14.6c-5,0-10.9-1.1-11-7.9c0-1.8,0.4-4.6,0.8-6.5l4-18.6L52.4,15.2L52.4,15.2z M83.6,15.2L83.6,15.2l-5.9,32.4h-10l5.9-32.4C73.6,15.2,83.6,15.2,83.6,15.2z"></path> <path class="st0" d="M108.5,46.6c-2,1-5.4,1.7-9.2,1.7c-8,0-13.7-4.9-13.7-13.3c-0.1-11.5,8.7-20.5,21-20.5c2.8,0,5.2,0.5,6.6,1 l-2.3,7.3c-1.1-0.4-2.5-0.8-4.4-0.8c-6.7,0-10.9,5.8-10.9,11.8c0,4.4,2.9,6.7,6.4,6.7c2.8,0,4.8-0.7,6.4-1.3L108.5,46.6z"></path> <path class="st0" d="M113.5,47.6l3.9-21.8c0.7-4.1,1.2-7.7,1.6-10.5h8.2l-0.6,5.2h0.1c2.9-4.2,6.8-6,11-6c5.2,0,7.4,3.2,7.7,6.1 c2.9-4.2,6.9-6.1,11.1-6.1c5-0.1,7.9,3.2,8,8.7c0,1.4-0.2,3.9-0.6,5.5l-3.4,18.9h-9.2l3.1-17.7c0.3-1.3,0.4-2.7,0.4-4 c0-2.2-1-3.8-3.3-3.8c-3.2,0-6.3,4.3-7.5,10.8l-2.6,14.7h-9.2l3.2-17.8c0.3-1.3,0.5-2.6,0.4-3.7c0-2.2-0.8-4-3.1-4 c-3.2,0-6.6,4.5-7.7,10.9l-2.5,14.5H113.5z"></path> <path class="st0" d="M163.9,60.1l5.9-32.4c0.7-3.8,1.4-9.2,1.8-12.5h8.5l-0.5,4.7h0.1c2.6-3.5,6.4-5.4,10.3-5.4 c7,0,10.4,5.6,10.5,12.2c0.1,11.2-7.3,21.6-18.6,21.6c-2.6,0-4.9-0.7-6-1.3h-0.1l-2.4,13.2L163.9,60.1L163.9,60.1z M177.3,39.5 L177.3,39.5c1.1,1,2.5,1.6,4.4,1.6c5.1,0,9-7.3,9-13.6c0-2.6-1.1-5.3-4.2-5.3c-3.6,0-7,4-8,10.4L177.3,39.5z"></path> <path class="st0" d="M247,0c2.9,0.8,6.8,0.6,9.7,0.9c5,0.5,8.6,1.7,11.4,4.3c3.9,3.2,5.3,8.7,5.3,15c0.1,12.4-5.2,28.1-20.1,28.1 c-8.2,0-13.2-5-13.2-13.4c-0.1-9.5,6.5-19.6,16.9-19.6c4.4,0,7.2,2.1,8.6,5.3h0.3c0-0.7,0-1.5,0.1-2c0-2.4-0.9-5.3-2.9-7 c-2.2-2-5.3-2.6-9.3-3c-2.1-0.1-4-0.3-6.3-0.7L247,0z M254.7,41.3L254.7,41.3c5.1,0,7.8-8.1,7.9-12.4c0-3.2-1.3-6.6-4.9-6.6 c-5.4,0-8,7.7-7.8,12.7C249.9,38.3,251.3,41.3,254.7,41.3C254.6,41.3,254.7,41.3,254.7,41.3z"></path> <path class="st0" d="M301.9,45.7c-3.8,1.9-8.4,2.6-12,2.6c-9.2,0-14-5.3-14.1-13.7c-0.1-9.9,7-20.1,18.7-20.1 c6.5,0,11.3,3.6,11.3,9.7c0.1,8.3-7.9,11.2-20.9,10.9c0,0.9,0.3,2.4,1,3.3c1.3,1.7,3.4,2.5,6.2,2.5c3.5,0,6.5-0.8,9.1-2L301.9,45.7 z M296.9,24.1L296.9,24.1c0-1.6-1.3-2.7-3.5-2.7c-4.4,0-6.9,3.6-7.6,6.7C293.2,28.2,296.9,27.1,296.9,24.1L296.9,24.1z"></path> <polygon class="st0" points="322.4,15.2 320.2,27.1 330.1,27.1 332.2,15.2 341.8,15.2 335.8,47.6 326.3,47.6 328.7,34.5 318.9,34.5 316.5,47.6 307,47.6 312.9,15.2 "></polygon> <path class="st0" d="M357.4,15.2l-3,12.4h0.1c2-1.9,5.5-2.9,8.5-2.9c5.2,0,9.4,3.2,9.4,8.9c0,7.4-6,14.6-18,14.6 c-5.1,0-11.2-1.2-11.2-8.1c0-1.7,0.5-4.4,0.9-6.3l4-18.5C348.1,15.2,357.4,15.2,357.4,15.2z M356.2,41.4L356.2,41.4 c3.2,0,6.8-2.3,6.8-6.1c0-2.5-1.5-3.8-3.9-3.8c-3.2,0-5.4,2.6-6.1,4.4c-0.3,0.9-0.5,1.5-0.4,2.5C352.6,40.2,353.9,41.4,356.2,41.4 L356.2,41.4L356.2,41.4z"></path> <path class="st0" d="M381,16.7c2.6-1.3,6.5-2.2,10.4-2.2c7,0,10.8,3.4,10.8,8.9c0,5.7-4.9,8.5-10.9,11c-3.6,1.6-5.9,2.8-5.9,4.7 c0,1.3,0.9,2.2,3.3,2.2c3.4,0,6.7-1.4,8.8-2.5l1.1,6.7c-3,1.6-7.5,2.8-11.4,2.7c-7.1,0-11.7-3-11.7-8.9c0-6.7,5.8-9.2,11.4-11.5 c3.2-1.3,6-2.5,6-4.2c0-1.2-1.4-2.1-3.5-2.2c-2.7,0-5.3,0.8-7.5,1.7L381,16.7z"></path> <path class="st0" d="M418.3,15.2l-3.1,17.3c-0.3,1.4-0.5,3-0.5,4.2c0,2.1,0.8,3.8,3.3,3.8c3.2,0,6.5-3.9,7.8-10.4l2.7-15h9.5 L434,37c-0.7,4.1-1.2,7.6-1.5,10.5h-8.5l0.6-5.3h-0.1c-3.3,4.2-7.2,6-11.1,6c-5.2,0-8.3-2.9-8.3-9c0-1.8,0.2-3.7,0.6-6l3.3-18.1 C408.8,15.2,418.3,15.2,418.3,15.2z"></path> <path class="st0" d="M220.5,15.3c-9.9,1.2-16.6,9.8-16.8,19.9c-0.1,7.9,5.1,13.1,13.3,13.1c11.4,0,19.1-9,19.4-20.1 c0-2.6-0.5-5-1.7-7l-8.5,4.1c0.3,0.9,0.5,1.9,0.4,2.9c-0.1,5.4-3.2,12.9-8.2,12.9c-3.6,0-5.1-2.9-5-6.2c0.1-5.9,3.2-12.1,8.4-12.7 l-0.5,2.6l17.8-9.8L219.2,13L220.5,15.3z"></path> </g> <g> <path class="st1" d="M245.3,64.5l-0.8,4.1h3.4l0.8-4.1h3.3l-2.1,11h-3.3l0.9-4.5h-3.4l-0.8,4.5H240l2.1-11H245.3z"></path> <path class="st1" d="M259.6,75.6c0-0.7,0.1-1.4,0.2-2.2h-0.1c-1,1.8-2.4,2.4-3.7,2.4c-2,0-3.3-1.5-3.3-3.8c0-3.7,2.5-7.7,7.9-7.7 c1.3,0,2.7,0.2,3.7,0.5l-1.2,5.8c-0.3,1.4-0.5,3.6-0.4,5L259.6,75.6L259.6,75.6z M260.5,66.8c-0.2,0-0.6-0.1-0.9-0.1 c-2.1,0-3.6,2.6-3.6,4.6c0,1.1,0.4,1.8,1.3,1.8c1,0,2.2-1.1,2.7-3.8L260.5,66.8z"></path> <path class="st1" d="M268.5,75.6l1.4-7.5c0.3-1.4,0.5-2.6,0.6-3.6h2.9l-0.2,1.8h0c1-1.4,2.4-2.1,3.9-2.1c1.8,0,2.8,1.1,2.8,3 c0,0.5-0.1,1.3-0.2,1.9l-1.2,6.4h-3.3l1.2-6.1c0.1-0.4,0.1-0.8,0.1-1.2c0-0.8-0.3-1.3-1.1-1.3c-1.1,0-2.3,1.3-2.8,3.8l-0.9,4.9 L268.5,75.6L268.5,75.6z"></path> <path class="st1" d="M285.1,64.5l0.7,4.8c0.2,1.1,0.3,1.9,0.4,2.6h0c0.2-0.7,0.5-1.4,1-2.6l2-4.9h3.4l-4,7.9 c-1.5,2.9-2.8,4.9-4.2,6.3c-1.3,1.2-2.8,1.8-3.5,1.9l-0.7-2.8c0.5-0.2,1.2-0.4,1.9-0.9c0.7-0.5,1.4-1.2,1.8-1.9 c0.1-0.2,0.1-0.3,0.1-0.5l-2.2-10L285.1,64.5L285.1,64.5z"></path> <path class="st1" d="M292,75.6l1.4-7.5c0.2-1.4,0.4-2.6,0.6-3.6h2.8l-0.2,1.8h0c1-1.4,2.3-2,3.8-2c1.8,0,2.5,1.1,2.6,2.1 c1-1.4,2.4-2.1,3.8-2.1c1.7,0,2.7,1.1,2.7,3c0,0.5-0.1,1.3-0.2,1.9l-1.2,6.4H305l1.1-6c0.1-0.5,0.2-0.9,0.2-1.4 c0-0.8-0.3-1.3-1.1-1.3c-1.1,0-2.1,1.5-2.6,3.7l-0.9,5h-3.1l1.1-6.1c0.1-0.5,0.2-0.9,0.2-1.3c0-0.7-0.2-1.4-1-1.4 c-1.1,0-2.3,1.6-2.7,3.7l-0.9,5L292,75.6L292,75.6z"></path> <path class="st1" d="M322.6,64.5l-1.4,7.5c-0.3,1.4-0.4,2.6-0.6,3.6h-2.9l0.2-1.8h0c-1.1,1.4-2.5,2.1-3.8,2.1c-1.8,0-2.8-1-2.8-3.1 c0-0.6,0.1-1.3,0.2-2l1.2-6.2h3.3l-1.1,5.9c-0.1,0.5-0.2,1-0.2,1.4c0,0.7,0.3,1.3,1.1,1.3c1.1,0,2.2-1.3,2.7-3.5l1-5.1L322.6,64.5 L322.6,64.5z"></path> <path class="st1" d="M332.2,64.5l-0.9,4.5h0.3l3.7-4.5h3.8l-4.8,4.9c1,0.4,1.6,1.7,1.9,3.3c0.2,1,0.5,2.1,0.7,2.8h-3.2 c-0.2-0.5-0.4-1.6-0.6-2.6c-0.3-1.3-0.8-2-1.8-2H331l-0.9,4.6h-3.2l2.1-11C329,64.5,332.2,64.5,332.2,64.5z"></path> <path class="st1" d="M353.8,64.5l-2.1,11h-3.3l1.6-8.6h-2.5l-0.4,2.1c-0.6,2.8-1.3,4.4-2.4,5.4c-0.8,0.8-1.8,1.2-3.4,1.2l-0.2-2.6 c0.7-0.1,1.2-0.3,1.6-0.7c0.7-0.6,1.2-1.8,1.5-3.4l0.9-4.5H353.8z"></path> <path class="st1" d="M358.3,64.5l0.7,4.8c0.2,1.1,0.3,1.9,0.4,2.6h0c0.2-0.7,0.5-1.4,1-2.6l2-4.9h3.4l-4,7.9 c-1.5,2.9-2.8,4.9-4.2,6.3c-1.3,1.2-2.8,1.8-3.5,1.9l-0.7-2.8c0.5-0.2,1.2-0.4,1.9-0.9c0.7-0.5,1.4-1.2,1.8-1.9 c0.1-0.2,0.1-0.3,0.1-0.5l-2.2-10L358.3,64.5L358.3,64.5z"></path> <path class="st1" d="M370.3,64.5l-0.5,2.5c-0.1,0.4-0.2,0.9-0.2,1.3c0,0.7,0.4,1.2,1.4,1.2c0.6,0,1.3-0.2,1.8-0.6l0.8-4.5h3.2 l-2.1,11h-3.2l0.9-4.2h0c-0.6,0.4-1.5,0.6-2.6,0.6c-2.4,0-3.5-1.2-3.5-2.8c0-0.5,0.1-1.2,0.2-1.8l0.6-2.8L370.3,64.5L370.3,64.5z"></path> <path class="st1" d="M382.4,64.5l-1.1,6c-0.1,0.4-0.1,0.9-0.1,1.3c0,0.8,0.3,1.3,1.1,1.3c1.1,0,2.1-1.4,2.6-3.7l0.9-5h3.1l-1.1,6.1 c-0.1,0.5-0.2,0.9-0.2,1.3c0,0.8,0.2,1.4,1,1.4c1.1,0,2.2-1.5,2.6-3.7l0.9-5h3.1l-1.4,7.4c-0.2,1.2-0.3,2.7-0.4,3.6h-2.9 c0-0.7,0.1-1.3,0.1-1.8h0c-1,1.4-2.3,2.1-3.7,2.1c-1.7,0-2.5-1.1-2.6-2.1c-1,1.4-2.4,2.1-3.8,2.1c-1.7,0-2.6-1.1-2.6-3 c0-0.5,0.1-1.4,0.2-1.9l1.2-6.4L382.4,64.5L382.4,64.5z"></path> <path class="st1" d="M405,74.9c-1.3,0.7-2.9,0.9-4.1,0.9c-3.2,0-4.8-1.8-4.8-4.7c0-3.4,2.4-6.9,6.4-6.9c2.2,0,3.8,1.2,3.8,3.3 c0,2.8-2.7,3.8-7.2,3.7c0,0.3,0.1,0.8,0.3,1.1c0.4,0.6,1.2,0.9,2.1,0.9c1.2,0,2.2-0.3,3.1-0.7L405,74.9z M402.2,66.7 c-1.5,0-2.4,1.2-2.6,2.3c2.5,0,3.8-0.3,3.8-1.3C403.4,67,402.9,66.7,402.2,66.7z"></path> <path class="st1" d="M413.6,64.5l0.4,4.3c0.1,0.7,0.1,1.6,0.2,2.6h0c0.3-0.6,0.9-1.9,1.5-3l2-3.9h4.1l-1.5,11h-3l0.7-4.4 c0.2-0.9,0.4-2.6,0.6-3.7h-0.1c-0.3,0.8-0.9,2.1-1.6,3.4l-2.4,4.5h-2.5l-0.5-4.4c-0.1-1.2-0.2-2.6-0.3-3.6h-0.1 c-0.3,1.2-0.6,2.8-0.8,3.8l-1.1,4.4h-2.9l2.9-11L413.6,64.5L413.6,64.5z"></path> <path class="st1" d="M426.8,64.5l0.7,4.8c0.2,1.1,0.3,1.9,0.4,2.6h0c0.2-0.7,0.5-1.4,1-2.6l2-4.9h3.4l-4,7.9 c-1.5,2.9-2.8,4.9-4.2,6.3c-1.3,1.2-2.8,1.8-3.5,1.9l-0.7-2.8c0.5-0.2,1.2-0.4,1.9-0.9c0.7-0.5,1.4-1.2,1.8-1.9 c0.1-0.2,0.1-0.3,0.1-0.5l-2.2-10L426.8,64.5L426.8,64.5z"></path> </g> </svg> 