<?xml version="1.0" encoding="utf-8"?>
<!-- Generator: Adobe Illustrator 26.0.2, SVG Export Plug-In . SVG Version: 6.00 Build 0)  -->
<svg version="1.1" id="Слой_1" xmlns="http://www.w3.org/2000/svg" xmlns:xlink="http://www.w3.org/1999/xlink" x="0px" y="0px"
	 viewBox="0 0 151 26" style="enable-background:new 0 0 151 26;" xml:space="preserve">
<style type="text/css">
	.st0{fill:#1D1D1B;}
	.st1{fill:#E30A18;}
</style>
<g>
	<g>
		<path class="st0" d="M48.99,12.94c-0.01,3.31-1.72,5.57-3.56,5.56c-1.93-0.01-3.59-2.25-3.58-5.59c0.01-3.34,1.69-5.6,3.62-5.59
			C47.34,7.33,49,9.6,48.99,12.94 M51.08,12.98c0.02-3.91-2.52-6.84-5.61-6.85c-3.14-0.02-5.71,2.9-5.72,6.8
			c-0.02,3.85,2.55,6.75,5.67,6.77C48.48,19.71,51.07,16.8,51.08,12.98 M69.77,15.13l-4.25-0.02l2.15-5.43L69.77,15.13z
			 M73.61,19.71L68.47,6.57l-0.88,0l-5.21,13.09l1.33,0.01l1.32-3.33l5.21,0.02l1.32,3.34L73.61,19.71z M93.29,15.16l-4.25-0.02
			l2.14-5.43L93.29,15.16z M97.13,19.74L91.99,6.6l-0.88,0l-5.2,13.1l1.33,0.01l1.31-3.33l5.22,0.02l1.32,3.34L97.13,19.74z
			 M122.01,19.71l-5.86-7.98l5.4-5.14l-1.73-0.01l-5.4,5.14l0.02-5.16l-3.74-0.01l-0.01,1.19l1.84,0.01l-0.05,11.93l1.9,0.01
			l0.03-7.21l5.27,7.24L122.01,19.71z M57.56,12.68l-1.39-0.01l0.02-4.89l1.39,0.01c1.7,0.01,2.77,1.05,2.77,2.44
			C60.34,11.69,59.26,12.69,57.56,12.68 M58.38,6.61l-5.92-0.03l0,1.19l1.84,0.01L54.25,19.7l1.9,0.01l0.02-5.81l2.15,0.01
			c2.27,0.01,3.94-1.59,3.95-3.67C62.28,8.26,60.61,6.61,58.38,6.61 M79.42,18.48h-1.08V12.6l1.32,0.01
			c2.24,0.01,3.29,1.33,3.34,2.76C83.06,16.96,81.79,18.58,79.42,18.48 M84.25,9.63V6.57h-5.91v0l-1.87,0v11.91h-1.9v1.22h5.47
			c3.38,0,5.11-2.57,5-4.46c-0.12-2.12-1.89-3.35-3.72-3.72c-0.22-0.05-0.41-0.07-0.58-0.09c-0.56-0.05-0.74,0-2.41-0.02V7.72
			l4.78-0.01l0,0.19v1.73H84.25z M31.97,17.39V8.81c0.32,0.02,0.77,0.06,1,0.11c1.55,0.33,2.63,1.95,2.64,4.11
			c0.01,2.18-1.31,4.05-3.07,4.29C32.36,17.35,32.15,17.37,31.97,17.39 M30.1,8.8v8.57c-0.17-0.01-0.38-0.03-0.55-0.06
			c-1.76-0.24-3.09-2.1-3.07-4.29c0.01-2.17,1.09-3.79,2.64-4.11C29.34,8.86,29.77,8.82,30.1,8.8 M31.97,6.12h-3.72v1.04l1.84,0
			v0.69c-0.21,0.01-0.45,0.02-0.59,0.03c-3.28,0.19-5.01,2.52-5.03,5.2c-0.02,2.77,1.95,4.98,5.04,5.22
			c0.16,0.01,0.39,0.01,0.58,0.01v1.56h1.87v-1.55c0.19,0,0.43,0,0.6-0.01c3.09-0.24,5.06-2.45,5.04-5.22
			c-0.02-2.68-1.75-5.02-5.03-5.21c-0.15-0.01-0.39-0.02-0.61-0.03V6.12z M108.22,19.71l0.05-13.12l-1.89-0.01l-0.02,4.89
			l-5.27-0.02l0.02-4.89l-3.72-0.02l0,1.19l1.83,0.01l-0.04,11.92l1.89,0.01l0.03-7.01l5.27,0.02l-0.03,7.01L108.22,19.71z"/>
		<path class="st1" d="M17.41,20.32c-1.98-0.6-5.19-1-8.82-1c-3.53,0-6.67,0.37-8.66,0.95v1.46H17.4v-1.42L17.41,20.32z"/>
		<path class="st1" d="M8.69,12.07c3.56,0.01,6.86,1.87,8.72,3.81v-1.46c-2.01-2.89-5.18-4.76-8.75-4.76v0
			c-3.55,0.01-6.71,1.88-8.72,4.76v1.46c1.86-1.94,5.05-3.67,8.72-3.8l0,0c0,0,0,0.01,0.01,0.01h0l0.01,0
			c0.01,0.01,0.02,0.01,0.02-0.01C8.69,12.08,8.7,12.08,8.69,12.07L8.69,12.07L8.69,12.07L8.69,12.07L8.69,12.07L8.69,12.07z"/>
		<path class="st1" d="M8.65,16.91l0.02,0h0l0.02,0v0c3.55,0,6.5,0.81,8.71,1.89l0.01,0.01v-1.47c-2.16-1.7-5.16-2.75-8.74-2.85
			c-3.58,0.1-6.57,1.15-8.74,2.85v1.46l0.01-0.01C2.15,17.72,5.1,16.91,8.65,16.91L8.65,16.91z"/>
		<path class="st0" d="M17.41,13.15c-1.98-3.63-5.19-5.99-8.82-5.99c-3.53,0-6.67,2.24-8.66,5.71v-8.6H17.4v8.89H17.41z"/>
	</g>
	<g>
		<g>
			<path class="st1" d="M142.76,7.03c-0.89-0.97-2.08-1.46-3.54-1.46c0,0,0,0,0,0c-1.47,0-2.65,0.48-3.53,1.44
				c0.49,0.72,0.74,1.6,0.74,2.64c0,0.79-0.23,1.52-0.68,2.17c-0.21,0.3-0.46,0.57-0.74,0.82c-0.03,0.03-0.06,0.06-0.1,0.08
				c0.4,0.27,0.74,0.6,1.01,0.99c0.48,0.68,0.73,1.51,0.73,2.46c0,1.13-0.31,2.08-0.92,2.86c0.88,0.93,2.05,1.39,3.49,1.39
				c0.01,0,0.01,0,0.01,0c1.47,0,2.65-0.48,3.54-1.45c0.89-0.97,1.33-2.3,1.33-3.99v-2.35v-1.63C144.1,9.33,143.65,8,142.76,7.03z
				 M141.21,12.64v2.63c0,0.95-0.17,1.67-0.52,2.18c-0.35,0.51-0.83,0.76-1.46,0.76c-0.01,0-0.01,0-0.01,0
				c-0.63,0-1.13-0.26-1.47-0.76c-0.35-0.51-0.53-1.23-0.53-2.18v-2.63v-1.93c0-0.93,0.17-1.64,0.52-2.15
				c0.35-0.51,0.84-0.76,1.47-0.76c0,0,0,0,0,0c0.63,0,1.12,0.26,1.47,0.76c0.35,0.51,0.53,1.23,0.53,2.15V12.64z"/>
			<path class="st1" d="M135.41,14.08c-0.28-0.4-0.64-0.72-1.08-0.98c-0.2-0.12-0.42-0.23-0.66-0.32c0.09-0.04,0.18-0.09,0.26-0.14
				c0.14-0.08,0.27-0.16,0.4-0.25c0.36-0.26,0.66-0.56,0.9-0.91c0.38-0.55,0.57-1.16,0.57-1.82c0-0.83-0.18-1.54-0.53-2.13
				c-0.2-0.34-0.47-0.64-0.79-0.9c-0.88-0.7-2.07-1.06-3.56-1.06c-0.71,0-1.37,0.1-1.96,0.31c-0.52,0.18-1,0.45-1.43,0.79
				c-0.91,0.73-1.35,1.67-1.31,2.8l0.02,0.06h2.71h0.08c0-0.5,0.18-0.92,0.54-1.24c0.36-0.32,0.81-0.49,1.33-0.49
				c0.63,0,1.12,0.18,1.47,0.54c0.35,0.36,0.53,0.81,0.53,1.35c0,0.65-0.17,1.15-0.5,1.51c-0.33,0.36-0.85,0.54-1.53,0.54h-1.6v0.91
				v1.26h1.6c0.74,0,1.3,0.18,1.69,0.55c0.38,0.37,0.58,0.93,0.58,1.69c0,0.6-0.2,1.09-0.62,1.48c-0.41,0.39-0.95,0.59-1.61,0.59
				c-0.6,0-1.09-0.18-1.47-0.55c-0.23-0.23-0.39-0.48-0.48-0.78c-0.06-0.18-0.09-0.38-0.09-0.59h-2.82l-0.02,0.06
				c-0.03,1.29,0.44,2.29,1.43,3.01c0.46,0.33,0.96,0.59,1.49,0.77c0.61,0.2,1.26,0.3,1.96,0.3c1.49,0,2.72-0.38,3.68-1.14
				c0.28-0.22,0.52-0.47,0.72-0.75c0.47-0.65,0.71-1.44,0.71-2.37C136.03,15.35,135.82,14.65,135.41,14.08z"/>
		</g>
		<g>
			<g>
				<path class="st1" d="M145.98,15.69H151v1.21h-4.08v1.13l1.69,0.08c0.58,0.03,1.05,0.12,1.39,0.24c0.35,0.13,0.6,0.31,0.76,0.54
					c0.16,0.23,0.24,0.55,0.25,0.95v0.32h-0.93L150.05,20c-0.03-0.24-0.18-0.42-0.44-0.52c-0.26-0.11-0.7-0.18-1.32-0.21l-2.31-0.09
					V15.69z"/>
				<path class="st1" d="M148.87,11.12v1.9h1.2v-2.25H151v3.46h-5.02v-3.46h0.93v2.25h1.06v-1.9H148.87z"/>
				<path class="st1" d="M146.92,5.64v1.51H151v1.21h-4.08v1.48h-0.93V5.64H146.92z"/>
			</g>
		</g>
	</g>
</g>
</svg>
