<svg width="302" height="23" viewBox="0 0 302 23" fill="none" xmlns="http://www.w3.org/2000/svg">
<path d="M19.8271 12.1089C19.8271 5.41985 25.463 0 32.4142 0C39.3668 0 45 5.41985 44.9949 12.1089C44.9977 14.3928 44.3339 16.6269 43.0866 18.5321H37.0157C38.2948 17.5578 39.2382 16.2023 39.7128 14.6571C40.1873 13.1119 40.1689 11.4552 39.6601 9.9211C39.1514 8.38704 38.178 7.05324 36.8777 6.10821C35.5773 5.16318 34.0157 4.65473 32.4136 4.65473C30.8115 4.65473 29.2498 5.16318 27.9495 6.10821C26.6491 7.05324 25.6758 8.38704 25.167 9.9211C24.6583 11.4552 24.6399 13.1119 25.1144 14.6571C25.5889 16.2023 26.5324 17.5578 27.8114 18.5321H21.7418C20.4923 16.6275 19.8264 14.3934 19.8271 12.1089Z" fill="#E61C41"/>
<path fill-rule="evenodd" clip-rule="evenodd" d="M32.6958 22.9949H32.8968C34.3853 22.9949 34.5863 22.3231 34.5965 22.0494H33.4286C33.4095 22.0995 33.3306 22.2884 32.8332 22.2884C32.3103 22.2884 32.1233 22.0751 32.0699 21.7655H34.6079V21.6666C34.6079 20.8856 34.342 20.0994 32.8485 20.0994H32.6322C31.2379 20.0994 30.9224 20.8804 30.9224 21.5125V21.5818C30.9224 22.2139 31.248 22.9949 32.6958 22.9949ZM32.0849 21.2131H33.4146C33.4146 21.005 33.3052 20.7609 32.7543 20.7609C32.3093 20.7661 32.1407 20.9374 32.0849 21.2131Z" fill="#E61C41"/>
<path d="M29.1813 20.9395H28.231C28.231 21.6255 28.2056 22.0636 28.1127 22.3115C28.0096 22.5851 27.8468 22.9281 27.1026 22.9281H26.7158V22.1573H26.7743C26.9474 22.1573 27.0708 22.0982 27.1242 21.8593C27.1776 21.6204 27.184 21.3814 27.184 20.1584H30.3021V22.9281H29.1839L29.1813 20.9395Z" fill="#E61C41"/>
<path d="M35.9507 20.9395H34.9062V20.1584H38.1134V20.9395H37.069V22.9281H35.9507V20.9395Z" fill="#E61C41"/>
<path d="M29.8524 16.3066C29.11 15.7558 28.5611 14.9801 28.2856 14.0924H36.5409C36.2655 14.9801 35.7166 15.7558 34.9741 16.3066C34.2317 16.8573 33.3345 17.1544 32.4133 17.1544C31.492 17.1544 30.5948 16.8573 29.8524 16.3066Z" fill="#E61C41"/>
<path d="M8.29088 18.5295H11.8034L11.8059 22.9949H0V19.827L7.76928 13.3923C10.6699 10.972 11.8034 9.69252 11.8034 7.73989C11.8034 5.75256 10.5032 4.67604 8.66999 4.67604C6.86984 4.67604 5.63454 5.68576 3.90181 7.83623L0.300236 4.91113C2.60036 1.74581 4.83433 0.029541 9.00331 0.029541C13.8376 0.029541 17.0385 2.8917 17.0385 7.37248C17.0385 11.3086 15.0386 13.2612 10.904 16.4933L8.29088 18.5295Z" fill="#E61C41"/>
<path d="M15.1758 18.5295H19.6017V22.9988H15.1758V18.5295Z" fill="#E61C41"/>
<path d="M85 4V19H81.168V13.3747H74.8534V19H71V4H74.8534V10.0227H81.168V4H85Z" fill="#E61C41"/>
<path d="M157.754 15.6436C159.395 15.6436 160.57 14.856 161.134 13.5245H165C164.241 16.8244 161.484 19 157.777 19C153.347 19 150 15.8564 150 11.501C150 7.14499 153.347 4 157.777 4C161.482 4 164.241 6.17699 165 9.47689H161.134C160.57 8.14674 159.395 7.35774 157.754 7.35774C155.357 7.35774 153.693 9.09891 153.693 11.501C153.693 13.9025 155.357 15.6436 157.754 15.6436Z" fill="#E61C41"/>
<path fill-rule="evenodd" clip-rule="evenodd" d="M173.688 14.6533L176.581 19H181L177.412 13.7491C179.026 12.822 179.99 11.2359 179.99 9.27162C179.99 6.03002 177.456 4 173.664 4H167V19H170.793V14.6533H173.688ZM173.597 11.3016H170.793V7.28663H173.597C175.056 7.28663 176.2 8.05861 176.2 9.27162C176.2 10.5075 175.056 11.3016 173.597 11.3016Z" fill="#E61C41"/>
<path d="M186.617 9.97813V7.24319H194V4H183V19H194V15.7568H186.617V13.1548H193.08V9.97813H186.617Z" fill="#E61C41"/>
<path fill-rule="evenodd" clip-rule="evenodd" d="M210 11.4568C210 15.9114 206.654 19 201.973 19H196V4H201.973C206.654 4 210 7.06576 210 11.4568ZM206.259 11.4568C206.259 9.13939 204.4 7.35382 201.973 7.35382H199.697V15.6462H201.973C204.4 15.6462 206.259 13.8385 206.259 11.4568Z" fill="#E61C41"/>
<path d="M217 19H213V4H217V19Z" fill="#E61C41"/>
<path d="M231 7.33111H226.806V19H223.193V7.33111H219V4H231V7.33111Z" fill="#E61C41"/>
<path fill-rule="evenodd" clip-rule="evenodd" d="M252 14.8312C252 17.3235 249.98 19 246.588 19H239V4H246.143C249.426 4 251.334 5.54375 251.334 7.99248C251.334 9.38207 250.556 10.8166 249.249 11.2791C251.09 11.6759 252 13.2197 252 14.8312ZM248.338 14.3459C248.338 13.4188 247.563 12.8892 246.166 12.8892H242.748V15.9118H246.099C247.652 15.9118 248.338 15.2281 248.338 14.3459ZM242.748 7.04468V10.1764H245.567C246.986 10.1764 247.762 9.47128 247.762 8.50064C247.762 7.55141 247.008 7.04468 245.567 7.04468H242.748Z" fill="#E61C41"/>
<path fill-rule="evenodd" clip-rule="evenodd" d="M257.872 16.4185H264.107L265.103 19H269L262.765 4H259.256L253 19H256.896L257.872 16.4185ZM260.989 8.25727L262.917 13.3082H259.062L260.989 8.25727Z" fill="#E61C41"/>
<path d="M284 4V19H281.086L273.785 10.7717V19H270V4H272.889L280.238 12.4482V4H284Z" fill="#E61C41"/>
<path d="M290.83 15.9546L293.096 13.3981L297.221 19H302L295.634 10.574L301.502 4H296.97L290.83 10.8823V4H287V19H290.83V15.9546Z" fill="#E61C41"/>
<path d="M123.315 19H127V4H124.253L119 12.0079L113.746 4H111V19H114.684L114.662 11.4339L117.975 16.6174V16.6395H120.023V16.6174L123.315 11.4789V19Z" fill="#E61C41"/>
<path d="M133.616 7.24262V9.97841H140.08V13.1553H133.616V15.7574H141V19H130V4H141V7.24262H133.616Z" fill="#E61C41"/>
<path d="M87 13.8021C87 8.38715 91.7018 4 97.5014 4C103.301 4 108 8.38715 108 13.8021C108 15.7112 107.416 17.4936 106.405 19H101.339C102.878 17.8599 103.875 16.057 103.875 14.0219C103.875 10.5722 101.021 7.77568 97.5 7.77568C93.98 7.77568 91.1259 10.5722 91.1259 14.0219C91.1259 16.057 92.1239 17.8599 93.662 19H88.5968C87.5856 17.4936 87 15.7112 87 13.8021Z" fill="#E61C41"/>
<path d="M94 15C94.5022 16.7464 95.8787 18 97.5004 18C99.122 18 100.499 16.7464 101 15H94Z" fill="#E61C41"/>
<path d="M59 0H57V23H59V0Z" fill="#E61C41"/>
</svg>
