<?xml version="1.0" encoding="utf-8"?>
<!-- Generator: Adobe Illustrator 26.1.0, SVG Export Plug-In . SVG Version: 6.00 Build 0)  -->
<svg version="1.1" id="logo_x5F_for_x5F_White_x5F_BG"
	 xmlns="http://www.w3.org/2000/svg" xmlns:xlink="http://www.w3.org/1999/xlink" x="0px" y="0px" viewBox="0 0 159 50"
	 style="enable-background:new 0 0 159 50;" xml:space="preserve">
<style type="text/css">
	.st0{fill:#32E17D;}
	.st1{fill:#6E50E1;}
</style>
<g>
	<g>
		<g>
			<g>
				<path class="st0" d="M40.7,7.4c0-0.1,0.1-0.2,0.2-0.3C41,7,41.1,6.9,41.1,6.9s0.1,0,0.1,0c0,0,0.1,0.1,0.1,0.2
					c0,0.1,0,0.2,0,0.3l-2.8,11.7H44l3.3-15.8c0-0.1,0-0.2,0.1-0.4c0-0.1,0-0.3,0-0.4c0-0.4-0.1-0.8-0.3-1.1
					c-0.2-0.3-0.5-0.5-0.8-0.7c-0.3-0.2-0.7-0.3-1.2-0.4c-0.4-0.1-0.9-0.1-1.4-0.1c-1.1,0-2,0.2-2.7,0.5c-0.7,0.3-1.4,1-1.9,2
					l-5.9,10c-0.1,0.2-0.2,0.4-0.4,0.5c-0.1,0.2-0.3,0.2-0.4,0.2c-0.1,0-0.2-0.1-0.3-0.2c-0.1-0.2-0.1-0.3-0.2-0.5l-1.6-10
					c-0.2-1-0.5-1.6-1.1-2c-0.6-0.3-1.4-0.5-2.4-0.5c-1.1,0-2,0.2-2.9,0.7c-0.9,0.5-1.4,1.3-1.7,2.4L19,19.1h5.5l2.3-11.8
					c0-0.1,0.1-0.2,0.1-0.2C26.9,7,27,7,27,7c0.1,0,0.1,0,0.2,0.1s0.1,0.2,0.1,0.3L29,17.6c0.1,0.6,0.4,1,0.8,1.3
					c0.4,0.3,1,0.4,1.7,0.4c0.7,0,1.4-0.1,1.9-0.4c0.5-0.3,1-0.7,1.3-1.3L40.7,7.4L40.7,7.4z M66.9,19.1l3.3-15.6
					c0-0.1,0-0.2,0.1-0.4c0-0.1,0-0.2,0-0.4c0-0.7-0.2-1.3-0.6-1.8c-0.4-0.5-1.1-0.8-2.1-0.8c-0.9,0-1.8,0.1-2.6,0.3
					c-0.8,0.2-1.5,0.7-2,1.4l-8.3,10c-0.1,0.1-0.2,0.2-0.3,0.4c-0.1,0.1-0.2,0.2-0.4,0.2c-0.1,0-0.2-0.1-0.2-0.2c0-0.1,0-0.2,0-0.3
					l2.7-11.5H51l-3.3,15.8c0,0.1,0,0.2-0.1,0.3c0,0.1,0,0.2,0,0.3c0,0.7,0.2,1.3,0.7,1.7c0.5,0.4,1.1,0.7,2,0.7
					c0.9,0,1.8-0.1,2.6-0.3c0.8-0.2,1.6-0.7,2.3-1.6l8.2-9.8c0.2-0.2,0.3-0.3,0.4-0.4c0.1-0.1,0.2-0.1,0.3-0.1
					c0.1,0,0.2,0.1,0.2,0.2c0,0,0,0.1,0,0.2c0,0.1,0,0.1,0,0.2l-2.7,11.5L66.9,19.1L66.9,19.1z M69.8,19.1h5.5l2.9-13.4
					c0.2-0.8,0.7-1.2,1.5-1.2h11.4l0.8-4H77.3c-1.3,0-2.3,0.3-2.9,0.8c-0.6,0.6-1.1,1.5-1.3,2.7L69.8,19.1L69.8,19.1z"/>
			</g>
		</g>
		<g>
			<path class="st1" d="M17.8,8.4c-0.1-0.3-0.3-0.7-0.5-1.1l-3.6-6.9H8.1l3.8,6.8h-11L0,11.4h10.9l-7.4,7.7H10l6.6-7.2
				c0.4-0.4,0.7-0.8,1-1.2c0.3-0.4,0.5-0.9,0.5-1.3C18,9,18,8.7,17.8,8.4z"/>
		</g>
		<g>
			<path class="st0" d="M159,33h-11l7.1-7.5H149l-5.8,6.6c-0.5,0.6-0.9,1.1-1.3,1.5c-0.3,0.5-0.5,0.9-0.5,1.5c0,0.3,0,0.5,0.1,0.7
				c0.1,0.2,0.2,0.5,0.4,0.9l4.1,7.3h5.8l-4.1-6.9h10.3L159,33z"/>
		</g>
	</g>
	<g>
		<path class="st1" d="M19.1,43.9h-5.4l3.9-18.4H23L19.1,43.9z M33.1,43.9h-6.2L22.6,37c-0.5-0.8-0.8-1.5-0.8-2.1
			c0-0.8,0.6-1.8,1.7-3l6.4-6.4h6.3l-7.7,7.6c0,0-0.2,0.1-0.3,0.3c-0.2,0.2-0.3,0.3-0.3,0.3c-0.1,0.1-0.1,0.2-0.3,0.3
			c-0.1,0.1-0.2,0.2-0.2,0.3c0,0.1-0.1,0.2-0.1,0.3c0,0.1-0.1,0.2-0.1,0.4c0,0.4,0.1,0.8,0.5,1.2L33.1,43.9z"/>
		<path class="st1" d="M41.6,25.5h6.9c2.4,0,4,0.6,5,1.7c0.9,1.2,1.4,2.8,1.4,5c0,0.7-0.1,1.8-0.4,3.2c-0.6,3.1-1.6,5.3-3,6.5
			c-1.4,1.3-3.5,1.9-6.6,1.9h-5.3l-1.2,5.9H33L37.4,29C37.9,26.7,39.3,25.5,41.6,25.5z M42.4,30.8l-1.9,9.1h3.8
			c1.4,0,2.4-0.5,3.1-1.4c0.7-0.9,1.2-2.2,1.5-3.8c0.2-1,0.3-1.9,0.3-2.6c0-0.9-0.2-1.5-0.6-2c-0.4-0.5-1.1-0.7-2.2-0.7h-2.4
			c-0.5,0-0.9,0.1-1.1,0.3C42.7,30,42.5,30.3,42.4,30.8z"/>
		<path class="st1" d="M72.7,43.9H62.3c-2.2,0-3.8-0.5-4.8-1.4c-1-0.9-1.5-2.3-1.5-4.2c0-1.3,0.2-2.9,0.6-4.7
			c0.3-1.5,0.7-2.7,1.1-3.7c0.4-1,0.9-1.8,1.4-2.4c0.5-0.6,1.2-1.1,2-1.4c0.8-0.3,1.7-0.5,2.7-0.6c1-0.1,2.2-0.2,3.8-0.2
			c2.8,0,4.9,0.4,6.3,1.2c1.4,0.8,2.1,2.3,2.1,4.3c0,0.6-0.1,1.5-0.3,2.5c-0.2,1.1-0.6,1.9-1.2,2.4c-0.6,0.5-1.4,0.7-2.5,0.7H61.6
			c-0.1,0.4-0.1,0.9-0.1,1.3c0,0.7,0.2,1.3,0.7,1.6c0.5,0.4,1.3,0.5,2.4,0.5h8.9L72.7,43.9z M62.4,32.8h6.7c0.7,0,1.1-0.4,1.2-1.1
			c0-0.2,0.1-0.4,0.1-0.5c0-0.7-0.3-1.2-1-1.5c-0.7-0.3-1.5-0.5-2.4-0.5c-1.4,0-2.5,0.3-3.2,0.8C63.2,30.5,62.7,31.4,62.4,32.8z"/>
		<path class="st1" d="M74.2,43.9l0.8-4h1.8L85,27.4c0.9-1.4,2.4-2.1,4.5-2.1c2.1,0,3.3,0.7,3.6,2.1l2.8,12.5h2.4l-0.8,4H74.2z
			 M88.1,30.5l-5.8,9.6H91l-1.7-9.6c-0.1-0.4-0.2-0.6-0.5-0.6C88.6,29.9,88.3,30.1,88.1,30.5z"/>
		<path class="st1" d="M118.3,43.9h-5.4l2.7-11.3c0-0.1,0-0.2,0-0.3s-0.1-0.2-0.2-0.2c-0.1,0-0.3,0.2-0.7,0.5l-8,9.6
			c-0.6,0.8-1.3,1.3-2,1.5c-0.7,0.2-1.6,0.4-2.7,0.4c-0.8,0-1.5-0.2-2-0.7c-0.5-0.4-0.7-1-0.7-1.7c0-0.1,0-0.3,0.1-0.7l3.3-15.6h5.4
			l-2.6,11.3c0,0.1,0,0.2,0,0.3c0,0.1,0.1,0.2,0.2,0.2c0.1,0,0.2,0,0.2-0.1c0.1,0,0.1-0.1,0.2-0.2c0.1-0.1,0.1-0.2,0.2-0.2l8.2-9.8
			c0.9-1.1,2.4-1.7,4.5-1.7c0.9,0,1.5,0.2,2,0.7c0.5,0.5,0.7,1.1,0.7,1.8c0,0.1,0,0.4-0.1,0.7L118.3,43.9z"/>
		<path class="st1" d="M131.9,43.9h-5.4l3.1-14.4h-6.9l0.8-4h19.1l-0.8,4H135L131.9,43.9z"/>
	</g>
</g>
</svg>
