<svg width="84" height="40" viewBox="0 0 84 40" fill="none" xmlns="http://www.w3.org/2000/svg">
<rect width="40" height="40" fill="#011689"/>
<path fill-rule="evenodd" clip-rule="evenodd" d="M26.3681 29.081C25.9818 29.1802 25.8864 29.3357 25.9538 29.4304C26.023 29.5217 26.3681 29.4524 26.5492 29.3684C26.7321 29.2822 26.7767 29.1802 26.7144 29.0855C26.6635 29.01 26.427 29.0669 26.3681 29.081ZM23.3001 11.0364C23.4944 11.0522 23.479 11.0471 23.5572 11.0606C23.6024 10.9969 23.9441 10.4987 23.9744 10.3944C24.0092 10.2941 23.9281 10.2169 23.8498 10.2124C23.7727 10.2084 23.6195 10.2169 23.5155 10.3121C23.4047 10.4125 23.3361 10.8622 23.3001 11.0364ZM29.167 17.124C28.7498 16.9712 28.3213 17.0558 27.9087 17.2198L27.8698 17.3077C27.7904 17.4779 27.6813 17.6081 27.5618 17.7112C27.7767 17.8662 28.2704 18.0178 28.8047 18.0009C29.3407 17.9885 29.8058 17.607 29.8058 17.607C29.6978 17.4537 29.5881 17.2778 29.167 17.124ZM28.4167 19.4663C28.2544 19.1794 27.7835 19.127 27.3864 18.8108L27.3607 18.8943L27.2715 18.9157C26.9441 18.9912 26.6755 18.9715 26.4692 18.9196C26.4961 18.9844 26.5178 19.0803 26.5281 19.131C26.8024 19.4675 27.1904 19.7036 27.7052 19.7645C28.2184 19.822 28.4167 19.4663 28.4167 19.4663ZM27.4378 16.8855C27.6995 16.9712 27.9372 17.0146 28.5841 16.8495C29.2715 16.6714 29.3698 16.1523 29.3698 16.1523C29.0681 15.9578 28.6801 15.9601 28.483 16.0351C28.2852 16.1066 27.8367 16.1066 27.6464 16.0644C27.559 16.4206 27.3801 16.6607 27.1972 16.8162C27.2875 16.8343 27.3664 16.8591 27.4378 16.8855ZM27.9904 25.1306C28.3995 24.7615 28.6578 24.3833 28.4173 24.1285C28.1778 23.8726 27.7727 24.0947 27.3613 24.4627C26.9515 24.8313 26.6938 25.209 26.9327 25.4632C27.1544 25.7004 27.5807 25.4981 27.9904 25.1306ZM26.9561 24.102C27.471 23.2076 26.8498 22.0105 26.3298 21.1763C26.2652 21.1526 26.2012 21.1233 26.1367 21.0907C26.3184 21.732 26.6652 22.4952 26.5224 23.0836C26.0692 22.5555 25.935 20.9729 25.935 20.9729C25.8732 20.9328 25.8087 20.8878 25.7487 20.8393C25.7212 20.8184 25.6972 20.7987 25.6732 20.7756C25.6732 20.832 25.671 20.8928 25.6658 20.952C25.7292 21.9056 25.8087 22.8852 26.1115 23.3744C26.4092 23.8535 26.9561 24.102 26.9561 24.102ZM25.8475 20.7187C26.1424 20.9486 26.5401 21.1679 26.9784 21.1025C26.9784 21.1025 27.0795 20.7795 26.2064 19.9894C25.9115 19.9505 25.6898 19.8468 25.5207 19.7267C25.4847 19.8276 25.4253 19.9634 25.4693 20.1567C25.5115 20.3512 25.6487 20.5637 25.8475 20.7187ZM29.0115 15.4968C29.387 15.1626 29.7092 14.3386 29.7092 14.3386C29.3641 14.382 28.6915 14.6768 28.2852 14.8994C27.911 15.1062 27.3875 15.5368 27.1652 15.6969C27.4281 15.7172 27.5812 15.8096 27.5944 15.8169L27.6835 15.8739C28.351 15.9697 28.6235 15.8412 29.0115 15.4968ZM27.471 20.7361L27.4515 20.7345C27.2847 20.7373 27.135 20.7119 27.0047 20.6651C27.0441 20.7322 27.0744 20.7936 27.0944 20.8466C28.5258 22.1531 28.4024 22.7978 28.4024 22.7978C27.9144 22.52 27.3738 21.7242 27.1013 21.2389L27.0024 21.2535C26.8853 21.2727 26.7653 21.2727 26.6475 21.258C26.8344 21.4299 27.1064 21.9152 27.551 22.6845C27.9921 23.4567 29.0687 23.7853 29.0687 23.7853C29.179 22.4788 28.0195 21.2727 27.471 20.7361ZM27.2927 19.809C26.9418 19.5802 26.7767 19.5351 26.5372 19.4511C26.5024 19.7374 26.3618 19.9178 26.3504 19.9324C26.4532 20.0514 26.823 20.6708 27.5978 20.5682C27.5978 20.5682 27.8041 20.1449 27.2927 19.809ZM25.3344 15.5109C25.0595 15.6941 24.7578 16.0745 24.9875 16.6094C25.2173 17.1454 25.651 17.9051 25.3904 18.2016C25.1321 18.498 24.2104 18.6519 23.4595 18.3571C23.4595 18.3571 23.303 18.8204 23.0293 19.1169C23.0293 19.1169 23.1573 19.3728 23.591 19.2443C23.591 19.2443 23.4321 19.6236 23.6481 20.0339C23.6481 20.0339 24.1521 19.9482 24.367 19.4979C24.367 19.4979 24.5693 19.8479 24.9738 19.9764C24.9738 19.9764 25.3064 19.809 25.2333 19.158C25.2333 19.158 25.4767 19.7374 26.2275 19.8344C26.2275 19.8344 26.6595 19.3006 26.0967 18.5815C26.0967 18.5815 26.5001 18.9343 27.235 18.7646C27.235 18.7646 27.3504 18.3994 26.6858 17.8922C26.6858 17.8922 27.4378 17.8629 27.7264 17.2434C27.7264 17.2434 27.4081 16.8619 26.6315 16.9475C26.6315 16.9475 27.3504 16.792 27.5087 15.9477C27.5087 15.9477 26.9904 15.6231 26.1704 16.1438C26.1704 16.1438 26.3133 15.8772 26.6584 15.6101C27.0047 15.3413 27.4235 14.595 27.2778 13.4971C27.0047 14.0872 26.5555 14.6931 25.3344 15.5109ZM25.3247 9.7553C25.4892 9.79813 25.5252 9.7863 25.6035 9.77897C25.6115 9.74515 25.6104 9.65441 25.5932 9.61778C25.5932 9.61778 25.203 9.24523 24.8738 9.18154C24.6647 9.14096 24.5367 9.23058 24.4744 9.27905C24.4744 9.27905 24.591 9.26777 24.7664 9.40811C24.9418 9.5462 25.1595 9.71415 25.3247 9.7553ZM24.619 10.8583C24.6121 10.9609 24.5378 11.0679 24.4521 11.1553C24.4521 11.1553 24.931 11.0454 24.9881 10.7551C25.0412 10.497 24.9292 10.3161 24.851 10.1724C24.7795 10.0371 24.5578 9.72374 24.503 9.59241C24.4521 9.47349 24.4247 9.3743 24.4424 9.30835C24.2961 9.45208 24.1721 9.60425 24.175 9.73726C24.1767 9.87309 24.3395 10.2169 24.4247 10.3477C24.5104 10.4784 24.6344 10.6497 24.619 10.8583ZM25.551 10.3815C25.4224 10.6289 25.3612 11.0386 25.4692 11.3216C25.5555 11.5504 25.6241 11.8773 25.6298 11.9793C25.8087 11.7178 25.8664 11.4382 25.8287 11.1762C25.8064 11.0223 25.787 10.7692 25.8852 10.5754C25.9664 10.4125 26.1378 10.1233 26.1138 9.8359C25.9715 9.7491 25.723 9.66681 25.723 9.66681C25.7464 9.91649 25.6761 10.1414 25.551 10.3815ZM23.7715 12.1247C23.7715 12.1247 24.087 11.8925 24.1624 11.6964C24.2395 11.5019 24.2595 11.3661 23.9441 11.4608C23.9247 11.7076 23.859 11.9523 23.7715 12.1247ZM28.791 13.9767C29.1635 13.3376 28.9664 12.5277 28.9664 12.5277C28.2264 12.7205 27.8481 13.3416 27.7418 13.5197C27.6361 13.6966 27.459 14.382 27.3801 14.6582C27.2847 14.9974 27.1561 15.286 26.9904 15.4934C27.8115 15.1113 28.4687 14.5302 28.791 13.9767ZM25.9858 11.1553C25.9921 11.21 25.9961 11.2641 25.9984 11.3216C26.1429 11.0764 26.5635 11.3289 26.5635 11.3289C26.2989 10.9141 26.1704 10.869 25.9784 10.7969C25.9629 10.8966 25.9664 11.0144 25.9858 11.1553ZM29.9504 14.1492L29.7315 14.7709C30.3315 14.298 31.0441 13.7722 31.4887 13.4453C31.8298 13.1939 32.3401 12.8354 32.8492 12.6675C32.8492 12.6675 32.3812 13.2632 32.003 13.5552C31.5681 13.8928 31.1247 14.1847 30.7584 14.3797C30.435 14.5539 30.2692 14.652 29.6127 14.9631C29.5675 15.0431 29.4315 15.2313 29.3784 15.3052C31.1835 15.011 33.1692 13.6758 33.7824 12.8478C34.3978 12.0205 34.223 10.7861 34.223 10.7861C33.6264 10.9017 32.3332 11.9934 31.9984 12.3225C31.6635 12.6494 30.6515 13.6127 29.9504 14.1492ZM28.4904 14.6266C28.631 14.5578 28.7921 14.484 28.955 14.4169L29.1053 14.3566C30.439 13.6639 31.7607 12.2318 32.2955 11.2359C32.8293 10.2394 32.6098 9.08291 32.4675 8.4635C31.8618 8.96568 30.9904 9.95313 30.6104 10.4908C30.143 11.1497 29.5453 12.0836 29.1738 12.8433V12.8659C29.1767 12.9448 29.179 13.0304 29.175 13.1212L29.1595 13.3201C29.5973 12.7746 30.1218 12.1174 30.6201 11.5098C30.963 11.0939 31.2533 10.8425 31.5738 10.6402C31.303 11.4101 30.819 12.025 30.4744 12.3316C30.1321 12.637 29.6361 13.1539 29.151 13.4701L29.103 13.6262C29.0658 13.7688 29.0081 13.9159 28.9275 14.054C28.8138 14.249 28.667 14.4406 28.4904 14.6266ZM35.4275 14.147C34.0132 14.1098 32.8698 14.4468 31.9881 14.7117C30.9578 15.0206 29.3852 15.5949 28.8355 15.835C29.0424 15.8412 29.2675 15.9004 29.459 16.0243C30.2264 15.7375 30.5835 15.6152 31.2812 15.4247C31.831 15.2736 32.2378 15.2437 32.5818 15.2116C32.5818 15.2116 32.0978 15.5244 31.3001 15.773C30.5087 16.0204 30.1675 16.0621 29.5258 16.1822C29.5218 16.2053 29.4264 16.6528 28.895 16.8996C30.0361 16.4121 32.2864 16.1309 33.4944 15.6394C35.1287 14.9743 35.4275 14.147 35.4275 14.147ZM25.067 21.8414C25.067 21.8414 25.355 21.532 25.4378 21.2778C25.523 21.0112 25.5538 20.6995 25.4492 20.3816C25.3904 20.2086 25.2955 20.0502 25.2132 19.9595C25.1321 20.066 25.0544 20.11 25.0464 20.1145L24.9875 20.1438L24.9241 20.1235C24.871 20.1072 24.8212 20.0874 24.7738 20.0638C24.7087 20.2379 24.6847 20.3213 24.6675 20.4696C24.6458 20.6657 24.6075 20.9757 24.6812 21.2276C24.7744 21.5365 24.9612 21.7242 25.067 21.8414ZM29.3304 18.9546C29.087 18.2484 28.6035 18.1396 28.1292 18.0528C27.731 17.9761 27.4252 17.9806 27.083 18.0393C27.2355 18.2055 27.2875 18.3695 27.3612 18.4755C27.5944 18.8075 28.003 19.003 28.471 19.0983C29.0241 19.2076 29.3304 18.9546 29.3304 18.9546ZM20.6584 13.3066C20.8235 13.1465 21.0253 12.907 21.1018 12.6782C21.1018 12.6782 20.7738 12.6838 20.6207 12.783C20.4224 12.9104 20.2327 13.1894 20.1613 13.523C20.1613 13.523 20.4938 13.4672 20.6584 13.3066ZM19.379 12.783C19.2252 12.6838 18.8961 12.6782 18.8961 12.6782C18.9732 12.907 19.1761 13.1465 19.3412 13.3066C19.5047 13.4672 19.8367 13.523 19.8367 13.523C19.7641 13.1894 19.5761 12.9104 19.379 12.783ZM15.4224 12.4003C15.3515 12.4003 15.2944 12.3434 15.2944 12.2718C15.2944 12.2002 15.3515 12.1433 15.4224 12.1433C15.4967 12.1433 15.5561 12.2002 15.5561 12.2718C15.5561 12.3434 15.4967 12.4003 15.4224 12.4003ZM15.5024 11.7076C15.3253 11.6665 14.9521 11.6248 14.787 11.8626C14.6213 12.0988 14.6847 12.5463 15.0155 12.7295C15.0155 12.7295 15.5201 12.3045 16.1315 12.7272C16.1315 12.7272 16.2733 12.637 16.5927 12.5666C16.5927 12.5666 16.4047 12.3434 16.1938 12.2498C16.0041 12.1659 15.6144 12.0543 15.5024 11.7076ZM17.075 17.7445C17.2687 17.7445 17.5607 17.5901 17.9201 17.1465C18.4515 16.4921 18.5727 15.6101 18.5727 15.6101C18.0287 16.5012 17.4858 16.9645 17.063 16.9402C16.6887 16.9205 16.515 16.3918 16.515 16.3918C16.3264 16.5412 16.2938 16.9645 16.3932 17.235C16.4904 17.5072 16.7835 17.7445 17.075 17.7445ZM17.0481 13.062C16.8847 12.9335 16.6624 12.6432 16.6624 12.6432C16.3704 12.7097 16.1647 12.7469 15.9401 13.0462C15.7321 13.3241 16.0173 13.7502 16.0173 13.7502C16.2247 13.0541 17.0481 13.062 17.0481 13.062ZM23.651 22.4298C23.4321 23.5097 23.7727 23.9527 23.7727 23.9527C24.3395 23.2893 24.3864 22.5989 24.515 21.5742C24.4527 21.7101 24.3721 21.8515 24.263 21.9919C24.1144 23.0255 23.9075 23.1693 23.9075 23.1693C23.8275 22.7302 23.9572 22.2917 23.9572 22.2917C23.8527 22.3582 23.7475 22.4039 23.651 22.4298ZM24.5212 19.9031C24.4664 19.8558 24.4195 19.8096 24.3778 19.769C24.2961 19.8704 24.0178 20.2103 23.8812 20.5501C23.7767 20.8398 23.6658 21.2332 23.6121 21.4587C23.5544 21.6824 23.3904 22.1531 23.2904 22.3137C23.2904 22.3137 23.731 22.3684 24.0572 21.9958C24.3767 21.6306 24.4847 21.2642 24.5367 20.8878C24.5738 20.5935 24.5635 20.1844 24.5212 19.9031ZM24.443 12.2718C24.443 12.2002 24.503 12.1433 24.5738 12.1433C24.6458 12.1433 24.7064 12.2002 24.7064 12.2718C24.7064 12.3434 24.6458 12.4003 24.5738 12.4003C24.503 12.4003 24.443 12.3434 24.443 12.2718ZM24.9818 12.7295C25.3138 12.5463 25.379 12.0988 25.2121 11.8626C25.047 11.6248 24.6744 11.6665 24.4967 11.7076C24.3847 12.0543 23.9932 12.1659 23.8052 12.2498C23.5932 12.3434 23.4047 12.5666 23.4047 12.5666C23.7241 12.637 23.867 12.7272 23.867 12.7272C24.4772 12.3045 24.9818 12.7295 24.9818 12.7295ZM23.9818 13.7502C23.9818 13.7502 24.2675 13.3241 24.0584 13.0462C23.8349 12.7469 23.6292 12.7097 23.3361 12.6432C23.3361 12.6432 23.1155 12.9335 22.9521 13.062C22.9521 13.062 23.7744 13.0541 23.9818 13.7502ZM23.4847 16.3918C23.4847 16.3918 23.3098 16.9205 22.9361 16.9402C22.5149 16.9645 21.971 16.5012 21.427 15.6101C21.427 15.6101 21.5475 16.4921 22.079 17.1465C22.4372 17.5901 22.7304 17.7445 22.923 17.7445C23.2144 17.7445 23.5081 17.5072 23.607 17.235C23.7035 16.9645 23.6732 16.5412 23.4847 16.3918ZM23.3338 25.67C23.5613 25.5291 23.7933 25.4603 23.8378 25.4468C23.6373 25.3183 23.4658 25.2343 23.3281 25.1802C23.1887 25.125 22.9938 25.076 22.9938 25.076C22.903 25.1047 22.743 25.1193 22.743 25.1193C22.931 25.1594 23.1361 25.4547 23.1835 25.5415C23.2333 25.6328 23.3338 25.67 23.3338 25.67ZM22.9287 26.3232C23.0087 26.2855 23.1732 26.14 23.1184 25.8363C23.0578 25.4801 22.531 25.1239 22.531 25.1239C22.3921 25.1193 22.3304 25.09 22.2944 25.072C22.1435 25.1487 22.0172 25.267 22.0172 25.267C22.1767 25.2405 22.4372 25.311 22.5824 25.4175C22.6927 25.4981 22.8715 25.776 22.7612 25.9681C22.6504 26.1592 22.2447 26.0279 22.2447 26.0279C22.483 26.5092 22.8487 26.3627 22.9287 26.3232ZM23.6521 25.8937C23.7704 25.8695 23.951 25.9794 23.951 25.9794C23.951 25.8887 23.9144 25.7991 24.0184 25.732C24.1167 25.6706 24.5167 25.7444 24.6847 25.7156C24.7664 25.7016 24.7978 25.6548 24.7761 25.6086C24.7241 25.4902 24.627 25.3809 24.627 25.3809C24.4327 25.4367 23.835 25.5933 23.6195 25.6942C23.4881 25.7551 23.2693 25.8718 23.2298 25.9794C23.1755 26.1254 23.2481 26.1964 23.3053 26.2612C23.3955 26.002 23.4944 25.927 23.6521 25.8937ZM25.2424 21.8865C25.4058 22.9833 25.1395 23.1805 25.1395 23.1805C24.8738 22.6682 24.9612 21.9451 24.9612 21.9451C24.8961 21.869 24.7601 21.7332 24.6812 21.6047C24.8115 23.8901 25.179 24.1528 25.179 24.1528C25.7155 23.6624 25.5555 22.0967 25.5087 21.5015C25.4418 21.6272 25.3104 21.8042 25.2424 21.8865ZM22.691 28.6391C22.0601 28.3077 21.4424 27.7993 20.8841 26.9956C20.8715 26.9708 20.847 26.9314 20.835 26.9167C20.835 26.9167 20.6253 26.9669 20.4607 26.8959L20.5681 27.0706C21.1675 27.9645 21.8304 28.5247 22.5093 28.8877L22.691 28.6391ZM15.4767 19.9031C15.4378 20.1844 15.4224 20.5935 15.4641 20.8878C15.515 21.2642 15.6218 21.6306 15.9418 21.9958C16.2675 22.3684 16.707 22.3137 16.707 22.3137C16.6064 22.1531 16.4435 21.6824 16.3881 21.4587C16.3332 21.2332 16.2218 20.8398 16.1195 20.5501C15.9812 20.2103 15.7018 19.8704 15.6184 19.769C15.5807 19.8096 15.5321 19.8558 15.4767 19.9031ZM17.2841 18.5803C17.3453 18.4101 17.3035 17.9051 17.3035 17.9051C16.979 18.0539 16.5915 17.8527 16.5915 17.8527C16.5955 18.2399 16.9093 18.7714 17.0064 18.9168C17.1653 18.8001 17.231 18.719 17.2841 18.5803ZM15.223 25.6086C15.2001 25.6548 15.2298 25.7016 15.3144 25.7156C15.4812 25.7444 15.8812 25.6706 15.9795 25.732C16.083 25.7991 16.0452 25.8887 16.0452 25.9794C16.0452 25.9794 16.2287 25.8695 16.3435 25.8937C16.5041 25.927 16.6007 26.002 16.6921 26.2612C16.7498 26.1964 16.8224 26.1254 16.7664 25.9794C16.7281 25.8718 16.5098 25.7551 16.3801 25.6942C16.1647 25.5933 15.567 25.4367 15.371 25.3809C15.371 25.3809 15.2732 25.4902 15.223 25.6086ZM16.0812 27.8839L18.0395 30.5678L18.2704 30.2245C17.4767 29.1396 16.4972 27.7965 16.3978 27.6601L16.7052 27.4442L15.7367 27.0813L15.7532 28.1155L16.0812 27.8839ZM15.2252 20.0638C15.1784 20.0874 15.1287 20.1072 15.0727 20.1235L15.0121 20.1438L14.9521 20.1145C14.9441 20.11 14.8658 20.066 14.7841 19.9595C14.7012 20.0502 14.6092 20.2086 14.5515 20.3816C14.4452 20.6995 14.4755 21.0112 14.5612 21.2778C14.6435 21.532 14.9315 21.8414 14.9315 21.8414C15.035 21.7242 15.2252 21.5365 15.3167 21.2276C15.391 20.9757 15.3515 20.6657 15.3315 20.4696C15.3167 20.3213 15.2898 20.2379 15.2252 20.0638ZM15.3167 21.6047C15.239 21.7332 15.1018 21.869 15.035 21.9451C15.035 21.9451 15.1247 22.6682 14.859 23.1805C14.859 23.1805 14.5927 22.9833 14.7572 21.8865C14.6898 21.8042 14.5595 21.6272 14.4904 21.5015C14.4441 22.0967 14.2824 23.6624 14.8195 24.1528C14.8195 24.1528 15.1875 23.8901 15.3167 21.6047ZM22.695 17.9051C22.695 17.9051 22.6533 18.4101 22.7167 18.5803C22.7664 18.719 22.8338 18.8001 22.9904 18.9168C23.0887 18.7714 23.4047 18.2399 23.4081 17.8527C23.4081 17.8527 23.0201 18.0539 22.695 17.9051ZM15.139 29.2771C14.8224 29.3245 14.5155 29.3408 14.2184 29.3267C14.223 29.3746 14.223 29.4377 14.1944 29.484C14.1944 29.484 14.2544 29.5527 14.2544 29.6282C14.5544 29.6378 14.867 29.6209 15.1858 29.5724C15.7167 29.4941 16.2732 29.3887 16.8338 29.1813L16.6481 28.9271C16.135 29.1075 15.6235 29.205 15.139 29.2771ZM13.5292 29.7455C13.4624 29.8182 13.2801 30.0352 13.2578 30.0707C13.2378 30.1062 13.2692 30.1631 13.327 30.1552C13.3835 30.1496 13.6961 30.1186 13.8755 29.9997C14.0544 29.8796 14.1738 29.648 14.0504 29.5651C13.927 29.4817 13.735 29.5212 13.5292 29.7455ZM19.2584 31.58C19.1818 31.4774 18.9767 31.1956 18.7075 30.8276L18.4778 31.1675L19.2915 32.2823L19.9081 31.2109L19.6898 30.8276C19.5287 31.1094 19.3561 31.4121 19.2584 31.58ZM24.243 28.1155L24.263 27.0813L23.2904 27.4442L23.599 27.6601C23.4418 27.8771 21.0418 31.1658 20.7395 31.58L19.2852 29.0038L19.1058 29.272L17.8121 31.1832L17.4881 30.9725L17.4841 31.9886L18.4664 31.6082L18.1367 31.3952C18.315 31.1308 19.0178 30.0955 19.2515 29.7472L20.7064 32.2823L23.9167 27.8839L24.243 28.1155ZM12.2578 20.6307C12.2464 20.6071 12.239 20.5817 12.2338 20.5659C12.2201 20.5231 12.2007 20.4402 12.203 20.3371C10.9835 21.6092 10.2767 21.8273 10.2767 21.8273C10.7292 20.9334 11.8464 20.3805 12.2321 20.1658C12.2532 20.084 12.295 19.9967 12.3624 19.9088C12.347 19.9133 12.3292 19.9144 12.3127 19.9155C12.0978 19.9414 11.9264 19.9031 11.7967 19.8468C11.2887 20.2075 10.5967 20.7536 10.0561 21.3516C9.51496 21.949 9.32067 22.5031 9.22239 23.2042C9.22239 23.2042 10.2327 23.1693 10.871 22.3047C11.5087 21.439 11.8275 21.0433 12.2578 20.6307ZM11.5852 19.7092C11.5441 19.6726 11.5121 19.6354 11.4904 19.6055C11.4904 19.6055 10.3744 20.5699 9.19611 20.9881C9.19611 20.9881 9.44753 20.54 9.91439 20.2154C10.4818 19.8214 10.9064 19.6901 11.403 19.4652L11.4441 19.3908C11.4601 19.366 11.4732 19.344 11.4904 19.3232C11.0744 19.4799 9.59496 20.026 9.11668 20.2683C8.63725 20.5113 7.94468 21.0613 7.5681 22.1812C7.5681 22.1812 8.56639 22.268 9.39039 21.6018C10.2144 20.9334 11.175 20.0046 11.5852 19.7092ZM13.4733 29.471C13.4247 29.4406 13.3047 29.3943 13.1801 29.4417C13.055 29.4862 12.6018 29.7472 12.5727 29.8712C12.5407 29.994 12.6041 30.0538 12.6744 30.0819C12.7441 30.1079 12.8287 30.1344 12.8921 30.1417C13.0053 30.1496 13.1155 30.0859 13.1744 30.0166C13.2321 29.9456 13.4447 29.6964 13.4733 29.6378C13.5041 29.5837 13.5201 29.5009 13.4733 29.471ZM22.1858 31.1832L21.9555 30.84L21.711 31.1714C21.7767 31.2655 21.8264 31.3439 21.8601 31.3952L21.5315 31.6082L22.515 31.9886L22.5092 30.9725L22.1858 31.1832ZM13.147 28.953C13.1441 28.8381 13.039 28.8076 12.9441 28.8076C12.8498 28.8076 12.4538 28.8172 12.2418 28.6622C12.2264 28.6509 12.215 28.6414 12.203 28.6295C11.9852 28.4435 11.8612 28.1572 11.8612 27.8422C11.8612 27.2408 12.3618 26.7482 12.9801 26.7482C13.5972 26.7482 14.0961 27.2408 14.0961 27.8422C14.0961 27.9233 14.0807 28.0586 14.0807 28.0586C14.1315 27.9645 14.315 27.5463 14.3521 27.4696C14.1852 26.8823 13.6321 26.4506 12.9801 26.4506C12.4167 26.4506 11.9298 26.7702 11.6978 27.234C11.7852 26.6822 12.0664 26.1857 12.2652 26.0031C12.5035 25.7833 12.9075 25.7128 12.9075 25.7128C12.6424 25.7551 12.2921 25.595 11.9007 25.2428C11.5287 24.9108 11.339 24.6189 11.327 24.3759C11.3498 24.7192 11.339 24.9114 11.239 25.1909C11.1047 25.5708 10.7355 26.2747 10.8681 27.0683C10.9395 27.5034 11.263 28.1521 11.8041 28.6819C11.9184 28.8009 11.9607 28.9767 11.975 29.0669C11.975 29.0669 12.771 29.0669 12.9595 29.0855C12.9595 29.0855 13.1492 29.0669 13.147 28.953ZM13.0053 29.174C12.9121 29.1593 12.6133 29.1678 12.4344 29.1926C12.2384 29.2247 12.0155 29.2625 11.9915 29.3684C11.9698 29.4699 12.0407 29.5747 12.1401 29.728C12.2007 29.8221 12.347 29.7675 12.4275 29.7376C12.5081 29.7094 12.9681 29.4676 13.0413 29.3887C13.1155 29.3098 13.147 29.1971 13.0053 29.174ZM30.883 20.2683C30.4053 20.026 28.9247 19.4799 28.5098 19.3232C28.5258 19.344 28.5401 19.366 28.5544 19.3908L28.5973 19.4652C29.0938 19.6901 29.5173 19.8214 30.087 20.2154C30.551 20.54 30.8024 20.9881 30.8024 20.9881C29.6247 20.5699 28.5098 19.6055 28.5098 19.6055C28.4858 19.6354 28.4544 19.6726 28.4138 19.7092C28.8224 20.0046 29.7841 20.9334 30.6075 21.6018C31.4321 22.268 32.4287 22.1812 32.4287 22.1812C32.0533 21.0613 31.3613 20.5113 30.883 20.2683ZM31.6481 19.0972C31.1024 18.9343 29.8813 18.7906 29.3927 18.6942C29.4104 18.7286 29.4264 18.7646 29.4418 18.8041C29.8458 18.9061 30.3755 19.0859 30.859 19.2826C31.303 19.4663 31.727 19.7583 31.727 19.7583C30.8698 19.7352 30.0047 19.4038 29.3584 19.1214C29.2675 19.1761 29.0921 19.2584 28.847 19.2747C29.1567 19.3547 29.6618 19.5097 31.283 20.2559C32.9047 21.001 33.763 20.7423 33.763 20.7423C33.1778 19.6501 32.191 19.2612 31.6481 19.0972ZM23.0441 9.98694H23.2572V9.6499H23.5241V9.46898H23.2572V9.18154H23.0441V9.46898H22.779V9.6499H23.0441V9.98694ZM29.9047 17.7265C29.8972 17.7338 29.8115 17.8009 29.6767 17.8809C30.2618 17.9322 31.5058 17.9891 32.1481 18.3087C32.1481 18.3087 30.963 18.462 29.4024 18.0195C29.243 18.0917 29.1218 18.1277 28.9144 18.1492C29.0275 18.2207 29.1355 18.3109 29.2315 18.4332C29.8024 18.5955 30.7744 18.7703 32.3812 18.8835C33.987 18.9951 34.843 18.7088 34.843 18.7088C34.2841 18.374 33.3927 18.0342 32.7892 17.9203C32.1847 17.8059 30.6001 17.8195 29.9047 17.7265ZM11.1521 19.2747C10.9064 19.2584 10.731 19.1761 10.6413 19.1214C9.99497 19.4038 9.1304 19.7352 8.27211 19.7583C8.27211 19.7583 8.6944 19.4663 9.14011 19.2826C9.62126 19.0859 10.1521 18.9061 10.5555 18.8041C10.5721 18.7646 10.5887 18.7286 10.6053 18.6942C10.1167 18.7906 8.89783 18.9343 8.35154 19.0972C7.80697 19.2612 6.82126 19.6501 6.23611 20.7423C6.23611 20.7423 7.09497 21.001 8.7144 20.2559C10.335 19.5097 10.8435 19.3547 11.1521 19.2747ZM28.2024 19.8468C28.0715 19.9031 27.9018 19.9414 27.6864 19.9155C27.6687 19.9144 27.6521 19.9133 27.6361 19.9088C27.7035 19.9967 27.7441 20.084 27.7675 20.1658C28.1521 20.3805 29.2715 20.9334 29.7224 21.8273C29.7224 21.8273 29.015 21.6092 27.7944 20.3371C27.799 20.4402 27.7784 20.5231 27.7647 20.5659C27.7595 20.5817 27.751 20.6071 27.7418 20.6307C28.1704 21.0433 28.4904 21.439 29.1275 22.3047C29.7658 23.1693 30.7761 23.2042 30.7761 23.2042C30.6795 22.5031 30.4841 21.949 29.943 21.3516C29.4024 20.7536 28.7115 20.2075 28.2024 19.8468ZM26.8184 29.4417C26.6938 29.3943 26.5727 29.4406 26.5224 29.471C26.4784 29.5009 26.4938 29.5837 26.5224 29.6378C26.5555 29.6964 26.7653 29.9456 26.8241 30.0166C26.8835 30.0859 26.9927 30.1496 27.1053 30.1417C27.1681 30.1344 27.2544 30.1079 27.323 30.0819C27.3933 30.0538 27.4555 29.994 27.4264 29.8712C27.3944 29.7472 26.9418 29.4862 26.8184 29.4417ZM25.9493 29.5651C25.8253 29.648 25.9441 29.8796 26.123 29.9997C26.3024 30.1186 26.6133 30.1496 26.671 30.1552C26.7275 30.1631 26.7618 30.1062 26.7395 30.0707C26.7184 30.0352 26.5338 29.8182 26.4693 29.7455C26.2618 29.5212 26.0693 29.4817 25.9493 29.5651ZM28.6704 24.3759C28.6613 24.6189 28.4687 24.9108 28.0973 25.2428C27.7053 25.595 27.355 25.7551 27.0904 25.7128C27.0904 25.7128 27.495 25.7833 27.7327 26.0031C27.9333 26.1857 28.2115 26.6822 28.299 27.234C28.0687 26.7702 27.5813 26.4506 27.0184 26.4506C26.3635 26.4506 25.811 26.8823 25.6458 27.4696C25.6818 27.5463 25.8675 27.9645 25.9178 28.0586C25.9178 28.0586 25.9018 27.9233 25.9018 27.8422C25.9018 27.2408 26.4018 26.7482 27.0184 26.7482C27.6361 26.7482 28.1384 27.2408 28.1384 27.8422C28.1384 28.1572 28.0115 28.4435 27.7944 28.6295C27.7813 28.6414 27.771 28.6509 27.7567 28.6622C27.5453 28.8172 27.1475 28.8076 27.055 28.8076C26.959 28.8076 26.8555 28.8381 26.8521 28.953C26.8487 29.0669 27.0367 29.0855 27.0367 29.0855C27.227 29.0669 28.0241 29.0669 28.0241 29.0669C28.0367 28.9767 28.0801 28.8009 28.1967 28.6819C28.7355 28.1521 29.059 27.5034 29.1315 27.0683C29.2624 26.2747 28.8927 25.5708 28.7567 25.1909C28.6578 24.9114 28.6481 24.7192 28.6704 24.3759ZM25.779 29.3267C25.4847 29.3408 25.175 29.3245 24.8578 29.2771C24.3738 29.205 23.8624 29.1075 23.3492 28.9265L23.1647 29.1802C23.7241 29.3887 24.2841 29.4941 24.8115 29.5724C25.1321 29.6209 25.443 29.6378 25.7452 29.6282C25.7452 29.5527 25.803 29.484 25.803 29.484C25.775 29.4377 25.775 29.3746 25.779 29.3267ZM27.5635 29.1926C27.3858 29.1678 27.087 29.1593 26.9921 29.174C26.8521 29.1971 26.8835 29.3098 26.955 29.3887C27.0298 29.4676 27.4904 29.7094 27.5715 29.7376C27.6504 29.7675 27.7955 29.8221 27.8595 29.728C27.9578 29.5747 28.0281 29.4699 28.007 29.3684C27.983 29.2625 27.7595 29.2247 27.5635 29.1926ZM32.8327 16.2475C31.1533 16.3546 30.0361 16.7396 29.2241 16.9797C29.3441 17.0236 29.4407 17.0704 29.5218 17.1166C31.3378 16.6116 32.6298 16.8737 32.6298 16.8737C32.1007 17.0479 30.6184 17.2727 29.7275 17.2677C29.8167 17.3505 29.8744 17.4334 29.9241 17.5066C30.6853 17.4993 31.727 17.6723 33.0098 17.399C34.2933 17.1268 35.4144 16.3546 35.4144 16.3546C34.9555 16.238 34.0647 16.1686 32.8327 16.2475ZM19.4898 10.0089C19.439 9.6437 19.3047 8.76391 19.159 8.65457C19.0841 8.59933 18.9858 8.60553 18.8755 8.63935C18.763 8.67316 18.6441 8.74643 18.639 8.84281C18.6321 9.00344 18.8201 9.48477 19.0984 10.1352C19.263 10.0534 19.3487 10.0349 19.4898 10.0089ZM7.61782 18.8835C9.22354 18.7703 10.1978 18.5955 10.7693 18.4332C10.8653 18.3109 10.9721 18.2207 11.0853 18.1492C10.8773 18.1277 10.7555 18.0917 10.5978 18.0195C9.03611 18.462 7.85154 18.3087 7.85154 18.3087C8.49268 17.9891 9.73782 17.9322 10.3224 17.8809C10.1853 17.8009 10.1007 17.7338 10.0933 17.7265C9.39897 17.8195 7.8144 17.8059 7.21097 17.9203C6.60697 18.0342 5.71497 18.374 5.15554 18.7088C5.15554 18.7088 6.01268 18.9951 7.61782 18.8835ZM19.6098 9.9954C19.6795 9.98694 19.7527 9.98356 19.8264 9.98018C19.7824 9.63018 19.6578 9.04853 19.5864 8.8197C19.5127 8.58975 19.4201 8.42405 19.2664 8.3829C19.2664 8.3829 19.3858 8.70416 19.4521 9.03387C19.5172 9.36415 19.5664 9.68034 19.6098 9.9954ZM19.3487 10.7681C19.3487 10.7681 19.0327 11.0905 18.7241 11.1621C18.7241 11.1621 18.8504 10.838 19.3487 10.7681ZM19.1864 11.1333C19.391 11.0144 19.5658 10.745 19.6047 10.6199C19.4321 10.5962 18.9932 10.643 18.7241 10.8318C18.4555 11.0195 18.3681 11.1739 18.2744 11.3413C18.2744 11.3413 18.7561 11.3762 19.1864 11.1333ZM16.7412 9.98694H16.9555V9.6499H17.2212V9.46898H16.9555V9.18154H16.7412V9.46898H16.4732V9.6499H16.7412V9.98694ZM20.6515 10.7681C21.1487 10.838 21.2761 11.1621 21.2761 11.1621C20.9658 11.0905 20.6515 10.7681 20.6515 10.7681ZM20.3938 10.6199C20.4338 10.745 20.6093 11.0144 20.8127 11.1333C21.2424 11.3762 21.7241 11.3413 21.7241 11.3413C21.6321 11.1739 21.5453 11.0195 21.2761 10.8318C21.0058 10.643 20.5675 10.5962 20.3938 10.6199ZM22.7372 11.0606C22.8161 11.0471 22.8007 11.0522 22.9972 11.0364C22.9595 10.8622 22.8898 10.4125 22.7801 10.3121C22.6755 10.2169 22.5212 10.2084 22.4452 10.2124C22.3692 10.2169 22.2875 10.2941 22.3201 10.3944C22.351 10.4987 22.691 10.9969 22.7372 11.0606ZM19.8904 8.28709H20.107V7.94836H20.3727V7.76857H20.107V7.48169H19.8904V7.76857H19.6258V7.94836H19.8904V8.28709ZM20.9001 10.1352C21.1807 9.48477 21.3664 9.00344 21.359 8.84281C21.355 8.74643 21.2361 8.67316 21.1258 8.63935C21.0132 8.60553 20.9127 8.59933 20.8401 8.65457C20.695 8.76391 20.5584 9.6437 20.5087 10.0089C20.6515 10.0349 20.7372 10.0534 20.9001 10.1352ZM20.3892 9.9954C20.4321 9.68034 20.4824 9.36415 20.5475 9.03387C20.6132 8.70416 20.7332 8.3829 20.7332 8.3829C20.5778 8.42405 20.4852 8.58975 20.4138 8.8197C20.3407 9.04853 20.2178 9.63018 20.1732 9.98018C20.2458 9.98356 20.3184 9.98694 20.3892 9.9954ZM17.0018 11.0364C17.1978 11.0522 17.183 11.0471 17.2607 11.0606C17.3064 10.9969 17.6464 10.4987 17.6801 10.3944C17.711 10.2941 17.6298 10.2169 17.5521 10.2124C17.4767 10.2084 17.3213 10.2169 17.2184 10.3121C17.1093 10.4125 17.0401 10.8622 17.0018 11.0364ZM10.8938 14.3566L11.0435 14.4169C11.2069 14.484 11.3681 14.5578 11.5087 14.6266C11.3338 14.4406 11.1847 14.249 11.0727 14.054C10.9915 13.9159 10.9338 13.7688 10.8955 13.6262L10.8492 13.4701C10.3652 13.1539 9.86581 12.637 9.52409 12.3316C9.18123 12.025 8.69438 11.4101 8.42581 10.6402C8.74638 10.8425 9.03609 11.0939 9.37838 11.5098C9.87781 12.1174 10.4001 12.7746 10.8384 13.3201L10.8235 13.1212C10.8207 13.0304 10.8235 12.9448 10.8258 12.8659L10.8241 12.8433C10.4549 12.0836 9.85495 11.1497 9.38752 10.4908C9.00809 9.95313 8.13724 8.96568 7.53152 8.4635C7.39095 9.08291 7.16638 10.2394 7.70352 11.2359C8.23952 12.2318 9.56009 13.6639 10.8938 14.3566ZM10.6207 15.3052C10.567 15.2313 10.4321 15.0431 10.3864 14.9631C9.73039 14.652 9.56411 14.5539 9.24011 14.3797C8.87611 14.1847 8.43211 13.8928 7.99554 13.5552C7.61782 13.2632 7.14868 12.6675 7.14868 12.6675C7.65782 12.8354 8.16982 13.1939 8.51154 13.4453C8.95439 13.7722 9.66639 14.298 10.267 14.7709L10.0487 14.1492C9.34754 13.6127 8.33668 12.6494 8.00068 12.3225C7.66582 11.9934 6.37154 10.9017 5.77611 10.7861C5.77611 10.7861 5.60297 12.0205 6.21668 12.8478C6.83039 13.6758 8.81554 15.011 10.6207 15.3052ZM10.075 17.5066C10.1241 17.4334 10.1818 17.3505 10.271 17.2677C9.38011 17.2727 7.89954 17.0479 7.36982 16.8737C7.36982 16.8737 8.66125 16.6116 10.4761 17.1166C10.5578 17.0704 10.655 17.0236 10.7755 16.9797C9.96125 16.7396 8.84582 16.3546 7.16525 16.2475C5.93382 16.1686 5.04525 16.238 4.58468 16.3546C4.58468 16.3546 5.70697 17.1268 6.98868 17.399C8.27211 17.6723 9.31382 17.4993 10.075 17.5066ZM13.0081 15.4934C12.8424 15.286 12.7132 14.9974 12.6184 14.6582C12.5407 14.382 12.363 13.6966 12.2578 13.5197C12.1532 13.3416 11.7738 12.7205 11.0338 12.5277C11.0338 12.5277 10.8361 13.3376 11.2087 13.9767C11.5287 14.5302 12.1887 15.1113 13.0081 15.4934ZM6.50353 15.6394C7.71325 16.1309 9.96125 16.4121 11.1035 16.8996C10.5721 16.6528 10.4761 16.2053 10.4721 16.1822C9.83096 16.0621 9.48868 16.0204 8.69839 15.773C7.90125 15.5244 7.41725 15.2116 7.41725 15.2116C7.76125 15.2437 8.16696 15.2736 8.71896 15.4247C9.41553 15.6152 9.77325 15.7375 10.5407 16.0243C10.731 15.9004 10.9584 15.8412 11.1624 15.835C10.6127 15.5949 9.04182 15.0206 8.01039 14.7117C7.12925 14.4468 5.98582 14.1098 4.57153 14.147C4.57153 14.147 4.87039 14.9743 6.50353 15.6394ZM16.4401 11.0606C16.5195 11.0471 16.5041 11.0522 16.6995 11.0364C16.663 10.8622 16.5927 10.4125 16.4835 10.3121C16.3801 10.2169 16.2258 10.2084 16.1504 10.2124C16.0721 10.2169 15.9921 10.2941 16.0241 10.3944C16.0544 10.4987 16.3955 10.9969 16.4401 11.0606ZM13.3395 15.6101C13.6835 15.8772 13.8298 16.1438 13.8298 16.1438C13.0081 15.6231 12.4892 15.9477 12.4892 15.9477C12.6487 16.792 13.3675 16.9475 13.3675 16.9475C12.5904 16.8619 12.2738 17.2434 12.2738 17.2434C12.5607 17.8629 13.3104 17.8922 13.3104 17.8922C12.6487 18.3994 12.7652 18.7646 12.7652 18.7646C13.4978 18.9343 13.9012 18.5815 13.9012 18.5815C13.3395 19.3006 13.7727 19.8344 13.7727 19.8344C14.5207 19.7374 14.767 19.158 14.767 19.158C14.6932 19.809 15.0247 19.9764 15.0247 19.9764C15.4281 19.8479 15.631 19.4979 15.631 19.4979C15.8464 19.9482 16.3498 20.0339 16.3498 20.0339C16.567 19.6236 16.4092 19.2443 16.4092 19.2443C16.8418 19.3728 16.9715 19.1169 16.9715 19.1169C16.6961 18.8204 16.539 18.3571 16.539 18.3571C15.7887 18.6519 14.8658 18.498 14.6058 18.2016C14.3498 17.9051 14.7801 17.1454 15.0121 16.6094C15.2412 16.0745 14.939 15.6941 14.667 15.5109C13.4412 14.6931 12.9944 14.0872 12.7207 13.4971C12.5755 14.595 12.9944 15.3413 13.3395 15.6101ZM14.6738 9.7553C14.8373 9.71415 15.0555 9.5462 15.2321 9.40811C15.4081 9.26777 15.523 9.27905 15.523 9.27905C15.4607 9.23058 15.3333 9.14096 15.1258 9.18154C14.7967 9.24523 14.4047 9.61778 14.4047 9.61778C14.3864 9.65441 14.3864 9.74515 14.3961 9.77897C14.4755 9.7863 14.5098 9.79813 14.6738 9.7553ZM15.1487 10.1724C15.0715 10.3161 14.9578 10.497 15.0087 10.7551C15.0681 11.0454 15.5475 11.1553 15.5475 11.1553C15.4601 11.0679 15.3858 10.9609 15.3784 10.8583C15.3641 10.6497 15.4892 10.4784 15.5744 10.3477C15.659 10.2169 15.8218 9.87309 15.8241 9.73726C15.8275 9.60425 15.7018 9.45208 15.5561 9.30835C15.5744 9.3743 15.5475 9.47349 15.4967 9.59241C15.4401 9.72374 15.2195 10.0371 15.1487 10.1724ZM14.0018 11.3216C14.0018 11.2641 14.0047 11.21 14.0133 11.1553C14.0333 11.0144 14.035 10.8966 14.0195 10.7969C13.8281 10.869 13.699 10.9141 13.4355 11.3289C13.4355 11.3289 13.8555 11.0764 14.0018 11.3216ZM14.1704 11.1762C14.1333 11.4382 14.1881 11.7178 14.3687 11.9793C14.3738 11.8773 14.4441 11.5504 14.5315 11.3216C14.6384 11.0386 14.5761 10.6289 14.4464 10.3815C14.3224 10.1414 14.2544 9.91649 14.275 9.66681C14.275 9.66681 14.0281 9.7491 13.8841 9.8359C13.8613 10.1233 14.0333 10.4125 14.115 10.5754C14.2115 10.7692 14.1915 11.0223 14.1704 11.1762ZM15.8361 11.6964C15.9132 11.8925 16.2281 12.1247 16.2281 12.1247C16.1395 11.9523 16.0744 11.7076 16.0544 11.4608C15.739 11.3661 15.7578 11.5019 15.8361 11.6964ZM15.7367 21.9919C15.6258 21.8515 15.5453 21.7101 15.4853 21.5742C15.6144 22.5989 15.659 23.2893 16.2258 23.9527C16.2258 23.9527 16.567 23.5097 16.347 22.4298C16.2533 22.4039 16.1447 22.3582 16.043 22.2917C16.043 22.2917 16.1715 22.7302 16.0898 23.1693C16.0898 23.1693 15.8875 23.0255 15.7367 21.9919ZM17.3001 13.5197C17.4201 13.6155 17.523 13.7637 17.5698 14.0145C17.639 14.3645 17.8481 14.7404 17.911 14.8549L17.9367 14.8492C17.899 14.6091 18.051 14.1092 18.0927 14.0365C18.0927 14.0365 17.8693 13.9007 17.767 13.7598C17.6921 13.6555 17.5607 13.4808 17.1944 13.2593C17.1315 13.2638 16.9624 13.3015 16.8801 13.3269C16.8801 13.3269 17.1595 13.4064 17.3001 13.5197ZM21.2841 25.8318C21.4767 26.064 21.8938 26.7352 22.5372 26.7409C22.5372 26.7409 22.4424 26.4258 22.1567 26.2443C21.871 26.064 21.5064 25.8318 21.3418 25.5522C21.179 25.2738 21.0058 25.1447 20.8875 25.0929C20.8624 25.2969 20.7612 25.4851 20.6515 25.6824C20.6515 25.6824 21.0212 27.3501 22.359 27.4798C22.359 27.4798 22.3304 27.1337 21.9355 26.8699C21.5384 26.6078 20.947 26.1975 20.9892 25.5781C20.9892 25.5781 21.095 25.5995 21.2841 25.8318ZM16.0253 25.404C16.0253 25.404 16.3384 25.1954 16.6813 25.0675C16.9053 24.9824 17.0144 24.7541 17.2515 24.5259C16.9853 24.6206 16.383 24.7141 16.1327 24.7868C15.8813 24.8601 15.6984 24.9858 15.4584 25.2428C15.4584 25.2428 15.8275 25.3442 16.0253 25.404ZM17.9881 13.7338C18.0167 13.3782 17.8395 13.1697 17.5807 12.991C17.3772 12.845 16.9527 12.7154 16.8664 12.6923C17.0401 12.9408 17.3698 13.2226 17.551 13.3241C17.7812 13.4509 17.9881 13.7338 17.9881 13.7338ZM19.9995 10.8543C20.091 10.8543 20.1635 10.7816 20.1635 10.6926C20.1635 10.6035 20.091 10.532 19.9995 10.532C19.9081 10.532 19.8327 10.6035 19.8327 10.6926C19.8327 10.7816 19.9081 10.8543 19.9995 10.8543ZM22.4155 11.7894C22.8407 11.8424 23.3395 11.8209 23.3395 11.8209C23.3121 11.9748 23.2481 12.0909 23.1361 12.1625C23.1093 11.8277 22.4155 11.8238 22.4155 11.8238V11.7894ZM21.063 12.5649C21.5104 12.4708 21.6527 12.2262 21.7287 12.132C21.7287 12.132 21.6704 12.3659 21.6973 12.4601C21.6973 12.4601 21.8938 12.4482 22.0475 12.2606C22.0475 12.2606 21.9355 12.4482 21.9127 12.6072C21.9127 12.6072 22.0355 12.6213 22.2538 12.4933C22.2538 12.4933 22.2098 12.6106 22.2024 12.7458C22.2024 12.7458 22.7167 12.5835 22.9675 12.3547C22.9675 12.3547 22.9715 12.5119 22.9595 12.6027C22.9595 12.6027 23.7584 12.5232 23.819 11.3813C23.819 11.3813 23.2864 11.5752 22.7521 11.5504C22.2173 11.5233 21.2327 11.5132 20.9127 11.361C20.9127 11.361 20.9658 11.5577 21.2207 11.6704C21.2207 11.6704 21.0881 11.6704 20.9561 11.7832C20.9561 11.7832 21.0327 11.9449 21.259 12.03C21.259 12.03 20.8521 12.4432 20.4161 12.415C20.4161 12.415 20.615 12.659 21.063 12.5649ZM23.1504 11.3481C23.4504 11.3481 23.6927 11.3064 23.6927 11.2539C23.6927 11.1993 23.4504 11.1581 23.1504 11.1581C22.8527 11.1581 22.6093 11.1993 22.6093 11.2539C22.6093 11.3064 22.8527 11.3481 23.1504 11.3481ZM22.923 19.2409C22.9172 19.2341 22.9127 19.2302 22.9098 19.2234L22.8835 19.2584C22.7875 19.3491 22.7178 19.3981 22.5544 19.4799C22.5544 19.4799 22.3167 19.9206 22.6041 20.4526C22.8898 20.9864 23.131 21.5297 23.2481 21.8312C23.2481 21.8312 23.4018 21.8087 23.5721 20.9757C23.6887 20.4109 23.835 20.2695 23.9864 20.0756C23.8195 20.1573 23.6875 20.181 23.675 20.1844L23.5612 20.203L23.5081 20.1032C23.4047 19.9133 23.3772 19.7284 23.3772 19.574C23.3772 19.5232 23.3795 19.4753 23.3847 19.4325C23.1184 19.4381 22.9761 19.3074 22.923 19.2409ZM23.4007 10.2332C23.4007 10.1109 23.2481 10.0743 23.1692 10.0743H23.1258C23.0481 10.0743 22.8955 10.1109 22.8955 10.2332C22.8955 10.3572 23.0932 10.6559 23.1452 10.7878H23.1504C23.203 10.6559 23.4007 10.3572 23.4007 10.2332ZM18.655 13.558C18.4475 13.3241 18.1824 12.7458 18.1824 12.7458C18.0973 12.7374 17.9978 12.712 17.9178 12.6923C17.9224 12.7655 17.9201 12.9155 17.9201 12.9155C17.8315 12.8935 17.5653 12.8157 17.5653 12.8157C17.8813 13.0316 17.979 13.111 18.131 13.2638C18.4007 13.5388 18.5515 13.8809 18.5515 13.8809C18.667 13.6859 18.655 13.558 18.655 13.558ZM18.1824 24.5338C17.8807 24.6211 17.8132 24.9559 17.8132 24.9559C17.9452 25.0173 18.003 25.1751 18.271 25.1751C18.5607 25.1751 18.8927 24.8905 19.1184 24.5056C19.2778 24.23 19.3521 23.6782 19.3521 23.5801C19.1218 23.9904 18.5538 24.425 18.1824 24.5338ZM19.671 17.5833C19.7967 17.771 19.8898 17.8093 19.9995 17.8606C20.1087 17.8093 20.2007 17.771 20.3281 17.5833C20.4247 17.4356 20.5178 17.164 20.4658 16.9695C20.4001 16.73 20.2687 16.6347 20.1881 16.4848C20.123 16.5446 20.083 16.5908 20.003 16.6347H19.9995C19.9184 16.5908 19.8772 16.5446 19.811 16.4848C19.7292 16.6347 19.5995 16.73 19.5321 16.9695C19.4807 17.164 19.5732 17.4356 19.671 17.5833ZM19.9967 16.4206H20.003C20.1515 16.2949 20.2847 16.1066 20.3281 15.9967C20.3681 15.8863 20.379 15.7245 20.2795 15.5999C20.1613 15.4517 20.0121 15.286 20.003 15.1508H19.9955C19.9841 15.286 19.8367 15.4517 19.7178 15.5999C19.6184 15.7245 19.6287 15.8863 19.6727 15.9967C19.7133 16.1066 19.847 16.2949 19.9967 16.4206ZM18.063 26.8699C17.667 27.1337 17.6413 27.4798 17.6413 27.4798C18.9767 27.3501 19.347 25.6824 19.347 25.6824C19.2361 25.4851 19.1361 25.2969 19.1081 25.0929C18.9933 25.1447 18.8201 25.2738 18.655 25.5522C18.491 25.8318 18.1275 26.064 17.8418 26.2443C17.5561 26.4258 17.4595 26.7409 17.4595 26.7409C18.1064 26.7352 18.523 26.064 18.7121 25.8318C18.9024 25.5995 19.0075 25.5781 19.0075 25.5781C19.0504 26.1975 18.459 26.6078 18.063 26.8699ZM22.4155 12.991C22.1595 13.1697 21.983 13.3782 22.0098 13.7338C22.0098 13.7338 22.2184 13.4509 22.4475 13.3241C22.6304 13.2226 22.9595 12.9408 23.131 12.6923C23.0481 12.7154 22.623 12.845 22.4155 12.991ZM21.8172 12.7458C21.8172 12.7458 21.551 13.3241 21.3447 13.558C21.3447 13.558 21.3321 13.6859 21.4475 13.8809C21.4475 13.8809 21.5978 13.5388 21.8664 13.2638C22.0195 13.111 22.1167 13.0316 22.4332 12.8157C22.4332 12.8157 22.167 12.8935 22.079 12.9155C22.079 12.9155 22.0738 12.7655 22.083 12.6923C22.0024 12.712 21.9035 12.7374 21.8172 12.7458ZM20.3201 8.66527C20.3201 8.49168 20.1767 8.35078 19.9995 8.35078C19.8201 8.35078 19.6773 8.49168 19.6773 8.66527C19.6773 8.88677 19.959 9.39233 19.9938 9.62849H20.0047C20.0407 9.39233 20.3201 8.88677 20.3201 8.66527ZM22.8047 13.2593C22.439 13.4808 22.3052 13.6555 22.231 13.7598C22.1304 13.9007 21.9075 14.0365 21.9075 14.0365C21.9475 14.1092 22.1018 14.6091 22.063 14.8492L22.0864 14.8549C22.1498 14.7404 22.3612 14.3645 22.4281 14.0145C22.475 13.7637 22.5801 13.6155 22.699 13.5197C22.8378 13.4064 23.1184 13.3269 23.1184 13.3269C23.0361 13.3015 22.8687 13.2638 22.8047 13.2593ZM21.8618 15.2404C21.8172 15.3993 21.8047 15.6405 21.8618 15.8688C21.9064 16.0429 22.015 16.269 22.223 16.3958C22.4018 16.5057 22.8241 16.531 22.9864 16.1399C22.9864 16.1399 22.2138 16.1979 21.8618 15.2404ZM17.7772 16.3958C17.9847 16.269 18.0927 16.0429 18.1367 15.8688C18.195 15.6405 18.1807 15.3993 18.1367 15.2404C17.7864 16.1979 17.0121 16.1399 17.0121 16.1399C17.1727 16.531 17.5978 16.5057 17.7772 16.3958ZM14.4778 19.7267C14.3098 19.8468 14.0875 19.9505 13.7927 19.9894C12.9201 20.7795 13.0212 21.1025 13.0212 21.1025C13.4601 21.1679 13.8555 20.9486 14.1544 20.7187C14.3498 20.5637 14.4864 20.3512 14.5315 20.1567C14.5732 19.9634 14.5155 19.8276 14.4778 19.7267ZM10.6693 18.9546C10.6693 18.9546 10.9727 19.2076 11.5264 19.0983C11.9967 19.003 12.4041 18.8075 12.639 18.4755C12.7104 18.3695 12.7613 18.2055 12.915 18.0393C12.5755 17.9806 12.2687 17.9761 11.8698 18.0528C11.3955 18.1396 10.9115 18.2484 10.6693 18.9546ZM12.4041 15.8169C12.4167 15.8096 12.5698 15.7172 12.831 15.6969C12.6115 15.5368 12.0847 15.1062 11.715 14.8994C11.307 14.6768 10.6338 14.382 10.291 14.3386C10.291 14.3386 10.6127 15.1626 10.9858 15.4968C11.3761 15.8412 11.6475 15.9697 12.3138 15.8739L12.4041 15.8169ZM13.2841 29.0855C13.219 29.1802 13.2647 29.2822 13.4481 29.3684C13.6304 29.4524 13.975 29.5217 14.0453 29.4304C14.111 29.3357 14.0173 29.1802 13.6304 29.081C13.5704 29.0669 13.3338 29.01 13.2841 29.0855ZM10.195 17.607C10.195 17.607 10.6601 17.9885 11.1927 18.0009C11.7275 18.0178 12.2218 17.8662 12.4367 17.7112C12.3184 17.6081 12.207 17.4779 12.1287 17.3077L12.0904 17.2198C11.679 17.0558 11.251 16.9712 10.8298 17.124C10.411 17.2778 10.3001 17.4537 10.195 17.607ZM10.6292 16.1523C10.6292 16.1523 10.7292 16.6714 11.4138 16.8495C12.0601 17.0146 12.2978 16.9712 12.5607 16.8855C12.6315 16.8591 12.7104 16.8343 12.8001 16.8162C12.6207 16.6607 12.4395 16.4206 12.3538 16.0644C12.1624 16.1066 11.715 16.1066 11.5178 16.0351C11.319 15.9601 10.9321 15.9578 10.6292 16.1523ZM20.7464 29.7472C20.8572 29.9129 21.075 30.2353 21.2921 30.5548L21.535 30.2217L20.8927 29.272L20.711 29.0038L20.0864 30.1051L20.3161 30.5063C20.5001 30.1851 20.6652 29.8954 20.7464 29.7472ZM27.8115 28.4644C27.6624 28.3009 27.4761 28.191 27.3064 28.1572C26.8218 28.0614 26.6527 28.3748 26.3727 28.4717C26.0944 28.5686 25.9138 28.3748 25.6487 27.748C25.383 27.1213 24.9167 26.2787 24.6378 25.9648C24.5458 25.8616 24.2521 25.8628 24.2047 25.8622C24.159 25.8616 24.1144 25.8774 24.111 25.9293C24.1087 25.9794 24.1087 26.2612 24.1087 26.2612C24.0127 26.1964 23.7961 26.0595 23.6875 26.0476C23.5761 26.0318 23.3315 26.3086 23.4453 26.3294C24.6618 26.5622 25.2441 27.8703 25.4807 28.3624C25.6035 28.6154 25.6733 28.8893 25.7373 29.1514C26.0875 29.1142 26.3413 29.059 26.5853 28.8933C26.8264 28.7265 27.2601 28.634 27.4904 28.634C27.7161 28.634 27.7687 28.5405 27.8115 28.4644ZM19.159 10.3076C19.159 10.4029 19.5355 10.4829 19.9995 10.4829C20.4641 10.4829 20.8401 10.4029 20.8401 10.3076C20.8401 10.2107 20.4641 10.1318 19.9995 10.1318C19.5355 10.1318 19.159 10.2107 19.159 10.3076ZM20.8058 27.8286C20.5847 27.6308 20.0807 26.9314 20.0012 26.7104H19.9967C19.9195 26.9314 19.4132 27.6308 19.1904 27.8286C18.9692 28.0287 18.4298 28.5568 18.143 28.8183C18.143 28.8183 18.963 28.6199 19.4235 28.2108C19.4235 28.2108 19.7527 28.3967 19.9932 28.3967H20.0047C20.2441 28.3967 20.5727 28.2108 20.5727 28.2108C21.035 28.6199 21.8561 28.8183 21.8561 28.8183C21.5675 28.5568 21.0287 28.0287 20.8058 27.8286ZM20.0035 28.5608H19.9932C19.811 28.5608 19.6395 28.4914 19.5435 28.4492C19.6395 28.6504 19.8218 28.9604 19.9967 29.0877H19.9995C20.1744 28.9604 20.3567 28.6504 20.4538 28.4492C20.3567 28.4914 20.1847 28.5608 20.0035 28.5608ZM14.5172 28.3624C14.755 27.8703 15.3372 26.5622 16.551 26.3294C16.6658 26.3086 16.4201 26.0318 16.3121 26.0476C16.2024 26.0595 15.9858 26.1964 15.891 26.2612C15.891 26.2612 15.891 25.9794 15.8875 25.9293C15.8847 25.8774 15.839 25.8616 15.7915 25.8622C15.7447 25.8628 15.4515 25.8616 15.3578 25.9648C15.0818 26.2787 14.6138 27.1213 14.3498 27.748C14.0847 28.3748 13.9047 28.5686 13.6247 28.4717C13.3452 28.3748 13.1778 28.0614 12.6921 28.1572C12.523 28.191 12.335 28.3009 12.1887 28.4644C12.2292 28.5405 12.2812 28.634 12.5098 28.634C12.7367 28.634 13.1704 28.7265 13.4132 28.8933C13.6567 29.059 13.9115 29.1142 14.2601 29.1514C14.3241 28.8893 14.3955 28.6154 14.5172 28.3624ZM16.8475 11.3481C17.1475 11.3481 17.3881 11.3064 17.3881 11.2539C17.3881 11.1993 17.1475 11.1581 16.8475 11.1581C16.5487 11.1581 16.3075 11.1993 16.3075 11.2539C16.3075 11.3064 16.5487 11.3481 16.8475 11.3481ZM17.5807 11.7894V11.8238C17.5807 11.8238 16.8898 11.8277 16.8624 12.1625C16.751 12.0909 16.6852 11.9748 16.6601 11.8209C16.6601 11.8209 17.1584 11.8424 17.5807 11.7894ZM17.0401 12.6027C17.0281 12.5119 17.031 12.3547 17.031 12.3547C17.2812 12.5835 17.7972 12.7458 17.7972 12.7458C17.7887 12.6106 17.7424 12.4933 17.7424 12.4933C17.963 12.6213 18.0864 12.6072 18.0864 12.6072C18.063 12.4482 17.9521 12.2606 17.9521 12.2606C18.1047 12.4482 18.3007 12.4601 18.3007 12.4601C18.3287 12.3659 18.2704 12.132 18.2704 12.132C18.3458 12.2262 18.4892 12.4708 18.9355 12.5649C19.3824 12.659 19.5835 12.415 19.5835 12.415C19.1464 12.4432 18.739 12.03 18.739 12.03C18.9664 11.9449 19.043 11.7832 19.043 11.7832C18.9127 11.6704 18.7784 11.6704 18.7784 11.6704C19.0327 11.5577 19.0841 11.361 19.0841 11.361C18.767 11.5132 17.7812 11.5233 17.2481 11.5504C16.7127 11.5752 16.1784 11.3813 16.1784 11.3813C16.2395 12.5232 17.0401 12.6027 17.0401 12.6027ZM12.295 19.7645C12.8092 19.7036 13.1944 19.4675 13.4704 19.131C13.4807 19.0803 13.5041 18.9844 13.5275 18.9196C13.323 18.9715 13.055 18.9912 12.7281 18.9157L12.639 18.8943L12.6115 18.8108C12.215 19.127 11.7447 19.1794 11.5824 19.4663C11.5824 19.4663 11.7801 19.822 12.295 19.7645ZM17.1018 10.2332C17.1018 10.1109 16.9504 10.0743 16.8721 10.0743H16.8287C16.751 10.0743 16.5972 10.1109 16.5972 10.2332C16.5972 10.3572 16.7961 10.6559 16.8475 10.7878H16.8527C16.9064 10.6559 17.1018 10.3572 17.1018 10.2332ZM16.4384 20.203L16.3241 20.1844C16.3121 20.181 16.1784 20.1573 16.0115 20.0756C16.1647 20.2695 16.311 20.4109 16.4264 20.9757C16.5972 21.8087 16.751 21.8312 16.751 21.8312C16.8664 21.5297 17.107 20.9864 17.3938 20.4526C17.6807 19.9206 17.4447 19.4799 17.4447 19.4799C17.2795 19.3981 17.2087 19.3491 17.1178 19.2584L17.0887 19.2234C17.0858 19.2302 17.0807 19.2341 17.0772 19.2409C17.0218 19.3074 16.8807 19.4381 16.6144 19.4325C16.6201 19.4753 16.6241 19.5232 16.6241 19.574C16.6241 19.7284 16.5927 19.9133 16.4904 20.1032L16.4384 20.203ZM12.4481 22.6845C12.8921 21.9152 13.1658 21.4299 13.3515 21.258C13.2321 21.2727 13.1121 21.2727 12.9961 21.2535L12.8995 21.2389C12.6258 21.7242 12.0847 22.52 11.5972 22.7978C11.5972 22.7978 11.4732 22.1531 12.9052 20.8466C12.9247 20.7936 12.9538 20.7322 12.9944 20.6651C12.8635 20.7119 12.7138 20.7373 12.547 20.7345L12.5281 20.7361C11.979 21.2727 10.8207 22.4788 10.9287 23.7853C10.9287 23.7853 12.0058 23.4567 12.4481 22.6845ZM13.6458 19.9324C13.6367 19.9178 13.4973 19.7374 13.4601 19.4511C13.2218 19.5351 13.055 19.5802 12.7081 19.809C12.1938 20.1449 12.4041 20.5682 12.4041 20.5682C13.1744 20.6708 13.5441 20.0514 13.6458 19.9324ZM19.5733 20.6708C19.631 20.4893 19.8773 20.1539 19.8835 19.6067C19.8841 19.3998 19.507 19.0639 19.4018 18.7973C19.0504 19.1028 19.003 19.7183 19.0435 19.924C19.1235 20.323 19.5733 20.6708 19.5733 20.6708ZM12.0075 25.1306C12.4207 25.4981 12.8424 25.7004 13.0653 25.4632C13.3024 25.209 13.0458 24.8313 12.6338 24.4627C12.2247 24.0947 11.8195 23.8726 11.5813 24.1285C11.339 24.3833 11.5973 24.7615 12.0075 25.1306ZM13.887 23.3744C14.1915 22.8852 14.2681 21.9056 14.3338 20.952C14.3281 20.8928 14.3252 20.832 14.3252 20.7756C14.3018 20.7987 14.2755 20.8184 14.2527 20.8393C14.1881 20.8878 14.1258 20.9328 14.0635 20.9729C14.0635 20.9729 13.927 22.5555 13.4778 23.0836C13.3338 22.4952 13.6812 21.732 13.8635 21.0907C13.7967 21.1233 13.7321 21.1526 13.6692 21.1763C13.1481 22.0105 12.5281 23.2076 13.0412 24.102C13.0412 24.102 13.5898 23.8535 13.887 23.3744ZM17.0807 24.935C17.0807 24.935 17.4332 25.0247 17.6572 24.9249C17.6572 24.9249 17.7384 24.5952 17.9898 24.4481C18.0458 24.416 18.2212 24.3647 18.3835 24.2841C18.3218 24.2367 18.2669 24.2057 18.1932 24.1206C18.1932 24.1206 17.9081 24.2238 17.6721 24.3793C17.4361 24.5338 17.2052 24.7987 17.0807 24.935ZM18.8487 14.8594C18.9504 14.5212 18.7327 14.1943 18.6515 14.0106C18.4681 14.1554 18.3184 14.3104 18.2933 14.7117C18.2704 15.1124 18.3801 15.6338 18.3801 15.6338C18.5195 15.3446 18.7475 15.1992 18.8487 14.8594ZM20.0012 13.5428H19.9967C19.911 13.5811 19.5578 13.7637 19.5321 14.0235C19.5075 14.2828 19.9795 14.7619 19.9938 14.9614H20.0035C20.019 14.7619 20.4898 14.2828 20.4658 14.0235C20.4418 13.7637 20.0887 13.5811 20.0012 13.5428ZM18.3567 12.5688C18.4515 12.9008 18.615 13.2131 18.7755 13.4571C18.9201 13.682 19.0121 14.0433 18.9984 14.1661C18.9984 14.1661 19.2144 13.6989 19.1053 13.3692C19.0178 13.1139 18.7853 12.73 18.3567 12.5688ZM22.1613 20.181C22.063 20.3929 21.8264 20.6009 21.7733 20.7863C21.7093 21.0039 21.6893 21.1414 21.7961 21.395C21.8938 21.6159 22.0064 21.7467 22.047 21.8814C22.047 21.8814 22.355 21.4903 22.4047 21.3268C22.4595 21.1656 22.4733 20.8979 22.4121 20.7288C22.3475 20.5575 22.2361 20.3371 22.1613 20.181ZM20.3298 14.8864C20.2721 15.1271 20.3258 15.2871 20.4373 15.4342C20.5475 15.5791 20.735 15.7375 20.911 16.0429C20.911 16.0429 21.1115 15.7826 21.1367 15.6462C21.1613 15.5092 21.1218 15.184 21.0778 15.0493C21.035 14.9107 20.8607 14.4716 20.7161 14.0235C20.7161 14.0235 20.3887 14.6429 20.3298 14.8864ZM22.9018 19.025C22.8378 18.9715 22.683 18.8317 22.6218 18.7579C22.6218 18.7579 22.3624 19.2183 22.3201 19.3536C22.3201 19.3536 22.4475 19.3869 22.5892 19.2854C22.7304 19.1851 22.7612 19.158 22.9018 19.025ZM22.0858 17.4086C21.9778 17.6149 21.7881 17.9186 21.7881 17.9186C21.8012 18.0421 21.7921 18.2551 21.8321 18.5138C21.8738 18.7714 22.2184 19.211 22.2184 19.211C22.3041 18.9799 22.507 18.6632 22.5492 18.3526C22.5738 18.1435 22.5281 17.8296 22.5281 17.8296C22.3881 17.7648 22.211 17.5602 22.0858 17.4086ZM21.2961 15.7544C21.2372 15.835 21.1355 16.0277 21.1201 16.2154C21.1081 16.4008 21.1384 16.5502 21.2424 16.8213C21.3738 17.164 21.5755 17.5467 21.6681 17.7191C21.6681 17.7191 21.8481 17.4689 21.9475 17.2434C21.9475 17.2434 21.6681 16.8675 21.5475 16.6021C21.4087 16.2898 21.3527 16.0012 21.2961 15.7544ZM20.8961 13.3692C20.7847 13.6989 21.003 14.1661 21.003 14.1661C20.9858 14.0433 21.0778 13.682 21.2235 13.4571C21.3835 13.2131 21.5458 12.9008 21.643 12.5688C21.2127 12.73 20.9801 13.1139 20.8961 13.3692ZM21.7053 14.7117C21.6801 14.3104 21.5315 14.1554 21.347 14.0106C21.2675 14.1943 21.0493 14.5212 21.1493 14.8594C21.2521 15.1992 21.4801 15.3446 21.6184 15.6338C21.6184 15.6338 21.7298 15.1124 21.7053 14.7117ZM18.9213 15.0493C18.8773 15.184 18.8395 15.5092 18.863 15.6462C18.8864 15.7826 19.0887 16.0429 19.0887 16.0429C19.263 15.7375 19.4521 15.5791 19.5607 15.4342C19.6727 15.2871 19.7258 15.1271 19.6687 14.8864C19.6098 14.6429 19.2824 14.0235 19.2824 14.0235C19.1367 14.4716 18.9635 14.9107 18.9213 15.0493ZM19.9995 26.3666C20.0355 26.4337 20.083 26.4968 20.1452 26.5543C20.4864 26.8727 20.7041 26.8423 20.8932 26.7752C20.8932 26.7752 20.331 26.5904 20.3612 26.1012C20.3938 25.6148 20.6778 25.3217 20.7264 25.0686C20.7824 24.7896 20.7635 24.523 20.5424 24.2012C20.3612 24.8009 20.1664 25.2405 20.011 25.5392C20.0058 25.5477 20.003 25.5567 19.9995 25.5657C19.9955 25.5567 19.9932 25.5477 19.987 25.5392C19.8327 25.2405 19.6367 24.8009 19.4572 24.2012C19.2361 24.523 19.2167 24.7896 19.2715 25.0686C19.3218 25.3217 19.6047 25.6148 19.6367 26.1012C19.6675 26.5904 19.1058 26.7752 19.1058 26.7752C19.2944 26.8423 19.511 26.8727 19.8538 26.5543C19.9167 26.4968 19.9635 26.4337 19.9995 26.3666ZM19.4287 27.0706L19.5355 26.8959C19.3721 26.9669 19.1635 26.9167 19.1635 26.9167C19.151 26.9314 19.1252 26.9708 19.1127 26.9956C18.555 27.801 17.9367 28.3077 17.3064 28.6391L17.4864 28.8893C18.1675 28.5275 18.8304 27.9645 19.4287 27.0706ZM22.9172 24.935C22.7898 24.7987 22.5607 24.5338 22.3264 24.3793C22.091 24.2238 21.803 24.1206 21.803 24.1206C21.7287 24.2057 21.6767 24.2367 21.6144 24.2841C21.7767 24.3647 21.9527 24.416 22.0064 24.4481C22.2584 24.5952 22.3395 24.9249 22.3395 24.9249C22.5635 25.0247 22.9172 24.935 22.9172 24.935ZM21.8138 24.5338C21.4447 24.425 20.8755 23.9904 20.6441 23.5801C20.6441 23.6782 20.7184 24.23 20.8801 24.5056C21.1058 24.8905 21.4361 25.1751 21.7264 25.1751C21.9955 25.1751 22.0532 25.0173 22.1841 24.9559C22.1841 24.9559 22.1167 24.6211 21.8138 24.5338ZM17.0681 26.3232C17.1475 26.3627 17.5155 26.5092 17.7538 26.0279C17.7538 26.0279 17.3464 26.1592 17.2361 25.9681C17.1264 25.776 17.3064 25.4981 17.4167 25.4175C17.5607 25.311 17.8224 25.2405 17.979 25.267C17.979 25.267 17.8527 25.1487 17.7018 25.072C17.6664 25.09 17.6047 25.1193 17.4647 25.1239C17.4647 25.1239 16.9395 25.4801 16.8778 25.8363C16.827 26.14 16.9898 26.2855 17.0681 26.3232ZM18.051 17.2434C18.1498 17.4689 18.3293 17.7191 18.3293 17.7191C18.423 17.5467 18.627 17.164 18.7561 16.8213C18.8601 16.5502 18.8915 16.4008 18.8773 16.2154C18.863 16.0277 18.7607 15.835 18.7018 15.7544C18.647 16.0012 18.5893 16.2898 18.4515 16.6021C18.331 16.8675 18.051 17.2434 18.051 17.2434ZM17.0972 19.025C17.2361 19.158 17.2687 19.1851 17.4092 19.2854C17.551 19.3869 17.6801 19.3536 17.6801 19.3536C17.6361 19.2183 17.3795 18.7579 17.3795 18.7579C17.3144 18.8317 17.1595 18.9715 17.0972 19.025ZM17.471 17.8296C17.471 17.8296 17.4241 18.1435 17.4498 18.3526C17.4915 18.6632 17.6938 18.9799 17.7813 19.211C17.7813 19.211 18.1253 18.7714 18.1653 18.5138C18.2041 18.2551 18.199 18.0421 18.2121 17.9186C18.2121 17.9186 18.0201 17.6149 17.915 17.4086C17.7887 17.5602 17.6093 17.7648 17.471 17.8296ZM16.7761 24.4836C16.7761 24.4836 17.1521 24.4024 17.4407 24.3077C17.7561 24.2057 17.9738 24.0688 18.0927 24.0023C18.0361 23.9183 17.9241 23.7656 17.9481 23.5255C17.9481 23.5255 17.4515 23.8337 17.3064 23.9487C17.1561 24.0688 16.8452 24.381 16.7761 24.4836ZM17.9527 21.8814C17.991 21.7467 18.1064 21.6159 18.2024 21.395C18.3098 21.1414 18.2887 21.0039 18.2264 20.7863C18.1727 20.6009 17.9367 20.3929 17.8395 20.181C17.763 20.3371 17.6498 20.5575 17.5881 20.7288C17.5241 20.8979 17.5412 21.1656 17.5921 21.3268C17.6441 21.4903 17.9527 21.8814 17.9527 21.8814ZM16.8144 25.5415C16.8624 25.4547 17.0658 25.1594 17.2555 25.1193C17.2555 25.1193 17.095 25.1047 17.0024 25.076C17.0024 25.076 16.8092 25.125 16.671 25.1802C16.5338 25.2343 16.3624 25.3183 16.1601 25.4468C16.203 25.4603 16.4367 25.5291 16.6641 25.67C16.6641 25.67 16.7641 25.6328 16.8144 25.5415ZM20.5492 16.0012C20.4567 16.1991 20.4361 16.4121 20.4658 16.5378C20.4967 16.6629 20.6607 16.8467 20.6778 17.0535C20.7041 17.377 20.4458 17.771 20.4458 17.771C20.6847 17.6543 20.9561 17.381 21.075 17.2085C21.1932 17.036 21.1058 16.7869 21.0538 16.6573C21.003 16.5265 20.6207 16.0779 20.5492 16.0012ZM18.3567 18.1976C18.2704 18.5944 18.6984 18.8306 18.8984 19.1856C18.9504 19.0431 19.1167 18.6553 19.3075 18.5211C19.3075 18.5211 19.5515 17.8172 18.7652 17.3832C18.7652 17.3832 18.4418 17.8025 18.3567 18.1976ZM18.9458 16.6573C18.8938 16.7869 18.8058 17.036 18.9235 17.2085C19.043 17.381 19.3161 17.6543 19.5515 17.771C19.5515 17.771 19.2944 17.377 19.3218 17.0535C19.3367 16.8467 19.5012 16.6629 19.5321 16.5378C19.5635 16.4121 19.5435 16.1991 19.4498 16.0012C19.379 16.0779 18.9967 16.5265 18.9458 16.6573ZM17.7698 19.5052C17.7698 19.5052 17.8007 19.7092 17.9561 20.0046C18.1098 20.2977 18.3241 20.5039 18.439 20.6082C18.439 20.6082 18.6967 20.1714 18.7727 19.9786C18.8578 19.7583 18.8487 19.5413 18.8127 19.4601C18.7241 19.2691 18.423 18.9935 18.2887 18.7539C18.2584 18.8706 17.8418 19.4353 17.7698 19.5052ZM20.9544 19.924C20.9967 19.7183 20.9487 19.1028 20.5978 18.7973C20.4921 19.0639 20.1133 19.3998 20.1161 19.6067C20.123 20.1539 20.367 20.4893 20.4258 20.6708C20.4258 20.6708 20.8755 20.323 20.9544 19.924ZM21.2327 17.3832C20.4458 17.8172 20.6904 18.5211 20.6904 18.5211C20.8824 18.6553 21.0475 19.0431 21.099 19.1856C21.2995 18.8306 21.7287 18.5944 21.643 18.1976C21.5561 17.8025 21.2327 17.3832 21.2327 17.3832ZM22.0412 20.0046C22.195 19.7092 22.2281 19.5052 22.2281 19.5052C22.1567 19.4353 21.7407 18.8706 21.7092 18.7539C21.5755 18.9935 21.2732 19.2691 21.1881 19.4601C21.1492 19.5413 21.1384 19.7583 21.2258 19.9786C21.3024 20.1714 21.559 20.6082 21.559 20.6082C21.6744 20.5039 21.8881 20.2977 22.0412 20.0046ZM17.9595 22.5019C18.0075 22.6947 18.2173 23.1163 18.2173 23.1163C18.3058 22.9692 18.5675 22.6259 18.6338 22.3808C18.7001 22.1384 18.4641 21.7281 18.3801 21.608C17.9561 21.9936 17.9133 22.3103 17.9595 22.5019ZM23.2218 24.4836C23.1521 24.381 22.8424 24.0688 22.6927 23.9487C22.5441 23.8337 22.0481 23.5255 22.0481 23.5255C22.0738 23.7656 21.9618 23.9183 21.9064 24.0023C22.0241 24.0688 22.2418 24.2057 22.5572 24.3077C22.8452 24.4024 23.2218 24.4836 23.2218 24.4836ZM18.5384 20.7559C18.4475 20.9216 18.423 21.1893 18.487 21.3775C18.5698 21.6283 18.9504 21.9783 18.9504 21.9783C19.0613 21.7895 19.227 21.5393 19.279 21.4142C19.331 21.2851 19.3613 21.1329 19.327 20.9486C19.2835 20.7125 19.0058 20.4143 18.9144 20.2334C18.8275 20.407 18.6287 20.5879 18.5384 20.7559ZM21.1601 22.6287C21.1727 22.2968 20.6418 21.67 20.6418 21.67C20.3612 21.9338 20.2915 22.1012 20.2618 22.3661C20.2281 22.6287 20.3195 22.8277 20.439 23.0588C20.5441 23.2662 20.8235 23.5734 20.8235 23.5734C20.8607 23.3192 21.1447 23.0424 21.1601 22.6287ZM21.0487 21.9783C21.0487 21.9783 21.4281 21.6283 21.5115 21.3775C21.5755 21.1893 21.551 20.9216 21.459 20.7559C21.3687 20.5879 21.171 20.407 21.0835 20.2334C20.9932 20.4143 20.7161 20.7125 20.6721 20.9486C20.6372 21.1329 20.6692 21.2851 20.7184 21.4142C20.7704 21.5393 20.939 21.7895 21.0487 21.9783ZM21.523 24.1573C21.523 24.1573 21.7555 23.9966 21.8481 23.7881C21.9355 23.5908 21.8858 23.4505 21.795 23.3507C21.7052 23.2487 21.4944 23.012 21.4035 22.8587C21.3447 23.0407 21.1704 23.3789 21.147 23.4815C21.1058 23.6748 21.1612 23.9087 21.523 24.1573ZM20.4418 23.6861C20.4515 23.3716 20.1664 22.8824 20.003 22.6947H19.9938C19.8327 22.8824 19.5464 23.3716 19.5561 23.6861C19.5755 24.3128 19.9784 24.904 19.9995 25.0951C20.019 24.904 20.423 24.3128 20.4418 23.6861ZM18.475 24.1573C18.8355 23.9087 18.8927 23.6748 18.8504 23.4815C18.8275 23.3789 18.6527 23.0407 18.5944 22.8587C18.5052 23.012 18.2927 23.2487 18.2024 23.3507C18.1127 23.4505 18.063 23.5908 18.1487 23.7881C18.2418 23.9966 18.475 24.1573 18.475 24.1573ZM21.6184 21.608C21.5333 21.7281 21.2984 22.1384 21.3647 22.3808C21.4338 22.6259 21.6944 22.9692 21.7813 23.1163C21.7813 23.1163 21.9904 22.6947 22.0384 22.5019C22.0858 22.3103 22.0413 21.9936 21.6184 21.608ZM23.3155 25.0675C23.6607 25.1954 23.9744 25.404 23.9744 25.404C24.1692 25.3442 24.5401 25.2428 24.5401 25.2428C24.3001 24.9858 24.1167 24.8601 23.8652 24.7868C23.6121 24.7141 23.0138 24.6206 22.7464 24.5259C22.983 24.7541 23.0932 24.9824 23.3155 25.0675ZM19.7407 22.3661C19.707 22.1012 19.6367 21.9338 19.359 21.67C19.359 21.67 18.8275 22.2968 18.8395 22.6287C18.8555 23.0424 19.1367 23.3192 19.1761 23.5734C19.1761 23.5734 19.4538 23.2662 19.5607 23.0588C19.6795 22.8277 19.7698 22.6287 19.7407 22.3661ZM19.9995 19.3491C20.0521 19.1146 20.5532 18.6632 20.5058 18.4163C20.4372 18.0483 20.195 18.1261 20.003 17.9711H19.9995C19.8058 18.1261 19.5607 18.0483 19.491 18.4163C19.4464 18.6632 19.9447 19.1146 19.9967 19.3491H19.9995ZM19.9955 22.0978H20.003C20.0424 21.9451 20.283 21.7591 20.3818 21.4903C20.4418 21.3319 20.439 21.1459 20.3755 21.0196C20.2995 20.8708 20.0298 20.5073 19.9995 20.403C19.9658 20.5073 19.6995 20.8708 19.6224 21.0196C19.5578 21.1459 19.5561 21.3319 19.6144 21.4903C19.7155 21.7591 19.9555 21.9451 19.9955 22.0978Z" fill="white"/>
<path fill-rule="evenodd" clip-rule="evenodd" d="M43.3333 0H83.3333V40H43.3333V0Z" fill="#CC003D"/>
<mask id="mask0" mask-type="alpha" maskUnits="userSpaceOnUse" x="49" y="10" width="28" height="20">
<path fill-rule="evenodd" clip-rule="evenodd" d="M76.9338 10.8333L49.1667 10.8333V29.4322H76.9338V10.8333V10.8333Z" fill="white"/>
</mask>
<g mask="url(#mask0)">
<path fill-rule="evenodd" clip-rule="evenodd" d="M72.3324 23.6078C72.4503 23.1164 72.605 21.6797 72.605 21.6797H71.2251C71.2166 21.8263 71.1866 22.3172 71.1435 22.8176C71.0795 23.5594 70.8653 24.2419 70.1196 24.2419H69.5444C69.5433 24.1799 69.5444 21.6797 69.5444 21.6797H68.1413V29.4322H69.5444V25.4959C69.5444 25.4959 70.2862 25.4971 70.391 25.4959L71.7691 29.4299H73.2753L71.5884 24.8872C71.9386 24.6229 72.2111 24.1145 72.3324 23.6078ZM56.4255 14.9214C56.4374 12.8242 56.9474 12.1344 57.4852 12.1226C58.0224 12.1344 58.5324 12.8242 58.5443 14.9214V14.9226C58.5324 16.9713 58.0224 17.6713 57.4852 17.682C56.9474 17.6713 56.4374 16.9713 56.4255 14.9226V14.9214ZM57.4534 18.9524C57.4597 18.9524 57.4665 18.9535 57.4727 18.9535C57.4767 18.9535 57.4806 18.9524 57.4852 18.9524C57.4891 18.9524 57.4931 18.9535 57.4971 18.9535C57.5033 18.9535 57.5101 18.9524 57.5163 18.9524C58.4451 18.9349 59.3342 18.3736 59.7195 16.7859C59.8674 16.2459 59.9428 15.5764 59.9434 14.8854H59.9439C59.9439 14.8842 59.9405 14.6368 59.9405 14.6351C59.9162 13.5271 59.7292 12.7329 59.439 12.1676C58.9817 11.2039 58.2536 10.8432 57.5016 10.8341C57.5005 10.8341 57.4988 10.833 57.4971 10.833C57.4931 10.833 57.4891 10.8336 57.4852 10.8336C57.4806 10.8336 57.4767 10.833 57.4727 10.833C57.471 10.833 57.4693 10.8341 57.4682 10.8341C56.7162 10.8432 55.988 11.2039 55.5307 12.1676C55.2406 12.7329 55.0536 13.5271 55.0292 14.6351C55.0292 14.6368 55.0258 14.8842 55.0258 14.8854H55.0264C55.027 15.5764 55.1023 16.2459 55.2502 16.7859C55.6356 18.3736 56.5252 18.9349 57.4534 18.9524ZM51.0473 28.2328C50.9113 28.2328 50.5684 28.2013 50.5684 28.2013V25.4723C50.5684 25.4723 50.6789 25.4463 50.7991 25.4463C51.5102 25.4463 52.3506 25.4035 52.3506 26.8384C52.3506 28.1528 51.4269 28.2328 51.0473 28.2328ZM51.2173 24.216C50.9759 24.216 50.7611 24.2216 50.5684 24.2317V22.9693H53.0839V21.6797H49.1665V29.4299H51.2943C53.4154 29.4299 53.744 27.512 53.744 26.8024C53.744 25.9632 53.4176 24.216 51.2173 24.216ZM64.8926 24.1568H62.9682V21.6797H61.5691V29.4322H62.9682V25.4452H64.8926V29.4322H66.2923V21.6797H64.8926V24.1568ZM69.5348 18.7833V12.3226H70.6993V11.0337H66.9508V12.3226H68.1158V18.7833H68.1328H69.5172H69.5348ZM63.9945 15.0415V18.7833H65.3975V11.0337H63.9945V13.7328H63.2317C62.9161 13.7328 62.6821 13.6612 62.533 13.5164C62.4276 13.4155 62.3761 13.2791 62.3761 13.1021V11.0337H60.9713V13.2464C60.9713 13.7565 61.1696 14.1876 61.5612 14.5303C61.9477 14.8702 62.4203 15.0415 62.9694 15.0415H63.9945ZM50.5684 12.3226H52.3053V18.7833H53.7095V11.0337H49.1665V18.7833H50.5684V12.3226ZM56.6675 24.3783C56.6709 24.221 56.6998 23.1186 56.702 22.9693L56.9502 22.9529C57.9719 22.9529 58.1589 23.1524 58.2536 24.3783H56.6675ZM57.2829 21.6797H55.3794L55.121 29.4316H56.5077C56.5077 29.4316 56.6357 25.8369 56.6431 25.6661C56.7955 25.6661 58.2513 25.6673 58.3958 25.6673C58.4117 25.8239 58.6735 29.4316 58.6735 29.4316H60.1054C60.1054 29.4316 59.613 24.1072 59.5733 23.7662C59.4135 22.3944 58.7794 21.6797 57.2829 21.6797ZM73.4958 13.7328C73.4992 13.5755 73.5281 12.4714 73.5303 12.3232H73.7944C74.8155 12.3232 74.9867 12.5058 75.0819 13.7328H73.4958ZM76.4016 13.1201C76.2413 11.7483 75.6077 11.0337 74.1112 11.0337H72.2077L71.9488 18.785H73.336C73.336 18.785 73.464 15.1903 73.4714 15.0206C73.6233 15.0206 75.0796 15.0212 75.2235 15.0212C75.24 15.1773 75.5018 18.785 75.5018 18.785H76.9337C76.9337 18.785 76.4407 13.4611 76.4016 13.1201Z" fill="white"/>
</g>
</svg>
