<svg width="375" height="264" viewBox="0 0 375 264" fill="none" xmlns="http://www.w3.org/2000/svg">
<g filter="url(#filter0_d_46_7290)">
<path d="M364.98 56.1853H333.377C331.559 56.1853 329.938 56.9297 328.683 58.0534C318.591 41.9985 308.146 29.1461 300.041 21.0695C271.849 -7.02316 102.7 -7.02316 74.508 21.0695C66.4311 29.118 56.0566 41.8861 46.0063 57.8287C44.794 56.8595 43.3281 56.1853 41.6507 56.1853H10.0479C6.17155 56.1853 3 59.3457 3 63.2084V77.3671C3 81.2298 6.11517 84.9802 9.92104 85.7106L29.0772 89.3486C12.5288 126.136 2.77447 171.899 18.1107 217.732V244.954C18.1107 252.721 20.0841 259 22.5227 259H58.6361C61.0747 259 63.0481 252.721 63.0481 244.954V222.704C95.4403 225.78 141.294 229.152 187.26 229.152C232.818 229.152 279.179 225.851 311.501 222.789V244.954C311.501 252.721 313.488 259 315.899 259H352.012C354.436 259 356.41 252.721 356.41 244.954L356.382 217.732C371.704 171.927 361.978 126.206 345.457 89.4329L365.079 85.7106C368.899 84.9802 372 81.2439 372 77.3671V63.2084C372.028 59.3457 368.856 56.1853 364.98 56.1853ZM62.1601 170.312C48.0502 170.312 36.6185 158.906 36.6185 144.86C36.6185 130.813 48.0643 119.408 62.1601 119.408C76.2559 119.408 87.7017 130.813 87.7017 144.86C87.7017 158.906 76.27 170.312 62.1601 170.312ZM40.6781 97.4112C54.21 66.5514 73.042 42.3918 84.4596 31.0002C92.7057 22.7831 131.54 14.0463 187.26 14.0463C242.981 14.0463 281.815 22.7831 290.061 31.0002C301.493 42.3918 320.311 66.5374 333.842 97.4112C303.776 100.726 245.236 93.0568 187.26 93.0568C129.284 93.0568 70.7444 100.726 40.6781 97.4112ZM312.361 170.312C298.251 170.312 286.819 158.906 286.819 144.86C286.819 130.813 298.265 119.408 312.361 119.408C326.456 119.408 337.902 130.813 337.902 144.86C337.902 158.906 326.47 170.312 312.361 170.312Z" fill="url(#paint0_linear_46_7290)"/>
</g>
<defs>
<filter id="filter0_d_46_7290" x="0.797331" y="0" width="373.405" height="263.405" filterUnits="userSpaceOnUse" color-interpolation-filters="sRGB">
<feFlood flood-opacity="0" result="BackgroundImageFix"/>
<feColorMatrix in="SourceAlpha" type="matrix" values="0 0 0 0 0 0 0 0 0 0 0 0 0 0 0 0 0 0 127 0" result="hardAlpha"/>
<feOffset dy="2.20267"/>
<feGaussianBlur stdDeviation="1.10133"/>
<feColorMatrix type="matrix" values="0 0 0 0 0.239216 0 0 0 0 0.847059 0 0 0 0 0.74902 0 0 0 0.33 0"/>
<feBlend mode="normal" in2="BackgroundImageFix" result="effect1_dropShadow_46_7290"/>
<feBlend mode="normal" in="SourceGraphic" in2="effect1_dropShadow_46_7290" result="shape"/>
</filter>
<linearGradient id="paint0_linear_46_7290" x1="292.697" y1="51.1184" x2="61.1499" y2="189.072" gradientUnits="userSpaceOnUse">
<stop stop-color="#8798FE"/>
<stop offset="1" stop-color="#B697F9"/>
</linearGradient>
</defs>
</svg>
