<svg width="133" height="219" viewBox="0 0 133 219" fill="none" xmlns="http://www.w3.org/2000/svg">
<path d="M82.3301 151.814H44.9766C45.0742 143.025 45.7578 135.457 47.0273 129.109C48.3945 122.664 50.6895 116.854 53.9121 111.678C57.2324 106.502 61.627 101.375 67.0957 96.2969C71.6855 92.1953 75.6895 88.2891 79.1074 84.5781C82.5254 80.8672 85.2109 77.0586 87.1641 73.1523C89.1172 69.1484 90.0938 64.7051 90.0938 59.8223C90.0938 54.1582 89.2148 49.4707 87.457 45.7598C85.7969 41.9512 83.2578 39.0703 79.8398 37.1172C76.5195 35.1641 72.3203 34.1875 67.2422 34.1875C63.043 34.1875 59.1367 35.1152 55.5234 36.9707C51.9102 38.7285 48.9316 41.4629 46.5879 45.1738C44.3418 48.8848 43.1699 53.7676 43.0723 59.8223H0.591797C0.884766 46.4434 3.96094 35.4082 9.82031 26.7168C15.7773 17.9277 23.7363 11.4336 33.6973 7.23438C43.6582 2.9375 54.8398 0.789062 67.2422 0.789062C80.9141 0.789062 92.6328 3.03516 102.398 7.52734C112.164 11.9219 119.635 18.416 124.811 27.0098C129.986 35.5059 132.574 45.8574 132.574 58.0645C132.574 66.5605 130.914 74.1289 127.594 80.7695C124.273 87.3125 119.928 93.416 114.557 99.0801C109.186 104.744 103.277 110.604 96.832 116.658C91.2656 121.639 87.457 126.863 85.4062 132.332C83.4531 137.801 82.4277 144.295 82.3301 151.814ZM40.582 197.078C40.582 190.828 42.7305 185.652 47.0273 181.551C51.3242 177.352 57.0859 175.252 64.3125 175.252C71.4414 175.252 77.1543 177.352 81.4512 181.551C85.8457 185.652 88.043 190.828 88.043 197.078C88.043 203.133 85.8457 208.26 81.4512 212.459C77.1543 216.658 71.4414 218.758 64.3125 218.758C57.0859 218.758 51.3242 216.658 47.0273 212.459C42.7305 208.26 40.582 203.133 40.582 197.078Z" fill="#002D4F"/>
</svg>
