<svg width="168" height="48" viewBox="0 0 168 48" fill="none" xmlns="http://www.w3.org/2000/svg">
<path d="M161.778 48H6.22222C2.80156 48 0 45.2985 0 42V6C0 2.7015 2.80156 -2.1874e-06 6.22222 -2.1874e-06H161.778C165.198 -2.1874e-06 168 2.7015 168 6V42C168 45.2985 165.198 48 161.778 48Z" fill="#002D4F"/>
<path d="M58.9438 16.9175H57.918V15H52.3052V16.9229H51.2739L51.2686 14.1567H51.9077C52.2443 13.7772 52.5111 13.2687 52.708 12.6313C52.9085 11.9904 53.0339 11.2886 53.084 10.5259L53.2559 7.17969H57.9341V14.1567H58.9546L58.9438 16.9175ZM53.084 14.1567H56.8975V8.02832H54.2495L54.1367 10.3271C54.0902 11.2259 53.9702 11.9922 53.7769 12.626C53.5871 13.2598 53.3561 13.77 53.084 14.1567ZM66.0659 11.3423C66.0659 12.1086 65.937 12.7782 65.6792 13.3511C65.4214 13.9204 65.0562 14.3555 64.5835 14.6562C64.1108 14.957 63.5594 15.1074 62.9292 15.1074C62.3133 15.1074 61.7673 14.957 61.291 14.6562C60.8148 14.3519 60.4442 13.9204 60.1792 13.3618C59.9178 12.7996 59.7835 12.1497 59.7764 11.4121V10.8481C59.7764 10.0962 59.9071 9.43197 60.1685 8.85547C60.4299 8.27897 60.7987 7.83854 61.2749 7.53418C61.7547 7.22624 62.3026 7.07227 62.9185 7.07227C63.5451 7.07227 64.0965 7.22445 64.5728 7.52881C65.0526 7.82959 65.4214 8.26823 65.6792 8.84473C65.937 9.41764 66.0659 10.0854 66.0659 10.8481V11.3423ZM65.04 10.8374C65.04 9.90999 64.8538 9.19922 64.4814 8.70508C64.109 8.20736 63.5881 7.9585 62.9185 7.9585C62.2668 7.9585 61.7529 8.20736 61.377 8.70508C61.0046 9.19922 60.813 9.88672 60.8022 10.7676V11.3423C60.8022 12.241 60.9902 12.9482 61.3662 13.4639C61.7458 13.9759 62.2668 14.2319 62.9292 14.2319C63.5952 14.2319 64.1108 13.9902 64.4761 13.5068C64.8413 13.0199 65.0293 12.3234 65.04 11.4175V10.8374ZM73.3652 12.5186C73.2686 13.3457 72.9624 13.9849 72.4468 14.436C71.9347 14.8836 71.2526 15.1074 70.4004 15.1074C69.4766 15.1074 68.7354 14.7762 68.1768 14.1138C67.6217 13.4513 67.3442 12.5651 67.3442 11.4551V10.7031C67.3442 9.97624 67.4731 9.33708 67.731 8.78564C67.9924 8.23421 68.3612 7.81169 68.8374 7.51807C69.3136 7.22087 69.8651 7.07227 70.4917 7.07227C71.3224 7.07227 71.9884 7.30501 72.4897 7.77051C72.991 8.23242 73.2829 8.87337 73.3652 9.69336H72.3286C72.2391 9.07031 72.0439 8.61914 71.7432 8.33984C71.446 8.06055 71.0288 7.9209 70.4917 7.9209C69.8328 7.9209 69.3154 8.16439 68.9395 8.65137C68.5671 9.13835 68.3809 9.83122 68.3809 10.73V11.4873C68.3809 12.3359 68.5581 13.0109 68.9126 13.5122C69.2671 14.0135 69.763 14.2642 70.4004 14.2642C70.9733 14.2642 71.4119 14.1353 71.7163 13.8774C72.0243 13.616 72.2284 13.1631 72.3286 12.5186H73.3652ZM80.02 8.02832H77.5063V15H76.4805V8.02832H73.9722V7.17969H80.02V8.02832ZM83.8657 11.7183L85.665 7.17969H86.8628L84.0967 13.6948C83.9105 14.1102 83.7368 14.4056 83.5757 14.5811C83.4146 14.7529 83.2248 14.8854 83.0063 14.9785C82.7915 15.068 82.5212 15.1128 82.1953 15.1128C81.9124 15.1128 81.7316 15.0967 81.6528 15.0645L81.6851 14.248L82.1738 14.2695C82.5498 14.2695 82.8291 14.0887 83.0117 13.7271L83.146 13.4478L83.3501 12.9697L80.686 7.17969H81.8408L83.8657 11.7183ZM94.0708 15H93.0342V8.02832H89.1777V15H88.1465V7.17969H94.0708V15ZM101.961 15H100.924V11.3853H96.9819V15H95.9507V7.17969H96.9819V10.542H100.924V7.17969H101.961V15ZM109.808 11.3423C109.808 12.1086 109.679 12.7782 109.421 13.3511C109.164 13.9204 108.798 14.3555 108.326 14.6562C107.853 14.957 107.302 15.1074 106.671 15.1074C106.056 15.1074 105.509 14.957 105.033 14.6562C104.557 14.3519 104.186 13.9204 103.921 13.3618C103.66 12.7996 103.526 12.1497 103.519 11.4121V10.8481C103.519 10.0962 103.649 9.43197 103.911 8.85547C104.172 8.27897 104.541 7.83854 105.017 7.53418C105.497 7.22624 106.045 7.07227 106.661 7.07227C107.287 7.07227 107.839 7.22445 108.315 7.52881C108.795 7.82959 109.164 8.26823 109.421 8.84473C109.679 9.41764 109.808 10.0854 109.808 10.8481V11.3423ZM108.782 10.8374C108.782 9.90999 108.596 9.19922 108.224 8.70508C107.851 8.20736 107.33 7.9585 106.661 7.9585C106.009 7.9585 105.495 8.20736 105.119 8.70508C104.747 9.19922 104.555 9.88672 104.544 10.7676V11.3423C104.544 12.241 104.732 12.9482 105.108 13.4639C105.488 13.9759 106.009 14.2319 106.671 14.2319C107.337 14.2319 107.853 13.9902 108.218 13.5068C108.583 13.0199 108.771 12.3234 108.782 11.4175V10.8374ZM114.083 15V7.17969H116.64C117.489 7.17969 118.126 7.35514 118.552 7.70605C118.982 8.05697 119.197 8.57617 119.197 9.26367C119.197 9.62891 119.093 9.95296 118.885 10.2358C118.678 10.5151 118.395 10.7318 118.037 10.8857C118.459 11.0039 118.792 11.2295 119.036 11.5625C119.283 11.8919 119.406 12.2858 119.406 12.7441C119.406 13.446 119.179 13.9974 118.724 14.3984C118.269 14.7995 117.627 15 116.796 15H114.083ZM115.115 11.3423V14.1567H116.817C117.297 14.1567 117.675 14.0332 117.951 13.7861C118.23 13.5355 118.37 13.1917 118.37 12.7549C118.37 11.8132 117.858 11.3423 116.833 11.3423H115.115ZM115.115 10.5151H116.672C117.124 10.5151 117.483 10.4023 117.752 10.1768C118.024 9.95117 118.16 9.64502 118.16 9.2583C118.16 8.82861 118.035 8.51709 117.784 8.32373C117.534 8.12679 117.152 8.02832 116.64 8.02832H115.115V10.5151Z" fill="white"/>
<path d="M84.8265 26.7716C81.9121 26.7716 79.5312 28.9399 79.5312 31.9317C79.5312 34.8991 81.9121 37.0902 84.8265 37.0902C87.7471 37.0902 90.128 34.8991 90.128 31.9317C90.128 28.9399 87.7471 26.7716 84.8265 26.7716ZM84.8265 35.0584C83.2274 35.0584 81.8516 33.768 81.8516 31.9317C81.8516 30.0711 83.2274 28.8035 84.8265 28.8035C86.4256 28.8035 87.8076 30.0711 87.8076 31.9317C87.8076 33.768 86.4256 35.0584 84.8265 35.0584ZM73.2728 26.7716C70.3521 26.7716 67.9775 28.9399 67.9775 31.9317C67.9775 34.8991 70.3521 37.0902 73.2728 37.0902C76.1918 37.0902 78.568 34.8991 78.568 31.9317C78.568 28.9399 76.1918 26.7716 73.2728 26.7716ZM73.2728 35.0584C71.6721 35.0584 70.2917 33.768 70.2917 31.9317C70.2917 30.0711 71.6721 28.8035 73.2728 28.8035C74.8719 28.8035 76.2477 30.0711 76.2477 31.9317C76.2477 33.768 74.8719 35.0584 73.2728 35.0584ZM59.5243 28.3531V30.5457H64.8801C64.7234 31.7709 64.3046 32.6716 63.6625 33.2994C62.8808 34.0576 61.6632 34.8991 59.5243 34.8991C56.2283 34.8991 53.6474 32.2986 53.6474 29.0764C53.6474 25.8542 56.2283 23.2537 59.5243 23.2537C61.3065 23.2537 62.6031 23.9345 63.5601 24.817L65.1406 23.2719C63.8021 22.0224 62.0215 21.0626 59.5243 21.0626C55.0046 21.0626 51.2061 24.6578 51.2061 29.0764C51.2061 33.495 55.0046 37.0902 59.5243 37.0902C61.9672 37.0902 63.8021 36.3078 65.2446 34.84C66.7227 33.3949 67.1834 31.363 67.1834 29.7224C67.1834 29.2129 67.1399 28.7443 67.0624 28.3531H59.5243ZM115.743 30.0529C115.308 28.899 113.963 26.7716 111.224 26.7716C108.509 26.7716 106.25 28.8626 106.25 31.9317C106.25 34.8218 108.486 37.0902 111.484 37.0902C113.909 37.0902 115.308 35.6452 115.883 34.8036L114.084 33.6315C113.484 34.4897 112.666 35.0584 111.484 35.0584C110.31 35.0584 109.468 34.5322 108.928 33.495L115.987 30.6398L115.743 30.0529ZM108.547 31.7709C108.486 29.7815 110.127 28.7625 111.303 28.7625C112.224 28.7625 113.006 29.2129 113.266 29.8573L108.547 31.7709ZM102.809 36.7764H105.13V21.613H102.809V36.7764ZM99.0093 27.921H98.9317C98.4105 27.3175 97.4163 26.7716 96.1569 26.7716C93.5139 26.7716 91.0974 29.04 91.0974 31.9484C91.0974 34.84 93.5139 37.0902 96.1569 37.0902C97.4163 37.0902 98.4105 36.5398 98.9317 35.9181H99.0093V36.6581C99.0093 38.6308 97.9313 39.6908 96.1926 39.6908C94.7749 39.6908 93.8955 38.69 93.5325 37.8484L91.5146 38.6718C92.0962 40.0395 93.6364 41.7227 96.1926 41.7227C98.9131 41.7227 101.209 40.1578 101.209 36.3503V27.0855H99.0093V27.921ZM96.3554 35.0584C94.7563 35.0584 93.4177 33.7498 93.4177 31.9484C93.4177 30.1303 94.7563 28.8035 96.3554 28.8035C97.9313 28.8035 99.1737 30.1303 99.1737 31.9484C99.1737 33.7498 97.9313 35.0584 96.3554 35.0584ZM126.607 21.613H121.057V36.7764H123.372V31.031H126.607C129.177 31.031 131.698 29.2129 131.698 26.3212C131.698 23.4311 129.171 21.613 126.607 21.613ZM126.667 28.9217H123.372V23.7222H126.667C128.395 23.7222 129.382 25.1248 129.382 26.3212C129.382 27.4949 128.395 28.9217 126.667 28.9217ZM140.973 26.7428C139.301 26.7428 137.562 27.4645 136.847 29.0643L138.901 29.9058C139.343 29.0643 140.155 28.7913 141.015 28.7913C142.215 28.7913 143.433 29.4964 143.451 30.7414V30.9006C143.033 30.664 142.136 30.3137 141.033 30.3137C138.821 30.3137 136.568 31.5041 136.568 33.7255C136.568 35.7574 138.379 37.066 140.416 37.066C141.973 37.066 142.832 36.3791 143.372 35.58H143.451V36.7521H145.686V30.9354C145.686 28.247 143.633 26.7428 140.973 26.7428ZM140.694 35.0523C139.937 35.0523 138.882 34.6853 138.882 33.768C138.882 32.5943 140.197 32.144 141.336 32.144C142.355 32.144 142.832 32.3638 143.451 32.6534C143.27 34.0576 142.034 35.0523 140.694 35.0523ZM153.829 27.0748L151.169 33.6482H151.09L148.34 27.0748H145.845L149.977 36.2608L147.619 41.3724H150.037L156.404 27.0748H153.829ZM132.969 36.7764H135.29V21.613H132.969V36.7764Z" fill="white"/>
<path d="M13.2307 9.52894C12.8662 9.90196 12.6553 10.4827 12.6553 11.2348V38.0618C12.6553 38.814 12.8662 39.3947 13.2307 39.7677L13.3207 39.8496L28.6977 24.8227V24.4679L13.3207 9.44099L13.2307 9.52894Z" fill="url(#paint0_linear)"/>
<path d="M33.8173 29.835L28.6973 24.8235V24.4686L33.8235 19.4572L33.9382 19.5224L40.009 22.8992C41.7415 23.8576 41.7415 25.4346 40.009 26.3989L33.9382 29.7698L33.8173 29.835Z" fill="url(#paint1_linear)"/>
<path d="M33.9385 29.7695L28.6975 24.6458L13.2305 39.7683C13.8059 40.3596 14.7443 40.4309 15.8114 39.8395L33.9385 29.7695Z" fill="url(#paint2_linear)"/>
<path d="M33.9385 19.5228L15.8114 9.45279C14.7443 8.86749 13.8059 8.93875 13.2305 9.53012L28.6975 24.6465L33.9385 19.5228Z" fill="url(#paint3_linear)"/>
<defs>
<linearGradient id="paint0_linear" x1="27.3324" y1="38.3412" x2="6.97943" y2="17.5223" gradientUnits="userSpaceOnUse">
<stop stop-color="#00A0FF"/>
<stop offset="0.0066" stop-color="#00A1FF"/>
<stop offset="0.2601" stop-color="#00BEFF"/>
<stop offset="0.5122" stop-color="#00D2FF"/>
<stop offset="0.7604" stop-color="#00DFFF"/>
<stop offset="1" stop-color="#00E3FF"/>
</linearGradient>
<linearGradient id="paint1_linear" x1="42.2651" y1="24.6444" x2="12.2407" y2="24.6444" gradientUnits="userSpaceOnUse">
<stop stop-color="#FFE000"/>
<stop offset="0.4087" stop-color="#FFBD00"/>
<stop offset="0.7754" stop-color="#FFA500"/>
<stop offset="1" stop-color="#FF9C00"/>
</linearGradient>
<linearGradient id="paint2_linear" x1="31.0886" y1="21.8605" x2="3.48826" y2="-6.37158" gradientUnits="userSpaceOnUse">
<stop stop-color="#FF3A44"/>
<stop offset="1" stop-color="#C31162"/>
</linearGradient>
<linearGradient id="paint3_linear" x1="9.3371" y1="48.6941" x2="21.6619" y2="36.0874" gradientUnits="userSpaceOnUse">
<stop stop-color="#32A071"/>
<stop offset="0.0685" stop-color="#2DA771"/>
<stop offset="0.4762" stop-color="#15CF74"/>
<stop offset="0.8009" stop-color="#06E775"/>
<stop offset="1" stop-color="#00F076"/>
</linearGradient>
</defs>
</svg>
