<svg width="170" height="48" viewBox="0 0 170 48" fill="none" xmlns="http://www.w3.org/2000/svg">
<g clip-path="url(#clip0)">
<path d="M10.3365 47.9838C9.9516 47.9838 9.57591 47.9791 9.19399 47.9706C8.48755 47.9512 7.64966 47.9126 6.83224 47.7688C6.06098 47.6322 5.37562 47.4098 4.73882 47.0908C4.07995 46.7636 3.48791 46.3408 2.97373 45.8332C2.45073 45.3307 2.02065 44.7531 1.68449 44.1054C1.35676 43.4809 1.13278 42.8104 0.99832 42.0553C0.844189 41.2228 0.804652 40.3782 0.787995 39.7354C0.779967 39.4745 0.769531 38.6057 0.769531 38.6057V9.38029C0.769531 9.38029 0.780569 8.52488 0.787995 8.27355C0.804652 7.62546 0.844189 6.78144 0.997116 5.95747C1.13218 5.19796 1.35615 4.52806 1.68388 3.90099C2.01944 3.25231 2.45013 2.67182 2.96651 2.1715C3.48891 1.6592 4.08376 1.23513 4.73822 0.90657C5.38726 0.5839 6.07162 0.363415 6.82743 0.233521C7.67816 0.0843697 8.54053 0.0470352 9.197 0.0307236L10.3371 0.0155907H159.657L160.81 0.0311165C161.458 0.0470352 162.321 0.0843697 163.159 0.232342C163.92 0.362827 164.608 0.584488 165.27 0.910305C165.918 1.23513 166.511 1.6592 167.028 2.16679C167.545 2.66927 167.978 3.2529 168.321 3.90414C168.647 4.53651 168.869 5.20641 168.997 5.94411C169.144 6.72465 169.19 7.52622 169.217 8.27905C169.221 8.62923 169.221 9.00574 169.221 9.38029C169.231 9.84425 169.231 10.2858 169.231 10.7311V37.2696C169.231 37.7191 169.231 38.1575 169.221 38.5996C169.221 39.0021 169.221 39.3705 169.216 39.75C169.19 40.4786 169.144 41.2796 169 42.0431C168.869 42.8018 168.647 43.4723 168.318 44.1092C167.977 44.752 167.544 45.333 167.034 45.8235C166.512 46.3408 165.92 46.7623 165.266 47.0885C164.611 47.4147 163.942 47.6308 163.159 47.7688C162.349 47.9126 161.511 47.9512 160.797 47.9706C160.427 47.9791 160.039 47.9838 159.663 47.9838L158.293 47.9863L10.3365 47.9838Z" fill="#002D4F"/>
<path d="M57.7869 30.8479H62.2083L60.6251 26.6982C60.4075 26.125 60.1934 25.492 59.9818 24.799C59.791 25.4121 59.5837 26.0385 59.3593 26.6786L57.7869 30.8479ZM62.9635 32.8176H57.0411L55.5913 36.6973H52.9873L58.7873 22.2089H61.2484L67.1809 36.6973H64.4444L62.9635 32.8176Z" fill="white"/>
<path d="M74.9891 34.0619C75.5031 33.3855 75.7602 32.3971 75.7602 31.0974C75.7602 29.8908 75.5477 29.0161 75.1218 28.4726C74.6959 27.9292 74.1298 27.6578 73.4217 27.6578C72.9313 27.6578 72.4785 27.7708 72.0635 27.9976C71.6486 28.2242 71.2531 28.5276 70.8792 28.9076V34.687C71.1304 34.8071 71.4234 34.902 71.757 34.972C72.0906 35.0417 72.4205 35.0767 72.748 35.0767C73.7284 35.0767 74.475 34.7383 74.9891 34.0619ZM68.3569 28.5476C68.3569 27.7474 68.3292 26.8681 68.2754 25.9077H70.6442C70.7323 26.3546 70.7935 26.8113 70.828 27.278C71.8082 26.2312 72.9313 25.7079 74.1978 25.7079C74.9328 25.7079 75.6141 25.8896 76.2399 26.2528C76.8664 26.6161 77.3722 27.1894 77.7569 27.9725C78.1414 28.7557 78.3339 29.7511 78.3339 30.9571C78.3339 32.2171 78.1137 33.2938 77.6744 34.1869C77.2359 35.08 76.6212 35.7564 75.8317 36.2167C75.0421 36.6765 74.1298 36.9068 73.095 36.9068C72.3458 36.9068 71.6075 36.783 70.8792 36.5366V40.996L68.3569 41.2061V28.5476Z" fill="white"/>
<path d="M86.58 34.0619C87.0942 33.3855 87.3511 32.3971 87.3511 31.0974C87.3511 29.8908 87.1385 29.0161 86.7126 28.4726C86.2868 27.9292 85.7206 27.6578 85.0126 27.6578C84.5221 27.6578 84.0693 27.7708 83.6543 27.9976C83.2395 28.2242 82.8439 28.5276 82.47 28.9076V34.687C82.7211 34.8071 83.0143 34.902 83.3478 34.972C83.6812 35.0417 84.0113 35.0767 84.3389 35.0767C85.3192 35.0767 86.0658 34.7383 86.58 34.0619ZM79.9477 28.5476C79.9477 27.7474 79.92 26.8681 79.8662 25.9077H82.2348C82.3231 26.3546 82.3843 26.8113 82.4188 27.278C83.399 26.2312 84.5221 25.7079 85.7889 25.7079C86.5238 25.7079 87.2047 25.8896 87.8305 26.2528C88.4573 26.6161 88.9628 27.1894 89.3475 27.9725C89.7323 28.7557 89.9245 29.7511 89.9245 30.9571C89.9245 32.2171 89.7046 33.2938 89.2653 34.1869C88.8267 35.08 88.212 35.7564 87.4223 36.2167C86.633 36.6765 85.7206 36.9068 84.6858 36.9068C83.9367 36.9068 83.1983 36.783 82.47 36.5366V40.996L79.9477 41.2061V28.5476Z" fill="white"/>
<path d="M94.6831 36.0106C93.5935 35.4209 92.7562 34.5759 92.1706 33.4764C91.5852 32.3762 91.293 31.0764 91.293 29.5767C91.293 27.9502 91.6297 26.5685 92.3037 25.4319C92.978 24.2957 93.8951 23.4424 95.0559 22.8725C96.2159 22.3024 97.5178 22.0175 98.9616 22.0175C99.8127 22.0175 100.624 22.1091 101.397 22.2926C102.17 22.476 102.889 22.7273 103.557 23.0472L102.914 24.9471C101.572 24.3208 100.292 24.0074 99.0744 24.0074C98.0463 24.0074 97.1457 24.2222 96.3731 24.6521C95.6002 25.0819 94.9997 25.7137 94.5705 26.5471C94.1422 27.3803 93.9271 28.3864 93.9271 29.5667C93.9271 30.5997 94.0926 31.5164 94.4226 32.3162C94.7529 33.116 95.2735 33.7498 95.9849 34.2161C96.6964 34.6828 97.5935 34.9161 98.6754 34.9161C99.1659 34.9161 99.6564 34.8762 100.146 34.7958C100.637 34.716 101.096 34.5993 101.524 34.4458V31.5164H98.1043V29.5967H103.975V35.696C103.131 36.0825 102.244 36.3791 101.315 36.586C100.386 36.7925 99.4623 36.8955 98.5426 36.8955C97.0584 36.8955 95.7726 36.6007 94.6831 36.0106Z" fill="white"/>
<path d="M111.552 34.696C112.077 34.4497 112.506 34.143 112.839 33.7761V31.7764C112.151 31.7033 111.59 31.6666 111.154 31.6666C110.113 31.6666 109.393 31.8314 108.995 32.1614C108.597 32.4913 108.397 32.9364 108.397 33.4961C108.397 34.0294 108.542 34.4246 108.831 34.6812C109.121 34.9377 109.514 35.0662 110.01 35.0662C110.514 35.0662 111.028 34.9428 111.552 34.696ZM113.063 36.6959C112.975 36.2759 112.917 35.7994 112.89 35.2658C112.502 35.7196 111.997 36.1046 111.373 36.4205C110.751 36.7373 110.048 36.8955 109.265 36.8955C108.632 36.8955 108.055 36.7739 107.534 36.531C107.013 36.2875 106.6 35.921 106.293 35.4309C105.987 34.941 105.834 34.3428 105.834 33.6362C105.834 32.5898 106.219 31.755 106.988 31.1315C107.757 30.5079 109.04 30.1965 110.837 30.1965C111.512 30.1965 112.179 30.2432 112.839 30.3366V30.1265C112.839 29.1732 112.632 28.5018 112.216 28.1119C111.801 27.7222 111.205 27.5269 110.429 27.5269C109.892 27.5269 109.316 27.6035 108.703 27.757C108.091 27.9105 107.553 28.0934 107.09 28.3068L106.692 26.5068C107.141 26.3071 107.733 26.1236 108.469 25.957C109.204 25.7907 109.98 25.7072 110.797 25.7072C111.75 25.7072 112.56 25.8489 113.227 26.1322C113.894 26.4156 114.415 26.9022 114.789 27.5917C115.164 28.2817 115.352 29.2104 115.352 30.3767V34.6661C115.352 35.1126 115.378 35.7894 115.433 36.6959H113.063Z" fill="white"/>
<path d="M117.559 34.1058V21.3574L120.07 21.1576V33.6664C120.07 34.1261 120.15 34.4509 120.31 34.6409C120.47 34.8308 120.724 34.9259 121.071 34.9259C121.227 34.9259 121.449 34.8891 121.735 34.816L122.031 36.586C121.793 36.6793 121.501 36.7542 121.158 36.811C120.814 36.8674 120.489 36.8955 120.183 36.8955C118.433 36.8955 117.559 35.9658 117.559 34.1058Z" fill="white"/>
<path d="M123.839 34.1058V21.3574L126.351 21.1576V33.6664C126.351 34.1261 126.43 34.4509 126.591 34.6409C126.75 34.8308 127.004 34.9259 127.352 34.9259C127.508 34.9259 127.73 34.8891 128.015 34.816L128.312 36.586C128.073 36.6793 127.782 36.7542 127.438 36.811C127.095 36.8674 126.77 36.8955 126.463 36.8955C124.713 36.8955 123.839 35.9658 123.839 34.1058Z" fill="white"/>
<path d="M136.307 30.0465C136.26 29.1866 136.038 28.5415 135.644 28.1117C135.249 27.6817 134.721 27.4669 134.061 27.4669C133.421 27.4669 132.889 27.6833 132.463 28.1168C132.038 28.5501 131.76 29.1933 131.63 30.0465H136.307ZM138.768 31.6161H131.559C131.675 33.8757 132.774 35.0059 134.857 35.0059C135.375 35.0059 135.904 34.9444 136.446 34.8209C136.987 34.6975 137.506 34.5327 138.003 34.3257L138.554 36.0159C137.322 36.6023 135.937 36.8955 134.398 36.8955C133.227 36.8955 132.24 36.6791 131.436 36.2458C130.634 35.8123 130.029 35.1894 129.624 34.3759C129.219 33.5631 129.017 32.5829 129.017 31.4361C129.017 30.243 129.231 29.2167 129.66 28.3567C130.089 27.4964 130.686 26.8403 131.452 26.3871C132.217 25.9334 133.101 25.707 134.102 25.707C135.143 25.707 136.013 25.9454 136.711 26.4221C137.408 26.8986 137.926 27.5336 138.264 28.3269C138.6 29.12 138.768 29.9964 138.768 30.9562V31.6161Z" fill="white"/>
<path d="M140.801 28.6174C140.801 28.0239 140.774 27.1211 140.72 25.9075H143.078C143.12 26.2075 143.158 26.566 143.196 26.9824C143.233 27.3994 143.259 27.7374 143.272 27.9974C143.565 27.5242 143.853 27.1258 144.135 26.8028C144.417 26.4795 144.748 26.2158 145.126 26.0128C145.503 25.8092 145.934 25.7076 146.417 25.7076C146.805 25.7076 147.139 25.7475 147.418 25.8277L147.102 27.9673C146.856 27.894 146.584 27.8574 146.284 27.8574C145.692 27.8574 145.175 28.006 144.732 28.3023C144.29 28.5989 143.817 29.0876 143.314 29.7673V36.6963H140.801V28.6174Z" fill="white"/>
<path d="M148.93 41.1111C148.562 41.0479 148.26 40.9761 148.021 40.896L148.481 39.0965C148.65 39.1429 148.866 39.1877 149.124 39.2315C149.383 39.2746 149.628 39.2964 149.859 39.2964C150.975 39.2964 151.813 38.5929 152.371 37.1862L152.535 36.7865L148.471 25.9077H151.176L153.219 31.9872C153.553 33.0271 153.767 33.8237 153.862 34.3767C154.053 33.5968 154.277 32.817 154.536 32.0369L156.609 25.9077H159.152L155.098 36.8365C154.717 37.8699 154.305 38.7029 153.862 39.3363C153.42 39.9694 152.898 40.4395 152.295 40.746C151.692 41.0526 150.966 41.2061 150.115 41.2061C149.692 41.2061 149.298 41.1744 148.93 41.1111Z" fill="white"/>
<path fill-rule="evenodd" clip-rule="evenodd" d="M34.2562 8.05383H20.0126C13.3029 8.05383 10.8486 10.457 10.8486 17.0267V30.9736C10.8486 37.5432 13.3029 39.9463 20.0124 39.9463H34.2518C40.9615 39.9463 43.4202 37.5432 43.4202 30.9736V17.0267C43.4202 10.457 40.9659 8.05383 34.2562 8.05383Z" fill="#C8102E"/>
<path d="M25.0585 26.5497H26.3648L25.7095 25.0576L25.0585 26.5497ZM24.737 27.3013L24.3494 28.1695H23.4674L25.3433 24.0023H26.1057L27.9741 28.1695H27.0682L26.6859 27.3013H24.737ZM38.9323 28.1668H39.7849V24.0025H38.9323V28.1668ZM35.5388 26.3776H37.1102V25.6184H35.5388V24.765H37.8201V24.0049H34.6865V28.1693H37.9024V27.4098H35.5388V26.3776ZM32.1511 26.8696L31.1844 24.0021H30.4792L29.5124 26.8696L28.5716 24.0041H27.652L29.1363 28.1719H29.8516L30.8199 25.4343L31.7879 28.1719H32.5094L33.9899 24.0041H33.0942L32.1511 26.8696ZM22.1655 26.3891C22.1655 27.0669 21.8219 27.4293 21.1976 27.4293C20.57 27.4293 20.2242 27.0567 20.2242 26.3601V24.0047H19.36V26.3891C19.36 27.5617 20.0257 28.2344 21.1859 28.2344C22.3576 28.2344 23.0293 27.5491 23.0293 26.3544V24.0023H22.1655V26.3891ZM17.2985 24.0023H18.1623V28.1721H17.2985V26.4788H15.3476V28.1721H14.4834V24.0023H15.3476V25.6845H17.2985V24.0023Z" fill="white"/>
<path d="M27.1346 18.6934C24.1451 18.6934 21.7129 16.3118 21.7129 13.3846H22.4789C22.4789 15.8982 24.5675 17.9433 27.1346 17.9433C29.7018 17.9433 31.7902 15.8982 31.7902 13.3846H32.5563C32.5563 16.3118 30.1241 18.6934 27.1346 18.6934Z" fill="white"/>
<path d="M57.6462 15.8283C57.999 15.5964 58.2627 15.2772 58.4373 14.8709C58.6121 14.4647 58.6994 13.9999 58.6994 13.477C58.6994 12.9637 58.6221 12.5064 58.4676 12.1052C58.3131 11.7037 58.0662 11.3838 57.7268 11.1452C57.3875 10.9068 56.9508 10.7876 56.4165 10.7876C55.9058 10.7876 55.4723 10.9084 55.1162 11.1501C54.76 11.392 54.4931 11.7161 54.3149 12.1225C54.1369 12.5286 54.0478 12.9769 54.0478 13.467C54.0478 13.9836 54.1318 14.4458 54.2998 14.8538C54.4678 15.2617 54.7247 15.584 55.0709 15.8208C55.4169 16.0578 55.8454 16.1763 56.3559 16.1763C56.8633 16.1763 57.2933 16.0603 57.6462 15.8283ZM54.3805 16.7043C53.8463 16.4048 53.4381 15.9845 53.1557 15.4435C52.8735 14.9023 52.7324 14.2731 52.7324 13.556C52.7324 12.8026 52.8827 12.1437 53.1836 11.5795C53.4842 11.0153 53.9175 10.5795 54.4837 10.2719C55.0498 9.96419 55.7177 9.81032 56.487 9.81032C57.2229 9.81032 57.8561 9.95927 58.3869 10.257C58.9177 10.5547 59.3227 10.9733 59.6015 11.5129C59.8805 12.0525 60.0199 12.6774 60.0199 13.3882C60.0199 14.1546 59.8678 14.8207 59.5638 15.3867C59.2597 15.9524 58.8262 16.3885 58.2635 16.6943C57.7008 17.0002 57.0397 17.1533 56.2805 17.1533C55.5479 17.1533 54.9147 17.0036 54.3805 16.7043Z" fill="white"/>
<path d="M62.5743 10.9416H60.3115L60.4223 9.91035H66.1021L65.9861 10.9416H63.8343V17.0557H62.5743V10.9416Z" fill="white"/>
<path d="M72.886 17.0537H71.4647L69.2926 13.9054H68.4308V17.0537H67.1709V9.9084H68.4308V12.8592H69.0911L70.6031 10.7176C70.8247 10.3985 71.0473 10.1674 71.2708 10.0243C71.4942 9.88108 71.7756 9.80955 72.1149 9.80955C72.3971 9.80955 72.6492 9.85573 72.8709 9.9477L72.6088 10.91C72.4712 10.8542 72.3399 10.8263 72.2157 10.8263C72.0678 10.8263 71.9411 10.8625 71.8352 10.9348C71.7294 11.0071 71.6192 11.1238 71.505 11.2851L70.1696 13.1603L72.886 17.0537Z" fill="white"/>
<path d="M77.0085 13.1005C77.2772 12.8621 77.4117 12.5257 77.4117 12.0914C77.4117 11.6506 77.2748 11.3331 77.0009 11.1391C76.7272 10.945 76.3248 10.8479 75.7939 10.8479H75.1086V13.3843C75.4245 13.4336 75.6663 13.4583 75.8343 13.4583C76.3482 13.4583 76.7398 13.3391 77.0085 13.1005ZM73.8486 9.91035H75.8142C76.738 9.91035 77.4454 10.0945 77.9359 10.4629C78.4264 10.8314 78.6717 11.3643 78.6717 12.0617C78.6717 12.5355 78.5617 12.9492 78.3415 13.3029C78.1216 13.6566 77.8149 13.9278 77.4219 14.117C77.0288 14.3063 76.5768 14.4008 76.0661 14.4008C75.7873 14.4008 75.468 14.368 75.1086 14.3022V17.0557H73.8486V9.91035Z" fill="white"/>
<path d="M84.362 15.8283C84.7148 15.5964 84.9785 15.2772 85.1531 14.8709C85.3279 14.4647 85.4154 13.9999 85.4154 13.477C85.4154 12.9637 85.338 12.5064 85.1834 12.1052C85.0289 11.7037 84.7818 11.3838 84.4427 11.1452C84.1033 10.9068 83.6666 10.7876 83.1324 10.7876C82.6216 10.7876 82.1881 10.9084 81.8321 11.1501C81.4758 11.392 81.2089 11.7161 81.0307 12.1225C80.8527 12.5286 80.7636 12.9769 80.7636 13.467C80.7636 13.9836 80.8477 14.4458 81.0157 14.8538C81.1836 15.2617 81.4405 15.584 81.7867 15.8208C82.1327 16.0578 82.5612 16.1763 83.0717 16.1763C83.5791 16.1763 84.0092 16.0603 84.362 15.8283ZM81.0963 16.7043C80.5621 16.4048 80.1539 15.9845 79.8715 15.4435C79.5893 14.9023 79.4482 14.2731 79.4482 13.556C79.4482 12.8026 79.5986 12.1437 79.8994 11.5795C80.2 11.0153 80.6333 10.5795 81.1995 10.2719C81.7656 9.96419 82.4335 9.81032 83.2028 9.81032C83.9387 9.81032 84.5719 9.95927 85.1028 10.257C85.6336 10.5547 86.0386 10.9733 86.3175 11.5129C86.5961 12.0525 86.7358 12.6774 86.7358 13.3882C86.7358 14.1546 86.5837 14.8207 86.2796 15.3867C85.9756 15.9524 85.5421 16.3885 84.9793 16.6943C84.4166 17.0002 83.7555 17.1533 82.9963 17.1533C82.2638 17.1533 81.6304 17.0036 81.0963 16.7043Z" fill="white"/>
<path d="M90.3077 9.28664C90.0424 9.14849 89.8399 8.97085 89.7006 8.7537C89.5609 8.53656 89.4728 8.30291 89.4359 8.05295H90.343C90.4404 8.5792 90.7562 8.84253 91.2905 8.84253C91.8247 8.84253 92.1422 8.5792 92.2432 8.05295H93.1551C93.1182 8.30291 93.0299 8.53656 92.8906 8.7537C92.7511 8.97085 92.5478 9.14849 92.2807 9.28664C92.0138 9.42479 91.6834 9.49396 91.2905 9.49396C90.9007 9.49396 90.5732 9.42479 90.3077 9.28664ZM93.1501 17.0537V13.1259C93.1501 12.6322 93.1686 12.0665 93.2055 11.4282L89.5419 17.0537H88.1406V9.9084H89.3099V13.9893C89.3099 14.4334 89.2948 14.9188 89.2645 15.4451L92.8729 9.9084H94.3193V17.0537H93.1501Z" fill="white"/>
<path d="M97.6515 10.9416H95.3887L95.4995 9.91035H101.179L101.063 10.9416H98.9114V17.0557H97.6515V10.9416Z" fill="white"/>
<path d="M102.247 9.91035H106.546L106.425 10.9269H103.507V12.8957H106.259V13.8482H103.507V16.0293H106.581L106.475 17.0557H102.247V9.91035Z" fill="white"/>
<path d="M114.566 15.8344C114.823 15.6288 114.952 15.3384 114.952 14.9634C114.952 14.5653 114.81 14.2627 114.526 14.0553C114.242 13.8482 113.833 13.7445 113.299 13.7445H112.452V16.1427H113.4C113.92 16.1427 114.31 16.0399 114.566 15.8344ZM112.452 12.8317H113.238C113.5 12.8317 113.732 12.7806 113.931 12.6786C114.131 12.5766 114.285 12.4392 114.393 12.2665C114.5 12.0938 114.554 11.904 114.554 11.6966C114.554 11.4038 114.445 11.1851 114.229 11.0403C114.012 10.8955 113.699 10.8231 113.289 10.8231H112.452V12.8317ZM115.368 13.525C115.628 13.6812 115.833 13.8867 115.983 14.1418C116.132 14.3967 116.207 14.6952 116.207 15.0373C116.207 15.4354 116.105 15.7866 115.902 16.091C115.699 16.3952 115.401 16.6322 115.01 16.8016C114.619 16.971 114.149 17.0557 113.601 17.0557H111.223V9.91035H113.5C114.273 9.91035 114.853 10.0568 115.239 10.3494C115.625 10.6422 115.819 11.0436 115.819 11.5536C115.819 11.9778 115.695 12.3323 115.448 12.6169C115.201 12.9014 114.878 13.1013 114.478 13.2164C114.811 13.2658 115.107 13.3687 115.368 13.525Z" fill="white"/>
</g>
<defs>
<clipPath id="clip0">
<rect x="0.733398" width="168.533" height="48" rx="6.4" fill="white"/>
</clipPath>
</defs>
</svg>
