<svg width="488" height="440" viewBox="0 0 488 440" fill="none" xmlns="http://www.w3.org/2000/svg">
<circle cx="341.746" cy="96.436" r="8.66254" fill="url(#paint0_linear)"/>
<g filter="url(#filter0_d)">
<rect x="135.381" y="94.8076" width="217.801" height="185.626" rx="22.7356" fill="url(#paint1_linear)"/>
</g>
<rect x="166.318" y="264.419" width="68.4604" height="4.31095" rx="2.15547" fill="white" fill-opacity="0.31"/>
<rect x="166.318" y="253.21" width="47.0607" height="4.31095" rx="2.15547" fill="white" fill-opacity="0.31"/>
<path d="M167.556 108.422V247.022" stroke="white" stroke-opacity="0.14" stroke-width="1.23751"/>
<path d="M304.61 241.359L156.728 241.359" stroke="white" stroke-opacity="0.14" stroke-width="1.23751"/>
<path d="M353.183 201.234L156.419 201.234" stroke="white" stroke-opacity="0.14" stroke-width="1.23751"/>
<path d="M353.183 161.633L156.419 161.633" stroke="white" stroke-opacity="0.14" stroke-width="1.23751"/>
<path d="M353.183 122.035L156.419 122.035" stroke="white" stroke-opacity="0.14" stroke-width="1.23751"/>
<path d="M207.156 115.847V247.022" stroke="white" stroke-opacity="0.14" stroke-width="1.23751"/>
<path d="M246.757 115.847V255.685" stroke="white" stroke-opacity="0.14" stroke-width="1.23751"/>
<path d="M286.356 115.847V255.685" stroke="white" stroke-opacity="0.14" stroke-width="1.23751"/>
<path d="M325.958 115.847V255.685" stroke="white" stroke-opacity="0.14" stroke-width="1.23751"/>
<path d="M240.569 188.861L242.578 190.307L240.569 188.861ZM184.881 209.564L183.881 207.3L184.881 209.564ZM242.578 190.307C251.833 177.439 258.963 170.833 264.998 167.873C270.822 165.017 275.861 165.448 281.444 167.461C284.298 168.49 287.246 169.917 290.516 171.545C293.752 173.155 297.283 174.952 301.15 176.609C308.932 179.945 318.158 182.759 329.862 182.759L329.862 177.809C319.013 177.809 310.462 175.215 303.1 172.059C299.394 170.471 296.011 168.75 292.722 167.113C289.468 165.494 286.281 163.943 283.123 162.804C276.681 160.482 270.184 159.817 262.818 163.429C255.662 166.938 247.948 174.364 238.56 187.416L242.578 190.307ZM168.175 219.799C171.086 219.799 174.167 218.222 176.895 216.694C179.852 215.036 182.735 213.219 185.882 211.828L183.881 207.3C180.448 208.818 177.143 210.88 174.475 212.376C171.577 214 169.595 214.849 168.175 214.849V219.799ZM185.882 211.828C196.036 207.34 204.945 208.093 214.631 206.966C219.371 206.414 224.151 205.386 228.881 202.877C233.624 200.362 238.167 196.44 242.578 190.307L238.56 187.416C234.52 193.032 230.53 196.4 226.562 198.504C222.583 200.615 218.476 201.535 214.059 202.049C205.432 203.053 194.948 202.409 183.881 207.3L185.882 211.828Z" fill="white"/>
<path d="M240.569 207.27L242.578 208.715L240.569 207.27ZM184.881 227.972L183.881 225.709L184.881 227.972ZM242.578 208.715C251.833 195.848 258.963 189.241 264.998 186.282C270.822 183.425 275.861 183.856 281.444 185.869C284.298 186.898 287.246 188.325 290.516 189.953C293.752 191.564 297.283 193.36 301.15 195.017C308.932 198.353 318.158 201.167 329.862 201.167L329.862 196.217C319.013 196.217 310.462 193.623 303.1 190.468C299.394 188.879 296.011 187.159 292.722 185.522C289.468 183.902 286.281 182.351 283.123 181.213C276.681 178.89 270.184 178.225 262.818 181.837C255.662 185.346 247.948 192.772 238.56 205.825L242.578 208.715ZM168.175 238.207C171.086 238.207 174.167 236.631 176.895 235.102C179.852 233.444 182.735 231.627 185.882 230.236L183.881 225.709C180.448 227.226 177.143 229.288 174.475 230.784C171.577 232.408 169.595 233.257 168.175 233.257V238.207ZM185.882 230.236C196.036 225.748 204.945 226.502 214.631 225.374C219.371 224.822 224.151 223.794 228.881 221.286C233.624 218.77 238.167 214.848 242.578 208.715L238.56 205.825C234.52 211.44 230.53 214.808 226.562 216.912C222.583 219.023 218.476 219.943 214.059 220.457C205.432 221.461 194.948 220.817 183.881 225.709L185.882 230.236Z" fill="black" fill-opacity="0.06"/>
<g filter="url(#filter1_d)">
<path d="M306.39 130.101C306.39 124.306 306.39 121.409 307.517 119.196C308.509 117.249 310.092 115.666 312.039 114.675C314.252 113.547 317.149 113.547 322.944 113.547H393.786C399.581 113.547 402.478 113.547 404.691 114.675C406.638 115.666 408.22 117.249 409.212 119.196C410.34 121.409 410.34 124.306 410.34 130.101V139.645C410.34 145.397 410.34 148.273 409.224 150.477C408.242 152.416 406.675 153.996 404.744 154.994C402.549 156.128 399.673 156.151 393.922 156.199L345.869 156.593C343.792 156.61 342.754 156.618 341.759 156.824C340.877 157.006 340.022 157.303 339.216 157.707C338.308 158.163 337.488 158.8 335.848 160.074L334.83 160.866C334.395 161.203 334.178 161.372 333.938 161.437C333.726 161.494 333.503 161.494 333.292 161.437C333.052 161.372 332.834 161.203 332.4 160.866L331.052 159.818C329.649 158.728 328.947 158.183 328.181 157.771C327.276 157.285 326.304 156.937 325.297 156.737C324.444 156.568 323.556 156.544 321.78 156.494C316.794 156.355 314.302 156.285 312.358 155.377C310.068 154.307 308.248 152.437 307.243 150.118C306.39 148.149 306.39 145.655 306.39 140.668V130.101Z" fill="white"/>
</g>
<rect x="316.431" y="138.366" width="58.5588" height="4.31095" rx="2.15547" fill="#EFF2F3"/>
<rect x="316.431" y="127.157" width="47.0607" height="4.31095" rx="2.15547" fill="#EFF2F3"/>
<circle cx="392.397" cy="133.964" r="10.5188" fill="#7AD19D"/>
<path opacity="0.9" d="M393.817 138.124H391.512V139.531H389.336V138.124H387.864V136.362H389.336V135.811H387.864V134.049H389.336V128.974H393.44C394.233 128.974 394.929 129.116 395.529 129.401C396.128 129.687 396.592 130.095 396.921 130.627C397.254 131.154 397.421 131.756 397.421 132.432C397.421 133.477 397.066 134.301 396.355 134.905C395.649 135.509 394.666 135.811 393.404 135.811H391.512V136.362H393.817V138.124ZM391.512 134.049H393.39C394.608 134.049 395.217 133.515 395.217 132.447C395.217 131.939 395.062 131.531 394.753 131.221C394.443 130.907 394.016 130.748 393.469 130.743H391.512V134.049Z" fill="white"/>
<rect x="283.711" y="235.11" width="32.3394" height="32.3394" rx="10.7798" fill="white" fill-opacity="0.51"/>
<rect x="154.355" y="148.873" width="32.3394" height="32.3394" rx="10.7798" fill="white" fill-opacity="0.51"/>
<rect x="240.592" y="235.11" width="32.3394" height="32.3394" rx="10.7798" fill="white" fill-opacity="0.51"/>
<circle cx="139.097" cy="277.964" r="12.378" fill="url(#paint2_linear)"/>
<g filter="url(#filter2_d)">
<rect x="73.5059" y="73.7725" width="112.63" height="127.648" rx="14.8501" fill="white"/>
</g>
<g filter="url(#filter3_d)">
<path d="M167.359 117.792L120.606 100.909C119.593 100.544 118.476 100.595 117.501 101.052C116.526 101.51 115.772 102.335 115.405 103.348L107.352 125.55C107.17 126.053 107.088 126.586 107.113 127.12C107.137 127.654 107.266 128.177 107.492 128.661C107.719 129.145 108.039 129.58 108.434 129.94C108.828 130.3 109.29 130.579 109.793 130.76L156.545 147.643C157.558 148.007 158.675 147.956 159.65 147.498C160.625 147.041 161.379 146.216 161.747 145.204L169.797 123.002C169.98 122.499 170.061 121.966 170.037 121.432C170.013 120.899 169.884 120.375 169.658 119.891C169.431 119.407 169.112 118.973 168.717 118.613C168.323 118.252 167.861 117.973 167.359 117.792Z" fill="url(#paint3_linear)"/>
</g>
<path d="M110.626 116.52L109.655 119.198L103.149 122.06C102.982 122.121 102.803 122.145 102.625 122.13C102.448 122.115 102.276 122.061 102.121 121.972C101.966 121.883 101.833 121.762 101.73 121.616C101.627 121.471 101.557 121.304 101.526 121.129C101.377 120.317 101.464 119.48 101.775 118.716C102.086 117.951 102.609 117.292 103.283 116.815L105.334 115.36C106.509 115.477 107.671 115.695 108.808 116.012L110.626 116.52Z" fill="#FBDBB9"/>
<path d="M122.106 112.384L117.443 110.85L109.843 108.347C108.425 107.881 107.199 106.964 106.352 105.735C109.063 106.202 111.833 106.199 114.543 105.727L115.406 103.347C115.773 102.335 116.527 101.509 117.502 101.052C118.478 100.594 119.594 100.543 120.608 100.909L122.178 101.476L113.103 92.1636C112.549 91.5187 111.819 91.0488 111.003 90.8113C110.187 90.5737 109.319 90.5787 108.505 90.8257C96.0915 94.6235 84.8697 93.4147 84.6643 93.3914H84.6622L79.4863 107.786L90.8076 112.886C93.4909 114.262 96.4458 115.025 99.4595 115.122L103.973 115.268C104.428 115.283 104.882 115.313 105.336 115.359C106.511 115.475 107.673 115.694 108.81 116.011L110.628 116.519L119.867 119.101C120.752 119.377 121.709 119.295 122.534 118.872C123.359 118.449 123.986 117.72 124.279 116.841C124.572 115.961 124.509 115.002 124.103 114.169C123.696 113.336 122.98 112.695 122.106 112.384Z" fill="#FFE0C6"/>
<path d="M73.5059 88.1611V108.717L77.0267 109.998C77.8373 110.293 78.7332 109.873 79.0252 109.062L84.9786 92.5113C85.2962 91.6284 84.767 90.6672 83.8512 90.4634L73.5059 88.1611Z" fill="#BCE7FF"/>
<path d="M101.787 154.912L118.443 164.028C119.103 159.792 122.711 156.553 127.061 156.553H138.799C140.907 156.553 142.986 156.069 144.877 155.137L146.086 154.542C149.312 152.953 152.919 152.299 156.498 152.655C160.077 153.01 163.485 154.361 166.336 156.553L169.26 159.201C170.833 160.624 172.767 161.588 174.85 161.987L174.903 162.004L168.18 184.251L158.624 178.105C157.169 177.275 155.447 177.042 153.823 177.458L136.181 180.762C131.661 181.594 126.993 180.923 122.891 178.853L92.3687 157.533C93.2877 155.955 94.7862 154.799 96.5453 154.309C98.3044 153.82 100.185 154.036 101.787 154.912Z" fill="#FFE8D5"/>
<path d="M118.334 167.127C118.353 167.127 118.373 167.126 118.392 167.125L128.405 166.664C131.34 166.53 134.28 166.668 137.189 167.077C137.355 167.102 137.525 167.094 137.688 167.054C137.851 167.013 138.004 166.941 138.139 166.84C138.274 166.74 138.388 166.614 138.473 166.469C138.559 166.325 138.615 166.165 138.639 165.998C138.662 165.832 138.652 165.663 138.61 165.5C138.567 165.338 138.493 165.185 138.391 165.051C138.289 164.918 138.162 164.806 138.016 164.722C137.871 164.637 137.71 164.583 137.544 164.562C134.479 164.13 131.38 163.985 128.289 164.127L119.719 164.521C120.339 160.96 123.396 158.247 127.062 158.247H138.801C141.102 158.244 143.372 157.714 145.437 156.7L146.648 156.105C149.652 154.616 153.014 154.001 156.35 154.328C159.687 154.654 162.865 155.911 165.524 157.954L168.407 160.566C170.157 162.143 172.304 163.212 174.617 163.66C174.781 163.692 174.951 163.692 175.115 163.659C175.28 163.625 175.436 163.56 175.575 163.466C175.714 163.372 175.833 163.251 175.925 163.111C176.018 162.97 176.081 162.813 176.112 162.648C176.143 162.483 176.141 162.314 176.106 162.15C176.071 161.985 176.004 161.83 175.909 161.692C175.813 161.554 175.691 161.436 175.55 161.345C175.409 161.254 175.251 161.192 175.086 161.163C173.233 160.804 171.514 159.947 170.112 158.683L167.19 156.037C167.164 156.013 167.137 155.991 167.109 155.97C164.075 153.624 160.442 152.179 156.625 151.8C152.809 151.421 148.963 152.123 145.526 153.827L144.316 154.422C142.599 155.265 140.713 155.705 138.801 155.708H127.062C121.549 155.708 117.064 160.261 117.064 165.858C117.064 166.194 117.198 166.518 117.436 166.756C117.674 166.994 117.997 167.128 118.334 167.128V167.127Z" fill="#EED6C4"/>
<path d="M175.37 159.651L186.126 160.11V181.601L168.242 185.348L175.37 159.651Z" fill="#BCE7FF"/>
<circle cx="176.287" cy="88.1622" r="26.1622" fill="url(#paint4_linear)"/>
<path d="M179.62 95.5808H174.331V99.3749H170.192V95.5808H166.825V92.2467H170.192V90.4893H166.825V87.1551H170.192V75.4609H179.341C181.979 75.4609 184.087 76.1508 185.664 77.5304C187.241 78.8991 188.029 80.7222 188.029 82.9997C188.029 85.3211 187.279 87.1442 185.779 88.4691C184.279 89.783 182.193 90.4564 179.521 90.4893H174.331V92.2467H179.62V95.5808ZM174.331 87.1551H179.275C180.764 87.1551 181.903 86.8102 182.691 86.1204C183.48 85.4305 183.874 84.4013 183.874 83.0326C183.874 81.8062 183.485 80.8043 182.708 80.0269C181.941 79.2495 180.879 78.8444 179.521 78.8115H174.331V87.1551Z" fill="white"/>
<circle cx="331.017" cy="180.518" r="9.90004" fill="white" fill-opacity="0.65"/>
<circle cx="331.017" cy="180.517" r="4.95002" fill="#FFA51E"/>
<path opacity="0.9" d="M306.156 256.511H300.229V254.059H306.156V256.511Z" fill="white"/>
<rect x="243.288" y="280.925" width="75.4585" height="32.3394" rx="10.7798" fill="white" fill-opacity="0.51"/>
<path opacity="0.9" d="M285.69 297.115H276.278V294.63H285.69V297.115ZM285.69 301.673H276.278V299.188H285.69V301.673Z" fill="white"/>
<rect x="281.05" y="268.733" width="41.7717" height="8.08484" rx="4.04242" transform="rotate(-15 281.05 268.733)" fill="#E6F1F4"/>
<g filter="url(#filter4_d)">
<rect x="217.675" y="227.153" width="175.172" height="106.45" rx="10.3463" transform="rotate(-15 217.675 227.153)" fill="white"/>
</g>
<rect x="223.604" y="249.28" width="175.172" height="22.9071" transform="rotate(-15 223.604 249.28)" fill="#EFF2F3"/>
<g filter="url(#filter5_d)">
<rect x="217.688" y="235.011" width="175.172" height="106.45" rx="10.3463" fill="white"/>
</g>
<rect x="217.688" y="257.918" width="175.172" height="22.9071" fill="#EFF2F3"/>
<rect x="228.466" y="319.9" width="21.9657" height="8.08484" rx="4.04242" fill="#ADE1FF"/>
<rect x="255.691" y="319.9" width="41.7717" height="8.08484" rx="4.04242" fill="#ADE1FF"/>
<circle cx="355.04" cy="338.869" r="24.1314" fill="url(#paint5_linear)"/>
<path opacity="0.62" d="M344.019 332.377C344.019 330.897 344.499 329.698 345.46 328.781C346.421 327.854 347.68 327.39 349.238 327.39C350.817 327.39 352.087 327.848 353.048 328.765C354.009 329.671 354.49 330.902 354.49 332.46V333.653C354.49 335.144 354.009 336.342 353.048 337.248C352.087 338.154 350.828 338.607 349.271 338.607C347.702 338.607 346.432 338.154 345.46 337.248C344.499 336.331 344.019 335.1 344.019 333.553V332.377ZM347.2 333.653C347.2 334.315 347.387 334.851 347.763 335.26C348.15 335.657 348.652 335.856 349.271 335.856C349.889 335.856 350.381 335.652 350.745 335.243C351.11 334.834 351.292 334.288 351.292 333.603V332.377C351.292 331.714 351.11 331.178 350.745 330.77C350.381 330.361 349.878 330.157 349.238 330.157C348.63 330.157 348.139 330.361 347.763 330.77C347.387 331.167 347.2 331.725 347.2 332.443V333.653ZM355.55 345.946C355.55 344.455 356.036 343.257 357.008 342.351C357.98 341.434 359.24 340.976 360.786 340.976C362.354 340.976 363.619 341.429 364.58 342.334C365.552 343.229 366.038 344.466 366.038 346.046V347.239C366.038 348.719 365.563 349.917 364.613 350.834C363.663 351.74 362.399 352.193 360.819 352.193C359.228 352.193 357.953 351.734 356.992 350.818C356.031 349.901 355.55 348.686 355.55 347.173V345.946ZM358.731 347.239C358.731 347.846 358.93 348.365 359.328 348.796C359.726 349.227 360.223 349.442 360.819 349.442C362.167 349.442 362.84 348.697 362.84 347.206V345.946C362.84 345.284 362.653 344.753 362.277 344.356C361.902 343.947 361.404 343.743 360.786 343.743C360.167 343.743 359.67 343.947 359.295 344.356C358.919 344.753 358.731 345.3 358.731 345.996V347.239ZM350.215 350.055L347.879 348.796L359.659 329.941L361.995 331.2L350.215 350.055Z" fill="#4CBC79"/>
<defs>
<filter id="filter0_d" x="121.74" y="94.8076" width="245.084" height="212.908" filterUnits="userSpaceOnUse" color-interpolation-filters="sRGB">
<feFlood flood-opacity="0" result="BackgroundImageFix"/>
<feColorMatrix in="SourceAlpha" type="matrix" values="0 0 0 0 0 0 0 0 0 0 0 0 0 0 0 0 0 0 127 0"/>
<feOffset dy="13.6413"/>
<feGaussianBlur stdDeviation="6.82067"/>
<feColorMatrix type="matrix" values="0 0 0 0 0.443333 0 0 0 0 0.517843 0 0 0 0 0.95 0 0 0 0.18 0"/>
<feBlend mode="normal" in2="BackgroundImageFix" result="effect1_dropShadow"/>
<feBlend mode="normal" in="SourceGraphic" in2="effect1_dropShadow" result="shape"/>
</filter>
<filter id="filter1_d" x="259.46" y="77.4676" width="197.809" height="141.792" filterUnits="userSpaceOnUse" color-interpolation-filters="sRGB">
<feFlood flood-opacity="0" result="BackgroundImageFix"/>
<feColorMatrix in="SourceAlpha" type="matrix" values="0 0 0 0 0 0 0 0 0 0 0 0 0 0 0 0 0 0 127 0"/>
<feOffset dy="10.85"/>
<feGaussianBlur stdDeviation="23.4646"/>
<feColorMatrix type="matrix" values="0 0 0 0 0.386528 0 0 0 0 0.398292 0 0 0 0 0.504167 0 0 0 0.21 0"/>
<feBlend mode="normal" in2="BackgroundImageFix" result="effect1_dropShadow"/>
<feBlend mode="normal" in="SourceGraphic" in2="effect1_dropShadow" result="shape"/>
</filter>
<filter id="filter2_d" x="26.5766" y="37.6932" width="206.489" height="221.506" filterUnits="userSpaceOnUse" color-interpolation-filters="sRGB">
<feFlood flood-opacity="0" result="BackgroundImageFix"/>
<feColorMatrix in="SourceAlpha" type="matrix" values="0 0 0 0 0 0 0 0 0 0 0 0 0 0 0 0 0 0 127 0"/>
<feOffset dy="10.85"/>
<feGaussianBlur stdDeviation="23.4646"/>
<feColorMatrix type="matrix" values="0 0 0 0 0.386528 0 0 0 0 0.398292 0 0 0 0 0.504167 0 0 0 0.21 0"/>
<feBlend mode="normal" in2="BackgroundImageFix" result="effect1_dropShadow"/>
<feBlend mode="normal" in="SourceGraphic" in2="effect1_dropShadow" result="shape"/>
</filter>
<filter id="filter3_d" x="105.081" y="100.668" width="66.988" height="51.2703" filterUnits="userSpaceOnUse" color-interpolation-filters="sRGB">
<feFlood flood-opacity="0" result="BackgroundImageFix"/>
<feColorMatrix in="SourceAlpha" type="matrix" values="0 0 0 0 0 0 0 0 0 0 0 0 0 0 0 0 0 0 127 0"/>
<feOffset dy="2.02753"/>
<feGaussianBlur stdDeviation="1.01377"/>
<feColorMatrix type="matrix" values="0 0 0 0 0.239216 0 0 0 0 0.847059 0 0 0 0 0.74902 0 0 0 0.33 0"/>
<feBlend mode="normal" in2="BackgroundImageFix" result="effect1_dropShadow"/>
<feBlend mode="normal" in="SourceGraphic" in2="effect1_dropShadow" result="shape"/>
</filter>
<filter id="filter4_d" x="163.237" y="145.736" width="290.613" height="242.02" filterUnits="userSpaceOnUse" color-interpolation-filters="sRGB">
<feFlood flood-opacity="0" result="BackgroundImageFix"/>
<feColorMatrix in="SourceAlpha" type="matrix" values="0 0 0 0 0 0 0 0 0 0 0 0 0 0 0 0 0 0 127 0"/>
<feOffset dx="-7.50868" dy="10.85"/>
<feGaussianBlur stdDeviation="23.4646"/>
<feColorMatrix type="matrix" values="0 0 0 0 0.386528 0 0 0 0 0.398292 0 0 0 0 0.504167 0 0 0 0.15 0"/>
<feBlend mode="normal" in2="BackgroundImageFix" result="effect1_dropShadow"/>
<feBlend mode="normal" in="SourceGraphic" in2="effect1_dropShadow" result="shape"/>
</filter>
<filter id="filter5_d" x="163.251" y="198.932" width="269.03" height="200.309" filterUnits="userSpaceOnUse" color-interpolation-filters="sRGB">
<feFlood flood-opacity="0" result="BackgroundImageFix"/>
<feColorMatrix in="SourceAlpha" type="matrix" values="0 0 0 0 0 0 0 0 0 0 0 0 0 0 0 0 0 0 127 0"/>
<feOffset dx="-7.50868" dy="10.85"/>
<feGaussianBlur stdDeviation="23.4646"/>
<feColorMatrix type="matrix" values="0 0 0 0 0.430451 0 0 0 0 0.45449 0 0 0 0 0.670833 0 0 0 0.28 0"/>
<feBlend mode="normal" in2="BackgroundImageFix" result="effect1_dropShadow"/>
<feBlend mode="normal" in="SourceGraphic" in2="effect1_dropShadow" result="shape"/>
</filter>
<linearGradient id="paint0_linear" x1="341.746" y1="87.7734" x2="341.746" y2="105.099" gradientUnits="userSpaceOnUse">
<stop stop-color="#A8F5C8"/>
<stop offset="1" stop-color="#C2FDDA" stop-opacity="0.17"/>
</linearGradient>
<linearGradient id="paint1_linear" x1="244.281" y1="94.8076" x2="244.281" y2="280.433" gradientUnits="userSpaceOnUse">
<stop stop-color="#B4BEFF"/>
<stop offset="1" stop-color="#97A6FF"/>
</linearGradient>
<linearGradient id="paint2_linear" x1="139.097" y1="265.586" x2="139.097" y2="290.342" gradientUnits="userSpaceOnUse">
<stop stop-color="#3DA0FE" stop-opacity="0.46"/>
<stop offset="1" stop-color="#3DA0FE" stop-opacity="0"/>
</linearGradient>
<linearGradient id="paint3_linear" x1="156.516" y1="109.987" x2="115.692" y2="132.742" gradientUnits="userSpaceOnUse">
<stop stop-color="#2BD5CA"/>
<stop offset="1" stop-color="#6FE09C"/>
</linearGradient>
<linearGradient id="paint4_linear" x1="176.287" y1="62" x2="176.287" y2="114.324" gradientUnits="userSpaceOnUse">
<stop stop-color="#9EEDBF"/>
<stop offset="1" stop-color="#BBEDD0" stop-opacity="0.17"/>
</linearGradient>
<linearGradient id="paint5_linear" x1="355.04" y1="314.737" x2="355.04" y2="363" gradientUnits="userSpaceOnUse">
<stop stop-color="#9EEDBF"/>
<stop offset="1" stop-color="#BBEDD0" stop-opacity="0.17"/>
</linearGradient>
</defs>
</svg>
