<svg width="373" height="307" viewBox="0 0 373 307" fill="none" xmlns="http://www.w3.org/2000/svg">
<circle cx="318.354" cy="55.6085" r="16.1739" fill="url(#paint0_linear)"/>
<circle cx="69.5" cy="247.5" r="30.5" fill="url(#paint1_linear)"/>
<g filter="url(#filter0_d)">
<rect x="76" y="47" width="248.695" height="211.956" rx="25.9605" fill="url(#paint2_linear)"/>
</g>
<rect x="111.182" y="242.261" width="78.1713" height="4.92244" rx="2.46122" fill="white" fill-opacity="0.2"/>
<rect x="111.182" y="229.462" width="53.7361" height="4.92244" rx="2.46122" fill="white" fill-opacity="0.2"/>
<path d="M112.594 62.7891V221.05" stroke="white" stroke-opacity="0.06" stroke-width="1.41304"/>
<path d="M310.266 214.652L100.23 214.584" stroke="white" stroke-opacity="0.06" stroke-width="1.41304"/>
<path d="M310.266 168.825L100.005 168.825" stroke="white" stroke-opacity="0.06" stroke-width="1.41304"/>
<path d="M310.266 123L100.005 123" stroke="white" stroke-opacity="0.06" stroke-width="1.41304"/>
<path d="M310.266 78.5225L100.005 78.5225" stroke="white" stroke-opacity="0.06" stroke-width="1.41304"/>
<path d="M157.812 71.2666V221.049" stroke="white" stroke-opacity="0.06" stroke-width="1.41304"/>
<path d="M203.03 71.2666V230.94" stroke="white" stroke-opacity="0.06" stroke-width="1.41304"/>
<path d="M248.247 71.2666V230.94" stroke="white" stroke-opacity="0.06" stroke-width="1.41304"/>
<path d="M293.466 71.2666V230.94" stroke="white" stroke-opacity="0.06" stroke-width="1.41304"/>
<path opacity="0.22" d="M200 213C233.137 213 260 186.137 260 153C260 119.863 233.137 93 200 93C166.863 93 140 119.863 140 153C140 186.137 166.863 213 200 213Z" fill="url(#paint3_linear)"/>
<path d="M189 180.5C187.056 180.5 187.387 179.766 186.716 177.915L181 159.104L225 133" fill="#C8DAEA"/>
<path d="M189 180.5C190.5 180.5 191.163 179.814 192 179L200 171.221L190.021 165.203" fill="#A9C9DD"/>
<path d="M190.021 165.206L214.201 183.07C216.96 184.593 218.951 183.804 219.639 180.509L229.481 134.127C230.489 130.087 227.941 128.254 225.301 129.453L167.506 151.738C163.561 153.321 163.585 155.522 166.787 156.502L181.619 161.132L215.955 139.469C217.576 138.486 219.064 139.014 217.843 140.098" fill="url(#paint4_linear)"/>
<g filter="url(#filter1_d)">
<rect x="112.493" y="54.2607" width="70.1468" height="79.4996" rx="14" transform="rotate(15 112.493 54.2607)" fill="white"/>
</g>
<circle cx="136.275" cy="101.689" r="18.337" transform="rotate(15 136.275 101.689)" fill="url(#paint5_linear)"/>
<path opacity="0.62" d="M129.463 94.7552C129.754 93.6688 130.342 92.8837 131.228 92.3998C132.115 91.9077 133.131 91.8149 134.274 92.1212C135.433 92.4318 136.276 93.0181 136.801 93.88C137.328 94.7338 137.438 95.7323 137.132 96.8755L136.897 97.7511C136.604 98.8456 136.016 99.6307 135.132 100.107C134.249 100.582 133.236 100.667 132.092 100.361C130.941 100.052 130.098 99.4701 129.563 98.6141C129.037 97.7522 128.927 96.7537 129.231 95.6187L129.463 94.7552ZM131.547 96.3173C131.416 96.8037 131.449 97.2339 131.644 97.6077C131.85 97.9756 132.179 98.2204 132.633 98.342C133.087 98.4637 133.488 98.4104 133.836 98.1821C134.184 97.9538 134.425 97.5883 134.56 97.0857L134.801 96.1857C134.932 95.6993 134.903 95.2702 134.716 94.8986C134.529 94.5269 134.2 94.2781 133.73 94.1521C133.284 94.0326 132.883 94.0859 132.527 94.312C132.173 94.53 131.926 94.9025 131.784 95.4295L131.547 96.3173ZM135.258 106.983C135.551 105.889 136.144 105.105 137.035 104.631C137.929 104.149 138.943 104.06 140.078 104.365C141.23 104.673 142.069 105.254 142.596 106.108C143.134 106.956 143.247 107.959 142.936 109.119L142.702 109.994C142.411 111.081 141.826 111.867 140.949 112.353C140.073 112.831 139.056 112.915 137.897 112.604C136.729 112.291 135.883 111.704 135.358 110.842C134.833 109.98 134.719 108.994 135.017 107.883L135.258 106.983ZM137.339 108.557C137.219 109.003 137.263 109.423 137.47 109.818C137.677 110.212 138 110.468 138.438 110.585C139.427 110.85 140.068 110.436 140.361 109.341L140.609 108.417C140.739 107.93 140.706 107.504 140.508 107.139C140.313 106.765 139.988 106.517 139.534 106.395C139.08 106.274 138.675 106.326 138.319 106.552C137.965 106.77 137.72 107.135 137.583 107.645L137.339 108.557ZM130.534 108.95L129.067 107.566L141.422 96.0436L142.889 97.4273L130.534 108.95Z" fill="#E49287"/>
<g filter="url(#filter2_d)">
<rect x="39" y="30" width="91.5729" height="103.783" rx="14" fill="white"/>
</g>
<circle cx="85.0112" cy="81.77" r="23.938" fill="url(#paint6_linear)"/>
<path opacity="0.62" d="M74.0811 75.329C74.0811 73.8607 74.5577 72.6719 75.511 71.7624C76.4642 70.842 77.7134 70.3818 79.2583 70.3818C80.8252 70.3818 82.0853 70.8366 83.0385 71.746C83.9918 72.6445 84.4685 73.8662 84.4685 75.4112V76.5946C84.4685 78.0738 83.9918 79.2626 83.0385 80.1611C82.0853 81.0596 80.8362 81.5089 79.2912 81.5089C77.7353 81.5089 76.4752 81.0596 75.511 80.1611C74.5577 79.2517 74.0811 78.0299 74.0811 76.4959V75.329ZM77.2367 76.5946C77.2367 77.252 77.423 77.7834 77.7955 78.1888C78.179 78.5833 78.6776 78.7805 79.2912 78.7805C79.9048 78.7805 80.3924 78.5778 80.754 78.1724C81.1156 77.767 81.2964 77.2246 81.2964 76.5452V75.329C81.2964 74.6716 81.1156 74.1401 80.754 73.7347C80.3924 73.3293 79.8938 73.1266 79.2583 73.1266C78.6557 73.1266 78.1681 73.3293 77.7955 73.7347C77.423 74.1292 77.2367 74.6825 77.2367 75.3947V76.5946ZM85.5203 88.7899C85.5203 87.3107 86.0025 86.1218 86.9667 85.2233C87.9309 84.3139 89.18 83.8592 90.7141 83.8592C92.27 83.8592 93.5246 84.3084 94.4778 85.2069C95.4421 86.0944 95.9242 87.3216 95.9242 88.8885V90.0719C95.9242 91.5401 95.453 92.729 94.5107 93.6384C93.5684 94.5369 92.3138 94.9862 90.7469 94.9862C89.1691 94.9862 87.9035 94.5315 86.9503 93.622C85.997 92.7126 85.5203 91.5073 85.5203 90.0061V88.7899ZM88.676 90.0719C88.676 90.6745 88.8732 91.1895 89.2677 91.6168C89.6622 92.0442 90.1552 92.2578 90.7469 92.2578C92.0837 92.2578 92.7521 91.5182 92.7521 90.039V88.7899C92.7521 88.1325 92.5658 87.6065 92.1933 87.2121C91.8207 86.8066 91.3277 86.6039 90.7141 86.6039C90.1004 86.6039 89.6074 86.8066 89.2348 87.2121C88.8623 87.6065 88.676 88.1489 88.676 88.8392V90.0719ZM80.228 92.866L77.9106 91.6168L89.5964 72.9129L91.9139 74.1621L80.228 92.866Z" fill="#4CBC79"/>
<g filter="url(#filter3_d)">
<rect x="277.918" y="197.13" width="66.5985" height="75.4783" rx="14" fill="white"/>
</g>
<circle cx="311.381" cy="234.781" r="17.4094" fill="url(#paint7_linear)"/>
<path opacity="0.62" d="M303.432 230.098C303.432 229.03 303.778 228.165 304.472 227.504C305.165 226.835 306.073 226.5 307.197 226.5C308.336 226.5 309.253 226.831 309.946 227.492C310.639 228.146 310.986 229.034 310.986 230.158V231.018C310.986 232.094 310.639 232.959 309.946 233.612C309.253 234.266 308.344 234.592 307.221 234.592C306.089 234.592 305.173 234.266 304.472 233.612C303.778 232.951 303.432 232.062 303.432 230.947V230.098ZM305.727 231.018C305.727 231.496 305.862 231.883 306.133 232.178C306.412 232.465 306.775 232.608 307.221 232.608C307.667 232.608 308.022 232.461 308.285 232.166C308.548 231.871 308.679 231.477 308.679 230.982V230.098C308.679 229.62 308.548 229.233 308.285 228.938C308.022 228.644 307.659 228.496 307.197 228.496C306.759 228.496 306.404 228.644 306.133 228.938C305.862 229.225 305.727 229.628 305.727 230.146V231.018ZM311.751 239.888C311.751 238.812 312.102 237.947 312.803 237.294C313.504 236.632 314.413 236.302 315.528 236.302C316.66 236.302 317.572 236.628 318.266 237.282C318.967 237.927 319.318 238.82 319.318 239.959V240.82C319.318 241.888 318.975 242.752 318.29 243.414C317.604 244.067 316.692 244.394 315.552 244.394C314.405 244.394 313.484 244.063 312.791 243.402C312.098 242.741 311.751 241.864 311.751 240.772V239.888ZM314.046 240.82C314.046 241.258 314.19 241.633 314.476 241.944C314.763 242.254 315.122 242.41 315.552 242.41C316.524 242.41 317.011 241.872 317.011 240.796V239.888C317.011 239.41 316.875 239.027 316.604 238.74C316.333 238.445 315.975 238.298 315.528 238.298C315.082 238.298 314.724 238.445 314.453 238.74C314.182 239.027 314.046 239.422 314.046 239.924V240.82ZM307.902 242.852L306.217 241.944L314.716 228.341L316.401 229.249L307.902 242.852Z" fill="#E99A25"/>
<defs>
<filter id="filter0_d" x="60.4237" y="47" width="279.848" height="243.109" filterUnits="userSpaceOnUse" color-interpolation-filters="sRGB">
<feFlood flood-opacity="0" result="BackgroundImageFix"/>
<feColorMatrix in="SourceAlpha" type="matrix" values="0 0 0 0 0 0 0 0 0 0 0 0 0 0 0 0 0 0 127 0"/>
<feOffset dy="15.5763"/>
<feGaussianBlur stdDeviation="7.78816"/>
<feColorMatrix type="matrix" values="0 0 0 0 0.156863 0 0 0 0 0.627451 0 0 0 0 0.823529 0 0 0 0.21 0"/>
<feBlend mode="normal" in2="BackgroundImageFix" result="effect1_dropShadow"/>
<feBlend mode="normal" in="SourceGraphic" in2="effect1_dropShadow" result="shape"/>
</filter>
<filter id="filter1_d" x="62.6892" y="31.7904" width="146.788" height="153.402" filterUnits="userSpaceOnUse" color-interpolation-filters="sRGB">
<feFlood flood-opacity="0" result="BackgroundImageFix"/>
<feColorMatrix in="SourceAlpha" type="matrix" values="0 0 0 0 0 0 0 0 0 0 0 0 0 0 0 0 0 0 127 0"/>
<feOffset dy="6.75747"/>
<feGaussianBlur stdDeviation="14.6139"/>
<feColorMatrix type="matrix" values="0 0 0 0 0.386528 0 0 0 0 0.398292 0 0 0 0 0.504167 0 0 0 0.21 0"/>
<feBlend mode="normal" in2="BackgroundImageFix" result="effect1_dropShadow"/>
<feBlend mode="normal" in="SourceGraphic" in2="effect1_dropShadow" result="shape"/>
</filter>
<filter id="filter2_d" x="0.844631" y="0.666153" width="167.884" height="180.093" filterUnits="userSpaceOnUse" color-interpolation-filters="sRGB">
<feFlood flood-opacity="0" result="BackgroundImageFix"/>
<feColorMatrix in="SourceAlpha" type="matrix" values="0 0 0 0 0 0 0 0 0 0 0 0 0 0 0 0 0 0 127 0"/>
<feOffset dy="8.82152"/>
<feGaussianBlur stdDeviation="19.0777"/>
<feColorMatrix type="matrix" values="0 0 0 0 0.386528 0 0 0 0 0.398292 0 0 0 0 0.504167 0 0 0 0.21 0"/>
<feBlend mode="normal" in2="BackgroundImageFix" result="effect1_dropShadow"/>
<feBlend mode="normal" in="SourceGraphic" in2="effect1_dropShadow" result="shape"/>
</filter>
<filter id="filter3_d" x="250.169" y="175.796" width="122.097" height="130.977" filterUnits="userSpaceOnUse" color-interpolation-filters="sRGB">
<feFlood flood-opacity="0" result="BackgroundImageFix"/>
<feColorMatrix in="SourceAlpha" type="matrix" values="0 0 0 0 0 0 0 0 0 0 0 0 0 0 0 0 0 0 127 0"/>
<feOffset dy="6.41565"/>
<feGaussianBlur stdDeviation="13.8747"/>
<feColorMatrix type="matrix" values="0 0 0 0 0.386528 0 0 0 0 0.398292 0 0 0 0 0.504167 0 0 0 0.21 0"/>
<feBlend mode="normal" in2="BackgroundImageFix" result="effect1_dropShadow"/>
<feBlend mode="normal" in="SourceGraphic" in2="effect1_dropShadow" result="shape"/>
</filter>
<linearGradient id="paint0_linear" x1="318.354" y1="39.4346" x2="318.354" y2="71.7824" gradientUnits="userSpaceOnUse">
<stop stop-color="#A8F5C8"/>
<stop offset="1" stop-color="#C2FDDA" stop-opacity="0.17"/>
</linearGradient>
<linearGradient id="paint1_linear" x1="69.5" y1="217" x2="69.5" y2="278" gradientUnits="userSpaceOnUse">
<stop stop-color="#FEB13D" stop-opacity="0.46"/>
<stop offset="1" stop-color="#FFE27C" stop-opacity="0"/>
</linearGradient>
<linearGradient id="paint2_linear" x1="200.348" y1="47" x2="200.348" y2="258.956" gradientUnits="userSpaceOnUse">
<stop stop-color="#49C2F5"/>
<stop offset="1" stop-color="#1F97C9"/>
</linearGradient>
<linearGradient id="paint3_linear" x1="220.04" y1="113.04" x2="190.04" y2="183" gradientUnits="userSpaceOnUse">
<stop stop-color="#F3FBFF"/>
<stop offset="1" stop-color="#DAF4FF"/>
</linearGradient>
<linearGradient id="paint4_linear" x1="207.523" y1="153.006" x2="216.886" y2="174.34" gradientUnits="userSpaceOnUse">
<stop stop-color="#EFF7FC"/>
<stop offset="1" stop-color="white"/>
</linearGradient>
<linearGradient id="paint5_linear" x1="136.275" y1="83.3516" x2="136.275" y2="120.026" gradientUnits="userSpaceOnUse">
<stop stop-color="#F5B1A8" stop-opacity="0.58"/>
<stop offset="1" stop-color="#FDECC2" stop-opacity="0.01"/>
</linearGradient>
<linearGradient id="paint6_linear" x1="85.0112" y1="57.832" x2="85.0112" y2="105.708" gradientUnits="userSpaceOnUse">
<stop stop-color="#9EEDBF"/>
<stop offset="1" stop-color="#BBEDD0" stop-opacity="0.17"/>
</linearGradient>
<linearGradient id="paint7_linear" x1="311.381" y1="217.372" x2="311.381" y2="254.512" gradientUnits="userSpaceOnUse">
<stop stop-color="#FFD056" stop-opacity="0.58"/>
<stop offset="1" stop-color="#FFC671" stop-opacity="0"/>
</linearGradient>
</defs>
</svg>
