<svg width="168" height="48" viewBox="0 0 168 48" fill="none" xmlns="http://www.w3.org/2000/svg">
<path d="M161.778 48H6.22222C2.80156 48 0 45.2985 0 42V6C0 2.7015 2.80156 -2.1874e-06 6.22222 -2.1874e-06H161.778C165.198 -2.1874e-06 168 2.7015 168 6V42C168 45.2985 165.198 48 161.778 48Z" fill="#002D4F"/>
<path d="M30.7236 24.3471C30.737 23.3246 31.012 22.3221 31.523 21.4328C32.0341 20.5435 32.7646 19.7964 33.6467 19.2608C33.0863 18.4705 32.3471 17.8201 31.4878 17.3613C30.6284 16.9025 29.6725 16.6478 28.6961 16.6177C26.6132 16.4018 24.5939 17.8486 23.5324 17.8486C22.4505 17.8486 20.8163 16.6391 19.0565 16.6749C17.9182 16.7112 16.8089 17.0381 15.8366 17.6237C14.8642 18.2093 14.0621 19.0337 13.5083 20.0165C11.1094 24.1183 12.8988 30.1466 15.1967 33.4622C16.3464 35.0858 17.6901 36.8993 19.4483 36.835C21.1688 36.7645 21.8114 35.7515 23.8882 35.7515C25.9457 35.7515 26.5486 36.835 28.3424 36.7941C30.1886 36.7645 31.3518 35.1633 32.4612 33.5244C33.2873 32.3676 33.9229 31.089 34.3446 29.7361C33.272 29.2881 32.3567 28.5381 31.7128 27.5798C31.0689 26.6215 30.7249 25.4972 30.7236 24.3471Z" fill="white"/>
<path d="M27.3356 14.4362C28.3422 13.2428 28.8381 11.7088 28.718 10.1602C27.1802 10.3197 25.7596 11.0456 24.7394 12.1932C24.2406 12.7538 23.8585 13.4061 23.6151 14.1126C23.3717 14.8191 23.2717 15.5661 23.3207 16.3109C24.09 16.3187 24.8509 16.154 25.5464 15.8293C26.2418 15.5046 26.8536 15.0282 27.3356 14.4362Z" fill="white"/>
<path d="M52.4722 32.7234H46.6009L45.1909 36.8351H42.7041L48.2653 21.623H50.849L56.4102 36.8351H53.8809L52.4722 32.7234ZM47.209 30.8261H51.8629L49.5687 24.1532H49.5045L47.209 30.8261Z" fill="white"/>
<path d="M68.4203 31.291C68.4203 34.7376 66.5525 36.9519 63.7337 36.9519C63.0197 36.9888 62.3095 36.8263 61.6846 36.4832C61.0597 36.14 60.5453 35.63 60.2003 35.0115H60.1469V40.5048H57.8418V25.745H60.0731V27.5897H60.1155C60.4764 26.9742 60.9995 26.4668 61.6292 26.1216C62.2588 25.7763 62.9715 25.6061 63.6913 25.629C66.5415 25.629 68.4203 27.8541 68.4203 31.291ZM66.051 31.291C66.051 29.0456 64.876 27.5694 63.0832 27.5694C61.322 27.5694 60.1373 29.0767 60.1373 31.291C60.1373 33.5257 61.322 35.0223 63.0832 35.0223C64.876 35.0223 66.051 33.5568 66.051 31.291Z" fill="white"/>
<path d="M80.7807 31.291C80.7807 34.7375 78.9128 36.9519 76.0941 36.9519C75.38 36.9888 74.6699 36.8263 74.045 36.4831C73.4201 36.14 72.9057 35.63 72.5606 35.0115H72.5073V40.5048H70.2021V25.745H72.4334V27.5897H72.4758C72.8367 26.9742 73.3598 26.4668 73.9895 26.1215C74.6191 25.7763 75.3318 25.6061 76.0516 25.629C78.9019 25.629 80.7807 27.8541 80.7807 31.291ZM78.4113 31.291C78.4113 29.0456 77.2363 27.5694 75.4436 27.5694C73.6823 27.5694 72.4976 29.0767 72.4976 31.291C72.4976 33.5257 73.6823 35.0223 75.4436 35.0223C77.2363 35.0223 78.4113 33.5568 78.4113 31.291H78.4113Z" fill="white"/>
<path d="M88.9495 32.5974C89.1203 34.1059 90.6042 35.0963 92.6319 35.0963C94.5749 35.0963 95.9728 34.1058 95.9728 32.7456C95.9728 31.5649 95.1297 30.8579 93.1334 30.3734L91.1372 29.8985C88.3088 29.2238 86.9957 27.9174 86.9957 25.7976C86.9957 23.1729 89.3117 21.3701 92.6005 21.3701C95.8552 21.3701 98.0865 23.1729 98.1616 25.7976H95.8347C95.6954 24.2795 94.4247 23.3631 92.5677 23.3631C90.7108 23.3631 89.4401 24.2903 89.4401 25.6397C89.4401 26.7151 90.2517 27.348 92.237 27.8324L93.9341 28.244C97.0944 28.9821 98.4075 30.2358 98.4075 32.4609C98.4075 35.3068 96.112 37.0893 92.4611 37.0893C89.0452 37.0893 86.7388 35.3487 86.5898 32.5972L88.9495 32.5974Z" fill="white"/>
<path d="M103.382 23.1201V25.7448H105.518V27.5476H103.382V33.6618C103.382 34.6117 103.81 35.0543 104.749 35.0543C105.002 35.0499 105.256 35.0324 105.507 35.0016V36.7937C105.085 36.8716 104.656 36.9068 104.227 36.8989C101.953 36.8989 101.066 36.0556 101.066 33.9046V27.5476H99.4336V25.7448H101.066V23.1201H103.382Z" fill="white"/>
<path d="M106.755 31.2908C106.755 27.8012 108.836 25.6084 112.081 25.6084C115.337 25.6084 117.408 27.8011 117.408 31.2908C117.408 34.7899 115.348 36.9731 112.081 36.9731C108.815 36.9731 106.755 34.7899 106.755 31.2908ZM115.06 31.2908C115.06 28.897 113.949 27.4842 112.081 27.4842C110.213 27.4842 109.104 28.9078 109.104 31.2908C109.104 33.6941 110.213 35.0962 112.081 35.0962C113.949 35.0962 115.06 33.6941 115.06 31.2908H115.06Z" fill="white"/>
<path d="M119.31 25.7449H121.508V27.6327H121.561C121.71 27.0431 122.06 26.5221 122.552 26.1571C123.044 25.7922 123.648 25.6057 124.263 25.6289C124.528 25.628 124.793 25.6565 125.053 25.7138V27.8432C124.717 27.742 124.367 27.6955 124.017 27.7056C123.682 27.6922 123.348 27.7505 123.038 27.8766C122.728 28.0026 122.45 28.1934 122.221 28.4358C121.993 28.6782 121.821 28.9665 121.716 29.281C121.611 29.5954 121.577 29.9285 121.615 30.2573V36.8357H119.31L119.31 25.7449Z" fill="white"/>
<path d="M135.68 33.5781C135.37 35.5914 133.385 36.9731 130.844 36.9731C127.578 36.9731 125.55 34.8114 125.55 31.3434C125.55 27.8646 127.588 25.6084 130.748 25.6084C133.855 25.6084 135.809 27.7163 135.809 31.079V31.859H127.877V31.9966C127.84 32.4047 127.892 32.8159 128.029 33.2028C128.165 33.5897 128.384 33.9435 128.669 34.2406C128.955 34.5377 129.302 34.7714 129.686 34.9262C130.07 35.0809 130.483 35.1531 130.898 35.138C131.443 35.1884 131.989 35.0638 132.456 34.7828C132.924 34.5017 133.287 34.0792 133.491 33.5781L135.68 33.5781ZM127.888 30.2679H133.502C133.523 29.9009 133.466 29.5337 133.337 29.1892C133.207 28.8447 133.006 28.5304 132.748 28.2661C132.489 28.0018 132.178 27.7932 131.834 27.6532C131.489 27.5133 131.12 27.4452 130.748 27.4531C130.372 27.4509 130 27.5221 129.653 27.6626C129.305 27.8032 128.99 28.0103 128.724 28.272C128.458 28.5337 128.247 28.8448 128.104 29.1874C127.96 29.53 127.887 29.8972 127.888 30.268V30.2679Z" fill="white"/>
<path d="M45.3809 15.8535V14.7695C46.291 15.1055 47.0781 15.2734 47.7422 15.2734C48.332 15.2734 48.8027 15.125 49.1543 14.8281C49.5098 14.5312 49.6875 14.1367 49.6875 13.6445C49.6875 13.0508 49.4551 12.5996 48.9902 12.291C48.5254 11.9785 47.8457 11.8223 46.9512 11.8223H46.7695V10.9551H46.9395C47.7402 10.9551 48.3613 10.8105 48.8027 10.5215C49.2441 10.2285 49.4648 9.81641 49.4648 9.28516C49.4648 8.86328 49.3145 8.54688 49.0137 8.33594C48.7168 8.125 48.2715 8.01953 47.6777 8.01953C47.0566 8.01953 46.3398 8.16992 45.5273 8.4707V7.47461C46.2734 7.23242 47.0137 7.11133 47.748 7.11133C48.6973 7.11133 49.4316 7.29297 49.9512 7.65625C50.4707 8.01562 50.7305 8.52734 50.7305 9.19141C50.7305 10.2188 50.1016 10.918 48.8438 11.2891C49.5195 11.3984 50.0449 11.6523 50.4199 12.0508C50.7988 12.4453 50.9883 12.9395 50.9883 13.5332C50.9883 14.2949 50.6777 14.9336 50.0566 15.4492C49.4395 15.9609 48.6738 16.2168 47.7598 16.2168C46.9395 16.2168 46.1465 16.0957 45.3809 15.8535ZM55.9277 15.1914C55.2363 15.8281 54.5703 16.1465 53.9297 16.1465C53.4023 16.1465 52.9648 15.9824 52.6172 15.6543C52.2695 15.3223 52.0957 14.9043 52.0957 14.4004C52.0957 13.7051 52.3867 13.1719 52.9688 12.8008C53.5547 12.4258 54.3926 12.2383 55.4824 12.2383H55.7578V11.4707C55.7578 10.7324 55.3789 10.3633 54.6211 10.3633C54.0117 10.3633 53.3535 10.5508 52.6465 10.9258V9.9707C53.4238 9.6543 54.1523 9.49609 54.832 9.49609C55.543 9.49609 56.0664 9.65625 56.4023 9.97656C56.7422 10.2969 56.9121 10.7949 56.9121 11.4707V14.3535C56.9121 15.0137 57.1152 15.3438 57.5215 15.3438C57.5723 15.3438 57.6465 15.3359 57.7441 15.3203L57.8262 15.959C57.5645 16.084 57.2754 16.1465 56.959 16.1465C56.4199 16.1465 56.0762 15.8281 55.9277 15.1914ZM55.7578 14.5645V12.918L55.3711 12.9062C54.7383 12.9062 54.2266 13.0273 53.8359 13.2695C53.4453 13.5078 53.25 13.8223 53.25 14.2129C53.25 14.4902 53.3477 14.7246 53.543 14.916C53.7383 15.1074 53.9766 15.2031 54.2578 15.2031C54.7383 15.2031 55.2383 14.9902 55.7578 14.5645ZM59.2793 16V9.63672H63.9082V10.6504H60.4336V16H59.2793ZM65.209 18.3145V9.63672H66.3633V10.832C66.8359 9.94141 67.5449 9.49609 68.4902 9.49609C69.2559 9.49609 69.8574 9.77539 70.2949 10.334C70.7363 10.8926 70.957 11.6562 70.957 12.625C70.957 13.6797 70.707 14.5312 70.207 15.1797C69.7109 15.8242 69.0566 16.1465 68.2441 16.1465C67.4902 16.1465 66.8633 15.8574 66.3633 15.2793V18.3145H65.209ZM66.3633 14.4824C66.957 15.0137 67.5234 15.2793 68.0625 15.2793C69.1719 15.2793 69.7266 14.4336 69.7266 12.7422C69.7266 11.25 69.2344 10.5039 68.25 10.5039C67.6055 10.5039 66.9766 10.8535 66.3633 11.5527V14.4824ZM72.3047 18.3145V17.3008H72.4688C73.0859 17.3008 73.5059 17.2227 73.7285 17.0664C73.9551 16.9141 74.166 16.5586 74.3613 16L71.9004 9.63672H73.1426L74.9883 14.418H75L76.916 9.63672H78.0059L75.5156 15.8535C75.0859 16.9277 74.6934 17.6055 74.3379 17.8867C73.9863 18.1719 73.3535 18.3145 72.4395 18.3145H72.3047ZM78.5391 15.8711V14.8984C79.1484 15.1328 79.7754 15.25 80.4199 15.25C80.8691 15.25 81.2324 15.1484 81.5098 14.9453C81.791 14.7383 81.9316 14.4707 81.9316 14.1426C81.9316 13.7559 81.7773 13.4668 81.4688 13.2754C81.1602 13.0801 80.6973 12.9824 80.0801 12.9824H79.9277V12.2207H80.1211C80.668 12.2207 81.0781 12.1445 81.3516 11.9922C81.6289 11.8359 81.7676 11.6035 81.7676 11.2949C81.7676 10.9902 81.6445 10.7617 81.3984 10.6094C81.1523 10.4531 80.7832 10.375 80.291 10.375C79.7988 10.375 79.252 10.4824 78.6504 10.6973V9.76562C79.209 9.58594 79.8262 9.49609 80.502 9.49609C81.2676 9.49609 81.8652 9.63281 82.2949 9.90625C82.7285 10.1797 82.9453 10.5605 82.9453 11.0488C82.9453 11.3574 82.8477 11.6406 82.6523 11.8984C82.457 12.1523 82.166 12.3828 81.7793 12.5898C82.2324 12.7305 82.5723 12.9316 82.7988 13.1934C83.0293 13.4512 83.1445 13.7695 83.1445 14.1484C83.1445 14.7227 82.8809 15.1992 82.3535 15.5781C81.8301 15.957 81.1719 16.1465 80.3789 16.1465C79.8633 16.1465 79.25 16.0547 78.5391 15.8711ZM84.9551 16V9.63672H86.0391V14.4531L89.0039 9.63672H90.1582V16H89.0742V11.1836L86.1152 16H84.9551ZM93.7148 16V10.5625H91.4707V9.63672H97.1133V10.5625H94.8691V16H93.7148ZM103.072 15.7949C102.299 16.0293 101.637 16.1465 101.086 16.1465C100.148 16.1465 99.3828 15.8359 98.7891 15.2148C98.1992 14.5898 97.9043 13.7812 97.9043 12.7891C97.9043 11.8242 98.1641 11.0332 98.6836 10.416C99.207 9.79883 99.875 9.49023 100.688 9.49023C101.457 9.49023 102.051 9.76367 102.469 10.3105C102.891 10.8574 103.102 11.6348 103.102 12.6426L103.096 13H99.082C99.25 14.5117 99.9902 15.2676 101.303 15.2676C101.783 15.2676 102.373 15.1387 103.072 14.8809V15.7949ZM99.1348 12.1328H101.941C101.941 10.9492 101.5 10.3574 100.617 10.3574C99.7305 10.3574 99.2363 10.9492 99.1348 12.1328ZM108.896 16V9.63672H111.111C111.783 9.63672 112.287 9.75195 112.623 9.98242C112.959 10.2129 113.127 10.5586 113.127 11.0195C113.127 11.4102 113.025 11.7441 112.822 12.0215C112.619 12.2949 112.314 12.5137 111.908 12.6777C112.4 12.8379 112.77 13.0605 113.016 13.3457C113.262 13.6309 113.385 13.9805 113.385 14.3945C113.385 14.8984 113.203 15.293 112.84 15.5781C112.477 15.8594 111.977 16 111.34 16H108.896ZM110.045 15.1328H110.525C111.178 15.1328 111.615 15.0762 111.838 14.9629C112.061 14.8457 112.172 14.6211 112.172 14.2891C112.172 13.9336 112.025 13.6465 111.732 13.4277C111.443 13.2051 111.062 13.0938 110.59 13.0938H110.045V15.1328ZM110.045 12.332H110.625C111.504 12.332 111.943 11.9746 111.943 11.2598C111.943 11.0098 111.838 10.8223 111.627 10.6973C111.42 10.5684 111.109 10.5039 110.695 10.5039H110.045V12.332Z" fill="white"/>
</svg>
