<svg width="120" height="120" viewBox="0 0 120 120" fill="none" xmlns="http://www.w3.org/2000/svg">
<g filter="url(#filter0_d_2_3677)">
<circle cx="60" cy="56" r="47" fill="url(#paint0_linear_2_3677)" shape-rendering="crispEdges"/>
</g>
<g clip-path="url(#clip0_2_3677)">
<path d="M62.8655 47.8501C69.5746 46.2517 73.7292 39.4682 72.145 32.6987C70.5608 25.9293 63.8377 21.7374 57.1285 23.3358C50.4193 24.9343 46.2647 31.7178 47.849 38.4872C49.4332 45.2567 56.1563 49.4486 62.8655 47.8501Z" fill="url(#paint1_linear_2_3677)"/>
<path d="M68.4878 54H51.5122C42.3938 54 35 61.2946 35 70.2906V81H85V70.2906C85 61.2946 77.6062 54 68.4878 54Z" fill="url(#paint2_linear_2_3677)"/>
</g>
<defs>
<filter id="filter0_d_2_3677" x="0" y="0" width="120" height="120" filterUnits="userSpaceOnUse" color-interpolation-filters="sRGB">
<feFlood flood-opacity="0" result="BackgroundImageFix"/>
<feColorMatrix in="SourceAlpha" type="matrix" values="0 0 0 0 0 0 0 0 0 0 0 0 0 0 0 0 0 0 127 0" result="hardAlpha"/>
<feOffset dy="4"/>
<feGaussianBlur stdDeviation="6.5"/>
<feComposite in2="hardAlpha" operator="out"/>
<feColorMatrix type="matrix" values="0 0 0 0 0.996078 0 0 0 0 0.671373 0 0 0 0 0.290196 0 0 0 0.3 0"/>
<feBlend mode="normal" in2="BackgroundImageFix" result="effect1_dropShadow_2_3677"/>
<feBlend mode="normal" in="SourceGraphic" in2="effect1_dropShadow_2_3677" result="shape"/>
</filter>
<linearGradient id="paint0_linear_2_3677" x1="33.3365" y1="103" x2="83.0481" y2="9" gradientUnits="userSpaceOnUse">
<stop stop-color="#FF927A"/>
<stop offset="1" stop-color="#FFD056" stop-opacity="0.58"/>
</linearGradient>
<linearGradient id="paint1_linear_2_3677" x1="57.1285" y1="23.3358" x2="64.0985" y2="172.972" gradientUnits="userSpaceOnUse">
<stop stop-color="white"/>
<stop offset="1" stop-color="white" stop-opacity="0"/>
</linearGradient>
<linearGradient id="paint2_linear_2_3677" x1="62.2321" y1="58.7375" x2="53.2567" y2="110.316" gradientUnits="userSpaceOnUse">
<stop stop-color="white"/>
<stop offset="1" stop-color="white" stop-opacity="0"/>
</linearGradient>
<clipPath id="clip0_2_3677">
<rect width="56" height="60" fill="white" transform="translate(32 23)"/>
</clipPath>
</defs>
</svg>
