<svg class="header__logo" xmlns="http://www.w3.org/2000/svg" id="Layer_1" x="0px" y="0px" viewBox="0 0 348 66" enable-background="new 0 0 24 24" xml:space="preserve" fill="#f70">
					 <g id="logo">
                    <path class="header_logo_money part1" d="M22.815,45.056c0.625,1.96,1.393,3.3,2.328,4.021c1.053,0.855,2.365,1.282,3.942,1.282   c1.79,0,3.226-0.509,4.301-1.54c0.428-0.428,0.788-0.961,1.075-1.601c0.281-0.627,0.687-1.788,1.217-3.481l6.91-22.999   l3.765,23.022c0.338,2.135,0.833,3.639,1.502,4.522c1.024,1.384,2.498,2.076,4.406,2.076c1.334,0,2.542-0.427,3.618-1.282   c1.312-1.105,1.968-2.533,1.968-4.303c0-0.603-0.112-1.567-0.355-2.896L51.222,5.872c-0.259-1.576-1.053-2.924-2.365-4.052   c-1.458-1.186-3.131-1.783-5.017-1.783c-1.65,0-3.102,0.464-4.363,1.394c-1.436,1.046-2.453,2.527-3.049,4.442l-7.558,24.111   L20.633,4.796c-0.455-1.406-1.251-2.533-2.4-3.366C16.943,0.479,15.412,0,13.647,0C11.55,0,9.768,0.634,8.31,1.9   C7.189,2.873,6.459,4.376,6.123,6.409l-5.8,35.568C0.109,43.244,0,44.164,0,44.739c0,1.842,0.669,3.286,2.004,4.376   c1.046,0.827,2.232,1.245,3.543,1.245c1.937,0,3.395-0.692,4.375-2.076c0.642-0.899,1.128-2.418,1.467-4.522l3.653-23.022   L22.815,45.056z M63.872,17.623c-3.204,3.439-4.802,7.935-4.802,13.495c0,5.385,1.599,9.842,4.802,13.365   c1.672,1.841,3.677,3.288,6.013,4.312c2.342,1.053,4.758,1.564,7.238,1.564c2.265,0,4.503-0.457,6.698-1.356   c2.55-1.031,4.728-2.532,6.521-4.521c3.198-3.523,4.802-8.009,4.802-13.432c0-5.436-1.604-9.921-4.802-13.429   c-1.65-1.797-3.64-3.217-5.982-4.277c-2.342-1.067-4.679-1.602-7.021-1.602C72.013,11.744,67.52,13.703,63.872,17.623   L63.872,17.623z M82.031,24.069c1.672,1.746,2.512,4.08,2.512,7.021c0,2.909-0.839,5.229-2.512,6.953   c-1.458,1.519-3.152,2.284-5.083,2.284c-2.179,0-3.978-1.002-5.414-3.006c-1.194-1.666-1.79-3.765-1.79-6.27   c0-2.512,0.596-4.582,1.79-6.231c1.458-2.034,3.234-3.044,5.334-3.044C78.879,21.775,80.596,22.543,82.031,24.069L82.031,24.069z    M108.899,13.142c-0.913-0.788-2.034-1.178-3.367-1.178c-1.606,0-2.931,0.574-3.978,1.716c-1.007,1.098-1.503,2.638-1.503,4.62   v24.642c0,2.048,0.236,3.564,0.715,4.522c0.405,0.782,1.042,1.416,1.912,1.932c0.869,0.5,1.792,0.744,2.744,0.744   c0.957,0,1.867-0.244,2.737-0.744c0.87-0.516,1.513-1.149,1.919-1.932c0.478-0.985,0.722-2.489,0.722-4.522V27.404   c0-1.597,0.485-3.012,1.466-4.234c1.164-1.43,2.704-2.145,4.613-2.145c1.842,0,3.345,0.665,4.522,2.004   c1.024,1.171,1.54,2.786,1.54,4.841v15.072c0,2.048,0.235,3.564,0.709,4.522c0.411,0.782,1.048,1.416,1.924,1.932   c0.87,0.5,1.78,0.744,2.732,0.744c0.963,0,1.877-0.248,2.764-0.765c0.887-0.514,1.515-1.144,1.898-1.911   c0.478-0.958,0.714-2.475,0.714-4.522V25.321c0-2.241-0.199-4.058-0.604-5.438c-0.501-1.774-1.606-3.396-3.3-4.876   c-2.455-2.173-5.562-3.263-9.312-3.263c-2.151,0-4.073,0.353-5.768,1.038c-1.245,0.529-2.637,1.51-4.192,2.94   C110.027,14.506,109.495,13.644,108.899,13.142L108.899,13.142z M169.751,34.643c3.13,0,4.692-1.419,4.692-4.232   c0-1.532-0.17-3.064-0.531-4.583c-1.032-4.301-3.108-7.706-6.234-10.216c-3.248-2.579-6.96-3.868-11.137-3.868   c-4.781,0-8.907,1.62-12.398,4.839c-4.037,3.75-6.048,8.762-6.048,15.051c0,4.621,1.356,8.596,4.081,11.883   c3.772,4.554,8.938,6.844,15.508,6.844c4.391,0,8.324-0.994,11.788-2.969c2.887-1.649,4.333-3.478,4.333-5.512   c0-0.913-0.355-1.826-1.077-2.737c-0.862-1.107-1.909-1.688-3.151-1.688c-0.908,0-1.733,0.197-2.47,0.551   c-2.438,1.18-3.854,1.864-4.259,2.027c-1.562,0.633-3.101,0.941-4.625,0.941c-2.101,0-3.85-0.524-5.25-1.552   c-1.399-1.038-2.492-2.64-3.275-4.779H169.751z M149.307,27.288c0.685-2.07,1.488-3.588,2.395-4.546   c1.414-1.458,3.116-2.18,5.12-2.18c2.343,0,4.155,0.937,5.452,2.829c0.595,0.854,1.12,2.159,1.569,3.897H149.307z M186.341,17.01   c-0.766-1.908-1.547-3.218-2.328-3.939c-0.885-0.759-1.997-1.145-3.33-1.145c-1.15,0-2.175,0.305-3.086,0.93   c-1.549,1.075-2.328,2.482-2.328,4.227c0,0.958,0.36,2.292,1.082,4.008l10.638,25.151l-4.229,9.923   c-0.744,1.723-1.113,3.071-1.113,4.046c0,1.484,0.606,2.753,1.828,3.8c1.024,0.884,2.209,1.318,3.544,1.318   c1.769,0,3.168-0.68,4.193-2.077c0.41-0.573,0.897-1.527,1.472-2.908l16.399-39.104c0.743-1.741,1.113-3.109,1.113-4.082   c0-1.556-0.637-2.867-1.902-3.942c-1.025-0.862-2.218-1.291-3.574-1.291c-1.368,0-2.496,0.392-3.402,1.188   c-0.816,0.713-1.606,2.047-2.371,4.007l-6.302,15.838L186.341,17.01z"></path>
                    <path class="header_logo_man part2" fill-rule="evenodd" clip-rule="evenodd" d="M344.907,49.375c-0.885,0.517-1.806,0.765-2.75,0.765   c-0.97,0-1.887-0.244-2.748-0.744c-0.877-0.516-1.514-1.149-1.906-1.932c-0.499-0.958-0.722-2.475-0.722-4.522V27.87   c0-2.055-0.522-3.67-1.554-4.841c-1.165-1.339-2.669-2.004-4.496-2.004c-1.929,0-3.468,0.715-4.633,2.145   c-0.986,1.222-1.465,2.637-1.465,4.234v15.538c0,2.033-0.237,3.537-0.724,4.522c-0.402,0.782-1.041,1.416-1.918,1.932   c-0.862,0.5-1.778,0.744-2.736,0.744c-0.957,0-1.861-0.244-2.738-0.744c-0.876-0.516-1.519-1.149-1.918-1.932   c-0.485-0.958-0.708-2.475-0.708-4.522V18.3c0-1.982,0.5-3.522,1.49-4.62c1.059-1.142,2.379-1.716,3.983-1.716   c1.342,0,2.459,0.39,3.375,1.178c0.59,0.502,1.126,1.364,1.6,2.579c1.56-1.43,2.953-2.411,4.191-2.94   c1.695-0.685,3.617-1.038,5.767-1.038c3.759,0,6.852,1.09,9.314,3.263c1.693,1.481,2.796,3.102,3.3,4.876   c0.411,1.379,0.611,3.197,0.611,5.438v17.621c0,2.048-0.238,3.564-0.71,4.522C346.432,48.232,345.79,48.862,344.907,49.375z    M302.136,50.14c-2.506,0-4.304-1.409-5.38-4.266c-1.221,1.489-2.283,2.518-3.212,3.094c-1.562,0.928-3.455,1.392-5.709,1.392   c-3.979,0-7.535-1.364-10.628-4.117c-4.26-3.758-6.382-8.877-6.382-15.368c0-5.781,1.865-10.528,5.621-14.255   c3.302-3.248,7.065-4.876,11.292-4.876c2.372,0,4.416,0.552,6.196,1.649c0.753,0.501,1.739,1.362,2.947,2.58   c0.59-1.407,1.266-2.386,1.991-2.94c0.984-0.714,2.084-1.068,3.336-1.068c1.37,0,2.615,0.497,3.689,1.502   c1.106,1.048,1.65,2.388,1.65,4.008v26.322c0,1.989-0.544,3.567-1.65,4.743C304.896,49.602,303.651,50.14,302.136,50.14z    M294.215,24.105c-1.428-1.556-3.197-2.33-5.289-2.33c-2.181,0-3.969,0.863-5.344,2.58c-1.338,1.724-2.015,3.955-2.015,6.696   c0,2.726,0.677,4.95,2.015,6.659c1.375,1.753,3.208,2.616,5.477,2.616c1.989,0,3.684-0.772,5.085-2.321   c1.587-1.751,2.371-4.073,2.371-6.99C296.515,28.054,295.746,25.748,294.215,24.105z M263.053,50.36   c-1.914,0-3.367-0.692-4.41-2.076c-0.651-0.884-1.165-2.388-1.491-4.522l-3.765-23.022l-6.918,22.999   c-0.529,1.693-0.927,2.854-1.209,3.481c-0.293,0.64-0.646,1.173-1.088,1.601c-1.076,1.031-2.504,1.54-4.288,1.54   c-1.577,0-2.89-0.427-3.935-1.282c-0.94-0.722-1.715-2.062-2.334-4.021l-7.773-24.317l-3.659,23.022   c-0.333,2.104-0.824,3.623-1.461,4.522c-0.985,1.384-2.438,2.076-4.377,2.076c-1.316,0-2.495-0.418-3.542-1.245   c-1.341-1.09-2.009-2.534-2.009-4.376c0-0.575,0.108-1.495,0.321-2.762l5.8-35.568c0.339-2.032,1.068-3.536,2.192-4.508   c1.453-1.267,3.227-1.9,5.33-1.9c1.779,0,3.299,0.479,4.582,1.43c1.148,0.833,1.95,1.96,2.407,3.366l8.238,25.187l7.553-24.111   c0.602-1.915,1.611-3.396,3.04-4.442c1.268-0.929,2.738-1.394,4.389-1.394c1.872,0,3.553,0.598,5.009,1.783   c1.312,1.128,2.108,2.476,2.36,4.052l6.269,36.008c0.25,1.328,0.367,2.293,0.367,2.896c0,1.77-0.669,3.197-1.981,4.303   C265.607,49.933,264.393,50.36,263.053,50.36z"></path>
                </g>
            </svg>