<svg width="182" height="64" viewBox="0 0 182 64" fill="none" xmlns="http://www.w3.org/2000/svg">
<path d="M20.5459 0.000244141C24.9009 0.000244141 26.2693 3.12414 27.4174 6.24314C27.8996 7.56762 39.2166 38.5618 39.5569 39.4921C39.6475 39.7516 39.5863 40.1776 39.1873 40.3318C38.7858 40.4836 32.9058 42.7702 32.5802 42.8926C32.2546 43.0175 31.8898 42.8363 31.7723 42.5107C31.6499 42.19 29.2093 35.433 28.9351 34.6789H12.1616C11.8972 35.433 9.42717 42.2047 9.31701 42.5107C9.2044 42.8216 8.85434 43.0322 8.50673 42.8926C8.15912 42.7555 2.25704 40.4689 1.90453 40.3318C1.56671 40.1996 1.41248 39.8153 1.52999 39.4921C1.94614 38.3316 13.0918 7.83447 13.6597 6.24314C14.7662 3.17065 16.1811 0.000244141 20.5459 0.000244141ZM0.634026 55.4592C0.281517 55.4592 0 55.753 0 56.1104V63.3547C0 63.7121 0.281517 64.001 0.634026 64.001H40.4406C40.8005 64.001 41.082 63.7121 41.082 63.3547V56.1104C41.082 55.753 40.8005 55.4592 40.4406 55.4592H0.634026ZM20.5067 10.1211L14.8372 27.1483H26.2693L20.5802 10.1211H20.5067ZM105.581 38.0403C104.747 38.3219 104.196 38.3904 103.54 38.3904C102.184 38.3904 101.432 37.8542 101.432 36.4637C101.432 35.0143 102.387 34.5296 104.262 34.5296C104.72 34.5296 105.17 34.5957 105.381 34.6691V35.7072C105.381 36.826 105.442 37.5605 105.581 38.0403ZM110.401 39.7002C109.4 38.1799 109.138 37.2838 109.138 35.3669V31.4742C109.138 29.3786 108.893 28.6221 108.34 27.8583C107.569 26.7762 106.284 26.3061 103.922 26.3061C102.25 26.3061 100.627 26.4873 99.0551 26.8888L99.623 29.6552C100.685 29.5059 101.799 29.3786 102.585 29.3786C105.094 29.3786 105.381 29.7409 105.381 31.6236V32.3262C104.823 32.1769 104.196 32.0692 103.469 32.0692C99.6915 32.0692 97.6964 33.9175 97.6964 36.9778C97.6964 39.8471 99.8286 41.4115 102.426 41.4115C103.395 41.4115 104.409 41.2328 105.212 40.9047C105.696 40.6942 105.907 40.5693 106.534 40.1629C106.911 40.7113 107.667 41.2719 107.976 41.3772L110.401 39.7002ZM147.765 38.0403C146.925 38.3219 146.384 38.3904 145.723 38.3904C144.362 38.3904 143.601 37.8542 143.601 36.4637C143.601 35.0143 144.568 34.5296 146.448 34.5296C146.906 34.5296 147.359 34.5957 147.564 34.6691V35.7072C147.564 36.826 147.623 37.5605 147.765 38.0403ZM152.59 39.7002C151.581 38.1799 151.324 37.2838 151.324 35.3669V31.4742C151.324 29.3786 151.075 28.6221 150.517 27.8583C149.755 26.7762 148.468 26.3061 146.098 26.3061C144.428 26.3061 142.796 26.4873 141.224 26.8888L141.785 29.6552C142.849 29.5059 143.966 29.3786 144.774 29.3786C147.268 29.3786 147.564 29.7409 147.564 31.6236V32.3262C147.006 32.1769 146.384 32.0692 145.643 32.0692C141.86 32.0692 139.858 33.9175 139.858 36.9778C139.858 39.8471 141.995 41.4115 144.605 41.4115C145.586 41.4115 146.59 41.2328 147.386 40.9047C147.878 40.6942 148.081 40.5693 148.707 40.1629C149.089 40.7113 149.846 41.2719 150.157 41.3772L152.59 39.7002ZM182 41.0859C182 41.0859 179.929 36.6718 179.422 35.668C178.852 34.5369 178.323 33.756 177.158 33.4744V33.4108C177.939 33.2614 178.561 32.7889 179.241 31.3445C179.885 29.9368 180.076 29.6332 180.455 29.2978C180.827 28.9648 181.337 29.0848 181.337 29.0848L181.528 26.4824C180.987 26.4089 180.387 26.4065 179.767 26.4408C178.739 26.502 178.208 26.7982 177.701 27.3074C177.305 27.6967 177.035 28.2794 176.703 28.9477C176.35 29.6773 176.071 30.2648 175.704 31.0066C175.339 31.768 175.168 32.1108 174.186 32.1108H173.547V20.5822H169.765V41.0859H173.547V35.1906L174.064 35.1808C175.148 35.1808 175.339 35.4526 175.912 36.5959C176.583 37.9595 177.868 41.0859 177.868 41.0859H182ZM75.4541 41.0859H79.8188L73.2166 20.925C72.5214 20.6924 71.6622 20.548 70.7442 20.548C69.743 20.548 69.3856 20.6801 68.6022 20.925L61.6157 41.0859H65.8042C65.8042 41.0859 66.3696 39.3183 67.0355 37.1271H74.2717C74.918 39.3158 75.4541 41.0859 75.4541 41.0859ZM68.0979 33.7462C68.0979 33.7462 69.3072 29.6993 69.4957 29.0701C69.9755 27.4396 70.705 24.8494 70.705 24.8494H70.825C70.825 24.8494 71.5006 27.5327 71.9412 29.0407C72.1077 29.6406 73.2631 33.7462 73.2631 33.7462H68.0979ZM116.845 31.44C115.51 31.44 114.426 32.5294 114.426 33.8637C114.426 35.2077 115.51 36.2898 116.845 36.2898C118.181 36.2898 119.261 35.2077 119.261 33.8637C119.261 32.5294 118.181 31.44 116.845 31.44ZM85.0012 20.5822H81.2093V41.0834H85.0012V20.5822ZM160.338 29.5647C162.433 29.6087 162.693 30.0421 162.693 31.7999V41.0859H166.45V31.4742C166.45 29.3786 166.206 28.6221 165.647 27.8583C164.876 26.7762 163.361 26.3061 160.798 26.3061C158.262 26.3061 156.646 26.5754 154.568 27.1948V41.0859H158.365V29.7409C159.361 29.5965 159.537 29.5647 160.338 29.5647ZM94.3794 20.2174C92.0098 20.2174 90.7197 20.6875 89.9608 21.7672C89.4027 22.5334 89.1554 23.3071 89.1554 25.4076V27.1948H87.2729V30.2599H89.1554V41.0859H92.9155L92.9057 30.2599H96.6536V27.1948H92.9057L92.9155 25.5521C92.9155 23.6718 93.202 23.3071 95.7136 23.3071C95.9853 23.3071 96.2913 23.3218 96.6169 23.3462L97.2093 20.4011C96.2815 20.2786 95.3317 20.2174 94.3794 20.2174ZM124.548 20.4084C125.838 20.3325 128.722 20.2248 130.531 20.2248C130.862 20.2248 131.204 20.2272 131.547 20.2444C135.104 20.2444 137.143 22.8346 137.143 25.8752C137.143 27.944 136.196 29.3174 133.975 30.1351C136.587 30.7129 137.956 32.7522 137.956 35.2469C137.956 37.0782 137.439 38.5324 136.492 39.5239C135.263 40.7333 133.403 41.4115 130.925 41.4115C128.722 41.4115 125.956 41.3429 124.548 41.2597V20.4084ZM130.531 23.7673C129.905 23.7673 129.128 23.7796 128.36 23.8065V28.7298H130.534C131.395 28.7298 132.088 28.4899 132.561 28.0272C133.011 27.5914 133.246 26.9745 133.246 26.2425C133.246 24.6683 132.394 23.7771 130.81 23.7673H130.531ZM130.61 37.8763H130.774C132.749 37.8763 133.958 36.826 133.973 34.7108C133.953 33.9518 133.662 33.2516 133.141 32.7449C132.57 32.172 131.763 31.8733 130.815 31.8733H128.36V37.8542C129.053 37.8689 129.816 37.8714 130.61 37.8763Z" fill="#EE2A23"/>
</svg>
