<svg width="134" height="22" viewBox="0 0 151 24" fill="#e30611" xmlns="http://www.w3.org/2000/svg" data-testid="icon_other/mtsLogo" class="Svg-sc-1cvehoj-1 gEwQyG"><path fill-rule="evenodd" clip-rule="evenodd" d="M0 14.5335C0 19.2468 2.64609 24 8.5715 24c5.9201 0 8.5715-4.7532 8.5715-9.4665 0-3.2197-1.0873-6.9271-2.9021-9.92168C12.476 1.72004 10.3555 0 8.5715 0 6.78241 0 4.66095 1.72004 2.91143 4.61182 1.08807 7.6064 0 11.3138 0 14.5335zm60.8569-7.46229h-6V1.28564h18.4287v5.78557h-6V22.7141h-6.4287V7.07121zm26.1424.00025h9.4293V1.28564h-9.4285c-8.6635 0-13.2887 4.30717-13.2887 10.71436 0 6.4072 4.6252 10.7144 13.2887 10.7144h9.4285v-5.7858h-9.4293c-4.0085 0-6.6451-1.4331-6.6451-4.9286 0-3.49551 2.6366-4.92854 6.6451-4.92854zM38.355 14.0761l3.4272-12.79046h11.3602V22.7144h-6.4288V5.2733l-4.6731 17.4411h-7.371L29.9994 5.28438l-.0002 17.43002h-6.4284V1.28564h11.3569L38.355 14.0761zm74.083-6.57929h-2.267v2.09626h2.267c.574 0 .916-.29508.916-.83861v-.38805c0-.55916-.295-.8696-.916-.8696zm.574 4.50299h-5.869V1.28564h8.633v2.56218h-5.605v1.39726h2.841c2.376 0 3.525 1.18029 3.525 3.26093 0 2.18919-1.149 3.49379-3.525 3.49379zm10.512-4.37876h-2.392l1.196-3.95943 1.196 3.95943zM128.12 12l-3.308-10.71436h-4.502L117.002 12h2.826l.606-2.04962h3.789L124.843 12h3.277zm7.655 0V7.85412h-3.463V12h-3.105V1.28564h3.105v3.92844h3.463V1.28564h3.106V12h-3.106zm8.616-6.78592h-.544V1.28564h-3.105V12h3.105V7.85412h.451L147.171 12h3.586l-3.882-5.60562 3.572-5.10874h-3.276l-2.78 3.92844z"></path></svg>