<svg width="112" height="112" viewBox="0 0 112 112" fill="none" xmlns="http://www.w3.org/2000/svg">
<g filter="url(#filter0_d_2_3180)">
<circle cx="56" cy="50" r="47" fill="url(#paint0_linear_2_3180)" shape-rendering="crispEdges"/>
</g>
<path d="M9 47.2461H28.532C28.7128 40.3512 29.5559 33.8557 30.9618 27.9688H14.714C11.6043 33.7731 9.40648 40.3136 9 47.2461Z" fill="url(#paint1_linear_2_3180)"/>
<path d="M28.532 52.7539H9C9.40648 59.6864 11.6043 66.2269 14.714 72.0312H30.962C29.5561 66.1443 28.7128 59.6488 28.532 52.7539Z" fill="url(#paint2_linear_2_3180)"/>
<path d="M53.2456 47.2461V27.9688H36.6558C35.1484 33.8026 34.2356 40.3573 34.036 47.2461H53.2456Z" fill="url(#paint3_linear_2_3180)"/>
<path d="M53.2466 22.4609V3C47.216 4.68429 41.8741 12.3895 38.3488 22.4609H53.2466Z" fill="url(#paint4_linear_2_3180)"/>
<path d="M53.2466 97V77.5391H38.3488C41.8741 87.6105 47.216 95.3157 53.2466 97Z" fill="url(#paint5_linear_2_3180)"/>
<path d="M59.0988 3.10298C58.9862 3.06711 58.9299 3.04918 58.882 3.06168C58.8409 3.07241 58.8034 3.09981 58.7807 3.13572C58.7543 3.17756 58.7543 3.23847 58.7543 3.36029V22.4609H73.6521C70.194 12.5817 64.9881 4.97924 59.0988 3.10298Z" fill="url(#paint6_linear_2_3180)"/>
<path d="M77.9639 47.2461C77.7641 40.3573 76.8515 33.8026 75.3441 27.9688H58.7543V47.2461H77.9639Z" fill="url(#paint7_linear_2_3180)"/>
<path d="M53.2456 52.7539H34.036C34.2358 59.6431 35.1484 66.1974 36.6558 72.0312H53.2456V52.7539Z" fill="url(#paint8_linear_2_3180)"/>
<path d="M79.5026 22.4605H93.7771C88.0766 14.6627 80.0515 8.07497 70.7021 4.97187C74.2952 9.21362 77.3005 15.5922 79.5026 22.4605Z" fill="url(#paint9_linear_2_3180)"/>
<path d="M32.4984 77.5391H18.2239C23.9243 85.3368 31.9495 91.9246 41.2989 95.0277C37.7057 90.7859 34.7005 84.4073 32.4984 77.5391Z" fill="url(#paint10_linear_2_3180)"/>
<path d="M32.4984 22.4605C34.7003 15.5922 37.7057 9.21362 41.2987 4.97187C31.9495 8.07497 23.9243 14.6627 18.2239 22.4605H32.4984Z" fill="url(#paint11_linear_2_3180)"/>
<path d="M79.5024 77.5391C77.3005 84.4073 74.2951 90.7859 70.7021 95.0277C80.0513 91.9246 88.0764 85.3368 93.7771 77.5391H79.5024Z" fill="url(#paint12_linear_2_3180)"/>
<path d="M58.7543 52.7539V72.0312H75.3441C76.8515 66.1974 77.7643 59.6431 77.9639 52.7539H58.7543Z" fill="url(#paint13_linear_2_3180)"/>
<path d="M81.0382 27.9688C82.4439 33.8557 83.2872 40.3512 83.468 47.2461H103C102.594 40.3136 100.396 33.7731 97.286 27.9688H81.0382Z" fill="url(#paint14_linear_2_3180)"/>
<path d="M58.7543 77.5391V97C64.7848 95.3157 70.1267 87.6105 73.6521 77.5391H58.7543Z" fill="url(#paint15_linear_2_3180)"/>
<path d="M103 52.7539H83.468C83.2872 59.6488 82.4441 66.1443 81.0382 72.0312H97.2862C100.396 66.2269 102.594 59.6864 103 52.7539Z" fill="url(#paint16_linear_2_3180)"/>
<defs>
<filter id="filter0_d_2_3180" x="0" y="0" width="112" height="112" filterUnits="userSpaceOnUse" color-interpolation-filters="sRGB">
<feFlood flood-opacity="0" result="BackgroundImageFix"/>
<feColorMatrix in="SourceAlpha" type="matrix" values="0 0 0 0 0 0 0 0 0 0 0 0 0 0 0 0 0 0 127 0" result="hardAlpha"/>
<feOffset dy="6"/>
<feGaussianBlur stdDeviation="4.5"/>
<feComposite in2="hardAlpha" operator="out"/>
<feColorMatrix type="matrix" values="0 0 0 0 0.992157 0 0 0 0 0.835294 0 0 0 0 0.286275 0 0 0 0.3 0"/>
<feBlend mode="normal" in2="BackgroundImageFix" result="effect1_dropShadow_2_3180"/>
<feBlend mode="normal" in="SourceGraphic" in2="effect1_dropShadow_2_3180" result="shape"/>
</filter>
<linearGradient id="paint0_linear_2_3180" x1="56" y1="3" x2="56" y2="97" gradientUnits="userSpaceOnUse">
<stop stop-color="white"/>
<stop offset="1" stop-color="#FDD549" stop-opacity="0.07"/>
</linearGradient>
<linearGradient id="paint1_linear_2_3180" x1="40.106" y1="7.27273" x2="70.2731" y2="103.029" gradientUnits="userSpaceOnUse">
<stop stop-color="#FDD549"/>
<stop offset="1" stop-color="#F2C732"/>
</linearGradient>
<linearGradient id="paint2_linear_2_3180" x1="40.106" y1="7.27273" x2="70.2731" y2="103.029" gradientUnits="userSpaceOnUse">
<stop stop-color="#FDD549"/>
<stop offset="1" stop-color="#F2C732"/>
</linearGradient>
<linearGradient id="paint3_linear_2_3180" x1="40.106" y1="7.27273" x2="70.2731" y2="103.029" gradientUnits="userSpaceOnUse">
<stop stop-color="#FDD549"/>
<stop offset="1" stop-color="#F2C732"/>
</linearGradient>
<linearGradient id="paint4_linear_2_3180" x1="40.106" y1="7.27273" x2="70.2731" y2="103.029" gradientUnits="userSpaceOnUse">
<stop stop-color="#FDD549"/>
<stop offset="1" stop-color="#F2C732"/>
</linearGradient>
<linearGradient id="paint5_linear_2_3180" x1="40.106" y1="7.27273" x2="70.2731" y2="103.029" gradientUnits="userSpaceOnUse">
<stop stop-color="#FDD549"/>
<stop offset="1" stop-color="#F2C732"/>
</linearGradient>
<linearGradient id="paint6_linear_2_3180" x1="40.106" y1="7.27273" x2="70.2731" y2="103.029" gradientUnits="userSpaceOnUse">
<stop stop-color="#FDD549"/>
<stop offset="1" stop-color="#F2C732"/>
</linearGradient>
<linearGradient id="paint7_linear_2_3180" x1="40.106" y1="7.27273" x2="70.2731" y2="103.029" gradientUnits="userSpaceOnUse">
<stop stop-color="#FDD549"/>
<stop offset="1" stop-color="#F2C732"/>
</linearGradient>
<linearGradient id="paint8_linear_2_3180" x1="40.106" y1="7.27273" x2="70.2731" y2="103.029" gradientUnits="userSpaceOnUse">
<stop stop-color="#FDD549"/>
<stop offset="1" stop-color="#F2C732"/>
</linearGradient>
<linearGradient id="paint9_linear_2_3180" x1="40.106" y1="7.27273" x2="70.2731" y2="103.029" gradientUnits="userSpaceOnUse">
<stop stop-color="#FDD549"/>
<stop offset="1" stop-color="#F2C732"/>
</linearGradient>
<linearGradient id="paint10_linear_2_3180" x1="40.106" y1="7.27273" x2="70.2731" y2="103.029" gradientUnits="userSpaceOnUse">
<stop stop-color="#FDD549"/>
<stop offset="1" stop-color="#F2C732"/>
</linearGradient>
<linearGradient id="paint11_linear_2_3180" x1="40.106" y1="7.27273" x2="70.2731" y2="103.029" gradientUnits="userSpaceOnUse">
<stop stop-color="#FDD549"/>
<stop offset="1" stop-color="#F2C732"/>
</linearGradient>
<linearGradient id="paint12_linear_2_3180" x1="40.106" y1="7.27273" x2="70.2731" y2="103.029" gradientUnits="userSpaceOnUse">
<stop stop-color="#FDD549"/>
<stop offset="1" stop-color="#F2C732"/>
</linearGradient>
<linearGradient id="paint13_linear_2_3180" x1="40.106" y1="7.27273" x2="70.2731" y2="103.029" gradientUnits="userSpaceOnUse">
<stop stop-color="#FDD549"/>
<stop offset="1" stop-color="#F2C732"/>
</linearGradient>
<linearGradient id="paint14_linear_2_3180" x1="40.106" y1="7.27273" x2="70.2731" y2="103.029" gradientUnits="userSpaceOnUse">
<stop stop-color="#FDD549"/>
<stop offset="1" stop-color="#F2C732"/>
</linearGradient>
<linearGradient id="paint15_linear_2_3180" x1="40.106" y1="7.27273" x2="70.2731" y2="103.029" gradientUnits="userSpaceOnUse">
<stop stop-color="#FDD549"/>
<stop offset="1" stop-color="#F2C732"/>
</linearGradient>
<linearGradient id="paint16_linear_2_3180" x1="40.106" y1="7.27273" x2="70.2731" y2="103.029" gradientUnits="userSpaceOnUse">
<stop stop-color="#FDD549"/>
<stop offset="1" stop-color="#F2C732"/>
</linearGradient>
</defs>
</svg>
