<svg width="130" height="129" viewBox="0 0 130 129" fill="none" xmlns="http://www.w3.org/2000/svg">
<g filter="url(#filter0_d_2_3166)">
<path d="M65 102.071C90.9574 102.071 112 81.4605 112 56.0357C112 30.6109 90.9574 10 65 10C39.0426 10 18 30.6109 18 56.0357C18 81.4605 39.0426 102.071 65 102.071Z" fill="url(#paint0_linear_2_3166)" shape-rendering="crispEdges"/>
</g>
<path d="M68.1022 68.4471H60.6197V74H54.7637V68.4471H50V63.5673H54.7637V60.9952H50V56.1154H54.7637V39H67.7072C71.4407 39 74.4229 40.0096 76.6538 42.0288C78.8846 44.0321 80 46.7003 80 50.0337C80 53.4311 78.9388 56.0994 76.8164 58.0385C74.694 59.9615 71.7428 60.9471 67.9628 60.9952H60.6197V63.5673H68.1022V68.4471ZM60.6197 56.1154H67.6143C69.7211 56.1154 71.3323 55.6106 72.4477 54.601C73.5631 53.5913 74.1208 52.0849 74.1208 50.0817C74.1208 48.2869 73.5709 46.8205 72.471 45.6827C71.3865 44.5449 69.8838 43.9519 67.9628 43.9038H60.6197V56.1154Z" fill="url(#paint1_linear_2_3166)"/>
<defs>
<filter id="filter0_d_2_3166" x="0" y="0" width="130" height="128.071" filterUnits="userSpaceOnUse" color-interpolation-filters="sRGB">
<feFlood flood-opacity="0" result="BackgroundImageFix"/>
<feColorMatrix in="SourceAlpha" type="matrix" values="0 0 0 0 0 0 0 0 0 0 0 0 0 0 0 0 0 0 127 0" result="hardAlpha"/>
<feOffset dy="8"/>
<feGaussianBlur stdDeviation="9"/>
<feComposite in2="hardAlpha" operator="out"/>
<feColorMatrix type="matrix" values="0 0 0 0 0.55 0 0 0 0 0.61 0 0 0 0 1 0 0 0 0.5 0"/>
<feBlend mode="normal" in2="BackgroundImageFix" result="effect1_dropShadow_2_3166"/>
<feBlend mode="normal" in="SourceGraphic" in2="effect1_dropShadow_2_3166" result="shape"/>
</filter>
<linearGradient id="paint0_linear_2_3166" x1="52" y1="77" x2="114.5" y2="16.5" gradientUnits="userSpaceOnUse">
<stop stop-color="#8C9CFF"/>
<stop offset="1" stop-color="#3D72D8" stop-opacity="0.33"/>
</linearGradient>
<linearGradient id="paint1_linear_2_3166" x1="65" y1="36" x2="65" y2="147.5" gradientUnits="userSpaceOnUse">
<stop stop-color="#F6F9F9"/>
<stop offset="1" stop-color="#F6F9F9" stop-opacity="0"/>
</linearGradient>
</defs>
</svg>
