<svg width="512" height="462" viewBox="0 0 512 462" fill="none" xmlns="http://www.w3.org/2000/svg">
<circle cx="116" cy="102" r="79" fill="url(#paint0_linear_2_3116)"/>
<g filter="url(#filter0_d_2_3116)">
<rect x="165" y="68" width="287" height="326" rx="13.3997" fill="white"/>
</g>
<circle cx="439" cy="82" r="34" fill="url(#paint1_linear_2_3116)"/>
<circle cx="131" cy="383" r="15" fill="url(#paint2_linear_2_3116)"/>
<rect x="233.137" y="356.795" width="175.863" height="11.0741" rx="5.53704" fill="#EFF2F3"/>
<rect x="233.137" y="328.002" width="120.891" height="11.0741" rx="5.53704" fill="#EFF2F3"/>
<rect x="233" y="299" width="145" height="11" rx="5.5" fill="#EFF2F3"/>
<rect x="194" y="357" width="11" height="11" rx="5.5" fill="#EFF2F3"/>
<rect x="195" y="328" width="11" height="11" rx="5.5" fill="#EFF2F3"/>
<rect x="195" y="299" width="11" height="11" rx="5.5" fill="#EFF2F3"/>
<circle cx="309" cy="187" r="75" fill="#6FE09C"/>
<path d="M280 191.167L300.938 212L347 162" stroke="white" stroke-width="10" stroke-linecap="round" stroke-linejoin="round"/>
<g filter="url(#filter1_d_2_3116)">
<path d="M487.646 162.646C487.483 162.459 487.332 162.272 487.152 162.092C486.977 161.917 486.784 161.76 486.598 161.597L477.19 152.19C474.89 149.89 471.063 149.997 468.645 152.415L465.02 156.04L432.38 188.681C431.554 189.506 428.548 193.786 429.331 194.57C430.115 195.353 434.394 192.347 435.22 191.521L465.995 160.747C467.023 159.719 468.65 159.67 469.631 160.651C470.093 161.113 470.055 161.883 469.551 162.365C469.486 162.431 469.414 162.502 469.343 162.573L372.93 258.986C368.248 263.668 358.524 280.078 360.976 286.25C360.976 286.25 360.975 286.273 360.969 286.279L359.406 287.842C358.753 288.495 358.598 289.541 359.159 290.209C359.781 290.962 360.932 290.972 361.645 290.259L363.446 288.458C363.452 288.452 363.463 288.452 363.475 288.452C369.958 290.288 385.71 280.905 390.286 276.329L486.698 179.917C491.512 175.104 491.917 167.63 487.787 162.798L487.793 162.792L487.646 162.646Z" fill="url(#paint3_linear_2_3116)"/>
</g>
<defs>
<filter id="filter0_d_2_3116" x="122.654" y="35.4444" width="371.692" height="410.692" filterUnits="userSpaceOnUse" color-interpolation-filters="sRGB">
<feFlood flood-opacity="0" result="BackgroundImageFix"/>
<feColorMatrix in="SourceAlpha" type="matrix" values="0 0 0 0 0 0 0 0 0 0 0 0 0 0 0 0 0 0 127 0" result="hardAlpha"/>
<feOffset dy="9.79038"/>
<feGaussianBlur stdDeviation="21.173"/>
<feColorMatrix type="matrix" values="0 0 0 0 0.386528 0 0 0 0 0.398292 0 0 0 0 0.504167 0 0 0 0.21 0"/>
<feBlend mode="normal" in2="BackgroundImageFix" result="effect1_dropShadow_2_3116"/>
<feBlend mode="normal" in="SourceGraphic" in2="effect1_dropShadow_2_3116" result="shape"/>
</filter>
<filter id="filter1_d_2_3116" x="348.814" y="144.531" width="151.805" height="160.253" filterUnits="userSpaceOnUse" color-interpolation-filters="sRGB">
<feFlood flood-opacity="0" result="BackgroundImageFix"/>
<feColorMatrix in="SourceAlpha" type="matrix" values="0 0 0 0 0 0 0 0 0 0 0 0 0 0 0 0 0 0 127 0" result="hardAlpha"/>
<feOffset dy="4"/>
<feGaussianBlur stdDeviation="5"/>
<feComposite in2="hardAlpha" operator="out"/>
<feColorMatrix type="matrix" values="0 0 0 0 0.55 0 0 0 0 0.61 0 0 0 0 1 0 0 0 0.5 0"/>
<feBlend mode="normal" in2="BackgroundImageFix" result="effect1_dropShadow_2_3116"/>
<feBlend mode="normal" in="SourceGraphic" in2="effect1_dropShadow_2_3116" result="shape"/>
</filter>
<linearGradient id="paint0_linear_2_3116" x1="116" y1="23" x2="116" y2="171" gradientUnits="userSpaceOnUse">
<stop stop-color="#56C182" stop-opacity="0.73"/>
<stop offset="1" stop-color="#68D293" stop-opacity="0.11"/>
</linearGradient>
<linearGradient id="paint1_linear_2_3116" x1="439" y1="48" x2="439" y2="116" gradientUnits="userSpaceOnUse">
<stop stop-color="#F5B1A8"/>
<stop offset="1" stop-color="#FDECC2" stop-opacity="0.17"/>
</linearGradient>
<linearGradient id="paint2_linear_2_3116" x1="131" y1="368" x2="131" y2="398" gradientUnits="userSpaceOnUse">
<stop stop-color="#8798FE"/>
<stop offset="1" stop-color="#3DD8BF" stop-opacity="0"/>
</linearGradient>
<linearGradient id="paint3_linear_2_3116" x1="342.914" y1="257.864" x2="517.012" y2="159.939" gradientUnits="userSpaceOnUse">
<stop offset="0.3625" stop-color="#8A98FE"/>
<stop offset="1" stop-color="#8C9CFF"/>
</linearGradient>
</defs>
</svg>
